<?xml version="1.0" encoding="iso-8859-1"?>
<!-- Generator: Adobe Illustrator 16.0.0, SVG Export Plug-In . SVG Version: 6.00 Build 0)  -->
<!DOCTYPE svg PUBLIC "-//W3C//DTD SVG 1.1//EN" "http://www.w3.org/Graphics/SVG/1.1/DTD/svg11.dtd">
<svg version="1.1"
	 id="Capa_1" text-rendering="geometricPrecision" image-rendering="optimizeQuality" shape-rendering="geometricPrecision"
	 xmlns="http://www.w3.org/2000/svg" xmlns:xlink="http://www.w3.org/1999/xlink" x="0px" y="0px" width="500px" height="500px"
	 viewBox="0 0 500 500" style="enable-background:new 0 0 500 500;" xml:space="preserve">
<path d="M407.608,282.596c-14.921-14.042-28.274-17.582-44.084-17.582c0,0-6.384,0.169-1.303,6.591
	c6.722,8.498,55.875,72.606,55.105,125.066c-0.891,60.735-61.031,57.291-61.031,57.291c25.298-48.092,12.55-93.586,8.616-109.521
	c-7.45-29.424-22.118-57.897-44.175-85.35c-27.198-34.234-54.632-50.475-82.277-48.728c-11.832-20.409-22.327-36.799-31.522-50.204
	c50.079-44.708,17.477-66.316-10.92-153.196c-6.598,18.43-11.852,32.065-15.799,40.823c-20.063-2.496-64.571-2.495-84.624,0
	c-3.947-8.758-9.201-22.393-15.799-40.823C51.324,94.076,18.614,115.062,69.272,160.017c5.389,102.186,26.465,129.361,60.56,178.729
	c28.058,40.626,21.066,55.093,34.234,111.271c-99.67,62.788,69.299,38.717,95.5,37.423c67.471-3.281,208.15,37.062,196.977-106.548
	C453.306,339.299,434.438,308.073,407.608,282.596z M101.263,102.086c-30.879-2.315-26.51-19.565-11.198-19.077
	c8.708,0.277,19.524,6.37,26.993,19.077H101.263z M174.354,102.086h-15.796c7.47-12.707,18.287-18.799,26.994-19.077
	C200.867,82.521,205.234,99.771,174.354,102.086z"/>
</svg>
