<?xml version="1.0" standalone="no"?>
<!DOCTYPE svg PUBLIC "-//W3C//DTD SVG 1.1//EN" "http://www.w3.org/Graphics/SVG/1.1/DTD/svg11.dtd" >
<svg xmlns="http://www.w3.org/2000/svg">
<metadata></metadata>
<defs>
<font id="LiberationSerifBoldItalic" horiz-adv-x="1024" >
<font-face units-per-em="2048" ascent="1638" descent="-410" />
<missing-glyph horiz-adv-x="512" />
<glyph horiz-adv-x="0" />
<glyph horiz-adv-x="2048" />
<glyph unicode="&#xd;" horiz-adv-x="512" />
<glyph unicode=" "  horiz-adv-x="512" />
<glyph unicode="&#x09;" horiz-adv-x="512" />
<glyph unicode="&#xa0;" horiz-adv-x="512" />
<glyph unicode="!" horiz-adv-x="797" d="M156 137q0 69 48.5 117.5t117.5 48.5t117.5 -48.5t48.5 -117.5t-48.5 -117.5t-117.5 -48.5q-35 0 -65 13t-53 36q-48 48 -48 117zM320 420l60 921h299l-264 -921h-95z" />
<glyph unicode="&#x22;" horiz-adv-x="1137" d="M368 860l9 481h238l-163 -481h-84zM754 860l9 481h238l-163 -481h-84z" />
<glyph unicode="#" d="M-5 411l22 123h178l103 287h-231l22 123h254l143 397h152l-144 -397h262l144 397h151l-144 -397h152l-22 -123h-174l-101 -287h225l-22 -123h-252l-148 -411h-151l148 411h-262l-146 -411h-154l148 411h-153zM346 534h262l104 287h-263z" />
<glyph unicode="$" d="M-24 51l64 360h88l1 -215q77 -113 242 -115l97 515q-150 78 -201 129q-108 108 -108 254q0 360 452 376l24 128h103l-25 -129q144 -8 269 -41l-56 -319h-89l-7 196q-62 46 -137 57l-82 -437q155 -88 208 -139q110 -109 110 -248q0 -404 -474 -439l-26 -140h-102l25 136 q-212 3 -376 71zM399 1032q0 -94 118 -176l75 394q-193 -18 -193 -218zM476 91q102 23 158 96q51 67 51 155q0 41 -9 71.5t-26 55.5q-28 43 -87 84z" />
<glyph unicode="%" horiz-adv-x="1706" d="M132 882q0 212 101 342q107 138 295 138q273 0 273 -257q0 -44 -13.5 -122t-44.5 -147t-79 -116q-98 -97 -263 -97q-269 0 -269 259zM202 -20l1192 1382h151l-1193 -1382h-150zM323 853q0 -137 82 -137q65 0 115.5 73.5t68 173t17.5 163.5q0 142 -88 142q-63 0 -110 -71 q-55 -84 -80 -269q-5 -37 -5 -75zM932 232q0 212 101 342q107 138 295 138q273 0 273 -257q0 -44 -13.5 -122t-44.5 -147t-79 -116q-98 -97 -263 -97q-269 0 -269 259zM1123 203q0 -137 82 -137q65 0 115.5 73.5t68 173t17.5 163.5q0 142 -88 142q-63 0 -110 -71 q-55 -84 -80 -269q-5 -37 -5 -75z" />
<glyph unicode="&#x26;" horiz-adv-x="1593" d="M50 347q0 170 137 277q84 66 260 129q-86 136 -86 284q0 147 103 235q103 89 283 89q177 0 271 -81q81 -71 81 -164t-31.5 -148t-81.5 -94q-68 -53 -241 -122l312 -351q111 171 139 316l-116 26l11 64h477l-11 -64l-125 -26q-108 -259 -271 -435l173 -194l122 -25 l-11 -63h-364l-101 120q-101 -67 -174 -92q-139 -48 -276.5 -48t-225.5 26.5t-144 74.5q-110 93 -110 266zM316 356q0 -117 66 -184q62 -64 165 -64q197 0 339 120l-369 430q-95 -49 -130 -90q-71 -85 -71 -212zM595 1086q0 -128 80 -243q100 47 136 84q68 70 68 157.5 t-37.5 133.5t-103 46t-104.5 -52t-39 -126z" />
<glyph unicode="'" horiz-adv-x="569" d="M282 860l9 481h238l-163 -481h-84z" />
<glyph unicode="(" horiz-adv-x="682" d="M101 192q0 151 31 331t86 318.5t136 243.5q146 188 451 336l-22 -124q-245 -164 -355 -581q-31 -120 -50 -227q-39 -220 -39 -369q0 -309 161 -452l-22 -104q-287 166 -354 439q-23 96 -23 189z" />
<glyph unicode=")" horiz-adv-x="682" d="M-153 -436l21 124q247 168 356 583q90 348 90 599q0 306 -159 447l18 104q195 -115 284 -263q94 -158 94 -389q0 -128 -31 -305.5t-86.5 -317t-137.5 -244.5q-145 -189 -449 -338z" />
<glyph unicode="*" d="M163 944l317 39l-289 137l126 195l247 -275l-19 324l230 -36l-122 -302l320 179l61 -221l-322 -38l295 -134l-127 -193l-248 270l22 -324l-230 37l119 305l-320 -188z" />
<glyph unicode="+" horiz-adv-x="1167" d="M125 608v143h404v406h143v-406h405v-143h-405v-405h-143v405h-404z" />
<glyph unicode="," horiz-adv-x="512" d="M-44 -225q92 25 142 89q40 50 40 83.5t-10.5 47t-26 24.5t-34 22.5t-33.5 27.5q-37 38 -37 101t45 97t98.5 34t87.5 -12.5t59.5 -37.5t40.5 -61t15 -95.5t-21.5 -124t-67.5 -119.5q-99 -116 -298 -168v92z" />
<glyph unicode="-" horiz-adv-x="682" d="M43 395l33 174h532l-33 -174h-532z" />
<glyph unicode="." horiz-adv-x="512" d="M15 137q0 69 48.5 117.5t117.5 48.5t117.5 -48.5t48.5 -117.5t-48.5 -117.5t-118.5 -48.5q-34 0 -64 13t-52 36q-49 48 -49 117z" />
<glyph unicode="/" horiz-adv-x="569" d="M-124 -20l710 1369h140l-710 -1369h-140z" />
<glyph unicode="0" d="M71 399q0 133 27.5 288t75.5 283t116 215q137 177 353 177q166 0 255.5 -100t89.5 -311q0 -131 -28 -287t-75.5 -286t-115.5 -218q-138 -180 -359 -180q-165 0 -252 103.5t-87 315.5zM316 367q0 -277 119 -277q145 0 223 318q74 305 83 562q0 138 -27.5 209.5t-87.5 71.5 t-100 -37.5t-72 -109.5q-60 -135 -106 -421q-32 -196 -32 -316z" />
<glyph unicode="1" d="M48 0l15 86l246 24l177 1006l-253 -71l15 85l417 222h132l-219 -1242l239 -24l-15 -86h-754z" />
<glyph unicode="2" d="M-25 0l33 189q339 262 496 441q197 226 197 419q0 108 -50 156.5t-115 48.5q-105 0 -175 -52l-77 -194h-87l54 305q201 43 314.5 43t187 -20.5t123.5 -58.5q101 -77 101 -210q0 -237 -233 -457q-130 -122 -288 -228.5t-264 -175.5h672l-39 -206h-850z" />
<glyph unicode="3" d="M-16 20l45 325h92l14 -215q38 -32 151 -46q29 -3 50 -3q138 0 215 79t77 214t-49.5 191.5t-146.5 67.5l-115 7l22 121l113 8q239 15 239 282q0 101 -48 152t-133 51q-90 0 -156 -52l-77 -194h-87l54 305q133 33 205 38t145.5 5t147.5 -20.5t124 -57.5q103 -78 103 -213 q0 -229 -189 -319q-63 -31 -149 -44q195 -31 255 -192q20 -52 20 -135.5t-43 -162t-118.5 -130t-177.5 -77t-276.5 -25.5t-306.5 40z" />
<glyph unicode="4" d="M-32 275l28 153l763 920h203l-157 -888h157l-33 -185h-157l-47 -275h-249l47 275h-555zM171 460h385l69 386q13 69 56 231z" />
<glyph unicode="5" d="M23 20l45 325h92l14 -215q60 -49 156.5 -49t150 26.5t89.5 74.5q69 94 69 263q0 242 -197 242q-94 0 -192 -39h-93l122 693h692l-36 -203h-566l-63 -365q90 25 200.5 25t185.5 -24.5t124 -69.5q97 -91 97 -254q0 -225 -150 -348q-148 -122 -423 -122q-139 0 -210.5 16 t-106.5 24z" />
<glyph unicode="6" d="M70 453q0 118 24.5 234.5t68.5 217.5t105.5 184t135.5 143q156 124 338 124q145 0 282 -43l-54 -305h-87l-9 194q-64 52 -137.5 52t-132.5 -40t-106 -109q-94 -138 -138 -363q138 73 241.5 73t164 -24.5t100.5 -68.5q78 -87 78 -239q0 -216 -126 -355 q-133 -148 -359 -148q-284 0 -363 268q-26 87 -26 205zM329 426.5q0 -108.5 12.5 -173t34.5 -102.5q39 -70 106 -70q88 0 142 103q53 104 53 250q0 256 -164 256q-71 0 -169 -41q-15 -114 -15 -222.5z" />
<glyph unicode="7" d="M86 0l774 1138h-529l-77 -180h-87l68 383h857l-14 -79l-733 -1262h-259z" />
<glyph unicode="8" d="M37 324.5q0 78.5 22 144t62 113.5q81 98 216 129q-99 52 -131 183q-11 41 -11 107.5t27 137.5t83 121q116 102 344 102q257 0 323 -162q21 -51 21 -123t-20.5 -134.5t-54.5 -108.5q-67 -91 -177 -123q83 -30 130.5 -99.5t47.5 -171.5q0 -460 -500 -460q-284 0 -359 204 q-23 62 -23 140.5zM289 272q0 -189 154 -189q223 0 223 388q0 183 -153 183q-165 0 -210 -226q-14 -71 -14 -156zM447 914q0 -148 106 -148q91 0 142 106q45 94 45 241.5t-115 147.5q-135 0 -168 -211q-10 -64 -10 -136z" />
<glyph unicode="9" d="M30 23l54 305h87l9 -194q65 -52 147 -52t140.5 39.5t104.5 107.5q88 130 131 355q-131 -63 -238 -63t-169 27t-102 74q-80 94 -80 250q0 205 126 340q133 143 348 143q177 0 286 -123q114 -129 114 -352q0 -382 -194 -641q-122 -164 -292 -227q-84 -32 -174 -32 q-163 0 -298 43zM379 901q0 -143 41 -199t115 -56q77 0 183 39q12 97 12 200.5t-14 174.5t-36 114q-41 81 -104 81q-88 0 -143 -107q-54 -104 -54 -247z" />
<glyph unicode=":" horiz-adv-x="682" d="M69 137q0 69 48.5 117.5t117.5 48.5t117.5 -48.5t48.5 -117.5t-48.5 -117.5t-118.5 -48.5q-34 0 -64 13t-52 36q-49 48 -49 117zM209 794q0 70 47 118q46 48 118 48q70 0 118 -48t48 -118q0 -69 -48.5 -117.5t-117.5 -48.5q-71 0 -118 48q-47 49 -47 118z" />
<glyph unicode=";" horiz-adv-x="682" d="M26 -225q92 25 142 89q40 50 40 83.5t-10.5 47t-26 24.5t-34 22.5t-33.5 27.5q-37 38 -37 101t45 97t98.5 34t87.5 -12.5t59.5 -37.5t40.5 -61t15 -95.5t-21.5 -124t-67.5 -119.5q-99 -116 -298 -168v92zM217 794q0 70 47 118q46 48 118 48q70 0 118 -48t48 -118 q0 -69 -48.5 -117.5t-117.5 -48.5q-71 0 -118 48q-47 49 -47 118z" />
<glyph unicode="&#x3c;" horiz-adv-x="1167" d="M101 635v90l952 468v-143l-767 -370l767 -371v-143z" />
<glyph unicode="=" horiz-adv-x="1167" d="M118 403v144h952v-144h-952zM118 813v143h952v-143h-952z" />
<glyph unicode="&#x3e;" horiz-adv-x="1167" d="M153 166v143l768 371l-768 370v143l952 -468v-90z" />
<glyph unicode="?" d="M185 137q0 69 47 117q47 49 118 49q69 0 117.5 -48.5t48.5 -117.5t-48.5 -117.5t-117.5 -48.5q-71 0 -118 49q-47 48 -47 117zM190 1013l40 295q158 48 286.5 48t205 -22t127.5 -62q101 -81 101 -240.5t-90.5 -262.5t-281.5 -155l-81 -22l-63 -202h-103l-2 313l107 23 q244 51 244 325q0 95 -43.5 149t-145.5 54q-86 0 -147 -47l-65 -194h-89z" />
<glyph unicode="@" horiz-adv-x="1704" d="M48 362q0 431 261 716q168 183 409 252q120 34 271 34t278 -43.5t212 -123.5q170 -160 170 -445q0 -302 -190 -518q-117 -133 -277 -184q-79 -25 -137 -25t-87 10t-50 27q-47 38 -55 94q-99 -82 -201 -118q-38 -13 -80 -13t-77.5 21t-58.5 55q-42 64 -42 166 q0 344 271 538q98 71 170 90q111 29 205 29q132 0 228 -11l-121 -534q-30 -126 -30 -156q0 -54 52 -54q84 0 153 89q94 123 124 354q9 69 9 164.5t-34.5 189.5t-98.5 158q-131 129 -358 129q-328 0 -530 -263q-192 -251 -192 -625q0 -272 148 -446q164 -193 456 -193 q249 0 430 109q53 32 103 68l52 -76q-125 -101 -229 -141q-189 -75 -380 -75t-334 58.5t-240 160.5q-200 209 -200 532zM644 318.5q0 -64.5 20 -97t44 -32.5t44.5 6t39.5 15q32 17 64 43l127 552q-20 5 -46 5t-47 -2.5t-43 -9.5q-51 -16 -87 -54q-70 -89 -105 -296 q-11 -65 -11 -129.5z" />
<glyph unicode="A" horiz-adv-x="1366" d="M-106 0l14 73l103 27l668 1252h240l254 -1252l109 -27l-14 -73h-549l14 73l138 27l-61 347h-472l-184 -347l148 -27l-14 -73h-394zM394 557h396l-101 561z" />
<glyph unicode="B" horiz-adv-x="1366" d="M-19 0l12 73l178 27l201 1142l-168 26l14 73h586q486 0 486 -293q0 -216 -202 -297q-62 -25 -135 -35q226 -20 300 -184q25 -56 25 -128q0 -209 -157.5 -309.5t-472.5 -100.5l-345 6h-322zM468 110q105 -6 192 -6t149.5 21t100.5 61q71 73 71 219q0 249 -303 249h-114z M583 764h94q316 0 316 271q0 95 -60.5 145.5t-177.5 50.5h-89z" />
<glyph unicode="C" horiz-adv-x="1366" d="M70 531q0 382 237 606q231 219 605 219q226 0 473 -52l-53 -337h-84v194q-113 90 -291 90q-250 0 -410 -199q-164 -203 -164 -530q0 -309 194 -406q66 -33 139 -33t125.5 8.5t98.5 22.5q95 28 151 70l77 220h85l-66 -340q-257 -84 -517 -84q-289 0 -446 152 q-154 147 -154 399z" />
<glyph unicode="D" horiz-adv-x="1479" d="M-15 0l12 73l177 27l201 1142l-167 26l13 73h521q506 0 644 -316q45 -103 45 -259.5t-57 -302.5t-164 -250q-225 -217 -611 -217l-419 4h-195zM471 114q85 -8 124 -8q247 0 387 182q138 179 138 486q0 457 -415 457h-37z" />
<glyph unicode="E" horiz-adv-x="1366" d="M-15 0l12 73l177 27l201 1142l-167 26l13 73h1052l-60 -341h-91l6 217q-109 14 -321 14h-138l-87 -492h281l57 148h89l-73 -412h-89l-4 152h-281l-91 -517h183q253 0 338 16l103 248h91l-84 -374h-1117z" />
<glyph unicode="F" horiz-adv-x="1366" d="M-2 0l12 73l164 27l201 1142l-167 26l13 73h1111l-64 -361h-94l10 237q-98 14 -254 14h-261l-93 -529h363l61 170h89l-80 -452h-89l-1 172h-363l-87 -492l218 -27l-12 -73h-677z" />
<glyph unicode="G" horiz-adv-x="1479" d="M70 523q0 390 246 617q234 216 608 216q246 0 475 -62l-55 -308h-84l1 174q-120 91 -320 91q-235 0 -392 -193q-168 -206 -168 -555q0 -204 91 -315q86 -105 236 -105q130 0 237 43l68 380l-167 32l12 68h598l-12 -68l-136 -32l-77 -436q-287 -90 -569 -90 q-283 0 -438 146q-154 143 -154 397z" />
<glyph unicode="H" horiz-adv-x="1593" d="M-15 0l13 74l176 26l201 1141l-167 27l13 73h639l-13 -73l-177 -27l-87 -496h488l87 496l-167 27l13 73h641l-13 -73l-178 -27l-201 -1141l168 -26l-13 -74h-641l13 74l177 26l94 535h-488l-94 -535l167 -26l-13 -74h-638z" />
<glyph unicode="I" horiz-adv-x="797" d="M-20 0l13 74l176 26l201 1141l-167 27l13 73h639l-13 -73l-177 -27l-201 -1141l167 -26l-13 -74h-638z" />
<glyph unicode="J" d="M-4 10l54 304h83l4 -179q32 -49 113 -49q110 0 166 108q19 35 27 82l170 966l-167 26l13 73h619l-13 -73l-157 -26l-142 -810q-43 -248 -207 -362q-128 -90 -315 -90q-152 0 -248 30z" />
<glyph unicode="K" horiz-adv-x="1366" d="M-15 0l12 73l177 27l201 1142l-167 26l13 73h629l-13 -73l-167 -26l-91 -524l576 524l-113 26l13 73h425l-13 -73l-139 -26l-473 -429l353 -713l134 -27l-12 -73h-386l-296 636l-93 -45l-86 -491l178 -27l-12 -73h-650z" />
<glyph unicode="L" horiz-adv-x="1251" d="M-15 0l12 73l177 27l201 1142l-166 26l13 73h663l-13 -73l-202 -26l-200 -1136h113q268 0 375 20l117 279h84l-89 -405h-1085z" />
<glyph unicode="M" horiz-adv-x="1821" d="M-27 0l12 73l177 27l201 1142l-167 26l13 73h493l165 -874l476 874h535l-13 -73l-177 -26l-201 -1142l167 -27l-12 -73h-657l12 73l195 27l187 1058l-639 -1158h-45l-221 1158l-187 -1058l175 -27l-12 -73h-477z" />
<glyph unicode="N" horiz-adv-x="1479" d="M-19 0l12 73l177 27l201 1142l-167 26l13 73h433l435 -894l140 795l-175 26l13 73h477l-13 -73l-177 -26l-218 -1242h-115l-541 1112l-181 -1012l175 -27l-12 -73h-477z" />
<glyph unicode="O" horiz-adv-x="1479" d="M74 524q0 355 200 586q136 156 348 216q107 30 235 30t232 -40.5t178 -113.5q154 -150 154 -390q0 -327 -180 -562q-129 -168 -349 -236q-112 -34 -247 -34t-239 40.5t-178 113.5q-154 150 -154 390zM375 519q0 -126 18.5 -200t54.5 -127q74 -109 209 -109q146 0 259 131 q97 113 154 300q50 166 50 338q0 84 -19 159t-55 129q-77 111 -214 111q-143 0 -256 -133q-95 -114 -151 -303q-50 -170 -50 -296z" />
<glyph unicode="P" horiz-adv-x="1251" d="M-1 0l11 73l162 27l202 1142l-168 26l12 73h531q393 0 485 -209q30 -67 30 -159t-35 -176t-107 -145q-149 -126 -435 -126h-143l-76 -426l219 -27l-11 -73h-677zM564 636h79q152 0 239 92q89 92 89 252q0 129 -67 194q-58 56 -166 56h-69z" />
<glyph unicode="Q" horiz-adv-x="1479" d="M74 524q0 355 200 586q136 156 348 216q107 30 235 30t232 -40.5t178 -113.5q154 -150 154 -390q0 -263 -119 -472q-137 -237 -392 -320l32 -49q116 -184 224 -184q21 0 89 8l13 -78q-65 -27 -146.5 -38t-135 -11t-107.5 16.5t-97 49.5q-72 54 -159 198l-30 50 q-236 14 -379 164q-140 149 -140 378zM375 519q0 -126 18.5 -200t54.5 -127q74 -109 209 -109q146 0 259 131q97 113 154 300q50 166 50 338q0 84 -19 159t-55 129q-77 111 -214 111q-143 0 -256 -133q-95 -114 -151 -303q-50 -170 -50 -296z" />
<glyph unicode="R" horiz-adv-x="1366" d="M-3 0l12 73l164 27l201 1142l-167 26l13 73h535q393 0 484 -191q30 -63 30 -148.5t-25 -153t-69 -116.5q-84 -95 -235 -136l201 -496l147 -27l-12 -73h-400l-208 568h-116l-83 -468l167 -27l-12 -73h-627zM571 678h55q251 0 326 178q24 58 24 131q0 130 -60.5 187 t-177.5 57h-69z" />
<glyph unicode="S" horiz-adv-x="1139" d="M37 51l64 360h88l1 -215q54 -79 179 -106q39 -9 99 -9t117.5 17.5t94.5 48.5q73 61 73 164q0 95 -87 167q-43 35 -144 91.5t-151 91t-89 79.5q-88 100 -88 239q0 282 303 354q97 23 201 23q190 0 355 -43l-56 -319h-89l-7 196q-81 62 -211 62q-181 0 -228 -114 q-14 -33 -14 -75t24 -79t64 -68t90.5 -59t103 -58t103 -64.5t90.5 -78.5q88 -98 88 -220.5t-38.5 -205.5t-112.5 -138q-149 -112 -397 -112t-426 71z" />
<glyph unicode="T" horiz-adv-x="1251" d="M149 966l66 375h1103l-66 -375h-88l13 249q-81 18 -225 18h-59l-200 -1133l208 -27l-12 -73h-722l12 73l218 27l200 1135h-61q-130 0 -225 -20l-75 -249h-87z" />
<glyph unicode="U" horiz-adv-x="1479" d="M167 1268l13 73h619l-13 -73l-177 -26l-113 -656q-23 -130 -23 -197q0 -267 267 -267q172 0 276 98q92 86 120 243l137 779l-175 26l13 73h456l-13 -73l-157 -26l-135 -771q-41 -232 -166 -352q-143 -138 -407 -138q-256 0 -388 119q-121 108 -121 299q0 64 20 184 l114 659z" />
<glyph unicode="V" horiz-adv-x="1366" d="M120 1268l12 73h547l-12 -73l-144 -27l202 -879l487 879l-130 27l12 73h411l-12 -73l-132 -27l-722 -1272h-113l-301 1272z" />
<glyph unicode="W" horiz-adv-x="1821" d="M141 1268l13 73h564l-13 -73l-162 -26l106 -814l397 829h100l152 -834l362 819l-164 26l13 73h432l-13 -73l-122 -26l-592 -1273h-94l-158 848l-402 -848h-101l-188 1273z" />
<glyph unicode="X" horiz-adv-x="1366" d="M-52 0l12 73l153 27l461 535l-238 607l-146 26l13 73h613l-13 -73l-165 -26l143 -367l316 367l-151 26l13 73h449l-13 -73l-153 -26l-416 -482l259 -660l147 -27l-12 -73h-613l12 73l165 27l-165 420l-362 -420l151 -27l-12 -73h-448z" />
<glyph unicode="Y" horiz-adv-x="1251" d="M105 1268l13 73h636l-13 -73l-185 -26l178 -556l364 556l-159 26l13 73h456l-13 -73l-147 -26l-466 -694l-80 -448l208 -27l-12 -73h-722l12 73l218 27l79 442l-234 700z" />
<glyph unicode="Z" horiz-adv-x="1251" d="M-5 0l20 114l826 1121h-192q-198 0 -293 -20l-68 -211h-89l59 337h941l-19 -106l-823 -1131h187q233 0 390 33l104 256h90l-96 -393h-1037z" />
<glyph unicode="[" horiz-adv-x="682" d="M51 -274l299 1695h436l-12 -67l-210 -41l-261 -1479l196 -41l-12 -67h-436z" />
<glyph unicode="\" horiz-adv-x="569" d="M130 1349h127l212 -1369h-130z" />
<glyph unicode="]" horiz-adv-x="682" d="M-106 -274l12 67l210 41l261 1479l-196 41l12 67h436l-299 -1695h-436z" />
<glyph unicode="^" horiz-adv-x="1167" d="M131 389l428 952h90l428 -952h-143l-330 761l-330 -761h-143z" />
<glyph unicode="_" d="M-153 -141h1056v-144h-1056v144z" />
<glyph unicode="`" horiz-adv-x="682" d="M230 1386l7 37h265l137 -273l-6 -32h-86z" />
<glyph unicode="a" d="M24 341q0 107 40.5 224t114.5 205.5t178 141t236.5 52.5t245.5 -45l82 37h54l-152 -866l109 -32l-8 -58h-347l-4 138q-126 -159 -285 -159q-186 0 -244 191q-20 64 -20 171zM287 351q0 -164 77 -211q22 -13 44.5 -13t47 12.5t48.5 32.5q45 40 81 94l99 563 q-45 34 -115 34t-120.5 -45t-86.5 -118q-75 -152 -75 -349z" />
<glyph unicode="b" d="M27 48l227 1285l-92 23l11 65h365l-76 -430q-19 -117 -42 -194q126 168 281 168q116 0 187 -85q75 -90 75 -249q0 -264 -142 -456q-146 -198 -372 -198q-248 0 -422 71zM308 124q33 -33 100 -45q17 -3 29 -3q108 0 187 163q76 155 76 331q0 77 -10.5 120t-27.5 70 q-33 53 -83 53q-55 0 -130 -83q-23 -26 -44 -56z" />
<glyph unicode="c" horiz-adv-x="909" d="M30 328q0 158 48.5 277t127.5 199q157 161 379 161q165 0 294 -45l-49 -288h-72l-14 171q-54 60 -146 60q-119 0 -208 -146q-92 -151 -92 -377q0 -180 105 -223q32 -13 68 -13q121 0 255 94l44 -63q-112 -100 -259 -139q-57 -16 -133.5 -16t-144.5 25.5t-113 72.5 q-90 92 -90 250z" />
<glyph unicode="d" d="M24 295q0 144 35.5 262.5t101.5 208.5t159 144t205 54t177 -28q8 98 14 124l46 272l-160 24l12 65h435l-237 -1336l99 -25l-12 -60h-332l-7 144q-86 -115 -206 -152q-39 -12 -85 -12t-92 21t-80 62q-73 88 -73 232zM287 370q0 -76 8.5 -119t22.5 -70q29 -53 72 -53 q59 0 141 84q25 25 46 55l97 550q-33 33 -104 45q-18 3 -30 3q-108 0 -182 -163q-71 -154 -71 -332z" />
<glyph unicode="e" horiz-adv-x="909" d="M48 330q0 261 158 450q97 117 227 162q64 23 133.5 23t125.5 -15.5t94 -43.5q78 -55 78 -133t-36 -137.5t-105 -106.5q-149 -102 -398 -121q-5 -20 -5 -68q0 -236 181 -236q115 0 255 94l44 -63q-122 -102 -272 -141q-57 -14 -134 -14t-145.5 24.5t-112.5 69.5 q-88 88 -88 256zM341 508q128 13 207 94q72 75 72 171q0 42 -20.5 63t-53.5 21t-66.5 -30t-61.5 -79q-56 -100 -77 -240z" />
<glyph unicode="f" horiz-adv-x="682" d="M0 -436l222 1272h-162l12 69l169 39l23 122q37 198 144 287t285 89q91 0 159 -21l-39 -222h-64l-12 112q-21 21 -56 21q-76 0 -115 -118q-15 -46 -28 -116l-29 -158h206l-18 -104h-206l-222 -1272h-269z" />
<glyph unicode="g" d="M-38 -365l22 253h56l36 -131q82 -84 219 -84q157 0 205 149q15 46 21.5 83.5t11.5 64.5t11 57q15 77 28 118q-92 -118 -208 -155q-38 -13 -84.5 -13t-93.5 21.5t-82 63.5t-55 104.5t-20 146.5t16.5 166t47.5 154.5t76.5 133.5t104.5 105q123 93 281 93q163 0 415 -42 l-172 -958q-58 -312 -316 -379q-84 -22 -161.5 -22t-127.5 6t-94 16q-88 20 -137 49zM292 355q0 -166 74 -213q20 -13 48 -13t75.5 35t92.5 95l107 582q-59 25 -125 25t-115.5 -45t-84.5 -118q-72 -153 -72 -348z" />
<glyph unicode="h" horiz-adv-x="1139" d="M40 0l234 1331l-91 24l11 66h365l-84 -463q-4 -24 -10 -53.5t-11 -56.5q-12 -58 -18 -79q154 196 382 196q150 0 199 -114q16 -37 16 -70t-3 -58t-6.5 -51.5t-8 -50.5t-7.5 -41l-87 -490l116 -24l-13 -66h-386l102 569q22 116 22 156q0 97 -91 97q-65 0 -146 -74 q-77 -69 -113 -154l-106 -594h-266z" />
<glyph unicode="i" horiz-adv-x="569" d="M52 0l150 850l-91 24l11 66h365l-150 -850l119 -24l-11 -66h-393zM253 1268q0 65 45 108q46 45 109 45q64 0 108.5 -44.5t44.5 -108.5q0 -63 -44 -109q-44 -45 -109 -45q-64 0 -109 45t-45 109z" />
<glyph unicode="j" horiz-adv-x="569" d="M-268 -418l39 225h63l24 -118q20 -15 43.5 -15t45 13.5t41.5 43.5q43 67 65 198l161 911l-160 34l11 66h435l-172 -979q-71 -397 -428 -397q-89 0 -168 18zM268 1268q0 65 45 108q46 45 109 45q64 0 108.5 -44.5t44.5 -108.5q0 -63 -45 -109q-43 -45 -108 -45 q-64 0 -109 45t-45 109z" />
<glyph unicode="k" d="M28 0l235 1331l-92 24l12 66h365l-160 -914l351 344l-86 23l11 66h344l-11 -66l-92 -22l-243 -224l222 -538l80 -24l-11 -66h-314l-166 453l-108 -70l-68 -383h-269z" />
<glyph unicode="l" horiz-adv-x="569" d="M45 0l236 1331l-91 24l11 66h365l-236 -1331l119 -24l-11 -66h-393z" />
<glyph unicode="m" horiz-adv-x="1593" d="M39 0l148 849l-89 25l13 66h328l-3 -168q142 193 334 193q130 0 174 -107q16 -38 17 -91q141 198 338 198q133 0 177 -117q15 -40 15 -73t-3 -55.5t-6.5 -48t-8 -50t-7.5 -41.5l-87 -490l116 -24l-13 -66h-386l102 569q22 115 22 156q0 97 -72 97q-56 0 -126 -84 q-73 -87 -89 -175l-99 -563h-267l102 569q22 116 22 156q0 97 -74 97q-51 0 -115 -74q-57 -64 -91 -154l-106 -594h-266z" />
<glyph unicode="n" horiz-adv-x="1139" d="M42 0l148 849l-89 25l13 66h334l-8 -175q155 200 380 200q151 0 199 -113q16 -38 16 -72q0 -50 -9 -106l-8 -48q-4 -25 -8 -46l-87 -490l116 -24l-13 -66h-386l102 569q22 116 22 156q0 97 -91 97q-65 0 -146 -74q-77 -69 -113 -154l-106 -594h-266z" />
<glyph unicode="o" d="M32 374q0 244 148 412q156 179 400 179q169 0 270 -105q104 -107 104 -289q0 -244 -148 -413q-71 -81 -172.5 -129.5t-206 -48.5t-173.5 27t-118 78q-104 107 -104 289zM297 319q0 -115 37 -177.5t89.5 -62.5t98 40.5t81.5 112.5q80 162 80 398t-125 236q-47 0 -94 -43.5 t-84 -118.5q-83 -168 -83 -385z" />
<glyph unicode="p" d="M-146 -436l12 65l104 24l214 1202l-99 25l12 60h345l-6 -138q125 163 267 163q113 0 184 -85q75 -90 75 -234t-35.5 -262t-102.5 -208q-147 -196 -375 -196q-86 0 -155 33q-6 -68 -9.5 -91.5t-4.5 -32.5l-38 -236l160 -24l-12 -65h-536zM322 127q48 -48 101.5 -48 t88.5 20.5t64 56.5t52 84.5t38 105.5q33 118 33 209.5t-9.5 134.5t-25.5 70q-30 53 -70 53q-74 0 -174 -133z" />
<glyph unicode="q" d="M26 296.5q0 143.5 34.5 262t100.5 208.5t161.5 144t209.5 54q221 0 440 -42l-229 -1271l92 -23l-11 -65h-365l73 387q19 117 42 194q-87 -116 -213 -155q-40 -13 -85.5 -13t-93 21.5t-82.5 63.5q-74 91 -74 234.5zM289 355q0 -166 73 -213q21 -13 39.5 -13t41 10.5 t47.5 28.5q52 40 96 100l105 573q-59 25 -128.5 25t-118.5 -45t-84 -118q-71 -151 -71 -348z" />
<glyph unicode="r" horiz-adv-x="797" d="M42 0l150 850l-117 24l11 66h375l-23 -202q85 168 217 214q39 13 67 13q55 0 90 -10l-58 -337h-55l-44 137q-73 0 -115 -27q-70 -47 -124 -132l-105 -596h-269z" />
<glyph unicode="s" horiz-adv-x="797" d="M-11 34l46 261h66l15 -132q64 -90 177 -90q127 0 168 95q12 27 12 57.5t-14.5 54t-39 43.5t-56 38t-69 39.5t-74 48t-64.5 59.5q-61 73 -61 172q0 285 377 285q118 0 262 -32l-43 -241h-66l-13 110q-21 26 -62 47.5t-104.5 21.5t-99 -34t-35.5 -75.5t13 -63.5t35 -41 q32 -27 93 -61.5t101 -60.5t71 -59q69 -73 69 -179q0 -152 -102 -234.5t-305 -82.5q-115 0 -247 37q-32 9 -50 17z" />
<glyph unicode="t" horiz-adv-x="569" d="M62 836l11 65l142 39l139 213h146l-38 -213h158l-18 -104h-158l-91 -509q-16 -82 -16 -127.5t26.5 -69.5t62.5 -24t112 26l26 -70q-76 -53 -190 -74q-39 -8 -90.5 -8t-95 16.5t-70.5 44.5q-51 53 -51 144q0 46 18 144l92 507h-115z" />
<glyph unicode="u" horiz-adv-x="1139" d="M75 874l13 66h386l-102 -568q-22 -116 -22 -156q0 -97 91 -97q65 0 146 73q78 71 113 155l106 593h266l-148 -849l109 -25l-13 -66h-354l8 176q-155 -200 -380 -200q-152 0 -199 117q-16 40 -16 73t2.5 55.5t6.5 49t9 54.5t9 51l85 474z" />
<glyph unicode="v" horiz-adv-x="909" d="M19 875l11 66h300l149 -654l203 314q66 103 66 180q0 65 -56 83q-17 6 -34 11l12 65h231q26 -23 26 -51t-3.5 -49t-12.5 -48q-21 -64 -67 -135l-437 -677h-123l-204 871z" />
<glyph unicode="w" horiz-adv-x="1366" d="M2 874l11 66h304l126 -658l309 564h100l112 -564l165 298q36 65 46 121.5t10 79t-8.5 40t-22.5 27.5q-17 13 -69 27l12 65h245q31 -24 31 -69q0 -101 -67 -214l-402 -677h-119l-103 538l-296 -538h-133l-171 870z" />
<glyph unicode="x" d="M-25 46q0 61 137 175l284 239l-202 390l-86 25l11 65h299l165 -325l102 85q98 81 98 136q0 29 -55 39l12 65h213q21 -16 21 -49q0 -69 -138 -184l-208 -174l228 -447l86 -21l-11 -65h-302l-190 374l-165 -138q-86 -73 -90 -110q-2 -12 -2 -22q0 -30 42 -39l-12 -65h-221 q-16 13 -16 46z" />
<glyph unicode="y" horiz-adv-x="909" d="M-205 -423l42 242h60l20 -126q25 -23 66 -23t78 23.5t73 62.5q59 62 138 192l28 47l-214 855l-61 24l11 66h303l152 -639l181 300q64 105 64 180q0 65 -56 83q-17 6 -34 11l12 65h231q26 -23 26 -51t-3 -49t-12 -48q-21 -63 -66 -135l-439 -716q-116 -190 -184 -256.5 t-127 -96.5t-107.5 -30t-69 1t-38.5 3q-31 5 -74 15z" />
<glyph unicode="z" horiz-adv-x="797" d="M-58 0l8 50l516 800h-70q-132 0 -184 -35l-60 -155h-72l49 280h660l-9 -54l-516 -796h83q89 0 142 18t70 29l82 178h72l-74 -315h-697z" />
<glyph unicode="{" horiz-adv-x="713" d="M28 533l15 85q103 3 168.5 52.5t85.5 163.5l55 314q25 141 109.5 207t239.5 66h135l-15 -87h-62q-69 0 -109.5 -34.5t-55.5 -120.5l-64 -360q-27 -150 -161 -221q-41 -21 -86 -30v-3q75 -17 118.5 -68.5t43.5 -131.5q0 -18 -5 -53l-53 -304q-6 -33 -6 -61 q0 -134 110 -134h62l-16 -87h-135q-189 0 -237 140q-15 44 -15 90t7 84l48 275q6 33 6 61q0 82 -47.5 118t-135.5 39z" />
<glyph unicode="|" horiz-adv-x="451" d="M139 -442v1863h143v-1863h-143z" />
<glyph unicode="}" horiz-adv-x="713" d="M-120 -274l16 87h62q69 0 109 34.5t55 120.5l65 364q27 152 159 222q41 21 88 31v3q-72 16 -117 68t-45 132q0 16 5 51l52 300q6 33 6 62q0 133 -109 133h-62l15 87h135q130 0 191.5 -62.5t61.5 -168.5q0 -38 -8 -82l-47 -274q-6 -33 -6 -61q0 -81 47.5 -117t134.5 -38 l-15 -85q-161 -6 -221 -119q-22 -41 -32 -99l-56 -315q-48 -274 -349 -274h-135z" />
<glyph unicode="~" horiz-adv-x="1167" d="M86 481q18 177 57.5 246.5t93 104t116 34.5t97.5 -11t68 -28q57 -30 119.5 -84.5t88.5 -73.5q63 -45 100.5 -45t61.5 13.5t41 42.5q33 56 49 186h144q-23 -177 -63 -246.5t-92.5 -104t-118 -34.5t-109.5 18t-84 45t-77 58t-72 58q-80 63 -122 63t-67 -12t-43 -41 q-33 -54 -47 -189h-141z" />
<glyph unicode="&#xa2;" d="M123 532.5q0 155.5 48 272.5t125 197q157 161 374 167l30 172h92l-31 -174q144 -13 231 -42l-49 -288h-72l-14 171q-40 45 -114 57l-132 -754q101 13 228 100l44 -63q-140 -121 -293 -153l-34 -195h-92l32 185q-177 0 -276 97q-97 95 -97 250.5zM391 546 q0 -103 36.5 -160.5t90.5 -73.5l133 753q-107 -31 -181 -172q-79 -149 -79 -347z" />
<glyph unicode="&#xa3;" d="M-5 0l21 123q45 35 93.5 71.5t88.5 79.5q91 98 91 215q0 57 -19 131h-161l18 101h88q-26 99 -26 193.5t33 179t100 142.5q135 120 401 120q116 0 190.5 -17t112.5 -26l-54 -305h-87l-9 194q-77 53 -154.5 53t-127.5 -29.5t-83.5 -85.5t-51 -136t-17.5 -148.5t3 -134.5 h262l-18 -101h-243q1 -15 1 -34v-35q0 -206 -152 -348h610l-37 -203h-873z" />
<glyph unicode="&#xa5;" d="M72 297l18 102h257l24 138h-257l18 102h233l-154 612l-80 24l12 66h473l-12 -66l-116 -26l109 -547l319 549l-106 24l12 66h331l-12 -66l-89 -20l-373 -616h233l-18 -102h-254l-24 -138h254l-18 -102h-254l-37 -207l139 -24l-11 -66h-554l11 66l146 24l37 207h-257z" />
<glyph unicode="&#xa8;" horiz-adv-x="682" d="M163 1239.5q0 36.5 10 58t27 37.5q36 35 72.5 35t58 -9.5t37.5 -25.5q35 -35 35 -71.5t-9 -58.5t-25 -38.5t-38 -26.5t-46.5 -10t-46.5 10t-38 26q-37 37 -37 73.5zM519 1239q0 37 9.5 58.5t25.5 37.5q37 35 86 35q50 0 76 -26q43 -43 43 -80t-9 -59t-25 -39 q-35 -36 -85 -36q-49 0 -76 26q-45 46 -45 83z" />
<glyph unicode="&#xa9;" horiz-adv-x="1530" d="M87 646q0 120 24.5 208.5t69.5 165.5t107.5 140t139.5 108q161 94 349 94q288 0 490 -202t202 -490q0 -188 -94 -349q-91 -155 -248 -247q-161 -94 -327.5 -94t-292 54t-219 147.5t-147.5 219t-54 245.5zM177 670q0 -251 175 -430q174 -177 425 -177q124 0 234 47.5 t191 129.5q177 179 177 430q0 252 -176.5 430t-446.5 178q-104 0 -213.5 -48t-190.5 -130q-175 -179 -175 -430zM386 664q0 317 249 399q79 26 170 26q127 0 277 -30l4 -207h-69l-19 105q-84 51 -165 51t-127 -18.5t-75 -59.5q-55 -76 -55 -252.5t53.5 -260t182.5 -83.5 q122 0 195 59l22 119h70l-4 -219q-127 -39 -313 -39q-69 0 -148 28.5t-134 81.5q-114 111 -114 300z" />
<glyph unicode="&#xab;" d="M80 430l12 66l383 356h101l-262 -389l125 -389h-101zM490 430l12 66l383 356h100l-261 -389l124 -389h-100z" />
<glyph unicode="&#xae;" horiz-adv-x="1530" d="M87 646q0 120 24.5 208.5t69.5 165.5t107.5 140t139.5 108q161 94 349 94q288 0 490 -202t202 -490q0 -188 -94 -349q-91 -155 -248 -247q-161 -94 -327.5 -94t-292 54t-219 147.5t-147.5 219t-54 245.5zM177 670q0 -251 175 -430q174 -177 425 -177q124 0 234 47.5 t191 129.5q177 179 177 430q0 252 -176.5 430t-446.5 178q-104 0 -213.5 -48t-190.5 -130q-175 -179 -175 -430zM427 1026v55h350q240 0 298 -131q18 -41 18 -104t-45.5 -121t-133.5 -86l207 -289l70 -16v-58h-225l-230 343h-49v-269l94 -16v-58h-346v58l76 16v660zM687 694 h23q104 0 152 36t48 127t-47.5 120t-156.5 29h-19v-312z" />
<glyph unicode="&#xb4;" horiz-adv-x="682" d="M253 1118l6 33l196 272h285l-4 -37l-397 -268h-86z" />
<glyph unicode="&#xb8;" horiz-adv-x="682" d="M-56 -403l37 97q55 -19 93 -19t58 8t34 21q26 24 26 63q0 78 -106 85l86 195h91l-43 -110q118 -16 156 -93q13 -26 13 -70t-24.5 -84.5t-66.5 -67.5q-83 -54 -205 -54q-80 0 -149 29z" />
<glyph unicode="&#xbb;" d="M-2 74l260 389l-123 389h100l257 -356l-12 -66l-382 -356h-100zM407 74l261 389l-124 389h101l257 -356l-12 -66l-382 -356h-101z" />
<glyph unicode="&#x2c6;" horiz-adv-x="682" d="M113 1118l6 33l269 293h213l166 -293l-6 -33h-76l-220 162l-276 -162h-76z" />
<glyph unicode="&#x2da;" horiz-adv-x="682" d="M250 1272q0 89 60 150q62 61 151 61t151 -61q60 -61 60 -150q0 -88 -60 -150q-62 -63 -151 -63t-151 63q-60 62 -60 150zM363 1272q0 -39 21 -60q38 -38 77 -38t61 22q37 37 37 76q0 40 -21 62q-38 37 -77 37t-61 -21q-37 -38 -37 -78z" />
<glyph unicode="&#x2dc;" horiz-adv-x="682" d="M94 1108q67 287 269 287q80 0 183 -87q52 -44 85 -44t54 25.5t41 86.5h99q-33 -131 -76 -185t-88 -77.5t-88.5 -23.5t-66 6.5t-42.5 15.5q-40 20 -71 48.5t-45 38.5q-32 24 -63 24t-52 -26t-40 -89h-99z" />
<glyph unicode="&#x401;" horiz-adv-x="1366" d="M-15 0l12 73l177 27l201 1142l-167 26l13 73h1052l-60 -341h-91l6 217q-109 14 -321 14h-138l-87 -492h281l57 148h89l-73 -412h-89l-4 152h-281l-91 -517h183q253 0 338 16l103 248h91l-84 -374h-1117zM525 1573.5q0 36.5 10 58t27 37.5q36 35 72.5 35t58 -9.5 t37.5 -25.5q35 -35 35 -71.5t-9 -58.5t-25 -38.5t-38 -26.5t-46.5 -10t-46.5 10t-38 26q-37 37 -37 73.5zM881 1573q0 37 9.5 58.5t25.5 37.5q37 35 86 35q50 0 76 -26q43 -43 43 -80t-9 -59t-25 -39q-35 -36 -85 -36q-49 0 -76 26q-45 46 -45 83z" />
<glyph unicode="&#x402;" horiz-adv-x="1675" d="M129 966l66 375h1152l-61 -355h-88l9 229q-49 18 -225 18h-99l-71 -403q166 61 289.5 61t200 -22.5t127.5 -64.5q101 -83 101 -234q0 -71 -15 -156l-68 -398q-55 -329 -303 -420q-89 -32 -164 -32t-111.5 2t-70.5 6q-70 8 -109 22l51 286h83l7 -161q30 -49 109.5 -49 t123 48t60.5 143l97 550q17 111 17 154q0 88 -51 136.5t-137 48.5q-129 0 -256 -30l-110 -620l168 -27l-12 -73h-642l12 73l178 27l200 1135h-71q-155 0 -225 -20l-75 -249h-87z" />
<glyph unicode="&#x403;" horiz-adv-x="1237" d="M-20 0l13 73l176 26l201 1142l-167 27l14 73h1029l-55 -405h-83l-19 279q-93 20 -336 20h-89l-200 -1136l192 -26l-13 -73h-663zM671 1452l6 33l196 272h285l-4 -37l-397 -268h-86z" />
<glyph unicode="&#x404;" horiz-adv-x="1346" d="M70 531q0 382 235 606q229 219 602 219q208 0 458 -52l-53 -337h-84v194q-113 90 -276 90q-201 0 -348 -135q-148 -137 -198 -371h493l-19 -110h-492q-5 -70 -5 -139t20 -149.5t62 -138.5q89 -125 264 -125q203 0 342 101l77 220h85l-66 -340q-257 -84 -502 -84 q-287 0 -444 152q-151 145 -151 399z" />
<glyph unicode="&#x405;" horiz-adv-x="1139" d="M37 51l64 360h88l1 -215q54 -79 179 -106q39 -9 99 -9t117.5 17.5t94.5 48.5q73 61 73 164q0 95 -87 167q-43 35 -144 91.5t-151 91t-89 79.5q-88 100 -88 239q0 282 303 354q97 23 201 23q190 0 355 -43l-56 -319h-89l-7 196q-81 62 -211 62q-181 0 -228 -114 q-14 -33 -14 -75t24 -79t64 -68t90.5 -59t103 -58t103 -64.5t90.5 -78.5q88 -98 88 -220.5t-38.5 -205.5t-112.5 -138q-149 -112 -397 -112t-426 71z" />
<glyph unicode="&#x406;" horiz-adv-x="797" d="M-20 0l13 74l176 26l201 1141l-167 27l13 73h639l-13 -73l-177 -27l-201 -1141l167 -26l-13 -74h-638z" />
<glyph unicode="&#x407;" horiz-adv-x="797" d="M-20 0l13 74l176 26l201 1141l-167 27l13 73h639l-13 -73l-177 -27l-201 -1141l167 -26l-13 -74h-638zM280 1573.5q0 36.5 10 58t27 37.5q36 35 72.5 35t58 -9.5t37.5 -25.5q35 -35 35 -71.5t-9 -58.5t-25 -38.5t-38 -26.5t-46.5 -10t-46.5 10t-38 26q-37 37 -37 73.5z M636 1573q0 37 9.5 58.5t25.5 37.5q37 35 86 35q50 0 76 -26q43 -43 43 -80t-9 -59t-25 -39q-35 -36 -85 -36q-49 0 -76 26q-45 46 -45 83z" />
<glyph unicode="&#x408;" d="M-4 10l54 304h83l4 -179q32 -49 113 -49q110 0 166 108q19 35 27 82l170 966l-167 26l13 73h619l-13 -73l-157 -26l-142 -810q-43 -248 -207 -362q-128 -90 -315 -90q-152 0 -248 30z" />
<glyph unicode="&#x409;" horiz-adv-x="1860" d="M-69 27l35 257h64l29 -109q24 -37 67 -37t85.5 45t88.5 143q90 190 207 627l77 289l-167 26l13 73h1045l-13 -73l-183 -27l-86 -486h49q250 0 378 -84.5t128 -265.5q0 -319 -374 -384q-122 -21 -278 -21h-472l13 73l146 26l199 1132h-267l-78 -291q-141 -523 -259 -736 q-125 -224 -289 -224q-107 0 -158 47zM1080 110h19q176 0 257 60q93 70 93 242q0 233 -271 233h-4z" />
<glyph unicode="&#x40a;" horiz-adv-x="1999" d="M-36 0l13 74l176 26l201 1141l-167 27l13 73h609l-13 -73l-147 -27l-87 -496h443l87 496l-137 27l13 73h615l-13 -73l-183 -27l-86 -486h88q250 0 374 -84.5t124 -265.5q0 -219 -165 -315q-153 -90 -477 -90h-513l13 73l146 26l94 536h-443l-94 -535l137 -26l-13 -74 h-608zM1190 110h67q173 0 247 60q84 68 84 242q0 233 -267 233h-38z" />
<glyph unicode="&#x40b;" horiz-adv-x="1661" d="M129 966l66 375h1152l-61 -341h-88l9 215q-49 18 -225 18h-99l-71 -403q154 61 275.5 61t193 -20.5t117.5 -60.5q89 -76 89 -229q0 -48 -21 -167l-54 -314l158 -27l-12 -73h-592l12 73l138 27l55 311q2 13 5.5 35.5t6.5 47.5q7 57 7 79q0 177 -174 177q-97 0 -223 -30 l-110 -620l168 -27l-12 -73h-642l12 73l178 27l200 1135h-71q-155 0 -225 -20l-75 -249h-87z" />
<glyph unicode="&#x40c;" horiz-adv-x="1389" d="M-15 0l12 73l177 27l201 1142l-167 26l13 73h629l-13 -73l-167 -26l-91 -524l576 524l-113 26l13 73h425l-13 -73l-139 -26l-473 -429l353 -713l134 -27l-12 -73h-386l-296 636l-93 -45l-86 -491l178 -27l-12 -73h-650zM769 1452l6 33l196 272h285l-4 -37l-397 -268h-86z " />
<glyph unicode="&#x40e;" horiz-adv-x="1425" d="M137 1268l13 73h613l-13 -73l-165 -26l276 -652l439 652l-147 26l13 73h449l-13 -73l-162 -28l-550 -809q-166 -244 -274 -337q-129 -113 -278 -113q-127 0 -193 44l35 279h65l30 -117q30 -49 98 -49q144 0 298 203l-388 901zM637 1719l242 40q33 -178 142 -178 q128 0 223 145q27 41 51 84l82 -37q-63 -134 -123.5 -194t-125.5 -91t-146.5 -31t-136.5 19t-95 54q-71 61 -113 189z" />
<glyph unicode="&#x40f;" horiz-adv-x="1593" d="M-17 1l14 73l177 26l201 1142l-169 27l11 73h639l-11 -73l-178 -27l-200 -1131h496l200 1131l-166 27l11 73h635l-13 -73l-174 -27l-201 -1142l166 -26l-14 -73h-572l-170 -437h-95l-16 437h-571z" />
<glyph unicode="&#x410;" horiz-adv-x="1366" d="M-106 0l14 73l103 27l668 1252h240l254 -1252l109 -27l-14 -73h-549l14 73l138 27l-61 347h-472l-184 -347l148 -27l-14 -73h-394zM394 557h396l-101 561z" />
<glyph unicode="&#x411;" horiz-adv-x="1301" d="M-18 0l13 73l176 26l201 1142l-157 27l14 73h1015l-55 -365h-83l-14 239q-93 20 -296 20h-130l-85 -480h95q250 0 378 -84.5t128 -265.5q0 -318 -370 -384q-117 -21 -262 -21h-568zM468 110h65q176 0 257 60q93 70 93 242q0 233 -260 233h-61z" />
<glyph unicode="&#x412;" horiz-adv-x="1366" d="M-19 0l12 73l178 27l201 1142l-168 26l14 73h586q486 0 486 -293q0 -216 -202 -297q-62 -25 -135 -35q226 -20 300 -184q25 -56 25 -128q0 -209 -157.5 -309.5t-472.5 -100.5l-345 6h-322zM468 110q105 -6 192 -6t149.5 21t100.5 61q71 73 71 219q0 249 -303 249h-114z M583 764h94q316 0 316 271q0 95 -60.5 145.5t-177.5 50.5h-89z" />
<glyph unicode="&#x413;" horiz-adv-x="1237" d="M-20 0l13 73l176 26l201 1142l-167 27l14 73h1029l-55 -405h-83l-19 279q-93 20 -336 20h-89l-200 -1136l192 -26l-13 -73h-663z" />
<glyph unicode="&#x414;" horiz-adv-x="1399" d="M-155 -437l29 509l199 28q369 524 471 1142l-167 26l12 73h1067l-12 -73l-177 -26l-202 -1142l207 -28l-146 -509h-87l-57 437h-838l-211 -437h-88zM230 110h543l198 1121h-296q-109 -619 -445 -1121z" />
<glyph unicode="&#x415;" horiz-adv-x="1366" d="M-15 0l12 73l177 27l201 1142l-167 26l13 73h1052l-60 -341h-91l6 217q-109 14 -321 14h-138l-87 -492h281l57 148h89l-73 -412h-89l-4 152h-281l-91 -517h183q253 0 338 16l103 248h91l-84 -374h-1117z" />
<glyph unicode="&#x416;" horiz-adv-x="1880" d="M-117 0l13 73l117 27l586 756l-249 386l-139 26l13 73h399l-13 -73l-123 -26l339 -533l94 533l-138 26l13 73h561l-13 -73l-148 -26l-92 -523l515 523l-103 26l13 73h402l-13 -73l-135 -26l-409 -400l295 -742l119 -27l-13 -73h-367l-238 635l-90 -56l-85 -479l144 -27 l-13 -73h-573l13 73l154 27l84 481l-62 52l-461 -633h-397z" />
<glyph unicode="&#x417;" horiz-adv-x="1042" d="M-20 25l41 300h86l10 -188q44 -34 144 -49q29 -5 54 -5q151 0 227.5 82.5t76.5 228.5q0 174 -121 228q-38 16 -83 19l-131 8l18 102l139 9q180 10 235 176q19 59 19 144q0 173 -161 173q-108 0 -187 -53l-62 -164h-86l49 276q138 34 204 38.5t144 4.5t158 -22.5 t132 -62.5q104 -77 104 -214q0 -304 -370 -357q215 -26 273 -191q18 -51 18 -134.5t-43 -162.5t-120 -131q-150 -100 -421 -100q-185 0 -347 45z" />
<glyph unicode="&#x418;" horiz-adv-x="1593" d="M-13 0l15 74l172 26l201 1141l-165 27l13 73h637l-13 -73l-177 -27l-145 -826l624 775l9 51l-167 27l13 73h641l-13 -73l-178 -27l-201 -1141l168 -26l-11 -74h-641l11 74l177 26l151 855l-625 -775l-14 -80l167 -26l-11 -74h-638z" />
<glyph unicode="&#x419;" horiz-adv-x="1593" d="M-13 0l15 74l172 26l201 1141l-165 27l13 73h637l-13 -73l-177 -27l-145 -826l624 775l9 51l-167 27l13 73h641l-13 -73l-178 -27l-201 -1141l168 -26l-11 -74h-641l11 74l177 26l151 855l-625 -775l-14 -80l167 -26l-11 -74h-638zM616 1719l242 40q33 -178 142 -178 q128 0 223 145q27 41 51 84l82 -37q-63 -134 -123.5 -194t-125.5 -91t-146.5 -31t-136.5 19t-95 54q-71 61 -113 189z" />
<glyph unicode="&#x41a;" horiz-adv-x="1389" d="M-15 0l12 73l177 27l201 1142l-167 26l13 73h629l-13 -73l-167 -26l-89 -509l560 509l-113 26l13 73h439l-13 -73l-139 -26l-485 -438l409 -704l110 -27l-12 -73h-386l-342 624l-71 -59l-82 -465l178 -27l-12 -73h-650z" />
<glyph unicode="&#x41b;" horiz-adv-x="1405" d="M-69 27l35 257h64l29 -109q24 -37 67 -37t85.5 45t88.5 143q90 190 207 627l77 289l-167 26l13 73h1027l-13 -73l-177 -26l-201 -1141l167 -27l-12 -74h-640l13 73l177 27l199 1131h-255l-78 -291q-141 -523 -259 -736q-125 -224 -289 -224q-107 0 -158 47z" />
<glyph unicode="&#x41c;" horiz-adv-x="1821" d="M-27 0l12 73l177 27l201 1142l-167 26l13 73h493l165 -874l476 874h535l-13 -73l-177 -26l-201 -1142l167 -27l-12 -73h-657l12 73l195 27l187 1058l-639 -1158h-45l-221 1158l-187 -1058l175 -27l-12 -73h-477z" />
<glyph unicode="&#x41d;" horiz-adv-x="1593" d="M-15 0l13 74l176 26l201 1141l-167 27l13 73h639l-13 -73l-177 -27l-87 -496h488l87 496l-167 27l13 73h641l-13 -73l-178 -27l-201 -1141l168 -26l-13 -74h-641l13 74l177 26l94 535h-488l-94 -535l167 -26l-13 -74h-638z" />
<glyph unicode="&#x41e;" horiz-adv-x="1479" d="M74 524q0 355 200 586q136 156 348 216q107 30 235 30t232 -40.5t178 -113.5q154 -150 154 -390q0 -327 -180 -562q-129 -168 -349 -236q-112 -34 -247 -34t-239 40.5t-178 113.5q-154 150 -154 390zM375 519q0 -126 18.5 -200t54.5 -127q74 -109 209 -109q146 0 259 131 q97 113 154 300q50 166 50 338q0 84 -19 159t-55 129q-77 111 -214 111q-143 0 -256 -133q-95 -114 -151 -303q-50 -170 -50 -296z" />
<glyph unicode="&#x41f;" horiz-adv-x="1593" d="M-15 0l13 73l174 27l201 1142l-166 26l14 73h1424l-14 -73l-177 -26l-201 -1142l166 -27l-11 -73h-636l11 73l178 27l200 1131h-496l-200 -1131l166 -27l-11 -73h-635z" />
<glyph unicode="&#x420;" horiz-adv-x="1251" d="M-1 0l11 73l162 27l202 1142l-168 26l12 73h531q393 0 485 -209q30 -67 30 -159t-35 -176t-107 -145q-149 -126 -435 -126h-143l-76 -426l219 -27l-11 -73h-677zM564 636h79q152 0 239 92q89 92 89 252q0 129 -67 194q-58 56 -166 56h-69z" />
<glyph unicode="&#x421;" horiz-adv-x="1366" d="M70 531q0 382 237 606q231 219 605 219q226 0 473 -52l-53 -337h-84v194q-113 90 -291 90q-250 0 -410 -199q-164 -203 -164 -530q0 -309 194 -406q66 -33 139 -33t125.5 8.5t98.5 22.5q95 28 151 70l77 220h85l-66 -340q-257 -84 -517 -84q-289 0 -446 152 q-154 147 -154 399z" />
<glyph unicode="&#x422;" horiz-adv-x="1251" d="M149 966l66 375h1103l-66 -375h-88l13 249q-81 18 -225 18h-59l-200 -1133l208 -27l-12 -73h-722l12 73l218 27l200 1135h-61q-130 0 -225 -20l-75 -249h-87z" />
<glyph unicode="&#x423;" horiz-adv-x="1425" d="M137 1268l13 73h613l-13 -73l-165 -26l276 -652l439 652l-147 26l13 73h449l-13 -73l-162 -28l-550 -809q-166 -244 -274 -337q-129 -113 -278 -113q-127 0 -193 44l35 279h65l30 -117q30 -49 98 -49q144 0 298 203l-388 901z" />
<glyph unicode="&#x424;" horiz-adv-x="1741" d="M67 635q0 230 145 363q152 139 429 139h169l17 105l-166 26l13 73h636l-13 -73l-178 -26l-17 -105h111q220 0 349 -112q128 -111 128 -299q0 -230 -148 -364q-155 -140 -434 -140h-169l-20 -122l165 -27l-12 -73h-636l12 73l179 27l20 122h-111q-224 0 -350 116 q-119 110 -119 297zM349 642q0 -90 19.5 -148.5t53.5 -97.5q66 -76 172 -76h71l126 719h-128q-145 0 -228 -103q-86 -107 -86 -294zM958 320h128q145 0 228 103q86 107 86 293q0 90 -19.5 149t-52.5 97q-67 77 -173 77h-72z" />
<glyph unicode="&#x425;" horiz-adv-x="1366" d="M-52 0l12 73l153 27l461 535l-238 607l-146 26l13 73h613l-13 -73l-165 -26l143 -367l316 367l-151 26l13 73h449l-13 -73l-153 -26l-416 -482l259 -660l147 -27l-12 -73h-613l12 73l165 27l-165 420l-362 -420l151 -27l-12 -73h-448z" />
<glyph unicode="&#x426;" horiz-adv-x="1593" d="M-17 0l14 73l177 26l201 1143l-169 27l11 73h639l-11 -73l-178 -27l-200 -1132h496l200 1132l-166 27l11 73h635l-13 -73l-174 -27l-201 -1143l216 -26l-157 -510h-95l-46 437h-1190z" />
<glyph unicode="&#x427;" horiz-adv-x="1532" d="M191 1268l12 73h592l-12 -73l-158 -27l-55 -311q-14 -91 -14 -142q0 -103 52.5 -150t131.5 -47q123 0 249 30l109 620l-167 27l13 73h640l-14 -73l-176 -27l-202 -1141l167 -26l-13 -74h-638l13 74l176 26l72 411q-166 -61 -321 -61q-386 0 -386 336q0 50 13 141l54 314z " />
<glyph unicode="&#x428;" horiz-adv-x="2306" d="M-17 0l14 74l177 26l201 1141l-169 27l11 73h639l-11 -73l-178 -27l-200 -1130h460l199 1130l-169 27l11 73h639l-11 -73l-178 -27l-200 -1130h458l200 1130l-166 27l11 73h635l-13 -73l-174 -27l-201 -1141l167 -26l-13 -74h-2139z" />
<glyph unicode="&#x429;" horiz-adv-x="2306" d="M-17 0l14 73l177 26l201 1142l-169 27l11 73h639l-11 -73l-178 -27l-200 -1131h460l199 1131l-169 27l11 73h639l-11 -73l-178 -27l-200 -1131h458l200 1131l-166 27l11 73h635l-13 -73l-174 -27l-201 -1142l216 -26l-157 -510h-95l-46 437h-1903z" />
<glyph unicode="&#x42a;" horiz-adv-x="1557" d="M83 966l67 375h1019l-14 -73l-227 -27l-86 -486h96q250 0 378 -84.5t128 -265.5q0 -319 -374 -384q-122 -21 -278 -21h-549l13 73l176 26l200 1136h-171q-120 0 -215 -20l-76 -249h-87zM730 110h66q176 0 256 60q94 70 94 242q0 115 -71.5 174t-208.5 59h-42z" />
<glyph unicode="&#x42b;" horiz-adv-x="1985" d="M-19 0l13 73l176 26l201 1142l-167 27l13 73h689l-13 -73l-227 -27l-86 -486h86q250 0 380 -84.5t130 -265.5q0 -319 -378 -384q-122 -21 -278 -21h-539zM467 110h56q177 0 258 60q96 71 96 242q0 115 -73.5 174t-210.5 59h-31zM1162 0l13 74l176 26l201 1141l-167 27 l13 73h639l-13 -73l-177 -27l-201 -1141l167 -26l-13 -74h-638z" />
<glyph unicode="&#x42c;" horiz-adv-x="1298" d="M-18 0l13 73l176 26l201 1142l-167 27l13 73h689l-13 -73l-227 -27l-86 -486h96q250 0 380 -84.5t130 -265.5q0 -319 -378 -384q-122 -21 -278 -21h-549zM468 110h66q177 0 258 60q96 71 96 242q0 115 -73.5 174t-210.5 59h-41z" />
<glyph unicode="&#x42d;" horiz-adv-x="1333" d="M0 39l53 337h84v-194q122 -97 244 -97t213 38t163 109q149 149 191 402h-482l19 110h474q3 34 3 99.5t-18 146t-59 138.5q-87 125 -268 125q-159 0 -272 -81l-67 -180h-85l58 310q203 54 387 54t296 -39.5t188 -112.5q153 -147 153 -399q0 -382 -232 -606 q-227 -219 -599 -219q-174 0 -348 38q-48 11 -96 21z" />
<glyph unicode="&#x42e;" horiz-adv-x="2163" d="M-15 0l13 74l176 26l201 1141l-167 27l13 73h639l-13 -73l-177 -27l-87 -496h257q57 273 238 436q196 175 492 175q246 0 392 -154q143 -150 143 -390q0 -329 -171 -562q-124 -168 -336 -236q-109 -34 -239.5 -34t-229.5 40.5t-168 113.5q-143 150 -143 390q0 41 5 111 h-260l-94 -535l167 -26l-13 -74h-638zM1119 476q0 -83 15 -157t46 -127q65 -109 191 -109q137 0 243 131q89 111 143 300q47 164 47 293q0 444 -258 444q-136 0 -240 -133q-135 -172 -176 -474q-11 -85 -11 -168z" />
<glyph unicode="&#x42f;" horiz-adv-x="1411" d="M-60 0l13 73l117 27l378 533q-206 96 -206 314t168 311q152 83 481 83h572l-13 -73l-176 -26l-201 -1142l167 -27l-13 -73h-619l13 73l157 27l84 478h-144l-381 -578h-397zM540 940q0 -125 72.5 -188.5t202.5 -63.5h66l96 543h-77q-176 0 -260 -58q-100 -70 -100 -233z " />
<glyph unicode="&#x430;" d="M24 341q0 107 40.5 224t114.5 205.5t178 141t236.5 52.5t245.5 -45l82 37h54l-152 -866l109 -32l-8 -58h-347l-4 138q-126 -159 -285 -159q-186 0 -244 191q-20 64 -20 171zM287 351q0 -164 77 -211q22 -13 44.5 -13t47 12.5t48.5 32.5q45 40 81 94l99 563 q-45 34 -115 34t-120.5 -45t-86.5 -118q-75 -152 -75 -349z" />
<glyph unicode="&#x431;" horiz-adv-x="1022" d="M50 510.5q0 159.5 42.5 322t122.5 276.5q160 227 453 262q63 7 121 11.5t105 13.5q104 18 126 70h70q-36 -172 -126 -243q-91 -71 -300 -95q-117 -13 -193 -32t-124.5 -58t-75.5 -105t-46 -173h7q80 145 242 190q53 15 124 15t140 -27t118 -78q104 -107 104 -289 q0 -246 -136 -413q-145 -178 -387 -178q-175 0 -281 130q-51 63 -78.5 152t-27.5 248.5zM303 319q0 -115 37 -177.5t89.5 -62.5t98 40.5t81.5 112.5q80 162 80 398t-125 236q-47 0 -94 -43.5t-84 -118.5q-83 -168 -83 -385z" />
<glyph unicode="&#x432;" horiz-adv-x="915" d="M32 385.5q0 120.5 44.5 231.5t119.5 189q153 159 374 159q226 0 290 -118q19 -36 19 -79.5t-19 -84.5t-54 -77q-74 -73 -204 -115q232 -54 232 -237q0 -54 -28 -107t-81 -90q-110 -77 -302 -77q-279 0 -363 212q-28 73 -28 193.5zM297 337q0 -55 8.5 -101t26.5 -80 q39 -75 110 -75q134 0 134 173q0 121 -102 172q-32 15 -71 19q-38 -6 -99 -11q-7 -42 -7 -97zM317 517q147 16 229 80t82 171q0 71 -50 100q-14 9 -43 9t-66.5 -31.5t-68.5 -82.5q-64 -108 -83 -246z" />
<glyph unicode="&#x433;" horiz-adv-x="756" d="M17 227q0 106 67 171q66 63 231 123q135 50 135 192q0 93 -73 117q-20 6 -38 6q-86 0 -190 -78l-48 58q134 144 337 144q129 0 200 -56t71 -161.5t-68 -173.5t-206 -119q-88 -32 -114 -62q-45 -50 -45 -138q0 -108 78 -138q22 -8 48 -8q111 0 228 88l45 -58 q-149 -154 -379 -154q-134 0 -209 73q-70 68 -70 174z" />
<glyph unicode="&#x434;" horiz-adv-x="1016" d="M35 373q0 245 147 407q145 160 365 160q104 0 157 -44q-17 164 -90 280q-40 62 -98.5 102t-128.5 40t-132 -19l-19 96q74 26 187 26t214.5 -44.5t174.5 -134.5q154 -190 154 -545q0 -319 -146 -513q-152 -204 -418 -204q-179 0 -276 113q-91 105 -91 280zM301 294 q0 -107 36 -161t95 -54q115 0 194 169q76 161 76 378q0 162 -88 198q-25 11 -63.5 11t-85.5 -43.5t-83.5 -118t-58.5 -173.5t-22 -206z" />
<glyph unicode="&#x435;" horiz-adv-x="909" d="M48 330q0 261 158 450q97 117 227 162q64 23 133.5 23t125.5 -15.5t94 -43.5q78 -55 78 -133t-36 -137.5t-105 -106.5q-149 -102 -398 -121q-5 -20 -5 -68q0 -236 181 -236q115 0 255 94l44 -63q-122 -102 -272 -141q-57 -14 -134 -14t-145.5 24.5t-112.5 69.5 q-88 88 -88 256zM341 508q128 13 207 94q72 75 72 171q0 42 -20.5 63t-53.5 21t-66.5 -30t-61.5 -79q-56 -100 -77 -240z" />
<glyph unicode="&#x436;" horiz-adv-x="1950" d="M-1 25l42 258h68l23 -151q27 -50 98 -50q37 0 78 35t75 102q78 154 78 386q0 174 -73 223q-21 13 -43 13q-86 0 -198 -94l-44 63q144 155 313 155q212 0 254 -208q13 -64 13 -120t-6 -122h160l72 425h245l-72 -425h159q45 209 157 329q114 121 264 121q124 0 246 -45 l-42 -258h-68l-23 151q-27 50 -98 50q-37 0 -78 -35t-75 -102q-78 -154 -78 -386q0 -176 74 -223q20 -13 42 -13q86 0 198 94l44 -63q-144 -155 -313 -155q-267 0 -267 333q0 61 5 116h-161l-71 -429h-246l71 429h-158q-44 -206 -156 -327q-112 -122 -263 -122 q-124 0 -246 45z" />
<glyph unicode="&#x437;" horiz-adv-x="799" d="M-46 80l40 80q127 -60 249 -60q141 0 183 101q14 35 14 83q0 149 -147 149h-110l19 103h111q88 0 138 49.5t50 128.5t-32.5 115t-86.5 36q-91 0 -159 -52l-58 -103h-75l42 224q160 31 261 31q183 0 274.5 -60.5t91.5 -166.5q0 -153 -132 -221q-41 -21 -91 -31l-1 -6 q115 -24 155 -118q13 -33 13 -90.5t-30.5 -115t-86.5 -96.5q-113 -80 -308 -80q-183 0 -324 100z" />
<glyph unicode="&#x438;" horiz-adv-x="1139" d="M75 874l13 66h386l-102 -568q-22 -116 -22 -156q0 -97 91 -97q65 0 146 73q78 71 113 155l106 593h266l-148 -849l109 -25l-13 -66h-354l8 176q-155 -200 -380 -200q-152 0 -199 117q-16 40 -16 73t2.5 55.5t6.5 49t9 54.5t9 51l85 474z" />
<glyph unicode="&#x439;" horiz-adv-x="1139" d="M75 874l13 66h386l-102 -568q-22 -116 -22 -156q0 -97 91 -97q65 0 146 73q78 71 113 155l106 593h266l-148 -849l109 -25l-13 -66h-354l8 176q-155 -200 -380 -200q-152 0 -199 117q-16 40 -16 73t2.5 55.5t6.5 49t9 54.5t9 51l85 474zM324 1385l242 40 q33 -178 142 -178q128 0 223 145q27 41 51 84l82 -37q-63 -134 -123.5 -194t-125.5 -91t-146.5 -31t-136.5 19t-95 54q-71 61 -113 189z" />
<glyph unicode="&#x43a;" horiz-adv-x="1038" d="M42 0l150 850l-92 24l11 66h365l-84 -479l394 397l-104 17l12 65h386l-11 -63l-94 -18l-291 -269l250 -493l86 -25l-13 -73h-322l-199 413l-123 -115l-52 -297h-269z" />
<glyph unicode="&#x43b;" horiz-adv-x="1051" d="M-70 15l41 157h61l9 -36q9 -30 32 -30q32 0 62 72q57 133 112 325t91.5 264t81.5 115q85 81 231 81q124 0 333 -27l-149 -846l96 -24l-13 -66h-370l154 862q-20 11 -69 11t-89 -20.5t-69 -60.5q-47 -64 -96.5 -226.5t-83 -273t-67 -180t-74 -101t-90.5 -31.5 q-86 0 -134 35z" />
<glyph unicode="&#x43c;" horiz-adv-x="1403" d="M-70 15l41 157h61l14 -36q9 -30 27 -30q68 0 187 481l66 263l-118 25l12 65h363l90 -628l373 628h290l-149 -850l89 -24l-13 -66h-345l132 750l-455 -770h-76l-115 772l-44 -192q-78 -338 -123 -429t-86.5 -121t-89.5 -30q-83 0 -131 35z" />
<glyph unicode="&#x43d;" horiz-adv-x="1137" d="M54 0l148 850l-112 24l12 66h385l-73 -415h316l73 415h267l-148 -850l112 -24l-12 -66h-385l74 421h-316l-74 -421h-267z" />
<glyph unicode="&#x43e;" d="M32 374q0 244 148 412q156 179 400 179q169 0 270 -105q104 -107 104 -289q0 -244 -148 -413q-71 -81 -172.5 -129.5t-206 -48.5t-173.5 27t-118 78q-104 107 -104 289zM297 319q0 -115 37 -177.5t89.5 -62.5t98 40.5t81.5 112.5q80 162 80 398t-125 236q-47 0 -94 -43.5 t-84 -118.5q-83 -168 -83 -385z" />
<glyph unicode="&#x43f;" horiz-adv-x="1139" d="M42 0l148 849l-89 25l13 66h334l-8 -175q155 200 380 200q151 0 199 -113q16 -38 16 -72q0 -50 -9 -106l-8 -48q-4 -25 -8 -46l-87 -490l116 -24l-13 -66h-386l102 569q22 116 22 156q0 97 -91 97q-65 0 -146 -74q-77 -69 -113 -154l-106 -594h-266z" />
<glyph unicode="&#x440;" d="M-146 -436l12 65l104 24l214 1202l-99 25l12 60h345l-6 -138q125 163 267 163q113 0 184 -85q75 -90 75 -234t-35.5 -262t-102.5 -208q-147 -196 -375 -196q-86 0 -155 33q-6 -68 -9.5 -91.5t-4.5 -32.5l-38 -236l160 -24l-12 -65h-536zM322 127q48 -48 101.5 -48 t88.5 20.5t64 56.5t52 84.5t38 105.5q33 118 33 209.5t-9.5 134.5t-25.5 70q-30 53 -70 53q-74 0 -174 -133z" />
<glyph unicode="&#x441;" horiz-adv-x="909" d="M30 328q0 158 48.5 277t127.5 199q157 161 379 161q165 0 294 -45l-49 -288h-72l-14 171q-54 60 -146 60q-119 0 -208 -146q-92 -151 -92 -377q0 -180 105 -223q32 -13 68 -13q121 0 255 94l44 -63q-112 -100 -259 -139q-57 -16 -133.5 -16t-144.5 25.5t-113 72.5 q-90 92 -90 250z" />
<glyph unicode="&#x442;" horiz-adv-x="1593" d="M39 0l148 849l-89 25l13 66h328l-3 -168q142 193 334 193q130 0 174 -107q16 -38 17 -91q141 198 338 198q133 0 177 -117q15 -40 15 -73t-3 -55.5t-6.5 -48t-8 -50t-7.5 -41.5l-87 -490l116 -24l-13 -66h-386l102 569q22 115 22 156q0 97 -72 97q-56 0 -126 -84 q-73 -87 -89 -175l-99 -563h-267l102 569q22 116 22 156q0 97 -74 97q-51 0 -115 -74q-57 -64 -91 -154l-106 -594h-266z" />
<glyph unicode="&#x443;" horiz-adv-x="909" d="M-205 -423l42 242h60l20 -126q25 -23 66 -23t78 23.5t73 62.5q59 62 138 192l28 47l-214 855l-61 24l11 66h303l152 -639l181 300q64 105 64 180q0 65 -56 83q-17 6 -34 11l12 65h231q26 -23 26 -51t-3 -49t-12 -48q-21 -63 -66 -135l-439 -716q-116 -190 -184 -256.5 t-127 -96.5t-107.5 -30t-69 1t-38.5 3q-31 5 -74 15z" />
<glyph unicode="&#x444;" horiz-adv-x="1466" d="M32 312q0 84 15 166t44 154.5t71 133.5t96.5 105t120.5 68.5t146.5 24.5t143.5 -19l67 387l-124 24l12 65h386l-69 -387q-1 -7 -4.5 -23t-7.5 -35q-8 -36 -16 -63q100 51 185 51t135 -21t86 -62q77 -88 77 -247q0 -267 -130 -456q-136 -198 -360 -198q-83 0 -148 19 l-59 -346l110 -24l-12 -65h-372l59 330q3 14 6.5 33t7.5 39q13 55 19 72q-182 -96 -322 -37q-102 43 -143 165q-20 62 -20 146zM285 344q0 -247 119 -247q47 0 120 30l127 710q-57 32 -109 32t-98.5 -45.5t-81.5 -119.5q-77 -161 -77 -360zM777 113q49 -37 105 -37 t102.5 45.5t81.5 119.5q77 163 77 359q0 251 -126 251q-51 0 -113 -30z" />
<glyph unicode="&#x445;" d="M-25 46q0 61 137 175l284 239l-202 390l-86 25l11 65h299l165 -325l102 85q98 81 98 136q0 29 -55 39l12 65h213q21 -16 21 -49q0 -69 -138 -184l-208 -174l228 -447l86 -21l-11 -65h-302l-190 374l-165 -138q-86 -73 -90 -110q-2 -12 -2 -22q0 -30 42 -39l-12 -65h-221 q-16 13 -16 46z" />
<glyph unicode="&#x446;" horiz-adv-x="1139" d="M75 874l13 66h386l-103 -568q-21 -110 -21 -156q0 -97 83 -97q56 0 137 76q83 76 116 157l105 588h266l-148 -849l109 -25l-102 -474h-288l196 408h-173l8 169q-150 -193 -370 -193q-143 0 -193 117q-17 40 -17 73t2.5 55.5t6.5 48.5q9 58 15 91l88 489z" />
<glyph unicode="&#x447;" horiz-adv-x="1075" d="M35 874l13 66h386l-51 -278q-22 -116 -22 -159q0 -94 81 -94q65 0 140 73q71 69 107 155l53 303h266l-148 -849l109 -25l-13 -66h-378l81 463q-76 -98 -160 -147.5t-189 -49.5q-217 0 -217 217q0 42 9.5 95.5t12.5 72.5l36 199z" />
<glyph unicode="&#x448;" horiz-adv-x="1706" d="M75 874l13 66h386l-102 -568q-22 -116 -22 -156q0 -97 91 -97t193 137q42 57 54 105l102 579h268l-102 -568q-22 -116 -22 -156q0 -97 91 -97q96 0 199 151q39 56 45 92l103 578h266l-148 -849l109 -25l-13 -66h-354l26 175q-154 -199 -380 -199q-139 0 -192 101 q-18 34 -22 81q-150 -182 -370 -182q-152 0 -199 117q-16 40 -16 73t3 55.5t6.5 48t8 50t7.5 41.5l87 489z" />
<glyph unicode="&#x449;" horiz-adv-x="1706" d="M75 874l13 66h386l-102 -568q-22 -116 -22 -160q0 -93 86 -93q67 0 154 91q79 81 96 151l104 579h266l-102 -568q-22 -116 -22 -160q0 -93 86 -93q97 0 198 146q37 54 48 97l103 578h266l-148 -849l109 -25l-102 -474h-288l196 408h-173l26 175q-154 -199 -382 -199 q-87 0 -143.5 44t-65.5 138q-150 -182 -373 -182q-149 0 -195 117q-15 40 -15 73t3 55.5t6.5 48t8 50t7.5 41.5l87 489z" />
<glyph unicode="&#x44a;" horiz-adv-x="1079" d="M38 652l51 288h556l14 -41q-102 -158 -156 -328q77 10 159 10t147 -18.5t107 -52.5q85 -69 85 -194q0 -238 -238 -311q-81 -25 -182.5 -25t-172 23.5t-118.5 66.5q-95 88 -95 239q0 193 165 405q48 62 101 123h-139q-74 0 -138 -10l-71 -175h-75zM459 323.5 q0 -80.5 12 -124t31 -70.5q38 -52 100 -52t99 55.5t37 158.5q0 205 -156 205q-43 0 -103 -12q-20 -80 -20 -160.5z" />
<glyph unicode="&#x44b;" horiz-adv-x="1421" d="M49 24l144 826l-119 24l15 66h389l-64 -364q60 5 125 5t131.5 -18.5t111.5 -52.5q89 -70 89 -194q0 -336 -465 -336q-196 0 -357 44zM328 87q45 -8 94 -8q186 0 186 221q0 196 -161 196q-26 0 -48 -2zM924 0l166 940h269l-150 -850l119 -24l-11 -66h-393z" />
<glyph unicode="&#x44c;" horiz-adv-x="936" d="M49 24l144 826l-119 24l15 66h389l-64 -364q60 5 125 5t131.5 -18.5t111.5 -52.5q89 -70 89 -194q0 -336 -465 -336q-196 0 -357 44zM328 87q45 -8 94 -8q186 0 186 221q0 196 -161 196q-26 0 -48 -2z" />
<glyph unicode="&#x44d;" horiz-adv-x="850" d="M-55 91l42 75q82 -38 110 -46q57 -16 117 -16t105.5 20.5t84.5 61.5q84 90 113 247h-324l19 103h318q2 28 2 60q0 136 -42 203t-112 67q-71 0 -125 -54l-70 -160h-75l50 280q135 33 243 33t181.5 -28t121.5 -78q92 -97 92 -268t-46 -285.5t-122 -186.5 q-146 -138 -374 -138q-178 0 -309 110z" />
<glyph unicode="&#x44e;" horiz-adv-x="1495" d="M52 0l150 850l-91 24l11 66h365l-73 -415h124q44 192 178 313q143 127 344 127q165 0 264 -105q100 -106 100 -289q0 -244 -145 -413q-70 -81 -169.5 -129.5t-202.5 -48.5t-170 27t-115 78q-100 106 -100 289v24q0 11 1 23h-127l-74 -421h-270zM787 319q0 -115 34 -177.5 t82.5 -62.5t92 40.5t78.5 112.5q79 164 79 399t-115 235q-44 0 -88.5 -43.5t-80.5 -118.5q-82 -171 -82 -385z" />
<glyph unicode="&#x44f;" horiz-adv-x="1055" d="M-63 0l12 65l84 23l257 339q-70 35 -110 97t-40 136t27 130.5t83 93.5q114 76 357 76q191 0 380 -34l-145 -836l91 -24l-9 -66h-367l68 389h-98l-255 -389h-335zM405 662q0 -135 105 -171q30 -10 60 -10h71l68 370q-81 9 -116 9t-69.5 -10.5t-61.5 -33.5 q-57 -50 -57 -154z" />
<glyph unicode="&#x451;" horiz-adv-x="909" d="M48 330q0 261 158 450q97 117 227 162q64 23 133.5 23t125.5 -15.5t94 -43.5q78 -55 78 -133t-36 -137.5t-105 -106.5q-149 -102 -398 -121q-5 -20 -5 -68q0 -236 181 -236q115 0 255 94l44 -63q-122 -102 -272 -141q-57 -14 -134 -14t-145.5 24.5t-112.5 69.5 q-88 88 -88 256zM281 1239.5q0 36.5 10 58t27 37.5q36 35 72.5 35t58 -9.5t37.5 -25.5q35 -35 35 -71.5t-9 -58.5t-25 -38.5t-38 -26.5t-46.5 -10t-46.5 10t-38 26q-37 37 -37 73.5zM341 508q128 13 207 94q72 75 72 171q0 42 -20.5 63t-53.5 21t-66.5 -30t-61.5 -79 q-56 -100 -77 -240zM637 1239q0 37 9.5 58.5t25.5 37.5q37 35 86 35q50 0 76 -26q43 -43 43 -80t-9 -59t-25 -39q-35 -36 -85 -36q-49 0 -76 26q-45 46 -45 83z" />
<glyph unicode="&#x452;" horiz-adv-x="1071" d="M40 0l193 1099h-144l20 103h142l23 129l-91 24l11 66h365l-40 -219h255l-20 -103h-254l-25 -141q-7 -38 -15 -87q-13 -82 -19 -102q143 196 352 196q141 0 185 -117q15 -40 15 -73t-3 -55.5t-6.5 -48t-8 -50t-7.5 -41.5l-109 -619q-71 -397 -426 -397q-89 0 -168 18 l39 225h63l23 -114q19 -19 43.5 -19t46 13.5t40.5 43.5q44 67 66 198l114 640q22 116 22 156q0 97 -80 97q-58 0 -130 -74q-68 -68 -100 -154l-106 -594h-266z" />
<glyph unicode="&#x453;" horiz-adv-x="805" d="M42 0l148 850l-121 25l12 65h724l-51 -288h-75l-14 166q-105 19 -199 19h-37l-148 -837h-239zM353 1118v33l196 272h285v-37l-395 -268h-86z" />
<glyph unicode="&#x454;" horiz-adv-x="850" d="M30 328q0 158 48.5 277t127.5 199q157 161 379 161q165 0 294 -45l-49 -288h-72l-14 171q-54 60 -146 60q-90 0 -166 -87q-76 -88 -112 -234h290l-19 -100h-288q-5 -62 -5 -113.5t13.5 -96.5t36.5 -74q44 -54 123 -54q121 0 255 94l44 -63q-112 -100 -259 -139 q-57 -16 -133.5 -16t-144.5 25.5t-113 72.5q-90 92 -90 250z" />
<glyph unicode="&#x455;" horiz-adv-x="797" d="M-11 34l46 261h66l15 -132q64 -90 177 -90q127 0 168 95q12 27 12 57.5t-14.5 54t-39 43.5t-56 38t-69 39.5t-74 48t-64.5 59.5q-61 73 -61 172q0 285 377 285q118 0 262 -32l-43 -241h-66l-13 110q-21 26 -62 47.5t-104.5 21.5t-99 -34t-35.5 -75.5t13 -63.5t35 -41 q32 -27 93 -61.5t101 -60.5t71 -59q69 -73 69 -179q0 -152 -102 -234.5t-305 -82.5q-115 0 -247 37q-32 9 -50 17z" />
<glyph unicode="&#x456;" horiz-adv-x="569" d="M52 0l150 850l-91 24l11 66h365l-150 -850l119 -24l-11 -66h-393zM253 1268q0 65 45 108q46 45 109 45q64 0 108.5 -44.5t44.5 -108.5q0 -63 -44 -109q-44 -45 -109 -45q-64 0 -109 45t-45 109z" />
<glyph unicode="&#x457;" horiz-adv-x="569" d="M47 0l150 850l-91 24l11 66h365l-150 -850l119 -24l-11 -66h-393zM78 1239.5q0 36.5 10 58t27 37.5q36 35 72.5 35t58 -9.5t37.5 -25.5q35 -35 35 -71.5t-9 -58.5t-25 -38.5t-38 -26.5t-46.5 -10t-46.5 10t-38 26q-37 37 -37 73.5zM434 1239q0 37 9.5 58.5t25.5 37.5 q37 35 86 35q50 0 76 -26q43 -43 43 -80t-9 -59t-25 -39q-35 -36 -85 -36q-49 0 -76 26q-45 46 -45 83z" />
<glyph unicode="&#x458;" horiz-adv-x="569" d="M-268 -418l39 225h63l24 -118q20 -15 43.5 -15t45 13.5t41.5 43.5q43 67 65 198l161 911l-160 34l11 66h435l-172 -979q-71 -397 -428 -397q-89 0 -168 18zM268 1268q0 65 45 108q46 45 109 45q64 0 108.5 -44.5t44.5 -108.5q0 -63 -45 -109q-43 -45 -108 -45 q-64 0 -109 45t-45 109z" />
<glyph unicode="&#x459;" horiz-adv-x="1350" d="M-70 15l41 157h61l9 -36q9 -30 32 -30q32 0 62 72q57 133 112 325t91.5 264t81.5 115q85 81 231 81q122 0 289 -23l-64 -363q40 4 104.5 4t127 -18.5t104.5 -52.5q83 -70 83 -194q0 -336 -440 -336q-185 0 -346 44l150 849h-18q-107 0 -166 -81q-47 -64 -96.5 -226.5 t-83 -273t-67 -180t-74 -101t-90.5 -31.5q-86 0 -134 35zM791 87q36 -8 75 -8t68.5 12.5t51.5 39.5q46 58 46 172q0 141 -88 181q-25 11 -42 11q-26 0 -42 -2z" />
<glyph unicode="&#x45a;" horiz-adv-x="1460" d="M54 0l148 850l-111 24l11 66h385l-73 -415h273l73 415h270l-64 -363q42 4 109.5 4t133 -18.5t109.5 -52.5q87 -70 87 -194q0 -336 -460 -336q-185 0 -346 44l70 397h-274l-74 -421h-267zM877 87q45 -8 83.5 -8t71.5 12.5t58 39.5q52 58 52 164.5t-42 153.5t-113 47 q-19 0 -37 -2z" />
<glyph unicode="&#x45b;" horiz-adv-x="1139" d="M40 0l193 1099h-144l20 103h142l23 129l-91 24l11 66h365l-40 -219h255l-20 -103h-254l-25 -141q-7 -38 -15 -87q-13 -82 -19 -102q154 196 377 196q152 0 199 -117q16 -40 16 -73t-3 -55.5t-6.5 -48t-8 -50t-7.5 -41.5l-87 -490l116 -24l-13 -66h-386l102 569 q22 116 22 156q0 97 -91 97q-65 0 -146 -74q-77 -69 -113 -154l-106 -594h-266z" />
<glyph unicode="&#x45c;" horiz-adv-x="1038" d="M42 0l150 850l-92 24l11 66h365l-84 -479l394 397l-104 17l12 65h386l-11 -63l-94 -18l-291 -269l250 -493l86 -25l-13 -73h-322l-199 413l-123 -115l-52 -297h-269zM455 1118l6 33l196 272h285l-4 -37l-397 -268h-86z" />
<glyph unicode="&#x45e;" horiz-adv-x="909" d="M-205 -423l42 242h60l20 -126q25 -23 66 -23t78 23.5t73 62.5q59 62 138 192l28 47l-214 855l-61 24l11 66h303l152 -639l181 300q64 105 64 180q0 65 -56 83q-17 6 -34 11l12 65h231q26 -23 26 -51t-3 -49t-12 -48q-21 -63 -66 -135l-439 -716q-116 -190 -184 -256.5 t-127 -96.5t-107.5 -30t-69 1t-38.5 3q-31 5 -74 15zM234 1385l242 40q33 -178 142 -178q128 0 223 145q27 41 51 84l82 -37q-63 -134 -123.5 -194t-125.5 -91t-146.5 -31t-136.5 19t-95 54q-71 61 -113 189z" />
<glyph unicode="&#x45f;" horiz-adv-x="1139" d="M75 874l13 66h386l-102 -568q-22 -116 -22 -156q0 -97 91 -97q65 0 146 73q78 71 113 155l106 593h266l-148 -849l89 -25l-13 -66h-334l8 176q-155 -200 -380 -200q-152 0 -199 117q-16 40 -16 73t3 55.5t6.5 48t8 50t7.5 41.5l87 489zM241 -436l139 324l202 87l-53 -411 h-288z" />
<glyph unicode="&#x490;" horiz-adv-x="963" d="M-16 0l13 73l176 26l201 1142l-167 27l14 73h576l210 339h95l-60 -445h-374l-200 -1136l192 -26l-13 -73h-663z" />
<glyph unicode="&#x491;" horiz-adv-x="756" d="M53 0l148 850l-121 25l12 65h446l171 271h95l-55 -374h-309l-148 -837h-239z" />
<glyph unicode="&#x2013;" d="M-33 406v143h1052v-143h-1052z" />
<glyph unicode="&#x2014;" horiz-adv-x="2048" d="M-31 406v143h2076v-143h-2076z" />
<glyph unicode="&#x2018;" horiz-adv-x="682" d="M232 949q0 59 21.5 124t68.5 120q98 116 297 168v-92q-92 -25 -143 -89q-39 -50 -39 -83.5t10.5 -47t26 -24.5t34 -22.5t34.5 -27.5q36 -38 36 -101t-45 -97t-98.5 -34t-87.5 12.5t-59.5 37.5t-40.5 61t-15 95z" />
<glyph unicode="&#x2019;" horiz-adv-x="682" d="M222 743v92q92 25 142 89q40 50 40 83.5t-10.5 47t-26 24.5t-34 22.5t-33.5 27.5q-37 38 -37 101t45 97t98.5 34t87.5 -12.5t59.5 -37.5t40.5 -61t15 -95.5t-21.5 -124t-67.5 -119.5q-99 -116 -298 -168z" />
<glyph unicode="&#x201a;" horiz-adv-x="682" d="M35 -225q92 25 143 89q39 50 39 83.5t-10.5 47t-26 24.5t-34 22.5t-34.5 27.5q-36 38 -36 101t45 97t98.5 34t87.5 -12.5t59.5 -37.5t40.5 -61t15 -95.5t-21.5 -124t-68.5 -119.5q-98 -116 -297 -168v92z" />
<glyph unicode="&#x201c;" d="M194 949q0 59 21.5 124t68.5 120q98 116 297 168v-92q-92 -25 -143 -89q-39 -50 -39 -83.5t10.5 -47t26 -24.5t34 -22.5t34.5 -27.5q36 -38 36 -101t-45 -97t-98.5 -34t-87.5 12.5t-59.5 37.5t-40.5 61t-15 95zM614 949q0 59 21.5 124t68.5 120q98 116 297 168v-92 q-92 -25 -143 -89q-39 -50 -39 -83.5t10.5 -47t26 -24.5t34 -22.5t34.5 -27.5q36 -38 36 -101t-45 -97t-98.5 -34t-87.5 12.5t-59.5 37.5t-40.5 61t-15 95z" />
<glyph unicode="&#x201d;" d="M183 743v92q92 25 143 89q39 50 39 83.5t-10.5 47t-26 24.5t-34 22.5t-34.5 27.5q-36 38 -36 101t45 97t98.5 34t87.5 -12.5t59.5 -37.5t40.5 -61t15 -95.5t-21.5 -124t-68.5 -119.5q-98 -116 -297 -168zM603 743v92q92 25 143 89q39 50 39 83.5t-10.5 47t-26 24.5 t-34 22.5t-34.5 27.5q-36 38 -36 101t45 97t98.5 34t87.5 -12.5t59.5 -37.5t40.5 -61t15 -95.5t-21.5 -124t-68.5 -119.5q-98 -116 -297 -168z" />
<glyph unicode="&#x201e;" d="M4 -225q92 25 142 89q40 50 40 83.5t-10.5 47t-26 24.5t-34 22.5t-33.5 27.5q-37 38 -37 101t45 97t98.5 34t87.5 -12.5t59.5 -37.5t40.5 -61t15 -95.5t-21.5 -124t-67.5 -119.5q-99 -116 -298 -168v92zM424 -225q92 25 142 89q40 50 40 83.5t-10.5 47t-26 24.5t-34 22.5 t-33.5 27.5q-37 38 -37 101t45 97t98.5 34t87.5 -12.5t59.5 -37.5t40.5 -61t15 -95.5t-21.5 -124t-67.5 -119.5q-99 -116 -298 -168v92z" />
<glyph unicode="&#x2022;" horiz-adv-x="717" d="M96 678q0 115 80 196q82 81 197 81t197 -81q80 -81 80 -196t-80 -196q-82 -81 -197 -81t-197 81q-80 81 -80 196z" />
<glyph unicode="&#x2026;" horiz-adv-x="2048" d="M97 137q0 69 48.5 117.5t117.5 48.5t117.5 -48.5t48.5 -117.5t-48.5 -117.5t-118.5 -48.5q-34 0 -64 13t-52 36q-49 48 -49 117zM787 137q0 69 48.5 117.5t117.5 48.5t117.5 -48.5t48.5 -117.5t-48.5 -117.5t-118.5 -48.5q-34 0 -64 13t-52 36q-49 48 -49 117zM1477 137 q0 69 48.5 117.5t117.5 48.5t117.5 -48.5t48.5 -117.5t-48.5 -117.5t-118.5 -48.5q-34 0 -64 13t-52 36q-49 48 -49 117z" />
<glyph unicode="&#x2039;" horiz-adv-x="682" d="M112 429l12 66l383 356h100l-261 -389l124 -388h-100z" />
<glyph unicode="&#x203a;" horiz-adv-x="682" d="M29 74l260 389l-123 389h100l257 -356l-12 -66l-382 -356h-100z" />
<glyph unicode="&#x20ac;" d="M-11 493l18 101h110q2 14 5 33t6 37q6 34 15 74h-110l17 101h118q79 265 225 391t366 126q135 0 208 -12.5t112 -20.5l-46 -285h-89l-2 150q-73 65 -177 65q-162 0 -266 -221q-37 -79 -65 -193h284l-17 -101h-287q-5 -15 -8.5 -33t-7.5 -37q-7 -40 -10 -74h287l-18 -101 h-284q-4 -50 -4 -93q0 -161 54 -239t134 -78q137 0 222 80l57 165h89l-56 -298q-173 -50 -312 -50t-217.5 31t-130.5 90q-103 117 -103 341v26q0 12 1 25h-118z" />
<glyph unicode="&#x2122;" horiz-adv-x="2048" d="M146 1112v231h742v-231h-71l-16 149q-11 2 -24.5 4.5t-32.5 4.5q-38 4 -104 4h-30v-660l128 -16v-60h-445v60l128 16v661h-31q-93 0 -119.5 -6t-37.5 -8l-16 -149h-71zM945 538v60l103 16v653l-103 16v60h335l214 -495l218 495h322v-60l-103 -16v-653l103 -16v-60h-400 v60l108 16v586l-293 -662h-33l-278 645v-569l103 -16v-60h-296z" />
<glyph unicode="&#xe000;" horiz-adv-x="940" d="M0 0v940h940v-940h-940z" />
</font>
</defs>
</svg>
