<?xml version="1.0" standalone="no"?>
<!DOCTYPE svg PUBLIC "-//W3C//DTD SVG 1.1//EN" "http://www.w3.org/Graphics/SVG/1.1/DTD/svg11.dtd" >
<svg xmlns="http://www.w3.org/2000/svg">
<metadata></metadata>
<defs>
<font id="LiberationSerifItalic" horiz-adv-x="1024" >
<font-face units-per-em="2048" ascent="1638" descent="-410" />
<missing-glyph horiz-adv-x="512" />
<glyph horiz-adv-x="0" />
<glyph horiz-adv-x="2048" />
<glyph unicode="&#xd;" horiz-adv-x="512" />
<glyph unicode=" "  horiz-adv-x="512" />
<glyph unicode="&#x09;" horiz-adv-x="512" />
<glyph unicode="&#xa0;" horiz-adv-x="512" />
<glyph unicode="!" horiz-adv-x="682" d="M158 92q0 51 26 76q44 45 82 45t60.5 -9.5t38.5 -25.5q35 -35 35 -86q0 -49 -26 -76q-66 -69 -143 -36q-44 19 -63 65q-10 22 -10 47zM269 389l105 952h218l-229 -952h-94z" />
<glyph unicode="&#x22;" horiz-adv-x="860" d="M261 860l24 481h197l-147 -481h-74zM646 860l24 481h197l-147 -481h-74z" />
<glyph unicode="#" d="M17 421l17 103h192l112 307h-250l18 103h268l148 407h104l-147 -407h309l148 407h104l-148 -407h164l-18 -103h-182l-111 -307h239l-18 -103h-260l-153 -421h-104l153 421h-310l-152 -421h-105l153 421h-171zM331 524h309l111 307h-309z" />
<glyph unicode="$" d="M24 73l52 298h65l1 -191q55 -78 176 -108q41 -10 86 -11l102 577q-148 74 -199 122q-107 99 -107 230q0 265 251 338q80 24 181 27l23 128h82l-23 -128q143 -3 277 -37l-49 -279h-65l-5 171q-62 50 -173 60l-85 -483q156 -84 210 -135q116 -108 116 -238 q0 -195 -117.5 -306.5t-350.5 -125.5l-24 -138h-82l24 136q-225 4 -366 93zM375 1031q0 -43 12.5 -72.5t34.5 -53.5q39 -42 116 -82l79 447q-182 -14 -228 -154q-14 -42 -14 -85zM487 66q135 17 205 97.5t70 205t-110 193.5q-33 20 -70 39z" />
<glyph unicode="%" horiz-adv-x="1706" d="M117 885q0 50 10 110q65 367 392 367q270 0 270 -259q0 -47 -11 -108q-67 -372 -395 -372q-266 0 -266 262zM208 -20l1192 1382h111l-1193 -1382h-110zM267 831q0 -53 29 -94t88.5 -41t96.5 20.5t64 58.5t58.5 130t31.5 195.5t-31 145.5t-92 42t-96.5 -19.5t-61.5 -56.5 q-60 -89 -83 -293q-4 -35 -4 -88zM917 234q0 46 11 112q65 367 392 367q269 0 269 -260q0 -49 -10 -107q-66 -373 -395 -373q-267 0 -267 261zM1069 229q0 -100 29 -141t88.5 -41t96.5 20.5t64 58.5q51 72 70.5 181t19.5 178q0 154 -136 154q-135 0 -188 -169 q-44 -141 -44 -241z" />
<glyph unicode="&#x26;" horiz-adv-x="1593" d="M87 340q0 256 314 382q46 19 88 34q-108 153 -108 281q0 147 102.5 236t284.5 89q178 0 271 -82q81 -71 81 -193q0 -63 -35 -117t-91 -92q-73 -51 -267 -120l344 -402q147 198 185 371l-137 27l9 53h457l-9 -53l-144 -27q-121 -273 -290 -455l168 -194l162 -24l-10 -54 h-344l-113 137q-154 -115 -309 -145q-66 -12 -167 -12t-188 26.5t-143 73.5q-111 93 -111 260zM285 343q0 -127 73 -201q74 -76 210 -76q206 0 368 153l-398 468q-112 -47 -160 -101q-93 -103 -93 -243zM561 1088q0 -80 30.5 -139.5t81.5 -125.5q147 55 192 91q88 70 88 169 t-50 149t-145 50t-146 -57t-51 -137z" />
<glyph unicode="'" horiz-adv-x="438" d="M245 860l24 481h197l-147 -481h-74z" />
<glyph unicode="(" horiz-adv-x="682" d="M72 213q0 136 29.5 303t86.5 308.5t142 250.5q153 198 457 346l-15 -84q-318 -167 -428 -594q-93 -365 -93 -612q0 -339 224 -483l-15 -84q-199 116 -290 262q-98 158 -98 387z" />
<glyph unicode=")" horiz-adv-x="682" d="M-97 -436l15 84q317 166 426 596q94 366 94 610q0 340 -224 483l15 84q201 -119 291 -261q99 -157 99 -388q0 -122 -30 -294.5t-87.5 -314.5t-141.5 -251q-154 -200 -457 -348z" />
<glyph unicode="*" d="M197 866l328 99l-328 100l64 143l315 -194l-43 327h156l-47 -327l317 190l64 -141l-332 -98l332 -97l-64 -141l-317 188l47 -325h-156l43 328l-315 -195z" />
<glyph unicode="+" horiz-adv-x="1382" d="M233 629v102h424v426h103v-426h426v-102h-426v-426h-103v426h-424z" />
<glyph unicode="," horiz-adv-x="512" d="M68 -238q186 59 186 168q0 28 -19.5 42t-43 28.5t-43 36t-19.5 69.5t34 76.5t74.5 28.5t65 -10.5t42.5 -31.5q38 -44 38 -115t-18 -125t-57 -100q-82 -98 -240 -144v77z" />
<glyph unicode="-" horiz-adv-x="682" d="M76 406v153h532v-153h-532z" />
<glyph unicode="." horiz-adv-x="512" d="M85 92q0 51 25 76q45 45 83 45t60.5 -9.5t38.5 -25.5q35 -35 35 -86q0 -49 -25 -76q-67 -69 -144 -36q-44 19 -64 65q-9 22 -9 47z" />
<glyph unicode="/" horiz-adv-x="569" d="M-94 -20l711 1370h108l-709 -1370h-110z" />
<glyph unicode="0" d="M79 399q0 133 27.5 288t75.5 283t116 215q138 177 354 177q166 0 256 -100t90 -311q0 -131 -28 -287t-75.5 -286t-115.5 -218q-138 -180 -360 -180q-340 0 -340 419zM249 345q0 -205 100 -265q34 -21 94.5 -21t116.5 39t98 114q96 171 146 538q19 135 19 242 q0 290 -189 290q-202 0 -300 -348q-85 -307 -85 -589z" />
<glyph unicode="1" d="M73 0l10 53l279 27l193 1094l-288 -97l10 53l430 222h52l-225 -1272l270 -27l-10 -53h-721z" />
<glyph unicode="2" d="M1 0l26 147q111 83 212 154.5t187.5 139t156.5 135t119 142.5q104 157 104 349q0 107 -58 156t-170 49q-116 0 -217 -53l-64 -164h-66l45 258q191 43 302.5 43t184 -20.5t120.5 -58.5q96 -76 96 -210q0 -256 -242 -481q-130 -120 -296 -236t-275 -196h682l-27 -154h-820z " />
<glyph unicode="3" d="M-3 41l37 282h66l12 -188q59 -46 180 -66q35 -6 98.5 -6t131.5 20.5t111 60.5q83 79 83 224t-68.5 209t-200.5 74l-115 8l14 82l145 9q218 14 262 182q14 54 14 119q0 110 -52 165.5t-163 55.5q-114 0 -215 -53l-64 -164h-66l45 258q127 34 192 38.5t137.5 4.5t146 -20.5 t123.5 -57.5q102 -77 102 -213q0 -312 -358 -363q217 -32 281 -183q21 -50 21 -133.5t-41.5 -163.5t-114.5 -134q-146 -108 -384 -108q-197 0 -360 61z" />
<glyph unicode="4" d="M5 308l20 120l751 920h160l-160 -910h202l-22 -130h-202l-55 -308h-162l55 308h-587zM149 438h465l95 541q20 103 43 201z" />
<glyph unicode="5" d="M32 23l38 282h66l12 -188q86 -54 203.5 -54t185 28t109.5 78q77 93 77 276q0 255 -260 255q-108 0 -201 -24h-96l117 665h680l-27 -153h-590l-75 -428q114 24 219.5 24t183.5 -22.5t130 -65.5q102 -86 102 -242q0 -227 -140 -350q-142 -124 -410 -124q-174 0 -324 43z " />
<glyph unicode="6" d="M83 446q0 256 85 469q82 203 228 321q148 120 327 120q137 0 291 -53l-41 -231h-66l-11 140q-89 60 -177.5 60t-159 -44.5t-124.5 -121.5q-105 -150 -150 -400q165 97 319 97q249 0 321 -177q23 -57 23 -144t-28.5 -181t-87.5 -165q-128 -156 -355 -156q-185 0 -289 122 q-105 124 -105 344zM260 423.5q0 -107.5 17 -174.5t46 -109q56 -81 143 -81t140.5 33.5t87.5 91.5q68 115 68 305q0 218 -200 218q-116 0 -286 -62q-16 -114 -16 -221.5z" />
<glyph unicode="7" d="M120 0l797 1188h-579l-64 -164h-66l56 317h830l-14 -77l-821 -1264h-139z" />
<glyph unicode="8" d="M43 293q0 326 308 418q-64 28 -106.5 87.5t-42.5 153t27 170.5t83 130q116 110 343 110q346 0 346 -270q0 -150 -77 -255q-70 -94 -181 -126q86 -30 135 -99.5t49 -171.5q0 -460 -501 -460q-195 0 -289 81.5t-94 231.5zM220 289q0 -230 218 -230q255 0 298 231 q14 71 14 157q0 219 -216 219q-314 0 -314 -377zM378 945q0 -135 92 -176q33 -15 96.5 -15t115.5 28.5t84 75.5q57 86 57 234q0 141 -95 177q-35 13 -99 13t-115.5 -26.5t-81.5 -71.5q-54 -82 -54 -239z" />
<glyph unicode="9" d="M60 34l39 221h66l11 -140q87 -51 185.5 -51t168.5 44.5t122 121.5q101 153 139 401q-167 -98 -321 -98q-162 0 -254 92q-90 90 -90 246q0 215 119 346q126 139 352 139q286 0 367 -264q27 -87 27 -208.5t-21 -238t-60.5 -218t-94.5 -184t-123 -141.5q-144 -122 -316 -122 q-181 0 -316 54zM312 903q0 -153 55.5 -213.5t143.5 -60.5q147 0 289 61q14 114 14 222t-17 175t-46 109q-56 81 -143 81t-140.5 -30.5t-87.5 -84.5q-68 -106 -68 -259z" />
<glyph unicode=":" horiz-adv-x="682" d="M137 92q0 51 25 76q45 45 83 45t60.5 -9.5t38.5 -25.5q35 -35 35 -86q0 -49 -25 -76q-67 -69 -144 -36q-44 19 -64 65q-9 22 -9 47zM278 839q0 51 26 77q44 44 82 44t60.5 -9.5t38.5 -25.5q35 -35 35 -86q0 -49 -26 -76q-43 -45 -82 -45t-61 9.5t-38 26.5q-35 36 -35 85z " />
<glyph unicode=";" horiz-adv-x="682" d="M95 -238q186 59 186 168q0 28 -19.5 42t-43 28.5t-43 36t-19.5 69.5t34 76.5t74.5 28.5t65 -10.5t42.5 -31.5q38 -44 38 -115t-18 -125t-56 -100q-83 -98 -241 -144v77zM304 839q0 51 26 77q44 44 82 44t60.5 -9.5t38.5 -25.5q35 -35 35 -86q0 -49 -26 -76 q-43 -45 -82 -45t-61 9.5t-38 26.5q-35 36 -35 85z" />
<glyph unicode="&#x3c;" horiz-adv-x="1382" d="M232 655v50l953 469v-103l-809 -391l809 -391v-103z" />
<glyph unicode="=" horiz-adv-x="1382" d="M233 424v102h953v-102h-953zM233 834v102h953v-102h-953z" />
<glyph unicode="&#x3e;" horiz-adv-x="1382" d="M232 186v103l809 391l-809 391v103l953 -469v-50z" />
<glyph unicode="?" d="M291 1036l31 254q159 66 319 66q366 0 366 -293q0 -357 -387 -440l-59 -13l-59 -260h-80l33 334l148 29q115 22 170.5 103t55.5 235q0 221 -199 221q-86 0 -177 -44q-27 -13 -46 -28l-50 -164h-66zM304 92q0 51 26 76q44 45 82 45t60 -9.5t38 -25.5q35 -35 35 -86 q0 -49 -25 -76q-67 -68 -143 -36q-44 19 -63 65q-10 22 -10 47z" />
<glyph unicode="@" horiz-adv-x="1884" d="M120 362q0 430 272 716q175 182 426 252q126 34 283.5 34t289.5 -43.5t221 -123.5q177 -160 177 -445q0 -199 -105 -372q-99 -162 -261 -258q-162 -97 -337 -97q-65 0 -65 51q0 50 8 125q-176 -176 -322 -176q-72 0 -111.5 54.5t-39.5 141.5t15 168.5t44 155.5 q80 205 266 309q83 46 162 53.5t121 7.5h56q39 0 87 -6l-114 -530q-23 -110 -23 -148t2 -49.5t10 -19.5q16 -19 71.5 -19t112.5 25t103.5 68.5t83 102.5t61.5 127q50 139 50 276t-41 236t-117 166q-156 138 -428 138q-247 0 -440 -127q-180 -118 -282 -331 q-99 -208 -99 -459q0 -284 159 -467q177 -203 490 -203q245 0 428 106q53 31 102 66l33 -51q-124 -96 -222 -134q-183 -71 -368 -71t-325.5 58.5t-237.5 160.5q-196 208 -196 532zM691 301q0 -141 80 -141q131 0 264 114l115 533q-40 4 -59 4t-53.5 -3t-69.5 -12 q-86 -20 -124.5 -54.5t-64.5 -78t-45 -99.5q-43 -122 -43 -263z" />
<glyph unicode="A" horiz-adv-x="1251" d="M-112 0l10 53l112 27l682 1272h191l250 -1272l125 -27l-11 -53h-475l11 53l143 27l-64 387h-528l-205 -387l135 -27l-10 -53h-366zM379 557h467l-123 651z" />
<glyph unicode="B" horiz-adv-x="1251" d="M19 0l10 53l133 27l209 1182l-168 26l10 53h551q442 0 442 -282q0 -146 -94 -239q-87 -86 -241 -107q228 -20 300 -176q25 -54 25 -127q0 -215 -145.5 -315.5t-435.5 -100.5l-383 6h-213zM357 90q153 -6 260 -6t179 22.5t114 64.5q77 76 77 223.5t-88.5 208.5t-255.5 61 h-186zM473 754h166q200 0 282 70q77 65 77 223q0 104 -65 154t-214 50h-158z" />
<glyph unicode="C" horiz-adv-x="1366" d="M114 523q0 385 234 612q229 221 599 221q211 0 438 -51l-45 -293h-65v174q-130 90 -334 90q-276 0 -449 -210q-178 -215 -178 -563q0 -312 219 -407q76 -33 160.5 -33t143.5 10t111 27q104 35 168 84l72 201h65l-61 -315q-246 -89 -493 -89q-280 0 -435 149 q-150 144 -150 393z" />
<glyph unicode="D" horiz-adv-x="1479" d="M-23 0l9 53l176 27l208 1182l-167 26l9 53h572q489 0 621 -314q43 -102 43 -258.5t-56.5 -303t-161.5 -251.5q-221 -218 -601 -218l-481 4h-171zM357 94q160 -8 288.5 -8t244 49t192.5 139q156 182 156 511q0 466 -515 466h-162z" />
<glyph unicode="E" horiz-adv-x="1251" d="M-24 0l10 53l175 27l209 1182l-168 26l10 53h1006l-57 -321h-66l6 217q-109 14 -321 14h-219l-93 -524h362l60 160h64l-73 -412h-64l-2 162h-362l-97 -547h264q256 0 341 16l101 248h66l-82 -354h-1070z" />
<glyph unicode="F" horiz-adv-x="1251" d="M-11 0l10 53l162 27l209 1182l-168 26l10 53h1056l-57 -321h-66l6 217q-109 14 -321 14h-269l-99 -559h445l59 160h61l-72 -412h-61l-3 162h-445l-92 -522l219 -27l-10 -53h-574z" />
<glyph unicode="G" horiz-adv-x="1479" d="M113 523q0 390 240 617q228 216 594 216q231 0 447 -60l-51 -288h-67l3 166q-127 102 -338 102q-125 0 -239 -50.5t-200 -148.5q-188 -214 -188 -574q0 -215 108 -331q102 -110 281 -110q186 0 332 91l63 353l-167 26l9 54h495l-9 -54l-136 -26l-75 -420 q-269 -104 -525 -104q-274 0 -426 145q-151 143 -151 396z" />
<glyph unicode="H" horiz-adv-x="1479" d="M-22 0l8 53l176 27l207 1182l-166 26l8 53h537l-8 -53l-179 -26l-92 -527h631l92 527l-166 26l8 53h537l-8 -53l-178 -26l-207 -1182l166 -27l-9 -53h-536l8 53l178 27l99 565h-631l-99 -565l166 -27l-8 -53h-534z" />
<glyph unicode="I" horiz-adv-x="682" d="M-8 0l8 53l176 27l207 1182l-166 26l8 53h537l-8 -53l-178 -26l-207 -1182l166 -27l-8 -53h-535z" />
<glyph unicode="J" horiz-adv-x="909" d="M31 26l42 232h65l5 -139q20 -35 96 -49q21 -4 42 -4q140 0 173 190l177 1006l-167 26l9 53h516l-9 -53l-157 -26l-146 -830q-80 -452 -410 -452q-137 0 -236 46z" />
<glyph unicode="K" horiz-adv-x="1366" d="M-24 0l10 53l175 27l209 1182l-168 26l10 53h537l-10 -53l-176 -26l-98 -558l678 558l-119 26l10 53h420l-10 -53l-156 -26l-556 -455l447 -727l134 -27l-10 -53h-307l-411 686l-143 -117l-88 -489l188 -27l-10 -53h-556z" />
<glyph unicode="L" horiz-adv-x="1139" d="M-24 0l10 53l175 27l209 1182l-168 26l10 53h572l-10 -53l-211 -26l-208 -1176h214q190 0 297 20l111 279h65l-86 -385h-980z" />
<glyph unicode="M" horiz-adv-x="1706" d="M-24 0l10 53l175 27l209 1182l-168 26l10 53h382l206 -1023l598 1023h402l-10 -53l-176 -26l-209 -1182l168 -27l-10 -53h-544l10 53l184 27l189 1073l-681 -1153h-35l-231 1153l-189 -1073l176 -27l-10 -53h-456z" />
<glyph unicode="N" horiz-adv-x="1366" d="M-15 0l10 53l175 27l209 1182l-168 26l10 53h388l399 -1005l162 926l-176 26l10 53h457l-10 -53l-176 -26l-223 -1262h-97l-481 1206l-199 -1126l176 -27l-10 -53h-456z" />
<glyph unicode="O" horiz-adv-x="1479" d="M103 514q0 350 201 590q134 159 341 221q104 31 226.5 31t225.5 -39t177 -109q157 -150 157 -386q0 -326 -182 -567q-129 -170 -342 -239q-109 -36 -238 -36t-232 39t-177 109q-157 150 -157 386zM303 536q0 -133 26.5 -214t74.5 -138q100 -119 266 -119q172 0 310 130 q118 112 188 301q63 172 63 348q0 89 -27 171t-76 140q-102 121 -270 121q-172 0 -308 -132q-117 -115 -185 -303q-62 -172 -62 -305z" />
<glyph unicode="P" horiz-adv-x="1251" d="M-11 0l10 53l162 27l209 1182l-168 26l10 53h537q227 0 344 -99q106 -89 106 -256q0 -326 -308 -426q-107 -34 -257 -34h-201l-79 -446l219 -27l-10 -53h-574zM449 616h163q388 0 388 357q0 143 -72.5 210.5t-218.5 67.5h-148z" />
<glyph unicode="Q" horiz-adv-x="1479" d="M113 514q0 350 201 590q134 159 341 221q104 31 226.5 31t225.5 -39t177 -109q157 -150 157 -386q0 -279 -135 -500q-154 -251 -434 -319l21 -31q80 -117 120 -149q70 -56 151 -56q7 0 19 0.5t25 0.5q32 2 39 3l-12 -66q-89 -37 -174.5 -37t-128.5 14.5t-81 45.5 q-64 54 -156 204l-30 48q-243 2 -397 150q-155 149 -155 384zM313 536q0 -133 26.5 -214t74.5 -138q100 -119 266 -119q172 0 310 130q118 112 188 301q63 172 63 348q0 89 -27 171t-76 140q-102 121 -270 121q-172 0 -308 -132q-117 -115 -185 -303q-62 -172 -62 -305z" />
<glyph unicode="R" horiz-adv-x="1251" d="M-11 0l10 53l162 27l209 1182l-168 26l10 53h532q338 0 422 -191q27 -60 27 -134q0 -316 -350 -400l227 -536l147 -27l-10 -53h-308l-246 588h-209l-90 -508l179 -27l-10 -53h-534zM460 678h156q274 0 353 189q26 62 26 143q0 241 -286 241h-148z" />
<glyph unicode="S" d="M24 73l52 298h65l1 -191q53 -79 190 -110q44 -9 110 -9t129.5 20.5t106.5 58.5q86 78 86 215q0 130 -178 225q-51 27 -104 54.5t-103.5 59t-90.5 72.5q-88 92 -88 223q0 272 272 344q87 23 190 23q177 0 329 -38l-49 -279h-65l-5 171q-76 62 -220 62q-208 0 -261 -150 q-16 -45 -16 -96t24.5 -88.5t64 -68t90.5 -57t103.5 -54.5t103.5 -60t91 -73q88 -92 88 -205t-32.5 -192t-97.5 -134q-135 -114 -393 -114q-247 0 -393 93z" />
<glyph unicode="T" horiz-adv-x="1139" d="M134 1026l56 315h1070l-56 -315h-68l10 209q-90 18 -294 18h-49l-207 -1173l209 -27l-10 -53h-619l10 53l217 27l207 1175h-51q-199 0 -294 -20l-64 -209h-67z" />
<glyph unicode="U" horiz-adv-x="1479" d="M188 1288l9 53h536l-9 -53l-177 -26l-141 -805q-10 -54 -10 -102q0 -263 300 -263q207 0 330 110q105 95 131 251l142 809l-175 26l9 53h457l-9 -53l-177 -26l-141 -801q-57 -327 -341 -440q-102 -41 -243 -41q-233 0 -355 94.5t-122 273.5q0 55 10 105l143 809z" />
<glyph unicode="V" horiz-adv-x="1251" d="M107 1288l10 53h493l-10 -53l-169 -26l218 -979l537 979l-152 26l11 53h403l-10 -53l-131 -26l-727 -1293h-51l-295 1293z" />
<glyph unicode="W" horiz-adv-x="1706" d="M135 1288l9 53h467l-9 -53l-161 -26l140 -936l426 921h46l151 -923l419 938l-165 26l9 53h394l-9 -53l-121 -26l-596 -1293h-63l-146 898l-418 -898h-65l-195 1293z" />
<glyph unicode="X" horiz-adv-x="1251" d="M-68 0l10 53l151 27l480 606l-204 576l-147 26l10 53h493l-10 -53l-144 -26l140 -409l319 409l-132 26l10 53h409l-10 -53l-152 -26l-404 -509l239 -673l148 -27l-10 -53h-513l10 53l164 27l-175 507l-397 -507l162 -27l-10 -53h-437z" />
<glyph unicode="Y" horiz-adv-x="1139" d="M117 1288l10 53h547l-10 -53l-194 -26l188 -627l393 627l-176 26l10 53h436l-10 -53l-151 -26l-472 -734l-79 -448l209 -27l-10 -53h-619l10 53l217 27l78 442l-230 740z" />
<glyph unicode="Z" horiz-adv-x="1139" d="M25 0l17 94l865 1161h-200q-248 0 -343 -20l-68 -211h-69l56 317h873l-16 -86l-873 -1171h240q253 0 410 33l104 256h70l-93 -373h-973z" />
<glyph unicode="[" horiz-adv-x="797" d="M118 -274l299 1695h456l-8 -47l-305 -41l-268 -1519l290 -41l-8 -47h-456z" />
<glyph unicode="\" horiz-adv-x="569" d="M158 1350h98l214 -1370h-101z" />
<glyph unicode="]" horiz-adv-x="797" d="M-49 -274l8 47l303 41l268 1519l-289 41l8 47h456l-299 -1695h-455z" />
<glyph unicode="^" horiz-adv-x="864" d="M72 389l428 952h49l428 -952h-103l-350 809l-350 -809h-102z" />
<glyph unicode="_" d="M-16 -162h1056v-102h-1056v102z" />
<glyph unicode="`" horiz-adv-x="682" d="M303 1386l6 37h203l158 -272l-5 -33h-55z" />
<glyph unicode="a" d="M61 313q0 262 159 455q102 123 247 172q73 24 173.5 24t207.5 -42q21 14 45 34h54l-158 -886l113 -25l-8 -45h-285l29 156q-169 -177 -309 -177q-118 0 -191 85q-77 90 -77 249zM240 339q0 -117 50 -181q44 -54 114 -54q113 0 247 139l109 594q-70 48 -155.5 48 t-153 -49.5t-114.5 -127.5q-97 -163 -97 -369z" />
<glyph unicode="b" d="M76 64l229 1288l-133 24l8 45h300l-74 -441q-17 -114 -39 -193q173 178 320 178q121 0 196 -85q79 -90 79 -249q0 -265 -158 -455q-103 -123 -251 -172q-74 -24 -134 -24t-100.5 4.5t-82.5 14.5q-91 22 -160 65zM248 107q58 -48 151 -48t161.5 47t117.5 124 q105 161 105 375q0 112 -46.5 173.5t-124.5 61.5q-119 0 -258 -139z" />
<glyph unicode="c" horiz-adv-x="909" d="M63 330q0 288 175 469q162 166 366 166q156 0 283 -52l-45 -262h-55l-16 174q-63 63 -151 63t-153.5 -40t-115.5 -112q-111 -161 -111 -396q0 -256 206 -256q143 0 298 100l30 -42q-110 -102 -256 -145q-57 -17 -129.5 -17t-136 25.5t-105.5 72.5q-84 92 -84 252z" />
<glyph unicode="d" d="M62 317q0 263 158 453q161 194 405 194q87 0 158 -23q2 29 8.5 67.5t10 61.5t6.5 38l43 244l-154 24l8 45h324l-240 -1351l113 -25l-8 -45h-285l29 156q-169 -177 -309 -177q-121 0 -193 89q-74 92 -74 249zM240 372.5q0 -96.5 14 -141t36 -73.5q44 -54 106 -54 q127 0 255 139l109 594q-75 49 -145.5 49t-117.5 -23t-87 -62.5t-71.5 -92.5t-53.5 -114q-45 -125 -45 -221.5z" />
<glyph unicode="e" horiz-adv-x="909" d="M63 330q0 264 162 450q160 185 366 185q126 0 200 -59q72 -56 72 -133.5t-41 -135.5t-120 -105q-168 -100 -458 -119q-4 -36 -4 -73q0 -256 212 -256q139 0 308 100l29 -42q-127 -107 -275 -147q-56 -15 -127.5 -15t-134.5 24.5t-105 69.5q-84 90 -84 256zM252 476 q208 15 328 100q108 76 108 184q0 56 -30.5 92t-89 36t-110.5 -37.5t-94 -96.5q-83 -119 -112 -278z" />
<glyph unicode="f" horiz-adv-x="569" d="M23 -436l225 1292h-162l8 49l170 39l12 66q40 223 134.5 327.5t255.5 104.5q77 0 139 -19l-35 -196h-49l-19 114q-29 21 -74 21t-69.5 -15.5t-42.5 -48.5q-32 -54 -59 -202l-29 -156h209l-14 -84h-209l-225 -1292h-166z" />
<glyph unicode="g" d="M1 -365l18 228h45l36 -126q81 -79 233 -79q200 0 263 164q18 49 27 103l39 235q-100 -110 -224 -161q-48 -20 -105 -20t-108 24.5t-85 68.5q-71 90 -71 241q0 267 165 459q167 192 402 192q159 0 328 -41l-168 -958q-38 -214 -148 -309q-107 -92 -314 -92q-146 0 -278 48 q-34 12 -55 23zM248 339q0 -164 95 -217q32 -18 70.5 -18t74 12.5t69.5 32.5q61 36 119 94l110 618q-24 6 -43 11t-37 8q-38 6 -103 6t-133 -46t-118 -122q-104 -160 -104 -379z" />
<glyph unicode="h" d="M74 0l237 1352l-118 24l8 45h288l-88 -493q-7 -39 -15 -84q-13 -74 -19 -95q113 150 252 199q48 17 99 17q203 0 203 -211q0 -23 -6.5 -62t-10.5 -64.5t-8 -47.5l-88 -511l131 -24l-8 -45h-301l102 582q23 126 23 166q0 101 -100 101q-80 0 -171 -69q-81 -61 -134 -147 l-111 -633h-165z" />
<glyph unicode="i" horiz-adv-x="569" d="M114 0l153 870l-129 25l8 45h299l-153 -870l157 -25l-8 -45h-327zM290 1247q0 45 24 69q40 40 84 40q45 0 68 -24q41 -40 41 -85q0 -44 -23 -67q-41 -41 -86 -41q-44 0 -68 23q-40 41 -40 85z" />
<glyph unicode="j" horiz-adv-x="569" d="M-219 -406l33 187h47l15 -110q27 -27 63 -27t60 12t44 42q41 62 68 212l170 960l-137 25l8 45h307l-174 -979q-55 -307 -224 -375q-55 -22 -110 -22q-91 0 -170 30zM302 1247q0 45 24 69q40 40 84 40q45 0 68 -24q41 -40 41 -85q0 -44 -23 -67q-41 -41 -86 -41 q-44 0 -68 23q-40 41 -40 85z" />
<glyph unicode="k" horiz-adv-x="909" d="M59 0l240 1352l-135 24l8 45h305l-172 -968l428 415l-94 27l8 45h292l-8 -45l-81 -23l-294 -281l243 -523l98 -23l-8 -45h-236l-218 479l-148 -139l-62 -340h-166z" />
<glyph unicode="l" horiz-adv-x="569" d="M109 0l237 1352l-129 24l8 45h299l-237 -1351l157 -25l-8 -45h-327z" />
<glyph unicode="m" horiz-adv-x="1479" d="M74 0l153 870l-118 25l8 45h278l-28 -194q106 152 237 202q43 17 84 17q88 0 136.5 -55.5t48.5 -163.5q107 153 235 202q43 17 84 17q84 0 132.5 -53.5t48.5 -154.5q0 -51 -23 -177l-88 -510l131 -25l-9 -45h-301l103 582q23 121 23 166q0 100 -87 100q-71 0 -164 -92 q-96 -94 -111 -180l-99 -576h-166l102 582q4 21 8 45.5t8 47.5q9 52 9 73q0 100 -91 100q-69 0 -166 -92q-98 -92 -113 -180l-99 -576h-166z" />
<glyph unicode="n" d="M73 0l153 871l-118 25l8 45h278l-27 -192q168 216 351 216q203 0 203 -211q0 -23 -6.5 -62t-10.5 -64.5t-8 -47.5l-88 -511l131 -24l-8 -45h-301l102 582q23 126 23 166q0 101 -100 101q-78 0 -171 -70q-81 -61 -135 -149l-110 -630h-166z" />
<glyph unicode="o" d="M61 374q0 243 145 412q152 179 391 179q165 0 265 -105q101 -107 101 -289q0 -243 -145 -413q-69 -81 -168 -129.5t-201.5 -48.5t-170 27t-116.5 78q-101 107 -101 289zM237 332q0 -127 52.5 -198.5t134 -71.5t145 41.5t111.5 114.5q108 160 108 388q0 138 -52.5 209.5 t-150.5 71.5q-140 0 -242 -155q-106 -160 -106 -400z" />
<glyph unicode="p" d="M-120 -436l8 47l121 24l219 1235l-103 25l8 45h265l-19 -152q175 177 315 177q118 0 191 -85q77 -90 77 -249q0 -265 -157 -455q-162 -196 -415 -196q-95 0 -157 22q-1 -12 -3 -27.5t-4 -32t-4.5 -30.5t-3.5 -23l-44 -254l160 -24l-8 -47h-446zM257 107q62 -48 168 -48 q162 0 265 183q93 164 93 363q0 177 -103 222q-29 13 -58 13t-60.5 -10t-65.5 -28q-72 -39 -130 -101z" />
<glyph unicode="q" d="M68 318q0 276 152 457q158 190 418 190q159 0 338 -42l-233 -1288l121 -24l-8 -47h-291l69 381q16 87 37 162q-169 -127 -314 -127q-289 0 -289 338zM243 343q0 -167 95 -218q33 -18 74.5 -18t77.5 5t70 14q70 20 117 52l121 683q-102 27 -193.5 27t-156.5 -45.5 t-110 -121.5q-95 -158 -95 -378z" />
<glyph unicode="r" horiz-adv-x="797" d="M83 0l153 870l-118 25l8 45h277l-31 -212q117 175 264 222q46 15 77 15q61 0 90 -8l-44 -246h-43l-38 127q-122 0 -252 -137q-38 -40 -70 -85l-107 -616h-166z" />
<glyph unicode="s" horiz-adv-x="797" d="M25 42l41 226h45l17 -137q26 -28 73.5 -50t107.5 -22q219 0 219 179q0 85 -103 150q-44 27 -95.5 52t-95.5 58q-103 76 -103 190q0 142 101 214q89 63 235 63q113 0 268 -35l-37 -209h-47l-14 108q-63 56 -155 56q-191 0 -191 -154q0 -49 29.5 -82t74.5 -60.5t96.5 -54 t96.5 -60.5q104 -79 104 -198q0 -151 -96 -223.5t-291 -72.5q-138 0 -280 62z" />
<glyph unicode="t" horiz-adv-x="569" d="M90 856l8 45l133 39l137 213h64l-37 -213h215l-16 -84h-215l-97 -549q-18 -92 -18 -135t22.5 -65.5t76.5 -22.5t133 30l21 -47q-123 -87 -249 -87q-125 0 -160 108q-10 34 -10 68q0 52 16 143l99 557h-123z" />
<glyph unicode="u" d="M102 187q0 32 10.5 91.5t14.5 82.5l88 510l-111 24l8 45h281l-102 -581q-23 -127 -23 -166q0 -101 100 -101q80 0 170 68q82 62 135 148l111 632h166l-153 -870l118 -25l-8 -45h-278l27 193q-168 -217 -351 -217q-203 0 -203 211z" />
<glyph unicode="v" horiz-adv-x="909" d="M28 895l9 45h256l145 -732l249 406q64 104 64 193q0 37 -21 59t-45 29l8 45h190q26 -23 26 -59q0 -92 -83 -224l-423 -677h-73l-189 890z" />
<glyph unicode="w" horiz-adv-x="1366" d="M49 895l8 45h245l131 -707l309 601h75l122 -605l197 389q57 114 57 170q0 88 -66 107l8 45h190q26 -23 26 -59q0 -72 -83 -224l-368 -677h-66l-124 619l-318 -619h-70l-171 890z" />
<glyph unicode="x" horiz-adv-x="909" d="M-25 35q0 22 7.5 38.5t23.5 37.5q32 41 106 110l273 254l-172 395l-107 25l8 45h248l145 -358l124 118q116 111 116 156q0 19 -39 32l-20 7l8 45h177q21 -16 21 -43q0 -59 -138 -190l-214 -201l192 -440l116 -21l-8 -45h-256l-167 400l-171 -164q-106 -103 -106 -152 q0 -28 42 -39l-8 -45h-185q-16 13 -16 35z" />
<glyph unicode="y" horiz-adv-x="909" d="M-171 -424l37 203h45l16 -96q25 -23 75 -23t90.5 25t77.5 65q60 65 124 180l45 82l-183 858l-112 25l8 45h256l145 -732l235 406q64 112 64 193q0 37 -21 59t-45 29l8 45h190q26 -23 26 -59q0 -83 -83 -224l-396 -667q-135 -229 -202 -300.5t-124.5 -101.5t-105 -30 t-67 1t-36.5 3q-38 6 -67 14z" />
<glyph unicode="z" horiz-adv-x="797" d="M-23 0l9 45l564 815h-149q-134 0 -186 -35l-55 -135h-47l45 250h612l-8 -49l-562 -811h197q122 0 197 47l76 147h47l-72 -274h-668z" />
<glyph unicode="{" horiz-adv-x="819" d="M37 553l8 45q215 4 256 236l52 294q25 141 103.5 217t209.5 76h135l-8 -47h-62q-91 0 -139 -54.5t-67 -160.5l-59 -330q-17 -97 -84 -167q-63 -65 -152 -84v-3q70 -17 111 -68t41 -129q0 -31 -5 -56l-59 -334q-8 -42 -8 -77q0 -138 138 -138h62l-8 -47h-135 q-109 0 -163 56.5t-54 156.5q0 35 8 81l52 295q7 35 7 74.5t-12 70.5t-35 51q-44 38 -133 42z" />
<glyph unicode="|" horiz-adv-x="563" d="M267 -442v1863h102v-1863h-102z" />
<glyph unicode="}" horiz-adv-x="819" d="M36 -274l8 47h62q91 0 139 54.5t67 160.5l59 334q27 152 153 222q39 21 84 31v3q-69 16 -110.5 68t-41.5 131q0 24 4 52l59 330q8 44 8 95t-32.5 85.5t-105.5 34.5h-62l8 47h136q216 0 216 -209q0 -38 -8 -84l-52 -294q-6 -38 -6 -69q0 -87 47 -125.5t133 -41.5l-8 -45 q-217 -9 -257 -238l-52 -295q-37 -212 -196 -274q-52 -20 -116 -20h-136z" />
<glyph unicode="~" horiz-adv-x="1108" d="M84 502q15 153 53 218t87.5 95.5t113 30.5t106.5 -18t82.5 -45t76.5 -58t71 -58q81 -63 127 -63t74 16t47 47q34 53 51 179h103q-20 -155 -58 -218.5t-86.5 -94.5t-109.5 -31t-103 18t-81.5 44.5t-76 58t-71.5 57.5q-83 63 -130.5 63t-76.5 -14.5t-49 -44.5 q-36 -55 -49 -182h-101z" />
<glyph unicode="&#xa2;" d="M153 528.5q0 147.5 43 260t112 193.5q140 161 336 185l31 174h82l-30 -172q143 -8 250 -51l-45 -262h-55l-16 174q-56 56 -148 62l-141 -802q127 10 262 99l30 -42q-144 -131 -310 -157l-33 -190h-82l32 185q-155 6 -239 103q-79 93 -79 240.5zM330 537.5 q0 -216.5 160 -244.5l139 791q-126 -35 -210 -178q-89 -152 -89 -368.5z" />
<glyph unicode="&#xa3;" d="M26 0l20 117q43 34 91.5 70.5t88.5 78.5q94 99 94 211q0 54 -24 152h-162l15 82h127q-25 95 -25 193.5t31.5 184.5t93.5 145q127 122 364 122q138 0 285 -43l-45 -278h-65l-7 187q-76 50 -167 50t-147.5 -29t-94.5 -83q-77 -109 -77 -309l4 -140h278l-15 -82h-262 q-4 -184 -43 -267q-50 -109 -183 -208h690l-27 -154h-838z" />
<glyph unicode="&#xa5;" d="M95 311l15 82h279l23 129l-6 35h-267l14 82h230l-153 623l-95 26l9 53h430l-9 -53l-136 -26l137 -628l361 628l-118 26l9 53h346l-9 -53l-109 -26l-375 -623h232l-14 -82h-267l-17 -29l-24 -135h279l-15 -82h-279l-40 -231l167 -27l-9 -53h-536l9 53l177 27l40 231h-279z " />
<glyph unicode="&#xa8;" horiz-adv-x="682" d="M205 1231q0 64 62 92q18 8 49.5 8t59.5 -29t28 -71t-28 -71.5t-59.5 -29.5t-49.5 8t-32 22q-30 30 -30 71zM562 1232q0 41 29 70t71 29t70 -29t28 -71t-28 -71.5t-59.5 -29.5t-49.5 8t-31 22q-30 31 -30 72z" />
<glyph unicode="&#xa9;" horiz-adv-x="1556" d="M118 646q0 120 24.5 208.5t69.5 165.5t107.5 140t139.5 108q161 94 349 94q288 0 490 -202t202 -490q0 -188 -94 -349q-91 -155 -248 -247q-161 -94 -327.5 -94t-292 54t-219 147.5t-147.5 219t-54 245.5zM188 670q0 -257 181 -440q180 -181 439 -181t440 181 q183 183 183 440q0 256 -183 440q-180 182 -440 182q-129 0 -242 -49t-197 -133t-132.5 -197.5t-48.5 -242.5zM409 664q0 317 240 396q78 25 169 25q124 0 277 -30l4 -187h-49l-19 105q-82 51 -174 51t-143 -17t-86 -59q-72 -83 -72 -282q0 -349 269 -349q141 0 215 60 l22 119h49l-4 -199q-124 -39 -252.5 -39t-206 28t-130.5 80q-109 107 -109 298z" />
<glyph unicode="&#xab;" d="M111 430l11 66l417 356h61l-320 -395l183 -383h-61zM520 430l11 66l418 356h61l-321 -395l184 -383h-61z" />
<glyph unicode="&#xae;" horiz-adv-x="1556" d="M118 646q0 120 24.5 208.5t69.5 165.5t107.5 140t139.5 108q161 94 349 94q288 0 490 -202t202 -490q0 -188 -94 -349q-91 -155 -248 -247q-161 -94 -327.5 -94t-292 54t-219 147.5t-147.5 219t-54 245.5zM188 670q0 -257 181 -440q180 -181 439 -181t440 181 q183 183 183 440q0 256 -183 440q-180 182 -440 182q-129 0 -242 -49t-197 -133t-132.5 -197.5t-48.5 -242.5zM458 1040v41h330q239 0 297 -131q18 -41 18 -90q0 -160 -178 -217l213 -307l84 -17v-43h-205l-229 349h-90v-289l114 -17v-43h-346v43l96 17v688zM698 688h67 q159 0 187 92q10 32 10 79t-11.5 78t-35.5 49q-43 34 -154 34h-63v-332z" />
<glyph unicode="&#xb4;" horiz-adv-x="682" d="M248 1118l5 33l244 272h213l-6 -37l-401 -268h-55z" />
<glyph unicode="&#xb8;" horiz-adv-x="682" d="M114 -406l23 75q48 -16 103 -16t93 27.5t38 70t-12.5 62.5t-31.5 33q-34 23 -89 28l68 153h86l-33 -82q80 -8 123.5 -49t43.5 -108q0 -98 -71.5 -156.5t-207.5 -58.5q-72 0 -133 21z" />
<glyph unicode="&#xbb;" d="M13 74l322 396l-185 382h61l292 -356l-11 -66l-418 -356h-61zM423 74l321 396l-184 382h61l291 -356l-11 -66l-417 -356h-61z" />
<glyph unicode="&#x2c6;" horiz-adv-x="682" d="M174 1118l5 33l235 273h213l139 -273l-5 -33h-47l-206 183l-270 -183h-64z" />
<glyph unicode="&#x2da;" horiz-adv-x="682" d="M269 1277q0 84 59.5 143.5t143.5 59.5t143.5 -59.5t59.5 -143.5t-59.5 -143.5t-143.5 -59.5t-143.5 59.5t-59.5 143.5zM349 1277q0 -52 27 -77q47 -46 84 -46t59.5 10t39.5 26q36 35 36 87q0 51 -27 77q-45 46 -83.5 46t-60.5 -9.5t-39 -26.5q-36 -36 -36 -87z" />
<glyph unicode="&#x2dc;" horiz-adv-x="682" d="M123 1139q28 110 66 156q71 86 172 86q71 0 153 -69q32 -27 61.5 -48.5t60.5 -21.5t51 10.5t33 27.5q19 24 38 80h52q-28 -108 -66 -154.5t-78 -66.5t-91 -20t-87.5 21.5t-68 48t-61 48t-61.5 21.5t-52 -10.5t-33 -27.5q-18 -23 -37 -81h-52z" />
<glyph unicode="&#x401;" horiz-adv-x="1251" d="M-24 0l10 53l175 27l209 1182l-168 26l10 53h1006l-57 -321h-66l6 217q-109 14 -321 14h-219l-93 -524h362l60 160h64l-73 -412h-64l-2 162h-362l-97 -547h264q256 0 341 16l101 248h66l-82 -354h-1070zM609 1631q0 64 62 92q18 8 49.5 8t59.5 -29t28 -71t-28 -71.5 t-59.5 -29.5t-49.5 8t-32 22q-30 30 -30 71zM966 1632q0 41 29 70t71 29t70 -29t28 -71t-28 -71.5t-59.5 -29.5t-49.5 8t-31 22q-30 31 -30 72z" />
<glyph unicode="&#x402;" horiz-adv-x="1632" d="M142 1026l55 315h1140l-55 -315h-68l9 209q-81 18 -348 18h-49l-75 -423q192 62 329 62q353 0 353 -302q0 -59 -12 -126l-92 -516q-48 -278 -243 -356q-108 -43 -282 -20q-61 8 -96 22l43 244h66l6 -139q30 -49 122 -49q140 0 173 190l110 622q12 62 12 116q0 88 -57 141 t-150 53q-162 0 -297 -27l-117 -665l158 -27l-9 -53h-529l9 53l178 27l207 1175h-51q-215 0 -310 -20l-63 -209h-67z" />
<glyph unicode="&#x403;" horiz-adv-x="1165" d="M-58 0l9 53l175 26l209 1182l-167 27l10 53h1011l-50 -385h-65l-13 279q-93 20 -280 20h-254l-208 -1176l202 -26l-9 -53h-570zM598 1499l5 33l244 272h213l-6 -37l-401 -268h-55z" />
<glyph unicode="&#x404;" horiz-adv-x="1370" d="M114 523q0 385 234 612q229 221 599 221q211 0 438 -51l-45 -293h-65v174q-130 90 -334 90q-224 0 -386.5 -145t-216.5 -396h559l-15 -90h-559q-9 -69 -9 -153t22.5 -165t71.5 -139q104 -125 308 -125q175 0 326 75q43 22 74 46l72 201h65l-61 -315q-246 -89 -493 -89 q-280 0 -435 149q-150 144 -150 393z" />
<glyph unicode="&#x405;" d="M24 73l52 298h65l1 -191q53 -79 190 -110q44 -9 110 -9t129.5 20.5t106.5 58.5q86 78 86 215q0 130 -178 225q-51 27 -104 54.5t-103.5 59t-90.5 72.5q-88 92 -88 223q0 272 272 344q87 23 190 23q177 0 329 -38l-49 -279h-65l-5 171q-76 62 -220 62q-208 0 -261 -150 q-16 -45 -16 -96t24.5 -88.5t64 -68t90.5 -57t103.5 -54.5t103.5 -60t91 -73q88 -92 88 -205t-32.5 -192t-97.5 -134q-135 -114 -393 -114q-247 0 -393 93z" />
<glyph unicode="&#x406;" horiz-adv-x="682" d="M-8 0l8 53l176 27l207 1182l-166 26l8 53h537l-8 -53l-178 -26l-207 -1182l166 -27l-8 -53h-535z" />
<glyph unicode="&#x407;" horiz-adv-x="682" d="M-8 0l8 53l176 27l207 1182l-166 26l8 53h537l-8 -53l-178 -26l-207 -1182l166 -27l-8 -53h-535zM251 1603q0 64 62 92q18 8 49.5 8t59.5 -29t28 -71t-28 -71.5t-59.5 -29.5t-49.5 8t-32 22q-30 30 -30 71zM608 1604q0 41 29 70t71 29t70 -29t28 -71t-28 -71.5 t-59.5 -29.5t-49.5 8t-31 22q-30 31 -30 72z" />
<glyph unicode="&#x408;" horiz-adv-x="909" d="M31 26l42 232h65l5 -139q20 -35 96 -49q21 -4 42 -4q140 0 173 190l177 1006l-167 26l9 53h516l-9 -53l-157 -26l-146 -830q-80 -452 -410 -452q-137 0 -236 46z" />
<glyph unicode="&#x409;" horiz-adv-x="1899" d="M-54 27l31 217h45l30 -89q23 -37 69 -37t89 42.5t90 139.5q97 199 217 653l81 309l-167 26l9 53h1034l-10 -53l-157 -27l-91 -516h161q212 0 323 -99q100 -87 100 -237q0 -409 -565 -409h-515l10 53l175 46l207 1152h-413l-82 -311q-136 -514 -245 -722 q-124 -238 -283 -238q-92 0 -143 47zM1100 90h108q209 0 298 68q95 72 95 253q0 244 -287 244h-114z" />
<glyph unicode="&#x40a;" horiz-adv-x="1886" d="M-22 0l10 53l175 27l209 1182l-168 26l10 53h537l-10 -53l-176 -26l-93 -527h534l95 526l-155 27l10 53h505l-10 -53l-157 -27l-91 -516h161q212 0 324 -99q99 -87 99 -237q0 -409 -565 -409h-515l10 53l175 46l98 546h-534l-100 -565l168 -27l-10 -53h-536zM1087 90h108 q209 0 299 68q94 72 94 253q0 244 -287 244h-114z" />
<glyph unicode="&#x40b;" horiz-adv-x="1636" d="M133 1026l56 315h1140l-56 -315h-68l10 209q-81 18 -349 18h-49l-74 -423q203 62 323 62q345 0 345 -313q0 -49 -13 -134l-65 -366l148 -26l-10 -53h-496l10 53l156 26l64 366q2 13 4.5 29t4.5 32q4 34 4 59q0 106 -55.5 156.5t-176.5 50.5q-132 0 -258 -27l-118 -665 l179 -27l-10 -53h-549l10 53l177 27l207 1175h-51q-214 0 -309 -20l-64 -209h-67z" />
<glyph unicode="&#x40c;" horiz-adv-x="1360" d="M-24 0l10 53l175 27l209 1182l-168 26l10 53h537l-10 -53l-176 -26l-98 -558l678 558l-119 26l10 53h420l-10 -53l-156 -26l-556 -455l447 -727l134 -27l-10 -53h-307l-411 686l-143 -117l-88 -489l188 -27l-10 -53h-556zM758 1452l5 33l244 272h213l-6 -37l-401 -268 h-55z" />
<glyph unicode="&#x40e;" horiz-adv-x="1378" d="M181 23l33 241h45l32 -97q28 -49 92 -49q107 0 232 145q43 50 92 120l-357 879l-146 26l9 53h524l-9 -53l-168 -26l282 -712l481 712l-138 26l9 53h396l-9 -53l-132 -26l-576 -831q-177 -253 -252 -323t-138.5 -99t-112 -29t-72 3t-44.5 9q-47 13 -73 31zM645 1698 l167 28q39 -174 190 -174q143 0 243 152q28 42 53 87l64 -28q-65 -133 -123 -189q-122 -118 -279 -118q-265 0 -315 242z" />
<glyph unicode="&#x40f;" horiz-adv-x="1479" d="M-22 0l9 53l176 27l208 1182l-167 26l9 53h537l-9 -53l-177 -26l-206 -1172h631l206 1172l-167 26l9 53h536l-9 -53l-177 -26l-208 -1182l167 -27l-9 -53h-575l-142 -416h-65l3 416h-580z" />
<glyph unicode="&#x410;" horiz-adv-x="1251" d="M-112 0l10 53l112 27l682 1272h191l250 -1272l125 -27l-11 -53h-475l11 53l143 27l-64 387h-528l-205 -387l135 -27l-10 -53h-366zM379 557h467l-123 651z" />
<glyph unicode="&#x411;" horiz-adv-x="1208" d="M-24 0l10 53l175 26l209 1182l-155 27l10 53h941l-42 -309h-65l-21 203q-100 20 -280 20h-197l-89 -510h211q212 0 323 -99q100 -87 100 -237q0 -409 -565 -409h-565zM356 90h158q209 0 298 68q95 72 95 253q0 244 -287 244h-164z" />
<glyph unicode="&#x412;" horiz-adv-x="1251" d="M19 0l10 53l133 27l209 1182l-168 26l10 53h551q442 0 442 -282q0 -146 -94 -239q-87 -86 -241 -107q228 -20 300 -176q25 -54 25 -127q0 -215 -145.5 -315.5t-435.5 -100.5l-383 6h-213zM357 90q153 -6 260 -6t179 22.5t114 64.5q77 76 77 223.5t-88.5 208.5t-255.5 61 h-186zM473 754h166q200 0 282 70q77 65 77 223q0 104 -65 154t-214 50h-158z" />
<glyph unicode="&#x413;" horiz-adv-x="1165" d="M-17 0l9 53l175 26l209 1182l-167 27l10 53h1011l-50 -385h-65l-13 279q-93 20 -280 20h-254l-208 -1176l202 -26l-9 -53h-570z" />
<glyph unicode="&#x414;" horiz-adv-x="1303" d="M-160 -416l66 476l159 20q256 364 399 841q49 166 78 341l-167 26l9 53h1012l-9 -53l-177 -26l-208 -1182l176 -20l-100 -476h-65l-24 416h-915l-169 -416h-65zM197 90h615l204 1161h-368q-86 -490 -314 -927q-68 -131 -137 -234z" />
<glyph unicode="&#x415;" horiz-adv-x="1251" d="M-24 0l10 53l175 27l209 1182l-168 26l10 53h1006l-57 -321h-66l6 217q-109 14 -321 14h-219l-93 -524h362l60 160h64l-73 -412h-64l-2 162h-362l-97 -547h264q256 0 341 16l101 248h66l-82 -354h-1070z" />
<glyph unicode="&#x416;" horiz-adv-x="1876" d="M-53 0l10 53l124 27l556 738l-290 444l-132 26l10 53h345l-10 -53l-88 -26l404 -633l111 633l-128 26l10 53h437l-10 -53l-136 -26l-111 -626l619 626l-80 26l10 53h352l-10 -53l-140 -26l-443 -446l295 -736l117 -27l-10 -53h-281l-261 683l-188 -160l-78 -443l148 -27 l-10 -53h-457l10 53l136 27l78 443l-127 152l-481 -675h-301z" />
<glyph unicode="&#x417;" horiz-adv-x="1014" d="M0 23l37 282h66l10 -188q51 -34 169 -49q34 -5 91.5 -5t122 22.5t107.5 65.5q86 86 86 243q0 180 -145 236q-44 18 -97 21l-141 8l14 82l145 9q212 13 277 182q23 61 23 148q0 193 -193 193q-126 0 -221 -53l-62 -164h-66l45 258q164 41 286.5 41t196.5 -22.5t123 -62.5 q96 -77 96 -214q0 -301 -369 -354q214 -26 272 -192q18 -52 18 -136t-40.5 -163t-114.5 -131q-143 -100 -399 -100q-175 0 -337 43z" />
<glyph unicode="&#x418;" horiz-adv-x="1479" d="M-23 0l10 53l175 27l209 1182l-168 26l10 53h537l-10 -53l-176 -26l-167 -949l787 889l11 60l-168 26l10 53h536l-10 -53l-176 -26l-209 -1182l168 -27l-10 -53h-536l10 53l176 27l170 970l-788 -901l-13 -69l168 -27l-10 -53h-536z" />
<glyph unicode="&#x419;" horiz-adv-x="1479" d="M-23 0l10 53l175 27l209 1182l-168 26l10 53h537l-10 -53l-176 -26l-167 -949l787 889l11 60l-168 26l10 53h536l-10 -53l-176 -26l-209 -1182l168 -27l-10 -53h-536l10 53l176 27l170 970l-788 -901l-13 -69l168 -27l-10 -53h-536zM598 1698l167 28q39 -174 190 -174 q143 0 243 152q28 42 53 87l64 -28q-65 -133 -123 -189q-122 -118 -279 -118q-265 0 -315 242z" />
<glyph unicode="&#x41a;" horiz-adv-x="1360" d="M-24 0l10 53l175 27l209 1182l-168 26l10 53h537l-10 -53l-176 -26l-98 -558l678 558l-119 26l10 53h420l-10 -53l-156 -26l-556 -455l447 -727l134 -27l-10 -53h-307l-411 686l-143 -117l-88 -489l188 -27l-10 -53h-556z" />
<glyph unicode="&#x41b;" horiz-adv-x="1387" d="M-54 27l31 217h45l30 -89q23 -37 69 -37t89 42.5t90 139.5q97 199 217 653l81 309l-167 26l9 53h1040l-9 -53l-177 -26l-208 -1182l167 -27l-9 -53h-536l9 53l177 27l207 1171h-402l-82 -311q-136 -514 -245 -722q-124 -238 -283 -238q-92 0 -143 47z" />
<glyph unicode="&#x41c;" horiz-adv-x="1706" d="M-24 0l10 53l175 27l209 1182l-168 26l10 53h382l206 -1023l598 1023h402l-10 -53l-176 -26l-209 -1182l168 -27l-10 -53h-544l10 53l184 27l189 1073l-681 -1153h-35l-231 1153l-189 -1073l176 -27l-10 -53h-456z" />
<glyph unicode="&#x41d;" horiz-adv-x="1479" d="M-22 0l8 53l176 27l207 1182l-166 26l8 53h537l-8 -53l-179 -26l-92 -527h631l92 527l-166 26l8 53h537l-8 -53l-178 -26l-207 -1182l166 -27l-9 -53h-536l8 53l178 27l99 565h-631l-99 -565l166 -27l-8 -53h-534z" />
<glyph unicode="&#x41e;" horiz-adv-x="1479" d="M103 514q0 350 201 590q134 159 341 221q104 31 226.5 31t225.5 -39t177 -109q157 -150 157 -386q0 -326 -182 -567q-129 -170 -342 -239q-109 -36 -238 -36t-232 39t-177 109q-157 150 -157 386zM303 536q0 -133 26.5 -214t74.5 -138q100 -119 266 -119q172 0 310 130 q118 112 188 301q63 172 63 348q0 89 -27 171t-76 140q-102 121 -270 121q-172 0 -308 -132q-117 -115 -185 -303q-62 -172 -62 -305z" />
<glyph unicode="&#x41f;" horiz-adv-x="1479" d="M-17 0l9 53l176 27l208 1182l-167 26l10 53h1360l-10 -53l-177 -26l-208 -1182l166 -27l-9 -53h-536l9 53l178 27l206 1171h-631l-206 -1171l166 -27l-9 -53h-535z" />
<glyph unicode="&#x420;" horiz-adv-x="1251" d="M-11 0l10 53l162 27l209 1182l-168 26l10 53h537q227 0 344 -99q106 -89 106 -256q0 -326 -308 -426q-107 -34 -257 -34h-201l-79 -446l219 -27l-10 -53h-574zM449 616h163q388 0 388 357q0 143 -72.5 210.5t-218.5 67.5h-148z" />
<glyph unicode="&#x421;" horiz-adv-x="1366" d="M114 523q0 385 234 612q229 221 599 221q211 0 438 -51l-45 -293h-65v174q-130 90 -334 90q-276 0 -449 -210q-178 -215 -178 -563q0 -312 219 -407q76 -33 160.5 -33t143.5 10t111 27q104 35 168 84l72 201h65l-61 -315q-246 -89 -493 -89q-280 0 -435 149 q-150 144 -150 393z" />
<glyph unicode="&#x422;" horiz-adv-x="1139" d="M134 1026l56 315h1070l-56 -315h-68l10 209q-90 18 -294 18h-49l-207 -1173l209 -27l-10 -53h-619l10 53l217 27l207 1175h-51q-199 0 -294 -20l-64 -209h-67z" />
<glyph unicode="&#x423;" horiz-adv-x="1378" d="M181 23l33 241h45l32 -97q28 -49 92 -49q107 0 232 145q43 50 92 120l-357 879l-146 26l9 53h524l-9 -53l-168 -26l282 -712l481 712l-138 26l9 53h396l-9 -53l-132 -26l-576 -831q-177 -253 -252 -323t-138.5 -99t-112 -29t-72 3t-44.5 9q-47 13 -73 31z" />
<glyph unicode="&#x424;" horiz-adv-x="1647" d="M119 635q0 360 312 465q108 37 258 37h159l21 125l-167 26l10 53h536l-10 -53l-177 -26l-21 -125h91q347 0 443 -242q30 -76 30 -178.5t-34 -195.5t-105 -159q-149 -140 -439 -140h-149l-24 -142l166 -27l-9 -53h-536l9 53l178 27l24 142h-101q-236 0 -356 116 q-109 105 -109 297zM311 632q0 -249 181 -312q57 -20 130 -20h77l134 759h-134q-388 0 -388 -427zM892 300h124q388 0 388 427q0 249 -180 312q-58 20 -131 20h-68z" />
<glyph unicode="&#x425;" horiz-adv-x="1251" d="M-68 0l10 53l151 27l480 606l-204 576l-147 26l10 53h493l-10 -53l-144 -26l140 -409l319 409l-132 26l10 53h409l-10 -53l-152 -26l-404 -509l239 -673l148 -27l-10 -53h-513l10 53l164 27l-175 507l-397 -507l162 -27l-10 -53h-437z" />
<glyph unicode="&#x426;" horiz-adv-x="1479" d="M-23 0l9 53l176 27l208 1182l-167 26l9 53h537l-9 -53l-177 -26l-206 -1172h631l206 1172l-167 26l9 53h536l-9 -53l-177 -26l-208 -1182l176 -20l-100 -476h-65l-34 416h-1178z" />
<glyph unicode="&#x427;" horiz-adv-x="1411" d="M224 1288l10 53h516l-10 -53l-176 -26l-63 -353q-14 -78 -14 -137q0 -203 237 -203q124 0 289 53l114 640l-168 26l10 53h536l-10 -53l-176 -26l-209 -1182l168 -27l-10 -53h-556l10 53l196 27l81 458q-184 -89 -341 -89q-263 0 -338 172q-27 60 -27 119q0 90 17 179 l62 343z" />
<glyph unicode="&#x428;" horiz-adv-x="2136" d="M-23 0l9 53l176 27l208 1182l-167 26l9 53h537l-9 -53l-177 -26l-206 -1172h547l206 1172l-167 26l9 53h536l-9 -53l-177 -26l-206 -1172h548l206 1172l-167 26l9 53h536l-9 -53l-177 -26l-208 -1182l168 -27l-10 -53h-2015z" />
<glyph unicode="&#x429;" horiz-adv-x="2136" d="M-23 0l9 53l176 27l208 1182l-167 26l9 53h537l-9 -53l-177 -26l-206 -1172h547l206 1172l-167 26l9 53h536l-9 -53l-177 -26l-206 -1172h548l206 1172l-167 26l9 53h536l-9 -53l-177 -26l-208 -1182l176 -20l-100 -476h-65l-34 416h-1834z" />
<glyph unicode="&#x42a;" horiz-adv-x="1384" d="M71 1026l56 315h897l-10 -53l-219 -27l-89 -516h211q212 0 323 -99q100 -87 100 -237q0 -409 -565 -409h-565l10 53l175 26l207 1176h-51q-274 -4 -349 -20l-64 -209h-67zM590 90h158q209 0 298 68q95 72 95 253q0 244 -287 244h-164z" />
<glyph unicode="&#x42b;" horiz-adv-x="1786" d="M-21 0l10 53l175 46l209 1162l-155 27l10 53h535l-10 -53l-187 -27l-91 -516h211q212 0 324 -99q99 -87 99 -237q0 -409 -565 -409h-565zM359 90h158q209 0 299 68q94 72 94 253q0 244 -287 244h-164zM1107 0l10 53l176 27l209 1182l-168 26l10 53h536l-10 -53l-176 -26 l-209 -1182l168 -27l-10 -53h-536z" />
<glyph unicode="&#x42c;" horiz-adv-x="1208" d="M-21 0l10 53l175 46l209 1162l-155 27l10 53h535l-10 -53l-187 -27l-91 -516h211q212 0 324 -99q99 -87 99 -237q0 -409 -565 -409h-565zM359 90h158q209 0 299 68q94 72 94 253q0 244 -287 244h-164z" />
<glyph unicode="&#x42d;" horiz-adv-x="1341" d="M46 43l50 315h65l2 -200q44 -41 127.5 -71t209 -30t227 43.5t173.5 121.5q142 153 178 423h-572l17 90h564q2 36 2 73q0 468 -399 468q-189 0 -352 -90l-61 -174h-66l58 293q245 51 411.5 51t276.5 -36.5t185 -106.5q151 -142 151 -402q0 -400 -233 -622 q-221 -209 -587 -209q-217 0 -427 63z" />
<glyph unicode="&#x42e;" horiz-adv-x="2114" d="M-23 0l9 53l176 27l208 1182l-167 26l9 53h537l-9 -53l-177 -26l-93 -527h350q59 275 238 441q193 180 473 180q248 0 394 -150q141 -145 141 -384q0 -328 -174 -567q-123 -170 -326 -239q-105 -36 -232 -36t-226.5 39.5t-168.5 110t-105 169t-36 190.5t8 156h-352 l-99 -565l167 -27l-9 -53h-536zM998 504.5q0 -93.5 24 -177.5t68 -142q91 -120 251 -120q163 0 289 123q112 107 176 291q60 169 60 355q0 96 -25 180.5t-71 142.5q-94 119 -253 119q-163 0 -287 -124q-168 -168 -218 -466q-14 -88 -14 -181.5z" />
<glyph unicode="&#x42f;" horiz-adv-x="1346" d="M-70 0l10 53l144 27l396 534q-142 58 -194 211q-20 57 -20 131q0 199 144 292t431 93h599l-10 -53l-176 -26l-209 -1182l155 -27l-10 -53h-555l10 53l207 27l90 508h-276l-423 -588h-313zM461 950q0 -192 155 -250q57 -22 142 -22h200l101 573h-197q-192 0 -286 -59 q-115 -72 -115 -242z" />
<glyph unicode="&#x430;" d="M61 313q0 262 159 455q102 123 247 172q73 24 173.5 24t207.5 -42q21 14 45 34h54l-158 -886l113 -25l-8 -45h-285l29 156q-169 -177 -309 -177q-118 0 -191 85q-77 90 -77 249zM240 339q0 -117 50 -181q44 -54 114 -54q113 0 247 139l109 594q-70 48 -155.5 48 t-153 -49.5t-114.5 -127.5q-97 -163 -97 -369z" />
<glyph unicode="&#x431;" horiz-adv-x="1030" d="M90 482.5q0 152.5 40 319.5t116 288q154 247 437 281q174 19 222 30q104 22 130 65h50q-32 -146 -131 -192q-51 -25 -125.5 -36.5t-166 -22t-147 -25.5t-95 -39.5t-65.5 -59t-45 -81.5q-25 -62 -68 -250h7q50 90 146 148q96 57 190.5 57t159.5 -27t111 -78 q99 -108 99 -289q0 -244 -139 -413q-148 -178 -379 -178q-161 0 -255 125q-45 59 -68.5 142t-23.5 235.5zM259 332q0 -127 50 -198.5t126.5 -71.5t136.5 41.5t106 114.5q102 158 102 388q0 138 -49.5 209.5t-128.5 71.5t-138 -41t-105 -113.5t-73 -173t-27 -227.5z" />
<glyph unicode="&#x432;" horiz-adv-x="889" d="M63 368q0 119 41.5 238t111.5 199q142 162 352 162q131 0 210 -58q75 -56 75 -146q0 -182 -298 -268q179 -28 233 -139q18 -37 18 -92t-30.5 -109t-85.5 -93q-114 -82 -299 -82q-243 0 -307 204q-21 65 -21 184zM240 334q0 -270 176 -270q105 0 164 58q53 52 53 140 q0 170 -227 198q-59 -10 -159 -16q-7 -35 -7 -110zM255 507q211 17 317 83.5t106 169.5q0 56 -34 92t-89.5 36t-105 -32.5t-88.5 -85.5q-81 -111 -106 -263z" />
<glyph unicode="&#x433;" horiz-adv-x="799" d="M41 227q0 110 83 173q67 51 245 111q124 43 167 93q40 46 40 121q0 131 -151 131q-121 0 -244 -84l-34 44q139 144 337 144q128 0 198.5 -53t70.5 -159q0 -101 -69 -168q-70 -66 -231 -120q-135 -46 -172.5 -78t-50 -64t-12.5 -94.5t44 -101t98 -38.5t93.5 7t77.5 19 q82 28 136 66l30 -42q-159 -154 -379 -154q-133 0 -208 72q-69 68 -69 175z" />
<glyph unicode="&#x434;" horiz-adv-x="1036" d="M61 379q0 236 144 395q149 166 385 166q99 0 170 -58q21 -16 34 -35q-38 377 -254 469q-53 22 -92 22q-52 0 -82 -4l-30 -4q-15 -2 -26 -5l-16 76q60 20 161 20t198.5 -47t166.5 -136q146 -185 146 -504q0 -370 -150 -567q-142 -187 -389 -187q-165 0 -266 109 q-100 108 -100 290zM235 346q0 -137 55 -210.5t152 -73.5q137 0 238 145q105 150 105 364q0 287 -206 287q-139 0 -239 -144q-105 -150 -105 -368z" />
<glyph unicode="&#x435;" horiz-adv-x="909" d="M63 330q0 264 162 450q160 185 366 185q126 0 200 -59q72 -56 72 -133.5t-41 -135.5t-120 -105q-168 -100 -458 -119q-4 -36 -4 -73q0 -256 212 -256q139 0 308 100l29 -42q-127 -107 -275 -147q-56 -15 -127.5 -15t-134.5 24.5t-105 69.5q-84 90 -84 256zM252 476 q208 15 328 100q108 76 108 184q0 56 -30.5 92t-89 36t-110.5 -37.5t-94 -96.5q-83 -119 -112 -278z" />
<glyph unicode="&#x436;" horiz-adv-x="1905" d="M41 31l33 196h55l24 -112q39 -57 105.5 -57t118 41t91.5 115q91 165 91 410q0 174 -93 223q-28 15 -62 15q-107 0 -224 -100l-30 42q155 162 308 162q258 0 258 -346q0 -62 -6 -112h168l70 432h161l-71 -432h181q47 210 169 337q117 121 255 121q136 0 231 -51l-33 -196 h-55l-24 112q-39 57 -105.5 57t-118.5 -41t-92 -115q-90 -164 -90 -410q0 -119 43.5 -178.5t111.5 -59.5q107 0 224 100l30 -42q-93 -102 -211 -145q-47 -17 -97 -17q-258 0 -258 346q0 51 7 112h-180l-74 -438h-163l75 438h-167q-47 -210 -169 -337q-117 -121 -256 -121 q-136 0 -231 51z" />
<glyph unicode="&#x437;" horiz-adv-x="799" d="M-27 76l31 60q123 -56 270 -56q170 0 218 112q17 39 17 92q0 159 -178 159h-120l15 83h121q105 0 164 52t59 156q0 151 -168 151q-91 0 -166 -47l-57 -108h-55l38 204q150 31 248 31q166 0 250.5 -60t84.5 -165q0 -156 -129 -223q-40 -21 -89 -31l-1 -6q111 -24 150 -116 q13 -33 13 -74q0 -149 -107 -229.5t-306 -80.5q-169 0 -303 96z" />
<glyph unicode="&#x438;" d="M102 187q0 32 10.5 91.5t14.5 82.5l88 510l-111 24l8 45h281l-102 -581q-23 -127 -23 -166q0 -101 100 -101q80 0 170 68q82 62 135 148l111 632h166l-153 -870l118 -25l-8 -45h-278l27 193q-168 -217 -351 -217q-203 0 -203 211z" />
<glyph unicode="&#x439;" d="M102 187q0 32 10.5 91.5t14.5 82.5l88 510l-111 24l8 45h281l-102 -581q-23 -127 -23 -166q0 -101 100 -101q80 0 170 68q82 62 135 148l111 632h166l-153 -870l118 -25l-8 -45h-278l27 193q-168 -217 -351 -217q-203 0 -203 211zM286 1364l167 28q39 -174 190 -174 q143 0 243 152q28 42 53 87l64 -28q-65 -133 -123 -189q-122 -118 -279 -118q-265 0 -315 242z" />
<glyph unicode="&#x43a;" horiz-adv-x="958" d="M59 0l155 871l-115 24l8 45h285l-87 -487l452 415l-86 27l8 45h292l-8 -45l-81 -23l-319 -297l246 -507l98 -23l-8 -45h-236l-228 471l-144 -114l-66 -357h-166z" />
<glyph unicode="&#x43b;" horiz-adv-x="893" d="M-96 14l35 134h44l9 -24q6 -16 14 -27t30 -11t44 25.5t46 85.5q38 91 98 305t94 283.5t78 108.5q76 69 237 69q106 0 188 -23l-146 -871l111 -24l-8 -45h-281l151 873q-24 10 -75.5 10t-88 -22t-62.5 -62q-41 -61 -82.5 -212.5t-73 -262.5t-67.5 -187t-82.5 -116 t-116.5 -40q-48 0 -96 33z" />
<glyph unicode="&#x43c;" horiz-adv-x="1307" d="M-59 13l35 134h44l9 -24q13 -37 37.5 -37t47.5 26.5t48 87.5q47 112 122 407l66 263l-138 25l8 45h312l100 -743l432 743h191l-146 -871l111 -24l-8 -45h-281l137 795l-473 -815h-73l-112 815l-49 -215q-78 -345 -123 -438.5t-88.5 -127.5t-89.5 -34q-65 0 -119 33z" />
<glyph unicode="&#x43d;" horiz-adv-x="1016" d="M69 0l155 871l-115 24l8 45h285l-76 -425h373l70 425h171l-146 -871l111 -24l-8 -45h-281l69 431h-374l-76 -431h-166z" />
<glyph unicode="&#x43e;" d="M61 374q0 243 145 412q152 179 391 179q165 0 265 -105q101 -107 101 -289q0 -243 -145 -413q-69 -81 -168 -129.5t-201.5 -48.5t-170 27t-116.5 78q-101 107 -101 289zM237 332q0 -127 52.5 -198.5t134 -71.5t145 41.5t111.5 114.5q108 160 108 388q0 138 -52.5 209.5 t-150.5 71.5q-140 0 -242 -155q-106 -160 -106 -400z" />
<glyph unicode="&#x43f;" d="M73 0l153 871l-118 25l8 45h278l-27 -192q168 216 351 216q203 0 203 -211q0 -23 -6.5 -62t-10.5 -64.5t-8 -47.5l-88 -511l131 -24l-8 -45h-301l102 582q23 126 23 166q0 101 -100 101q-78 0 -171 -70q-81 -61 -135 -149l-110 -630h-166z" />
<glyph unicode="&#x440;" d="M-120 -436l8 47l121 24l219 1235l-103 25l8 45h265l-19 -152q175 177 315 177q118 0 191 -85q77 -90 77 -249q0 -265 -157 -455q-162 -196 -415 -196q-95 0 -157 22q-1 -12 -3 -27.5t-4 -32t-4.5 -30.5t-3.5 -23l-44 -254l160 -24l-8 -47h-446zM257 107q62 -48 168 -48 q162 0 265 183q93 164 93 363q0 177 -103 222q-29 13 -58 13t-60.5 -10t-65.5 -28q-72 -39 -130 -101z" />
<glyph unicode="&#x441;" horiz-adv-x="909" d="M63 330q0 288 175 469q162 166 366 166q156 0 283 -52l-45 -262h-55l-16 174q-63 63 -151 63t-153.5 -40t-115.5 -112q-111 -161 -111 -396q0 -256 206 -256q143 0 298 100l30 -42q-110 -102 -256 -145q-57 -17 -129.5 -17t-136 25.5t-105.5 72.5q-84 92 -84 252z" />
<glyph unicode="&#x442;" horiz-adv-x="1479" d="M74 0l153 870l-118 25l8 45h278l-28 -194q106 152 237 202q43 17 84 17q88 0 136.5 -55.5t48.5 -163.5q107 153 235 202q43 17 84 17q84 0 132.5 -53.5t48.5 -154.5q0 -51 -23 -177l-88 -510l131 -25l-9 -45h-301l103 582q23 121 23 166q0 100 -87 100q-71 0 -164 -92 q-96 -94 -111 -180l-99 -576h-166l102 582q4 21 8 45.5t8 47.5q9 52 9 73q0 100 -91 100q-69 0 -166 -92q-98 -92 -113 -180l-99 -576h-166z" />
<glyph unicode="&#x443;" horiz-adv-x="909" d="M-171 -424l37 203h45l16 -96q25 -23 75 -23t90.5 25t77.5 65q60 65 124 180l45 82l-183 858l-112 25l8 45h256l145 -732l235 406q64 112 64 193q0 37 -21 59t-45 29l8 45h190q26 -23 26 -59q0 -83 -83 -224l-396 -667q-135 -229 -202 -300.5t-124.5 -101.5t-105 -30 t-67 1t-36.5 3q-38 6 -67 14z" />
<glyph unicode="&#x444;" horiz-adv-x="1454" d="M55 343q0 108 37 226t105 206q147 190 383 190q90 0 149 -24l73 411l-133 24l8 45h300l-76 -441q-6 -44 -18 -83q111 66 247 66q123 0 195 -89q74 -91 74 -243q0 -263 -141 -455q-90 -122 -224 -172q-66 -24 -114 -24t-71.5 3t-46.5 8q-50 11 -72 27l-68 -383l119 -24 l-8 -47h-284l66 381q12 70 26 124q-119 -89 -253 -89q-193 0 -253 192q-20 63 -20 171zM230 326q0 -172 90 -236q31 -21 66.5 -21t64 7t53.5 18q44 17 86 47l122 701q-69 46 -145.5 46t-137.5 -46.5t-105 -124.5q-94 -167 -94 -391zM746 107q65 -48 140 -48t136.5 47 t105.5 124q92 162 92 375q0 200 -102 253q-30 16 -68 16q-79 0 -178 -61z" />
<glyph unicode="&#x445;" horiz-adv-x="909" d="M-25 35q0 22 7.5 38.5t23.5 37.5q32 41 106 110l273 254l-172 395l-107 25l8 45h248l145 -358l124 118q116 111 116 156q0 19 -39 32l-20 7l8 45h177q21 -16 21 -43q0 -59 -138 -190l-214 -201l192 -440l116 -21l-8 -45h-256l-167 400l-171 -164q-106 -103 -106 -152 q0 -28 42 -39l-8 -45h-185q-16 13 -16 35z" />
<glyph unicode="&#x446;" d="M102 187q0 32 10.5 91.5t14.5 82.5l88 510l-111 24l8 45h281l-102 -581q-23 -127 -23 -166q0 -101 100 -101q80 0 170 68q82 62 135 148l111 632h166l-153 -870l118 -25l-117 -453h-195l188 408h-162l27 193q-168 -217 -351 -217q-203 0 -203 211z" />
<glyph unicode="&#x447;" horiz-adv-x="977" d="M57 895l8 45h281l-51 -289q-23 -126 -23 -166q0 -101 100 -101q80 0 170 68q82 62 135 148l60 340h166l-153 -870l118 -25l-8 -45h-288l85 485q-168 -217 -348 -217q-203 0 -203 211q0 33 10.5 93.5t14.5 84.5l37 214z" />
<glyph unicode="&#x448;" horiz-adv-x="1546" d="M84 895l9 45h301l-103 -582q-24 -120 -24 -166q0 -100 96 -100q77 0 181.5 92t120.5 180l99 576h166l-102 -582q-25 -131 -25 -166q0 -100 100 -100q75 0 183 92q107 93 122 180l98 576h167l-153 -870l118 -25l-8 -45h-278l28 194q-113 -152 -254 -202q-46 -17 -89 -17 q-94 0 -146 55.5t-52 163.5q-126 -151 -268 -202q-46 -17 -86 -17q-84 0 -133 53.5t-49 154.5q0 51 24 177l88 510z" />
<glyph unicode="&#x449;" horiz-adv-x="1546" d="M84 895l9 45h301l-103 -582q-24 -120 -24 -166q0 -100 96 -100q77 0 181.5 92t120.5 180l99 576h166l-102 -582q-25 -131 -25 -166q0 -100 100 -100q75 0 183 92q107 93 122 180l98 576h167l-153 -870l118 -25l-117 -453h-195l188 408h-162l28 194q-113 -152 -254 -202 q-46 -17 -89 -17q-94 0 -146 55.5t-52 163.5q-126 -151 -268 -202q-46 -17 -86 -17q-84 0 -133 53.5t-49 154.5q0 51 24 177l88 510z" />
<glyph unicode="&#x44a;" horiz-adv-x="1063" d="M57 672l47 268h541l8 -23q-148 -218 -208 -365q142 19 223 19q162 0 248 -68.5t86 -191.5q0 -331 -432 -331q-267 0 -335 194q-21 61 -21 135q0 188 175 419q50 66 102 129h-162q-65 0 -95 -4t-48 -6l-74 -175h-55zM389 314.5q0 -69.5 14.5 -116.5t40.5 -77 q52 -58 144 -58q241 0 241 230q0 204 -248 204q-67 0 -167 -25q-25 -88 -25 -157.5z" />
<glyph unicode="&#x44b;" horiz-adv-x="1387" d="M74 25l150 846l-135 24l8 45h305l-68 -385q106 16 203 16q162 0 248 -68.5t86 -191.5q0 -159 -111 -245t-340 -86q-138 0 -230.5 18t-115.5 27zM252 90q58 -27 176 -27q270 0 270 232q0 203 -247 203q-74 0 -130 -12zM989 0l153 940h171l-146 -871l131 -24l-8 -45h-301z " />
<glyph unicode="&#x44c;" horiz-adv-x="932" d="M74 25l150 846l-135 24l8 45h305l-68 -385q106 16 203 16q162 0 248 -68.5t86 -191.5q0 -159 -111 -245t-340 -86q-138 0 -230.5 18t-115.5 27zM252 90q58 -27 176 -27q270 0 270 232q0 203 -247 203q-74 0 -130 -12z" />
<glyph unicode="&#x44d;" horiz-adv-x="903" d="M1 90l34 57q116 -63 266 -63q287 0 338 359h-410l15 83h404q4 22 4 81.5t-16 115.5t-44 93q-53 70 -148 70q-96 0 -178 -48l-69 -166h-55l46 262q165 31 261.5 31t163.5 -24.5t115 -72.5q100 -100 100 -289q0 -275 -132 -433q-139 -166 -398 -166q-88 0 -167 29.5 t-130 80.5z" />
<glyph unicode="&#x44e;" horiz-adv-x="1444" d="M59 0l155 871l-135 24l8 45h305l-76 -425h179q39 195 176 319q144 131 346 131q165 0 265 -105q101 -107 101 -289q0 -243 -145 -413q-152 -178 -391 -178q-165 0 -265 105q-48 51 -74.5 124t-26.5 133.5t2 88.5h-182l-76 -431h-166zM657 332q0 -127 52.5 -198.5 t134 -71.5t145 41.5t111.5 114.5q108 160 108 388q0 138 -52.5 209.5t-150.5 71.5q-140 0 -242 -155q-106 -160 -106 -400z" />
<glyph unicode="&#x44f;" horiz-adv-x="952" d="M-60 0l8 45l84 23l271 366q-100 32 -147 134q-18 41 -18 102.5t26 116t78 93.5q107 80 311 80q134 0 309 -28l-145 -863l131 -24l-8 -45h-301l65 404h-148l-289 -404h-227zM312 662q0 -121 106 -163q37 -15 91 -15h111l62 371q-61 14 -125 14t-107 -12t-74 -37 q-64 -54 -64 -158z" />
<glyph unicode="&#x451;" horiz-adv-x="909" d="M63 330q0 264 162 450q160 185 366 185q126 0 200 -59q72 -56 72 -133.5t-41 -135.5t-120 -105q-168 -100 -458 -119q-4 -36 -4 -73q0 -256 212 -256q139 0 308 100l29 -42q-127 -107 -275 -147q-56 -15 -127.5 -15t-134.5 24.5t-105 69.5q-84 90 -84 256zM252 476 q208 15 328 100q108 76 108 184q0 56 -30.5 92t-89 36t-110.5 -37.5t-94 -96.5q-83 -119 -112 -278zM370 1231q0 64 62 92q18 8 49.5 8t59.5 -29t28 -71t-28 -71.5t-59.5 -29.5t-49.5 8t-32 22q-30 30 -30 71zM727 1232q0 41 29 70t71 29t70 -29t28 -71t-28 -71.5 t-59.5 -29.5t-49.5 8t-31 22q-30 31 -30 72z" />
<glyph unicode="&#x452;" horiz-adv-x="981" d="M74 0l194 1109h-139l16 83h138l28 160l-118 24l8 45h288l-41 -229h262l-16 -83h-261l-32 -181q-7 -39 -15 -84q-13 -74 -19 -95q113 150 252 199q48 17 99 17q203 0 203 -211q0 -36 -25 -174l-109 -619q-67 -397 -344 -397q-81 0 -160 30l33 187h47l15 -110 q27 -27 63 -27t60 12t44 42q41 62 68 212l119 672q23 126 23 166q0 101 -100 101q-80 0 -171 -69q-81 -61 -134 -147l-111 -633h-165z" />
<glyph unicode="&#x453;" horiz-adv-x="772" d="M69 0l152 870l-121 25l8 45h690l-47 -268h-55l-14 166q-104 19 -195 19h-102l-150 -857h-166zM393 1118l5 33l244 272h213l-6 -37l-401 -268h-55z" />
<glyph unicode="&#x454;" horiz-adv-x="893" d="M63 330q0 288 175 469q162 166 366 166q156 0 283 -52l-45 -262h-55l-16 174q-63 63 -168 63q-113 0 -206 -96q-95 -99 -135 -260h346l-15 -80h-346q-7 -47 -7 -112q0 -256 206 -256q143 0 298 100l30 -42q-110 -102 -256 -145q-57 -17 -129.5 -17t-136 25.5t-105.5 72.5 q-84 92 -84 252z" />
<glyph unicode="&#x455;" horiz-adv-x="797" d="M25 42l41 226h45l17 -137q26 -28 73.5 -50t107.5 -22q219 0 219 179q0 85 -103 150q-44 27 -95.5 52t-95.5 58q-103 76 -103 190q0 142 101 214q89 63 235 63q113 0 268 -35l-37 -209h-47l-14 108q-63 56 -155 56q-191 0 -191 -154q0 -49 29.5 -82t74.5 -60.5t96.5 -54 t96.5 -60.5q104 -79 104 -198q0 -151 -96 -223.5t-291 -72.5q-138 0 -280 62z" />
<glyph unicode="&#x456;" horiz-adv-x="569" d="M114 0l153 870l-129 25l8 45h299l-153 -870l157 -25l-8 -45h-327zM285 1247q0 45 23 69q41 40 85 40q45 0 69 -24q40 -40 40 -85q0 -44 -24 -67q-40 -41 -85 -41q-44 0 -67 23q-41 41 -41 85z" />
<glyph unicode="&#x457;" horiz-adv-x="569" d="M98 1231q0 64 62 92q18 8 49.5 8t59.5 -29t28 -71t-28 -71.5t-59.5 -29.5t-49.5 8t-32 22q-30 30 -30 71zM109 0l153 870l-129 25l8 45h299l-153 -870l157 -25l-8 -45h-327zM455 1232q0 41 29 70t71 29t70 -29t28 -71t-28 -71.5t-59.5 -29.5t-49.5 8t-31 22 q-30 31 -30 72z" />
<glyph unicode="&#x458;" horiz-adv-x="569" d="M-219 -406l33 187h47l15 -110q27 -27 63 -27t60 12t44 42q41 62 68 212l170 960l-137 25l8 45h307l-174 -979q-55 -307 -224 -375q-55 -22 -110 -22q-91 0 -170 30zM302 1247q0 45 24 69q40 40 84 40q45 0 68 -24q41 -40 41 -85q0 -44 -23 -67q-41 -41 -86 -41 q-44 0 -68 23q-40 41 -40 85z" />
<glyph unicode="&#x459;" horiz-adv-x="1391" d="M-96 14l35 134h44l10 -24q7 -16 16 -27t34 -11t49.5 25.5t51.5 85.5q42 90 109.5 304.5t105.5 284t86 108.5q83 69 252 69q103 0 195 -23l-67 -381q82 12 172 12q162 0 248 -68.5t86 -191.5q0 -159 -104 -245t-318 -86q-137 0 -229.5 18t-115.5 27l150 848 q-28 10 -84.5 10t-96.5 -22t-69 -62q-45 -62 -89.5 -213t-79 -262t-73.5 -187t-90 -116t-127 -40q-53 0 -101 33zM742 90q54 -27 164 -27q252 0 252 232q0 203 -248 203q-42 0 -98 -8z" />
<glyph unicode="&#x45a;" horiz-adv-x="1458" d="M69 0l155 871l-115 24l8 45h285l-76 -425h393l75 425h166l-67 -381q82 12 172 12q162 0 248 -68.5t86 -191.5q0 -159 -104 -245t-318 -86q-137 0 -229.5 18t-115.5 27l72 406h-393l-76 -431h-166zM810 90q54 -27 164 -27q252 0 252 232q0 203 -247 203q-43 0 -99 -8z" />
<glyph unicode="&#x45b;" d="M74 0l194 1109h-139l16 83h138l28 160l-118 24l8 45h288l-41 -229h262l-16 -83h-261l-32 -181q-7 -39 -15 -84q-13 -74 -19 -95q113 150 252 199q48 17 99 17q203 0 203 -211q0 -23 -6.5 -62t-10.5 -64.5t-8 -47.5l-88 -511l131 -24l-8 -45h-301l102 582q23 126 23 166 q0 101 -100 101q-80 0 -171 -69q-81 -61 -134 -147l-111 -633h-165z" />
<glyph unicode="&#x45c;" horiz-adv-x="958" d="M59 0l155 871l-115 24l8 45h285l-87 -487l452 415l-86 27l8 45h292l-8 -45l-81 -23l-319 -297l246 -507l98 -23l-8 -45h-236l-228 471l-144 -114l-66 -357h-166zM431 1118l5 33l244 272h213l-6 -37l-401 -268h-55z" />
<glyph unicode="&#x45e;" horiz-adv-x="909" d="M-171 -424l37 203h45l16 -96q25 -23 75 -23t90.5 25t77.5 65q60 65 124 180l45 82l-183 858l-112 25l8 45h256l145 -732l235 406q64 112 64 193q0 37 -21 59t-45 29l8 45h190q26 -23 26 -59q0 -83 -83 -224l-396 -667q-135 -229 -202 -300.5t-124.5 -101.5t-105 -30 t-67 1t-36.5 3q-38 6 -67 14zM258 1364l167 28q39 -174 190 -174q143 0 243 152q28 42 53 87l64 -28q-65 -133 -123 -189q-122 -118 -279 -118q-265 0 -315 242z" />
<glyph unicode="&#x45f;" d="M84 895l8 45h301l-102 -581q-23 -127 -23 -166q0 -101 100 -101q80 0 170 68q82 62 135 148l111 632h166l-153 -870l118 -25l-8 -45h-278l27 193q-168 -217 -351 -217q-203 0 -203 211q0 32 10.5 91.5t14.5 82.5l88 510zM274 -408l119 323l116 42l-40 -365h-195z" />
<glyph unicode="&#x490;" horiz-adv-x="901" d="M-23 0l10 53l175 26l209 1182l-168 27l10 53h640l160 339h65l-59 -426h-456l-208 -1175l203 -26l-10 -53h-571z" />
<glyph unicode="&#x491;" horiz-adv-x="645" d="M69 0l152 870l-121 25l8 45h449l106 251h55l-39 -334h-294l-150 -857h-166z" />
<glyph unicode="&#x2013;" d="M-14 426v102h1052v-102h-1052z" />
<glyph unicode="&#x2014;" horiz-adv-x="1821" d="M-14 426v102h1845v-102h-1845z" />
<glyph unicode="&#x2018;" horiz-adv-x="682" d="M302 993q0 71 18 125t56 100q83 98 241 144v-77q-186 -59 -186 -168q0 -28 19.5 -42t43 -28.5t43 -36t19.5 -69.5t-34 -76.5t-74.5 -28.5t-65 10.5t-42.5 31.5q-38 44 -38 115z" />
<glyph unicode="&#x2019;" horiz-adv-x="682" d="M305 836v77q186 59 186 168q0 28 -19.5 42t-43 28.5t-43 36t-19.5 69.5t34 76.5t74.5 28.5t65 -10.5t42.5 -31.5q38 -44 38 -115t-18 -125t-56 -100q-83 -98 -241 -144z" />
<glyph unicode="&#x201a;" horiz-adv-x="682" d="M168 -238q186 59 186 168q0 28 -19.5 42t-43 28.5t-43 36t-19.5 69.5t34 76.5t74.5 28.5t65 -10.5t42.5 -31.5q38 -44 38 -115t-18 -125t-57 -100q-82 -98 -240 -144v77z" />
<glyph unicode="&#x201c;" horiz-adv-x="1139" d="M300 993q0 71 18 125t56 100q83 98 241 144v-77q-186 -59 -186 -168q0 -28 19.5 -42t43 -28.5t43 -36t19.5 -69.5t-34 -76.5t-74.5 -28.5t-65 10.5t-42.5 31.5q-38 44 -38 115zM713 993q0 71 18 125t57 100q82 98 240 144v-77q-186 -59 -186 -168q0 -28 19.5 -42 t43 -28.5t43 -36t19.5 -69.5t-34 -76.5t-74.5 -28.5t-65 10.5t-42.5 31.5q-38 44 -38 115z" />
<glyph unicode="&#x201d;" horiz-adv-x="1139" d="M305 836v77q186 59 186 168q0 28 -19.5 42t-43 28.5t-43 36t-19.5 69.5t34 76.5t74.5 28.5t65 -10.5t42.5 -31.5q38 -44 38 -115t-18 -125t-56 -100q-83 -98 -241 -144zM718 836v77q186 59 186 168q0 28 -19.5 42t-43 28.5t-43 36t-19.5 69.5t34 76.5t74.5 28.5t65 -10.5 t42.5 -31.5q38 -44 38 -115t-18 -125t-57 -100q-82 -98 -240 -144z" />
<glyph unicode="&#x201e;" horiz-adv-x="1139" d="M83 -238q186 59 186 168q0 28 -19.5 42t-43 28.5t-43 36t-19.5 69.5t34 76.5t74.5 28.5t65 -10.5t42.5 -31.5q38 -44 38 -115t-18 -125t-56 -100q-83 -98 -241 -144v77zM496 -238q186 59 186 168q0 28 -19.5 42t-43 28.5t-43 36t-19.5 69.5t34 76.5t74.5 28.5t65 -10.5 t42.5 -31.5q38 -44 38 -115t-18 -125t-57 -100q-82 -98 -240 -144v77z" />
<glyph unicode="&#x2022;" horiz-adv-x="717" d="M136 678q0 102 71 173t172 71q102 0 173 -71t71 -173t-71 -173t-173 -71q-101 0 -172 71t-71 173z" />
<glyph unicode="&#x2026;" horiz-adv-x="1821" d="M68 92q0 51 26 76q44 45 82 45t60.5 -9.5t38.5 -25.5q35 -35 35 -86q0 -49 -26 -76q-66 -69 -143 -36q-44 19 -63 65q-10 22 -10 47zM754 92q0 51 26 76q44 45 82 45t60.5 -9.5t38.5 -25.5q35 -35 35 -86q0 -49 -26 -76q-66 -69 -143 -36q-44 19 -63 65q-10 22 -10 47z M1440 92q0 51 26 76q44 45 82 45t60.5 -9.5t38.5 -25.5q35 -35 35 -86q0 -49 -26 -76q-66 -69 -143 -36q-44 19 -63 65q-10 22 -10 47z" />
<glyph unicode="&#x2039;" horiz-adv-x="682" d="M111 430l11 66l417 356h61l-320 -395l183 -383h-61z" />
<glyph unicode="&#x203a;" horiz-adv-x="682" d="M82 74l322 396l-185 382h61l292 -356l-11 -66l-418 -356h-61z" />
<glyph unicode="&#x20ac;" d="M24 502l15 82h105q10 89 30 164h-106l14 81h112q153 527 591 527q134 0 208.5 -20t110.5 -31l-41 -252h-68l4 133q-80 90 -207 90q-205 0 -318 -239q-41 -85 -73 -208h350l-14 -81h-355q-19 -78 -30 -164h356l-15 -82h-350q-4 -54 -4 -101q0 -174 63.5 -259t176.5 -85 q82 0 148 30t107 71l53 159h67l-53 -274q-161 -63 -344 -63q-200 0 -311 122q-54 60 -83 146.5t-29 156t2 97.5h-112z" />
<glyph unicode="&#x2122;" horiz-adv-x="2007" d="M126 1143v198h709v-198h-41l-16 125q-44 10 -201 10h-29v-682l127 -16v-43h-391v43l127 16v684h-31q-146 0 -196 -12l-17 -125h-41zM921 537v43l104 16v688l-104 16v41h270l244 -583l264 583h254v-41l-102 -16v-688l102 -16v-43h-348v43l108 16v608l-303 -667h-28 l-285 669v-610l109 -16v-43h-285z" />
<glyph unicode="&#xe000;" horiz-adv-x="940" d="M0 0v940h940v-940h-940z" />
</font>
</defs>
</svg>
