<?xml version="1.0" standalone="no"?>
<!DOCTYPE svg PUBLIC "-//W3C//DTD SVG 1.1//EN" "http://www.w3.org/Graphics/SVG/1.1/DTD/svg11.dtd" >
<svg xmlns="http://www.w3.org/2000/svg">
<metadata></metadata>
<defs>
<font id="LiberationSerifBold" horiz-adv-x="1024" >
<font-face units-per-em="2048" ascent="1638" descent="-410" />
<missing-glyph horiz-adv-x="512" />
<glyph horiz-adv-x="0" />
<glyph horiz-adv-x="2048" />
<glyph unicode="&#xd;" horiz-adv-x="512" />
<glyph unicode=" "  horiz-adv-x="512" />
<glyph unicode="&#x09;" horiz-adv-x="512" />
<glyph unicode="&#xa0;" horiz-adv-x="512" />
<glyph unicode="!" horiz-adv-x="682" d="M174 137q0 69 48.5 117.5t117.5 48.5t117.5 -48.5t48.5 -117.5t-48.5 -117.5t-117.5 -48.5q-35 0 -65 13t-53 36q-48 48 -48 117zM190 1341h299l-92 -921h-115z" />
<glyph unicode="&#x22;" horiz-adv-x="1137" d="M227 1341h258l-78 -481h-104zM653 1341h258l-78 -481h-104z" />
<glyph unicode="#" d="M27 411v123h182l53 287h-235v123h258l73 397h144l-74 -397h270l74 397h143l-74 -397h156v-123h-178l-51 -287h229v-123h-256l-76 -411h-143l76 411h-270l-74 -411h-146l76 411h-157zM352 534h270l54 287h-271z" />
<glyph unicode="$" d="M73 51v320h93l36 -186q45 -60 188 -96q40 -10 76 -11v488q-69 27 -136.5 58.5t-121.5 79.5q-119 109 -119 310q0 145 103 236q103 90 274 104v129h102v-127q151 -6 306 -43v-279h-91l-32 143q-29 29 -79 51.5t-104 27.5v-415q131 -53 181 -80.5t88.5 -60t66.5 -76.5 q62 -95 62 -237q0 -173 -105 -280q-107 -109 -293 -123v-140h-102v136q-162 3 -320 46q-44 12 -73 25zM303 1083.5q0 -59.5 12.5 -89t34.5 -50.5q32 -30 116 -65v375q-79 -12 -121 -61.5t-42 -109zM568 77q184 33 184 253q0 116 -112 168q-34 16 -72 30v-451z" />
<glyph unicode="%" horiz-adv-x="2048" d="M210 992.5q0 369.5 327 369.5q159 0 241.5 -92t82.5 -275q0 -372 -330 -372q-321 0 -321 369.5zM425 994.5q0 -65.5 4.5 -117t16.5 -87.5q25 -74 85 -74q91 0 109 162q5 51 5 116.5t-5.5 116.5t-19.5 86q-27 71 -89 71q-88 0 -101 -157q-5 -51 -5 -116.5zM490 -20 l948 1382h151l-949 -1382h-150zM1205 343q0 370 328 370q323 0 323 -370t-329 -370q-322 0 -322 370zM1421 345.5q0 -65.5 4.5 -117t16.5 -87.5q25 -74 85 -74q91 0 109 161q5 52 5 117.5t-5.5 116.5t-19.5 86q-27 71 -89 71q-88 0 -101 -157q-5 -51 -5 -116.5z" />
<glyph unicode="&#x26;" horiz-adv-x="1706" d="M118 356q0 160 102 264q70 71 210 125q-126 145 -126 322q0 203 202 271q71 24 173.5 24t171.5 -23t112 -63q80 -73 80 -203q0 -179 -181 -271q-52 -26 -110 -49l380 -343q51 131 59 307l-111 26v64h477v-64l-110 -26q-12 -40 -27 -91t-36 -108q-48 -133 -114 -232 l220 -198l116 -25v-63h-384l-119 110q-176 -130 -443 -130q-542 0 -542 376zM394 367q0 -143 71 -212t190 -69q213 0 344 120l-477 444q-128 -87 -128 -283zM554 1111q0 -64 8 -98t22 -63q21 -46 77 -106q68 36 91 73q41 66 41 172q0 173 -112 173q-68 0 -97.5 -43.5 t-29.5 -107.5z" />
<glyph unicode="'" horiz-adv-x="569" d="M156 1341h258l-78 -481h-104z" />
<glyph unicode="(" horiz-adv-x="682" d="M90 495q0 364 130 580q119 199 396 346v-114q-215 -163 -244 -573q-9 -118 -9 -240q0 -294 35.5 -434t85 -229.5t132.5 -152.5v-114q-276 146 -396 348q-130 216 -130 583z" />
<glyph unicode=")" horiz-adv-x="682" d="M66 -322q215 165 244 574q9 120 9 242q0 292 -35.5 432t-85.5 229t-132 152v114q278 -148 396 -346q130 -216 130 -580q0 -367 -130 -583q-119 -200 -396 -348v114z" />
<glyph unicode="*" d="M85 876l307 88l-307 90l94 213l287 -233l-70 317h233l-73 -317l288 227l95 -209l-312 -88l312 -86l-95 -211l-288 228l73 -316h-233l70 320l-287 -236z" />
<glyph unicode="+" horiz-adv-x="1167" d="M108 608v143h404v406h143v-406h405v-143h-405v-405h-143v405h-404z" />
<glyph unicode="," horiz-adv-x="512" d="M27 -225q103 31 157 93q45 50 45 97q0 33 -39 57q-17 11 -36.5 21.5t-36.5 26.5q-39 37 -39 100t45 97t98.5 34t89 -12.5t63 -37.5t44 -61t16.5 -95.5t-22.5 -123t-71.5 -117.5q-103 -115 -313 -171v92z" />
<glyph unicode="-" horiz-adv-x="682" d="M75 395v174h532v-174h-532z" />
<glyph unicode="." horiz-adv-x="512" d="M90 137q0 69 48.5 117.5t117.5 48.5t117.5 -48.5t48.5 -117.5t-48.5 -117.5t-117.5 -48.5q-35 0 -65 13t-53 36q-48 48 -48 117z" />
<glyph unicode="/" horiz-adv-x="569" d="M-20 -20l470 1369h140l-469 -1369h-141z" />
<glyph unicode="0" d="M78 672q0 690 436 690q212 0 322 -174.5t110 -511.5q0 -696 -440 -696q-212 0 -320 178t-108 514zM371 754.5q0 -218.5 6 -329t21 -187.5q31 -158 110 -158q116 0 138 346q7 110 7 249.5t-7 248.5t-24 184q-35 153 -114 153t-110 -153q-27 -135 -27 -353.5z" />
<glyph unicode="1" d="M164 0v86l232 24v1011l-231 -76v85l378 222h142v-1242l233 -24v-86h-754z" />
<glyph unicode="2" d="M86 0v189q86 92 159 164.5t132.5 135t105.5 119t77 116.5q62 124 62 287q0 115 -58 183q-53 60 -125.5 60t-109.5 -13t-68 -39l-43 -194h-87v305q191 43 323 43q221 0 338.5 -91t117.5 -259q0 -212 -165 -377q-82 -82 -224.5 -198t-242.5 -205h658v-226h-850z" />
<glyph unicode="3" d="M77 345h92l52 -215q87 -49 167.5 -49t128.5 22t80 61q63 77 63 211q0 197 -140 241q-43 14 -91 17l-116 7v121l112 8q89 6 131.5 65.5t42.5 179.5q0 179 -116 226q-36 14 -84 14t-82.5 -16.5t-65.5 -35.5l-43 -194h-87v305q172 43 322 43q451 0 451 -330 q0 -201 -154 -284q-52 -29 -124 -40q338 -41 338 -337q0 -183 -130 -283q-130 -102 -365 -102q-186 0 -370 40z" />
<glyph unicode="4" d="M28 265v163l604 920h220v-878h134v-205h-134v-265h-269v265h-555zM194 470h389v397q0 112 10 212z" />
<glyph unicode="5" d="M82 345h92l52 -215q87 -49 199 -49q230 0 230 308q0 231 -131 284q-46 19 -95 19t-72.5 -3.5t-42 -9.5t-34.5 -13t-31 -13h-100v688h700v-223h-589v-352q122 27 228.5 27t194 -23t146.5 -71q120 -98 120 -300q0 -301 -269 -389q-92 -30 -205 -30q-197 0 -381 40z" />
<glyph unicode="6" d="M70 662q0 342 156 529q138 165 356 165q156 0 301 -43v-305h-87l-43 194q-69 52 -133 52t-104.5 -30t-71.5 -90q-66 -129 -78 -366q109 47 206 47t167.5 -24.5t120.5 -74.5q104 -102 104 -300q0 -318 -239 -407q-78 -29 -185 -29t-195.5 43t-149.5 129q-125 175 -125 510 zM364 662q0 -581 177 -581q73 0 101 79t28 200.5t-13 178t-35 90.5q-38 61 -109.5 61t-148.5 -23v-5z" />
<glyph unicode="7" d="M117 958v383h857v-79l-521 -1262h-239l565 1118h-529l-46 -160h-87z" />
<glyph unicode="8" d="M68 362q0 193 137 296q43 33 97 53q-97 37 -150 114t-53 172.5t26.5 160t78.5 110.5q108 94 310 94q196 0 304 -95q107 -93 107 -256q0 -110 -54 -187.5t-152 -112.5q170 -64 220 -227q17 -55 17 -122q0 -190 -109.5 -286t-340.5 -96q-438 0 -438 382zM352 363.5 q0 -69.5 7 -122t25 -87.5q35 -73 122 -73q132 0 158 161q8 52 8 121.5t-8.5 124t-27.5 92.5q-40 76 -130 76q-125 0 -147 -168q-7 -55 -7 -124.5zM383 1009q0 -56 5.5 -102t19.5 -78q29 -66 100 -66q108 0 127 144q6 46 6 102t-6 102t-21 79q-33 71 -106 71 q-102 0 -120 -150q-5 -46 -5 -102z" />
<glyph unicode="9" d="M56 932q0 205 118 316q117 108 324 108q234 0 342 -164q110 -164 110 -518q0 -363 -160 -540q-139 -154 -372 -154q-166 0 -311 43v305h87l43 -194q74 -53 177 -53q155 0 212 255q21 91 27 222q-104 -37 -199 -37t-166.5 26.5t-123.5 78.5q-108 108 -108 306zM350 928 q0 -286 156 -286q76 0 150 18v14q0 289 -34.5 435t-121.5 146q-150 0 -150 -327z" />
<glyph unicode=":" horiz-adv-x="682" d="M168 137q0 69 47 117q47 49 118 49q69 0 117.5 -48.5t48.5 -117.5t-48.5 -117.5t-117.5 -48.5q-71 0 -118 49q-47 48 -47 117zM168 794q0 70 47 118q46 48 118 48q70 0 117 -48q49 -48 49 -118q0 -69 -48.5 -117.5t-117.5 -48.5q-71 0 -118 48q-47 49 -47 118z" />
<glyph unicode=";" horiz-adv-x="682" d="M106 -225q104 31 158 93q45 50 45 97q0 33 -40 57q-17 11 -37 21.5t-37 26.5q-40 38 -40 84t12.5 71t34.5 42q42 34 97 34t90 -12.5t63 -37.5t45 -61t17 -95.5t-22.5 -123t-71.5 -117.5q-103 -115 -314 -171v92zM170 794q0 70 47 118q46 48 118 48q70 0 117 -48 q49 -48 49 -118q0 -69 -48.5 -117.5t-117.5 -48.5q-71 0 -118 48q-47 49 -47 118z" />
<glyph unicode="&#x3c;" horiz-adv-x="1167" d="M102 635v90l952 468v-143l-767 -370l767 -371v-143z" />
<glyph unicode="=" horiz-adv-x="1167" d="M102 403v144h952v-144h-952zM102 813v143h952v-143h-952z" />
<glyph unicode="&#x3e;" horiz-adv-x="1167" d="M104 166v143l768 371l-768 370v143l952 -468v-90z" />
<glyph unicode="?" d="M124 1018v295q166 43 324 43q454 0 454 -355q0 -215 -166 -327q-56 -37 -131 -58l-87 -24l-27 -202h-103l-57 313l95 25q89 24 123 63q64 75 64 203q0 205 -114 246q-39 14 -91 14q-87 0 -152 -42l-43 -194h-89zM280 137q0 69 47 117q47 49 118 49q69 0 117.5 -48.5 t48.5 -117.5t-48.5 -117.5t-117.5 -48.5q-71 0 -118 49q-47 48 -47 117z" />
<glyph unicode="@" horiz-adv-x="1905" d="M107 362q0 428 276 716q176 182 431 252q127 34 287 34t294 -43.5t223.5 -123.5t134.5 -193t45 -234t-28.5 -215t-78 -174.5t-117.5 -146.5t-147 -112q-164 -97 -342 -97q-65 0 -95.5 34t-32.5 91q-76 -64 -111 -83q-77 -42 -140 -42t-97.5 18t-58.5 51q-50 70 -50 164.5 t16.5 167.5t49.5 142q71 146 198 237q96 70 172 89q116 30 206 30q129 0 225 -11l-121 -541q-23 -92 -23 -136t8.5 -60.5t51.5 -16.5t89 24.5t84 67t67.5 99.5t49.5 123q41 135 41 268.5t-37.5 229t-107.5 160.5q-142 132 -390 132q-239 0 -423 -125q-172 -116 -270 -324 q-95 -202 -95 -451q0 -275 148 -451q164 -196 456 -196q244 0 435 108q56 32 106 67l44 -64q-125 -101 -229 -141q-189 -75 -380 -75t-332.5 58.5t-237.5 160.5q-194 206 -194 532zM740 313.5q0 -69.5 21.5 -107t45.5 -37.5t46 6.5t43 16.5q41 20 69 45l120 561q-17 5 -64 5 q-110 0 -169 -70q-71 -85 -102 -285q-10 -65 -10 -134.5z" />
<glyph unicode="A" horiz-adv-x="1479" d="M20 0v73l100 27l477 1252h290l475 -1252l102 -27v-73h-597v73l155 27l-128 347h-515l-123 -347l172 -27v-73h-408zM420 557h436l-215 593z" />
<glyph unicode="B" horiz-adv-x="1366" d="M34 0v73l173 27v1142l-173 26v73h651q415 0 495 -176q26 -56 26 -125t-22.5 -123t-60.5 -95q-75 -79 -193 -105q379 -38 379 -326q0 -283 -303 -367q-105 -30 -254 -30l-456 6h-262zM522 110q144 -6 227 -6q230 0 230 287q0 133 -66.5 198t-217.5 65h-173v-544zM522 764 h147q170 0 199 142q10 46 10 103.5t-11.5 99t-37.5 69.5q-51 53 -168 53h-139v-467z" />
<glyph unicode="C" horiz-adv-x="1479" d="M100 655q0 352 188 531q181 170 526 170q233 0 483 -67l6 -322h-90l-28 194q-132 90 -307 90q-221 0 -328 -131q-118 -143 -118 -462q0 -429 254 -540q81 -35 189 -35t192.5 30t132.5 71l32 220h91l-6 -340q-139 -55 -364 -77q-71 -7 -138 -7q-337 0 -526 179t-189 496z " />
<glyph unicode="D" horiz-adv-x="1479" d="M36 0v73l172 27v1142l-172 26v73h637q342 0 515 -147q191 -162 191 -516q0 -507 -363 -637q-126 -45 -301 -45l-449 4h-230zM522 114q96 -8 185 -8t156 32.5t108 101.5q76 128 76 430q0 445 -257 532q-84 29 -194 29h-74v-1117z" />
<glyph unicode="E" horiz-adv-x="1366" d="M35 0v73l172 27v1142l-172 26v73h1142v-341h-91l-32 217q-112 14 -324 14h-208v-492h351l31 148h89v-412h-89l-31 152h-351v-517h253q258 0 338 16l57 248h91l-19 -374h-1207z" />
<glyph unicode="F" horiz-adv-x="1251" d="M35 1268v73h1118v-361h-94l-32 237q-69 10 -154.5 11t-121 2t-64.5 1h-165v-549h327l31 170h89v-452h-89l-31 172h-327v-472l223 -27v-73h-697v73l159 27v1142z" />
<glyph unicode="G" horiz-adv-x="1593" d="M100 655q0 345 200 527q193 174 542 174q219 0 409 -54q55 -15 111 -31v-308h-90l-24 174q-166 114 -370 114q-217 0 -324 -125q-122 -143 -122 -469q0 -409 232 -528q89 -46 205.5 -46t221.5 35v388l-172 26v74h618v-74l-131 -26v-436q-186 -61 -433 -83q-78 -7 -150 -7 q-328 0 -521 172q-202 182 -202 503z" />
<glyph unicode="H" horiz-adv-x="1593" d="M35 0v74l172 26v1141l-172 27v73h659v-73l-172 -27v-496h548v496l-172 27v73h661v-73l-173 -27v-1141l173 -26v-74h-661v74l172 26v535h-548v-535l172 -26v-74h-659z" />
<glyph unicode="I" horiz-adv-x="797" d="M69 0v74l172 26v1141l-172 27v73h659v-73l-172 -27v-1141l172 -26v-74h-659z" />
<glyph unicode="J" d="M91 10v304h89l30 -179q40 -49 120 -49t125.5 48t45.5 142v966l-172 26v73h639v-73l-152 -26v-810q0 -319 -250 -416q-92 -36 -234 -36t-241 30z" />
<glyph unicode="K" horiz-adv-x="1593" d="M35 0v73l172 27v1142l-172 26v73h660v-73l-173 -26v-546l611 546l-123 26v73h459v-73l-164 -26l-443 -391l590 -751l125 -27v-73h-438l-501 646l-116 -100v-446l193 -27v-73h-680z" />
<glyph unicode="L" horiz-adv-x="1366" d="M35 0v73l172 27v1142l-171 26v73h693v-73l-207 -26v-1136h273q213 0 313 20l82 279h90l-38 -405h-1207z" />
<glyph unicode="M" horiz-adv-x="1933" d="M35 0v73l172 27v1142l-172 26v73h527l383 -882l391 882h538v-73l-172 -26v-1142l172 -27v-73h-667v73l180 27v1033l-505 -1133h-55l-495 1133v-1033l180 -27v-73h-477z" />
<glyph unicode="N" horiz-adv-x="1479" d="M39 0v73l172 27v1142l-172 26v73h459l657 -857v758l-180 26v73h477v-73l-172 -26v-1242h-117l-827 1078v-978l180 -27v-73h-477z" />
<glyph unicode="O" horiz-adv-x="1593" d="M100 672q0 684 697 684q508 0 648 -377q48 -129 48 -307q0 -348 -186 -524q-178 -168 -510 -168q-508 0 -649 384q-48 130 -48 308zM432 671.5q0 -139.5 17 -249.5t59 -186q86 -156 289 -156q294 0 347 342q17 110 17 249.5t-17 248.5t-59 183q-86 152 -288 152 q-296 0 -348 -335q-17 -109 -17 -248.5z" />
<glyph unicode="P" horiz-adv-x="1251" d="M35 1268v73h591q456 0 542 -240q25 -72 25 -154.5t-21.5 -158.5t-77.5 -134q-122 -128 -391 -128h-180v-426l223 -27v-73h-698v73l159 27v1142zM523 636h83q213 0 252 174q13 57 13 135.5t-14 133.5t-45 89q-60 63 -210 63h-79v-595z" />
<glyph unicode="Q" horiz-adv-x="1593" d="M100 672q0 684 697 684q508 0 648 -377q48 -129 48 -307q0 -497 -374 -640l50 -61q147 -184 252 -184q52 0 82 8v-86q-49 -22 -125.5 -31.5t-134 -9.5t-117.5 16.5t-110 49.5q-77 51 -193 198l-38 48q-497 3 -637 386q-48 129 -48 306zM432 671.5q0 -139.5 17 -249.5 t59 -186q86 -156 289 -156q294 0 347 342q17 110 17 249.5t-17 248.5t-59 183q-86 152 -288 152q-296 0 -348 -335q-17 -109 -17 -248.5z" />
<glyph unicode="R" horiz-adv-x="1479" d="M35 1268v73h641q465 0 559 -223q29 -69 29 -152q0 -288 -270 -370l358 -496l145 -27v-73h-434l-374 568h-166v-468l172 -27v-73h-647v73l159 27v1142zM523 678h145q157 0 222 66q62 65 62 222q0 78 -16 129.5t-51 81.5q-63 54 -222 54h-140v-553z" />
<glyph unicode="S" horiz-adv-x="1139" d="M109 51v360h88l45 -215q68 -78 210 -106q46 -9 93 -9q287 0 287 236q0 104 -112 166q-50 28 -114 49.5t-131.5 45.5t-131.5 55t-115 79q-111 104 -111 281.5t120.5 270t352.5 92.5q168 0 372 -43v-319h-89l-45 184q-102 74 -238 74q-255 0 -255 -185q0 -94 112 -152 q50 -26 114.5 -47t132 -45.5t132 -56t114.5 -78.5q112 -107 112 -281q0 -427 -503 -427q-254 0 -440 71z" />
<glyph unicode="T" horiz-adv-x="1366" d="M32 966v375h1303v-375h-92l-27 249q-83 18 -328 18h-49v-1133l213 -27v-73h-742v73l213 27v1135h-51q-229 0 -322 -20l-27 -249h-91z" />
<glyph unicode="U" horiz-adv-x="1479" d="M51 1268v73h639v-73l-172 -26v-787q0 -241 176 -309q61 -24 143.5 -24t142 24.5t98.5 67.5q74 85 74 239v789l-180 26v73h456v-73l-152 -26v-781q0 -328 -267 -439q-100 -41 -245 -41t-249 33.5t-173 96.5q-139 126 -139 358v773z" />
<glyph unicode="V" horiz-adv-x="1479" d="M23 1268v73h583v-73l-139 -27l377 -879l352 879l-135 27v73h395v-73l-127 -27l-518 -1272h-133l-545 1272z" />
<glyph unicode="W" horiz-adv-x="2048" d="M29 1268v73h602v-73l-157 -26l286 -799l314 784h125l315 -782l237 797l-169 26v73h434v-73l-117 -26l-398 -1273h-123l-334 827l-331 -827h-123l-444 1273z" />
<glyph unicode="X" horiz-adv-x="1479" d="M38 0v73l148 27l431 548l-384 594l-151 26v73h653v-73l-170 -26l234 -362l285 362l-166 26v73h459v-73l-148 -26l-365 -463l439 -679l152 -27v-73h-653v73l170 27l-290 447l-352 -447l166 -27v-73h-458z" />
<glyph unicode="Y" horiz-adv-x="1479" d="M36 1268v73h690v-73l-180 -26l306 -562l296 562l-164 26v73h456v-73l-142 -26l-387 -714v-428l213 -27v-73h-742v73l213 27v422l-408 720z" />
<glyph unicode="Z" horiz-adv-x="1366" d="M98 0v114l742 1121h-240q-227 0 -320 -20l-31 -211h-89v337h1036v-106l-747 -1131h280q235 0 384 33l59 256h90l-27 -393h-1137z" />
<glyph unicode="[" horiz-adv-x="682" d="M152 -274v1695h456v-67l-203 -41v-1479l203 -41v-67h-456z" />
<glyph unicode="\" horiz-adv-x="569" d="M-20 1349h140l470 -1369h-141z" />
<glyph unicode="]" horiz-adv-x="682" d="M74 -207l203 41v1479l-203 41v67h456v-1695h-456v67z" />
<glyph unicode="^" horiz-adv-x="1190" d="M122 389l428 952h90l428 -952h-143l-330 761l-330 -761h-143z" />
<glyph unicode="_" d="M-16 -141h1056v-144h-1056v144z" />
<glyph unicode="`" horiz-adv-x="682" d="M88 1386v37h285l165 -273v-32h-86z" />
<glyph unicode="a" d="M66 278.5q0 78.5 34 136.5t92 89q88 49 296 54l122 3v137q0 170 -139 170q-84 0 -188 -52l-38 -117h-66v227q230 35 367 35q353 0 353 -260v-611l94 -24v-66h-346l-22 72q-134 -92 -268 -92q-227 0 -276 168q-15 52 -15 130.5zM354 279q0 -178 108 -178q68 0 148 35v336 l-84 -3q-92 -4 -130 -45q-42 -47 -42 -145z" />
<glyph unicode="b" horiz-adv-x="1139" d="M26 1356v65h385v-345q0 -93 -10 -189q66 54 191 73q37 5 107 5t144 -28.5t121 -86.5q92 -112 92 -354q0 -234 -114 -372q-120 -144 -369 -144q-139 0 -451 68v1285zM411 101q64 -16 137.5 -16t110.5 27t61 80q43 97 43 305q0 286 -113 339q-36 18 -108.5 18t-130.5 -34 v-719z" />
<glyph unicode="c" horiz-adv-x="909" d="M70 478.5q0 122.5 37 216t101 153.5q123 117 324 117q140 0 305 -35v-278h-72l-42 165q-48 36 -87 40.5t-72.5 4.5t-70.5 -22.5t-67 -69.5q-65 -103 -65 -292q0 -183 52 -271q29 -49 80 -75.5t159 -26.5t206 29v-77q-96 -76 -288 -76q-385 0 -472 284q-28 91 -28 213.5z " />
<glyph unicode="d" horiz-adv-x="1139" d="M83 467q0 361 235 463q81 35 191 35t221 -27q-6 33 -6 155v238l-96 24v66h385v-1331l103 -24v-66h-362l-21 53q-60 -39 -92 -50q-66 -23 -146 -23q-208 0 -310 119.5t-102 367.5zM376 475q0 -299 114 -365q33 -19 90.5 -19t143.5 43v708q-78 21 -163 21t-135 -98.5 t-50 -289.5z" />
<glyph unicode="e" horiz-adv-x="909" d="M70 475q0 488 424 488q178 0 264 -89q98 -101 98 -330v-82h-493v-16q0 -169 30 -227t80.5 -86t139 -28t222.5 29v-77q-82 -50 -222 -69q-46 -7 -129 -7t-169 32t-141 95q-104 121 -104 367zM364 567h218q0 157 -12 205t-32 69t-55.5 21t-58.5 -21t-36 -59 q-24 -66 -24 -215z" />
<glyph unicode="f" horiz-adv-x="682" d="M15 836v69l142 39v101q0 294 219 372q71 25 165 25t161 -19v-224h-64l-29 109q-24 24 -63 24q-100 0 -100 -255v-137h191v-104h-191v-746l153 -24v-66h-544v66l102 24v746h-142z" />
<glyph unicode="g" d="M54 -233q0 75 108 147q32 21 70 43q-84 33 -126 125q-16 34 -16 75l167 190q-178 75 -178 293q0 239 243 304q79 21 191.5 21t195.5 -25l225 111l35 -43l-114 -162q62 -76 62 -206q0 -160 -109 -246q-108 -84 -312 -84q-79 0 -153 12l-24 -76q3 -50 75 -73q22 -7 48 -7 h219q343 0 343 -264q0 -236 -270 -322q-100 -32 -233 -32t-214 17.5t-133 47.5q-100 59 -100 154zM253 -216q0 -86 117 -116q44 -12 118 -12t131 13.5t94 37.5q72 47 72 127q0 95 -127 95h-317q-88 -64 -88 -145zM362 640q0 -115 31 -172.5t103 -57.5q138 0 138 230 q0 115 -32.5 169.5t-104.5 54.5t-103.5 -54.5t-31.5 -169.5z" />
<glyph unicode="h" horiz-adv-x="1139" d="M51 1355v66h385v-407q0 -66 -6 -156q147 76 213 91.5t117 15.5t99 -15t83 -48q72 -69 72 -214v-598l94 -24v-66h-467v66l84 24v559q0 84 -35.5 131t-106.5 47t-147 -34v-703l86 -24v-66h-467v66l92 24v1241z" />
<glyph unicode="i" horiz-adv-x="569" d="M45 0v66l102 24v760l-96 24v66h385v-850l103 -24v-66h-494zM137 1268q0 65 45 108q46 45 109 45q64 0 108.5 -44.5t44.5 -108.5q0 -63 -44 -109q-44 -45 -109 -45q-64 0 -109 45t-45 109z" />
<glyph unicode="j" horiz-adv-x="682" d="M-17 -193h64l43 -114q24 -19 47.5 -19t44.5 13.5t38 43.5q36 66 36 198v911l-166 34v66h455v-979q0 -201 -115 -305q-102 -92 -279 -92q-85 0 -168 18v225zM246 1268q0 63 45 108t109 45q63 0 108 -45t45 -108q0 -32 -12 -60t-33 -49q-45 -45 -92.5 -45t-75.5 12t-49 33 q-45 45 -45 109z" />
<glyph unicode="k" horiz-adv-x="1139" d="M51 1355v66h385v-970l367 400l-100 23v66h358v-66l-108 -22l-224 -236l323 -526l84 -24v-66h-452v66l55 24l-188 329l-115 -80v-249l93 -24v-66h-471v66l89 24v1241z" />
<glyph unicode="l" horiz-adv-x="569" d="M40 0v66l102 24v1241l-96 24v66h385v-1331l103 -24v-66h-494z" />
<glyph unicode="m" horiz-adv-x="1706" d="M55 0v66l92 24v760l-92 24v66h365l14 -82q149 77 211.5 92t107.5 15q168 0 224 -122q205 122 346 122q254 0 254 -277v-598l94 -24v-66h-467v66l84 24v559q0 178 -131 178q-74 0 -160 -42q10 -42 10 -97v-598l94 -24v-66h-467v66l84 24v559q0 178 -131 178 q-66 0 -151 -39v-698l86 -24v-66h-467z" />
<glyph unicode="n" horiz-adv-x="1139" d="M55 0v66l92 24v760l-92 24v66h365l14 -82q149 77 212 92t114 15t99 -15t83 -48q72 -69 72 -214v-598l94 -24v-66h-467v66l84 24v559q0 84 -35.5 131t-106.5 47t-147 -34v-703l86 -24v-66h-467z" />
<glyph unicode="o" d="M78 475q0 365 238 458q83 32 198 32q223 0 327.5 -124.5t104.5 -365.5q0 -370 -238 -463q-84 -32 -202 -32q-428 0 -428 495zM371 530.5q0 -153.5 5 -227t20 -123.5q28 -100 112 -100q85 0 117 100q28 88 28 240q0 261 -30 352.5t-114.5 91.5t-111 -90t-26.5 -243.5z" />
<glyph unicode="p" horiz-adv-x="1139" d="M26 874v66h381l2 -48q107 73 260 73q196 0 291.5 -115t95.5 -363q0 -363 -238 -471q-81 -36 -189.5 -36t-216.5 27q6 -66 6 -148v-205l138 -24v-66h-529v66l102 24v1196zM418 107q81 -21 169 -21q176 0 176 384t-174 384q-93 0 -171 -38v-709z" />
<glyph unicode="q" horiz-adv-x="1139" d="M84 474q0 358 245 457q84 34 200 34q72 0 162 -10l117 -13l119 43h91v-1331l102 -24v-66h-529v66l138 24v215q0 93 10 189q-98 -78 -245 -78q-209 0 -309.5 123.5t-100.5 370.5zM377 448q0 -285 116 -340q37 -17 104 -17t132 38v716q-68 17 -137 17t-107 -27.5t-62 -80.5 q-46 -100 -46 -306z" />
<glyph unicode="r" horiz-adv-x="909" d="M55 0v66l122 24v760l-122 24v66h395l11 -195q202 225 350 225h54v-343h-56l-59 126q-94 0 -222 -59q-36 -17 -62 -33v-571l151 -24v-66h-562z" />
<glyph unicode="s" horiz-adv-x="797" d="M62 685q0 131 99 207q94 73 257 73q87 0 261 -29v-241h-66l-32 110q-43 43 -129 61q-27 5 -75.5 5t-83 -29.5t-34.5 -71.5t14.5 -65t42.5 -41q46 -29 132 -55t135 -49.5t85 -59.5q79 -76 79 -202q0 -231 -209 -296q-71 -22 -143.5 -22t-121.5 6t-91 14q-82 17 -118 31 v256h66l38 -132q82 -82 208 -82q87 0 129.5 37.5t42.5 82.5t-12.5 68t-39.5 41q-45 30 -130.5 56.5t-133.5 49t-86 58.5q-84 81 -84 219z" />
<glyph unicode="t" horiz-adv-x="682" d="M33 836v65l145 39l117 213h150v-213h198v-104h-198v-601q0 -65 27 -98t75.5 -33t125.5 16v-85q-46 -33 -169 -50q-35 -5 -88 -5t-106.5 18t-87.5 50q-66 61 -66 169v619h-123z" />
<glyph unicode="u" horiz-adv-x="1139" d="M31 874v66h383v-649q0 -84 35.5 -131t106.5 -47t147 34v703l-86 24v66h375v-850l92 -24v-66h-365l-14 82q-149 -77 -212 -92t-114 -15t-99 15t-82 48q-73 69 -73 214v598z" />
<glyph unicode="v" d="M0 874v66h481v-66l-112 -26l241 -536l217 538l-110 24v66h307v-66l-68 -20l-376 -874h-121l-393 870z" />
<glyph unicode="w" horiz-adv-x="1479" d="M6 874v66h465v-66l-112 -26l202 -537l218 535h95l217 -535l182 539l-110 24v66h305v-66l-72 -20l-316 -874h-121l-215 527l-214 -527h-121l-333 870z" />
<glyph unicode="x" d="M8 0v65l84 16l300 352l-270 417l-91 25v65h502v-65l-105 -27l137 -211l181 213l-94 25v65h320v-65l-83 -21l-264 -310l298 -458l90 -21v-65h-502v65l105 23l-164 253l-218 -255l94 -21v-65h-320z" />
<glyph unicode="y" d="M20 874v66h481v-66l-112 -26l221 -520l197 522l-110 24v66h307v-66l-68 -20l-371 -913q-75 -193 -127 -259t-104 -95t-127 -29t-159 19v242h60l43 -126q29 -23 72 -23t73.5 21t55.5 56.5t46.5 83t45.5 100.5l18 40l-376 879z" />
<glyph unicode="z" horiz-adv-x="909" d="M40 0v45l432 805h-107q-136 0 -180 -35l-31 -155h-72v280h730v-49l-432 -801h150q90 0 142 18t67 29l53 217h72l-27 -354h-797z" />
<glyph unicode="{" horiz-adv-x="807" d="M66 533v85q102 3 158.5 52.5t56.5 163.5v294q0 141 78 217t233 76h135v-87h-62q-69 0 -98.5 -44t-29.5 -131v-330q0 -97 -58 -167q-55 -65 -144 -84v-3q143 -32 187 -160q15 -42 15 -93v-334q0 -86 29.5 -130.5t98.5 -44.5h62v-87h-135q-229 0 -292 172q-19 54 -19 122 v295q0 165 -124 203q-40 13 -91 15z" />
<glyph unicode="|" horiz-adv-x="451" d="M154 -442v1863h143v-1863h-143z" />
<glyph unicode="}" horiz-adv-x="807" d="M80 -187h62q69 0 98.5 44.5t29.5 130.5v334q0 152 120 222q37 21 82 31v3q-140 29 -187 159q-15 42 -15 92v330q0 87 -29.5 131t-98.5 44h-62v87h135q155 0 233 -76t78 -217v-294q0 -114 56.5 -163.5t158.5 -52.5v-85q-215 -8 -215 -218v-295q0 -212 -176 -274 q-58 -20 -135 -20h-135v87z" />
<glyph unicode="~" horiz-adv-x="1065" d="M16 481q18 177 57.5 246.5t93 104t116 34.5t97.5 -11t67 -29q57 -31 120 -84.5t89 -72.5q63 -45 100.5 -45t61.5 13.5t41 42.5q33 56 49 186h144q-23 -177 -63 -246.5t-92.5 -104t-118 -34.5t-109.5 18t-84 45t-77 58t-72 58q-80 63 -122 63t-67 -12t-43 -41 q-33 -54 -47 -189h-141z" />
<glyph unicode="&#xa2;" d="M89 677q0 246 145 376q129 117 341 117h2v171h92v-175q130 -10 237 -31v-278h-72l-54 165q-51 33 -111 42v-754q147 0 258 29v-77q-87 -63 -258 -75v-187h-92v187q-488 19 -488 490zM380 692.5q0 -81.5 9.5 -142t32.5 -107.5q47 -98 155 -123v743q-134 -27 -181 -221 q-16 -68 -16 -149.5z" />
<glyph unicode="&#xa3;" d="M82 620v101h88q-67 151 -67 285q0 168 118.5 259t354.5 91q120 0 311 -43v-305h-87l-43 194q-87 53 -181 53q-179 0 -179 -249q0 -134 26 -285h251v-101h-238q14 -89 14 -153q0 -133 -90 -245l600 1v-223h-873v123q33 30 71 62t70 69q73 86 73 162.5t-56 203.5h-163z" />
<glyph unicode="&#xa5;" d="M2 1275v66h499v-66l-112 -26l206 -540l212 542l-110 24v66h325v-66l-86 -20l-257 -616h226v-102h-244v-138h244v-102h-244v-207l143 -24v-66h-574v66l142 24v207h-257v102h257v138h-257v102h233l-262 612z" />
<glyph unicode="&#xa8;" horiz-adv-x="682" d="M53 1239.5q0 36.5 10 58t27 37.5q36 35 72.5 35t58 -9.5t37.5 -25.5q35 -35 35 -71.5t-9 -58.5t-25 -38.5t-38 -26.5t-46.5 -10t-46.5 10t-38 26q-37 37 -37 73.5zM389 1239q0 37 9.5 58.5t25.5 37.5q37 35 86 35q50 0 76 -26q43 -43 43 -80t-9 -59t-25 -39 q-35 -36 -85 -36q-49 0 -76 26q-45 46 -45 83z" />
<glyph unicode="&#xa9;" horiz-adv-x="1530" d="M88 646q0 120 24.5 208.5t69.5 165.5t107.5 140t139.5 108q161 94 349 94q288 0 490 -202t202 -490q0 -188 -94 -349q-91 -155 -248 -247q-161 -94 -327.5 -94t-292 54t-219 147.5t-147.5 219t-54 245.5zM178 670q0 -251 175 -430q174 -177 425 -177q124 0 234 47.5 t192 129.5q176 179 176 430q0 252 -176.5 430t-446.5 178q-104 0 -213.5 -48t-190.5 -130q-175 -179 -175 -430zM387 664q0 317 249 399q79 26 170 26q127 0 277 -30l4 -207h-69l-19 105q-84 51 -165 51t-127 -18.5t-75 -59.5q-55 -76 -55 -252.5t53.5 -260t182.5 -83.5 q122 0 195 59l22 119h70l-4 -219q-127 -39 -312 -39q-70 0 -149 28.5t-134 81.5q-114 111 -114 300z" />
<glyph unicode="&#xab;" d="M106 430v66l330 356h101l-183 -389l183 -389h-101zM516 430v66l330 356h100l-182 -389l182 -389h-100z" />
<glyph unicode="&#xae;" horiz-adv-x="1530" d="M88 646q0 120 24.5 208.5t69.5 165.5t107.5 140t139.5 108q161 94 349 94q288 0 490 -202t202 -490q0 -188 -94 -349q-91 -155 -248 -247q-161 -94 -327.5 -94t-292 54t-219 147.5t-147.5 219t-54 245.5zM178 670q0 -251 175 -430q174 -177 425 -177q124 0 234 47.5 t192 129.5q176 179 176 430q0 252 -176.5 430t-446.5 178q-104 0 -213.5 -48t-190.5 -130q-175 -179 -175 -430zM428 1026v55h350q240 0 298 -131q18 -41 18 -104t-45.5 -121t-133.5 -86l207 -289l70 -16v-58h-225l-230 343h-49v-269l94 -16v-58h-346v58l76 16v660zM688 694 h23q104 0 152 36t48 127t-47.5 120t-156.5 29h-19v-312z" />
<glyph unicode="&#xb4;" horiz-adv-x="682" d="M145 1118v33l166 272h285v-37l-365 -268h-86z" />
<glyph unicode="&#xb8;" horiz-adv-x="682" d="M123 -301q72 -19 129 -19q98 0 98 86.5t-131 95.5l51 195h111l-23 -110q185 -27 185 -168q0 -96 -75 -150q-71 -51 -173 -51t-172 31v90z" />
<glyph unicode="&#xbb;" d="M78 74l182 389l-182 389h100l330 -356v-66l-330 -356h-100zM487 74l183 389l-183 389h101l330 -356v-66l-330 -356h-101z" />
<glyph unicode="&#x2c6;" horiz-adv-x="682" d="M18 1118v33l218 293h213l217 -293v-33h-76l-248 162l-248 -162h-76z" />
<glyph unicode="&#x2da;" horiz-adv-x="682" d="M131 1272q0 89 61 150t150 61t150 -61t61 -150q0 -88 -61 -150q-61 -63 -150 -63t-150 63q-61 62 -61 150zM244 1272q0 -39 22 -60q37 -38 76 -38t60 22q38 37 38 76q0 40 -22 62q-37 37 -76 37t-60 -21q-38 -38 -38 -78z" />
<glyph unicode="&#x2dc;" horiz-adv-x="682" d="M4 1138q9 133 41.5 186t72 77t97 24t99.5 -21.5t65 -38t37.5 -27t29.5 -20.5q38 -24 58 -24t31.5 6t18.5 20q9 15 21 86h105q-9 -131 -41.5 -185t-72.5 -77.5t-83.5 -23.5t-67 6.5t-45.5 15.5q-43 20 -79.5 48.5t-52.5 38.5q-37 24 -58 24t-32.5 -6t-18.5 -20 q-11 -23 -20 -89h-105z" />
<glyph unicode="&#x401;" horiz-adv-x="1366" d="M35 0v73l172 27v1142l-172 26v73h1142v-341h-91l-32 217q-112 14 -324 14h-208v-492h351l31 148h89v-412h-89l-31 152h-351v-517h253q258 0 338 16l57 248h91l-19 -374h-1207zM395 1573.5q0 36.5 10 58t27 37.5q36 35 72.5 35t58 -9.5t37.5 -25.5q35 -35 35 -71.5 t-9 -58.5t-25 -38.5t-38 -26.5t-46.5 -10t-46.5 10t-38 26q-37 37 -37 73.5zM731 1573q0 37 9.5 58.5t25.5 37.5q37 35 86 35q50 0 76 -26q43 -43 43 -80t-9 -59t-25 -39q-35 -36 -85 -36q-49 0 -76 26q-45 46 -45 83z" />
<glyph unicode="&#x402;" horiz-adv-x="1638" d="M32 966v375h1263v-355h-92l-27 229q-83 18 -328 18h-49v-381q143 40 254 40t187.5 -23.5t127.5 -72.5q106 -100 106 -309v-485q0 -319 -250 -416q-92 -36 -231 -36t-244 32v284h89l30 -159q42 -51 121 -51t124.5 48t45.5 142v690q0 161 -125 198q-38 12 -96 12t-139 -21 v-625l163 -27v-73h-652v73l173 27v1135h-51q-192 0 -282 -20l-27 -249h-91z" />
<glyph unicode="&#x403;" horiz-adv-x="1303" d="M37 1268v73h1137l18 -405h-90l-62 279q-100 20 -313 20h-203v-1136l207 -26v-73h-693v73l171 26v1142zM519 1452v33l166 272h285v-37l-365 -268h-86z" />
<glyph unicode="&#x404;" horiz-adv-x="1389" d="M100 655q0 528 392 659q126 42 274 42q236 0 471 -67l6 -322h-90l-26 194q-121 90 -283 90q-189 0 -288 -113q-108 -122 -122 -392h498v-112h-500q6 -411 238 -517q74 -34 173 -34t176.5 30t122.5 71l30 220h91l-6 -340q-132 -55 -345 -77q-68 -7 -132 -7 q-320 0 -500 179q-180 178 -180 496z" />
<glyph unicode="&#x405;" horiz-adv-x="1139" d="M109 51v360h88l45 -215q68 -78 210 -106q46 -9 93 -9q287 0 287 236q0 104 -112 166q-50 28 -114 49.5t-131.5 45.5t-131.5 55t-115 79q-111 104 -111 281.5t120.5 270t352.5 92.5q168 0 372 -43v-319h-89l-45 184q-102 74 -238 74q-255 0 -255 -185q0 -94 112 -152 q50 -26 114.5 -47t132 -45.5t132 -56t114.5 -78.5q112 -107 112 -281q0 -427 -503 -427q-254 0 -440 71z" />
<glyph unicode="&#x406;" horiz-adv-x="797" d="M69 0v74l172 26v1141l-172 27v73h659v-73l-172 -27v-1141l172 -26v-74h-659z" />
<glyph unicode="&#x407;" horiz-adv-x="797" d="M69 0v74l172 26v1141l-172 27v73h659v-73l-172 -27v-1141l172 -26v-74h-659zM108 1573.5q0 36.5 10 58t27 37.5q36 35 72.5 35t58 -9.5t37.5 -25.5q35 -35 35 -71.5t-9 -58.5t-25 -38.5t-38 -26.5t-46.5 -10t-46.5 10t-38 26q-37 37 -37 73.5zM444 1573q0 37 9.5 58.5 t25.5 37.5q37 35 86 35q50 0 76 -26q43 -43 43 -80t-9 -59t-25 -39q-35 -36 -85 -36q-49 0 -76 26q-45 46 -45 83z" />
<glyph unicode="&#x408;" d="M91 10v304h89l30 -179q40 -49 120 -49t125.5 48t45.5 142v966l-172 26v73h639v-73l-152 -26v-810q0 -319 -250 -416q-92 -36 -234 -36t-241 30z" />
<glyph unicode="&#x409;" horiz-adv-x="2054" d="M5 288h71l44 -109q18 -41 57 -41t75.5 39t70.5 133q75 207 112 643l25 287l-188 28v73h1252v-73l-233 -27v-465h111q285 0 428 -108q129 -99 129 -283q0 -279 -303 -357q-105 -28 -254 -28h-598v74l172 26v1131h-394l-25 -291q-45 -520 -127 -733q-87 -227 -261 -227 q-94 0 -153 47zM1291 104h68q126 0 198 74t72 207q0 202 -157 262q-50 19 -113 19h-68v-562z" />
<glyph unicode="&#x40a;" horiz-adv-x="2052" d="M35 0v74l172 26v1141l-172 27v73h639v-73l-152 -27v-488h472v488l-152 27v73h639v-73l-172 -27v-488h92q557 0 557 -379q0 -374 -557 -374h-559v74l152 26v543h-472v-543l152 -26v-74h-639zM1309 104h59q127 0 193.5 68t66.5 202t-71.5 201.5t-198.5 67.5h-49v-539z" />
<glyph unicode="&#x40b;" horiz-adv-x="1638" d="M-26 966v375h1263v-355h-92l-27 229q-83 18 -328 18h-49v-381q143 40 211.5 40t122 -5t103 -20.5t93 -44t75.5 -74.5q70 -97 70 -268v-380l143 -27v-73h-591v73l133 27v436q0 114 -69 168q-56 42 -133 42t-158 -21v-625l163 -27v-73h-652v73l173 27v1135h-51 q-192 0 -282 -20l-27 -249h-91z" />
<glyph unicode="&#x40c;" horiz-adv-x="1485" d="M35 0v73l172 27v1142l-172 26v73h660v-73l-173 -26v-561l581 561l-123 26v73h459v-73l-164 -26l-413 -391l500 -751l105 -27v-73h-411l-410 651l-124 -95v-456l193 -27v-73h-680zM635 1452v33l166 272h285v-37l-365 -268h-86z" />
<glyph unicode="&#x40e;" horiz-adv-x="1503" d="M58 1268v73h690v-73l-180 -26l306 -562l296 562l-164 26v73h456v-73l-142 -26l-436 -808q-59 -110 -109 -194.5t-103 -141.5q-107 -118 -247 -118q-105 0 -177 43l-12 281h65l52 -117q36 -49 81 -49t76 12.5t62 41.5q60 56 131 194l-494 856zM443 1743h209 q6 -102 54.5 -150.5t123.5 -48.5t123.5 48.5t54.5 150.5h209q-7 -202 -203 -266q-73 -24 -184 -24q-205 0 -302 88q-80 72 -85 202z" />
<glyph unicode="&#x40f;" horiz-adv-x="1593" d="M34 0v73l173 27v1141l-173 26v74h661v-74l-172 -26v-1131h548v1131l-172 26v74h659v-74l-172 -26v-1141l172 -27v-73h-611l-93 -417h-115l-93 417h-612z" />
<glyph unicode="&#x410;" horiz-adv-x="1479" d="M20 0v73l100 27l477 1252h290l475 -1252l102 -27v-73h-597v73l155 27l-128 347h-515l-123 -347l172 -27v-73h-408zM420 557h436l-215 593z" />
<glyph unicode="&#x411;" horiz-adv-x="1354" d="M35 1268v73h1117l11 -330h-90l-55 204q-100 20 -313 20h-183v-472h170q427 0 526 -226q31 -71 31 -158q0 -379 -557 -379h-656v73l171 26v1142zM522 104h137q127 0 193.5 70.5t66.5 204.5t-71.5 204t-198.5 70h-127v-549z" />
<glyph unicode="&#x412;" horiz-adv-x="1366" d="M34 0v73l173 27v1142l-173 26v73h651q415 0 495 -176q26 -56 26 -125t-22.5 -123t-60.5 -95q-75 -79 -193 -105q379 -38 379 -326q0 -283 -303 -367q-105 -30 -254 -30l-456 6h-262zM522 110q144 -6 227 -6q230 0 230 287q0 133 -66.5 198t-217.5 65h-173v-544zM522 764 h147q170 0 199 142q10 46 10 103.5t-11.5 99t-37.5 69.5q-51 53 -168 53h-139v-467z" />
<glyph unicode="&#x413;" horiz-adv-x="1303" d="M37 1268v73h1137l18 -405h-90l-62 279q-100 20 -313 20h-203v-1136l207 -26v-73h-693v73l171 26v1142z" />
<glyph unicode="&#x414;" horiz-adv-x="1409" d="M12 73l200 25q242 475 250 1142l-187 28v73h1080v-73l-173 -27v-1141l200 -27l-35 -510h-125l-129 437h-788l-133 -437h-125zM356 110h511v1121h-283q-3 -482 -138 -893q-41 -126 -90 -228z" />
<glyph unicode="&#x415;" horiz-adv-x="1366" d="M35 0v73l172 27v1142l-172 26v73h1142v-341h-91l-32 217q-112 14 -324 14h-208v-492h351l31 148h89v-412h-89l-31 152h-351v-517h253q258 0 338 16l57 248h91l-19 -374h-1207z" />
<glyph unicode="&#x416;" horiz-adv-x="2025" d="M4 0v73l115 27l453 744l-340 398l-144 26v73h412v-73l-113 -26l478 -558v558l-153 26v73h601v-73l-153 -26v-558l478 558l-113 26v73h412v-73l-144 -26l-341 -398l454 -744l115 -27v-73h-400l-353 638l-108 -87v-451l159 -27v-73h-613v73l159 27v451l-109 87l-352 -638 h-400z" />
<glyph unicode="&#x417;" horiz-adv-x="1081" d="M94 345h92l52 -215q87 -49 206 -49q267 0 267 294q0 196 -149 241q-44 14 -92 17l-120 7v121l116 8q142 10 183 141q14 44 14 107.5t-15 109.5t-42 75q-51 52 -150 52q-122 0 -198 -52l-43 -194h-87v305q172 43 356 43q491 0 491 -330q0 -197 -171 -284q-55 -29 -127 -40 q348 -42 348 -337q0 -181 -145 -283t-404 -102q-204 0 -370 40z" />
<glyph unicode="&#x418;" horiz-adv-x="1593" d="M35 0v74l172 26v1141l-172 27v73h659v-73l-172 -27v-867l548 810v57l-172 27v73h661v-73l-173 -27v-1141l173 -26v-74h-661v74l172 26v893l-548 -810v-83l172 -26v-74h-659z" />
<glyph unicode="&#x419;" horiz-adv-x="1593" d="M35 0v74l172 26v1141l-172 27v73h659v-73l-172 -27v-867l548 810v57l-172 27v73h661v-73l-173 -27v-1141l173 -26v-74h-661v74l172 26v893l-548 -810v-83l172 -26v-74h-659zM412 1744h209q6 -102 54.5 -150.5t123.5 -48.5t123.5 48.5t54.5 150.5h209q-7 -202 -203 -266 q-73 -24 -184 -24q-205 0 -302 88q-80 72 -85 202z" />
<glyph unicode="&#x41a;" horiz-adv-x="1485" d="M35 0v73l172 27v1142l-172 26v73h660v-73l-173 -26v-561l581 561l-123 26v73h459v-73l-164 -26l-413 -391l500 -751l105 -27v-73h-411l-410 651l-124 -95v-456l193 -27v-73h-680z" />
<glyph unicode="&#x41b;" horiz-adv-x="1526" d="M5 288h71l44 -109q18 -41 57 -41t75.5 39t70.5 133q75 207 112 643l25 287l-188 28v73h1220v-73l-173 -27v-1141l173 -26v-74h-661v74l172 26v1131h-421l-25 -291q-45 -520 -127 -733q-87 -227 -261 -227q-94 0 -153 47z" />
<glyph unicode="&#x41c;" horiz-adv-x="1933" d="M35 0v73l172 27v1142l-172 26v73h527l383 -882l391 882h538v-73l-172 -26v-1142l172 -27v-73h-667v73l180 27v1033l-505 -1133h-55l-495 1133v-1033l180 -27v-73h-477z" />
<glyph unicode="&#x41d;" horiz-adv-x="1593" d="M35 0v74l172 26v1141l-172 27v73h659v-73l-172 -27v-496h548v496l-172 27v73h661v-73l-173 -27v-1141l173 -26v-74h-661v74l172 26v535h-548v-535l172 -26v-74h-659z" />
<glyph unicode="&#x41e;" horiz-adv-x="1593" d="M100 672q0 684 697 684q508 0 648 -377q48 -129 48 -307q0 -348 -186 -524q-178 -168 -510 -168q-508 0 -649 384q-48 130 -48 308zM432 671.5q0 -139.5 17 -249.5t59 -186q86 -156 289 -156q294 0 347 342q17 110 17 249.5t-17 248.5t-59 183q-86 152 -288 152 q-296 0 -348 -335q-17 -109 -17 -248.5z" />
<glyph unicode="&#x41f;" horiz-adv-x="1593" d="M40 0v74l172 26v1141l-172 27v73h1513v-73l-173 -27v-1141l173 -26v-74h-661v74l172 26v1131h-537v-1131l172 -26v-74h-659z" />
<glyph unicode="&#x420;" horiz-adv-x="1251" d="M35 1268v73h591q456 0 542 -240q25 -72 25 -154.5t-21.5 -158.5t-77.5 -134q-122 -128 -391 -128h-180v-426l223 -27v-73h-698v73l159 27v1142zM523 636h83q213 0 252 174q13 57 13 135.5t-14 133.5t-45 89q-60 63 -210 63h-79v-595z" />
<glyph unicode="&#x421;" horiz-adv-x="1479" d="M100 655q0 352 188 531q181 170 526 170q233 0 483 -67l6 -322h-90l-28 194q-132 90 -307 90q-221 0 -328 -131q-118 -143 -118 -462q0 -429 254 -540q81 -35 189 -35t192.5 30t132.5 71l32 220h91l-6 -340q-139 -55 -364 -77q-71 -7 -138 -7q-337 0 -526 179t-189 496z " />
<glyph unicode="&#x422;" horiz-adv-x="1366" d="M32 966v375h1303v-375h-92l-27 249q-83 18 -328 18h-49v-1133l213 -27v-73h-742v73l213 27v1135h-51q-229 0 -322 -20l-27 -249h-91z" />
<glyph unicode="&#x423;" horiz-adv-x="1503" d="M58 1268v73h690v-73l-180 -26l306 -562l296 562l-164 26v73h456v-73l-142 -26l-436 -808q-59 -110 -109 -194.5t-103 -141.5q-107 -118 -247 -118q-105 0 -177 43l-12 281h65l52 -117q36 -49 81 -49t76 12.5t62 41.5q60 56 131 194l-494 856z" />
<glyph unicode="&#x424;" horiz-adv-x="1759" d="M79 673.5q0 101.5 27 181.5t89 143q138 139 412 139h135v104l-172 27v73h619v-73l-172 -27v-104h135q274 0 412 -139q116 -117 116 -306t-114 -318q-137 -153 -409 -153h-140v-121l172 -26v-74h-619v74l172 26v121h-140q-352 0 -474 251q-49 100 -49 201.5zM383 690 q0 -165 73 -267q72 -99 181 -99h105v710h-96q-115 0 -186 -85q-77 -92 -77 -259zM1017 324h105q109 0 180 99q74 102 74 267q0 167 -77 259q-71 85 -186 85h-96v-710z" />
<glyph unicode="&#x425;" horiz-adv-x="1479" d="M38 0v73l148 27l431 548l-384 594l-151 26v73h653v-73l-170 -26l234 -362l285 362l-166 26v73h459v-73l-148 -26l-365 -463l439 -679l152 -27v-73h-653v73l170 27l-290 447l-352 -447l166 -27v-73h-458z" />
<glyph unicode="&#x426;" horiz-adv-x="1593" d="M40 0v73l173 27v1141l-173 26v74h661v-74l-172 -26v-1131h517v1131l-172 26v74h659v-74l-172 -26v-1141l200 -27l-35 -510h-125l-129 437h-1232z" />
<glyph unicode="&#x427;" horiz-adv-x="1503" d="M25 1268v73h591v-73l-133 -27v-424q0 -114 65 -171q56 -51 156.5 -51t274.5 58v588l-163 27v73h652v-73l-173 -27v-1141l159 -27v-73h-658v73l183 27v428q-224 -79 -364 -79q-127 0 -192.5 20.5t-109 49t-75.5 73.5q-70 98 -70 269v380z" />
<glyph unicode="&#x428;" horiz-adv-x="2249" d="M35 0v73l173 27v1141l-173 26v74h641v-74l-152 -26v-1131h443v1131l-152 26v74h620v-74l-152 -26v-1131h443v1131l-152 26v74h640v-74l-172 -26v-1141l172 -27v-73h-2179z" />
<glyph unicode="&#x429;" horiz-adv-x="2249" d="M35 0v73l173 27v1141l-173 26v74h641v-74l-152 -26v-1131h433v1131l-152 26v74h620v-74l-152 -26v-1131h433v1131l-152 26v74h640v-74l-172 -26v-1141l200 -27l-35 -510h-125l-129 437h-1898z" />
<glyph unicode="&#x42a;" horiz-adv-x="1567" d="M39 1011v330h995v-73l-232 -27v-478h112q427 0 526 -226q31 -71 31 -158q0 -379 -557 -379h-598v73l171 26v1136h-51q-163 0 -263 -20l-44 -204h-90zM802 104h79q127 0 193.5 70.5t66.5 204.5t-71.5 204t-198.5 70h-69v-549z" />
<glyph unicode="&#x42b;" horiz-adv-x="2011" d="M35 1268v73h719v-73l-232 -27v-478h160q427 0 526 -226q31 -71 31 -158q0 -379 -557 -379h-646v73l171 26v1142zM522 104h127q127 0 193.5 70.5t66.5 204.5t-71.5 204t-198.5 70h-117v-549zM1317 0v74l172 26v1141l-172 27v73h659v-73l-172 -27v-1141l172 -26v-74h-659z " />
<glyph unicode="&#x42c;" horiz-adv-x="1354" d="M35 1268v73h719v-73l-232 -27v-478h180q427 0 526 -226q31 -71 31 -158q0 -379 -557 -379h-666v73l171 26v1142zM522 104h147q127 0 193.5 70.5t66.5 204.5t-71.5 204t-198.5 70h-137v-549z" />
<glyph unicode="&#x42d;" horiz-adv-x="1389" d="M142 404h91l32 -220q44 -41 122 -71t182 -30q186 0 287 136t106 415h-499v112h498q-17 399 -222 478q-68 27 -152 27q-166 0 -287 -90l-28 -194h-90l6 322q247 67 462 67q318 0 481.5 -170.5t163.5 -530.5q0 -318 -174 -496q-175 -179 -492 -179q-186 0 -381 52 q-57 15 -100 32z" />
<glyph unicode="&#x42e;" horiz-adv-x="2306" d="M35 0v74l172 26v1141l-172 27v73h659v-73l-172 -27v-495h373q35 610 655 610q479 0 611 -377q45 -129 45 -307q0 -521 -380 -650q-122 -42 -274 -42t-271.5 39t-204.5 119q-173 166 -183 496h-371v-534l172 -26v-74h-659zM1225 672q0 -140 15 -250t52 -186 q74 -156 258 -156q183 0 258 156q66 138 66 436q0 296 -66 431q-75 152 -258 152q-184 0 -258 -152q-67 -135 -67 -431z" />
<glyph unicode="&#x42f;" horiz-adv-x="1479" d="M3 0v73l145 27l285 503q-183 61 -232 247q-15 56 -15 127.5t29 140.5t97 118q144 105 462 105h671v-73l-172 -26v-1142l159 -27v-73h-647v73l172 27v468h-216l-304 -568h-434zM498 966q0 -79 19 -133t58 -89q75 -66 237 -66h145v553h-140q-164 0 -237 -54 q-82 -61 -82 -211z" />
<glyph unicode="&#x430;" d="M66 278.5q0 78.5 34 136.5t92 89q88 49 296 54l122 3v137q0 170 -139 170q-84 0 -188 -52l-38 -117h-66v227q230 35 367 35q353 0 353 -260v-611l94 -24v-66h-346l-22 72q-134 -92 -268 -92q-227 0 -276 168q-15 52 -15 130.5zM354 279q0 -178 108 -178q68 0 148 35v336 l-84 -3q-92 -4 -130 -45q-42 -47 -42 -145z" />
<glyph unicode="&#x431;" d="M80 578q0 375 92 554q106 204 357 234q162 19 211 30q101 25 115 70h70q-6 -192 -105 -262q-50 -35 -124 -51.5t-170.5 -29.5t-153 -32.5t-88 -55t-44 -92t-18.5 -143.5h7q81 165 298 165t319 -124.5t102 -365.5q0 -495 -440 -495q-428 0 -428 598zM374 530.5 q0 -153.5 5 -227t19 -123.5q29 -100 113 -100q85 0 117 100q28 88 28 240q0 261 -30 352.5t-114.5 91.5t-111 -90t-26.5 -243.5z" />
<glyph unicode="&#x432;" horiz-adv-x="1106" d="M53 0v66l95 24v760l-95 24v66h481q220 0 324 -48q124 -55 124 -184q0 -173 -226 -213v-8q286 -22 286 -223q0 -139 -106 -200q-112 -64 -379 -64h-504zM437 90h111q98 0 150.5 43t52.5 141q0 165 -202 165h-112v-349zM437 529h93q161 0 161 167q0 154 -171 154h-83v-321z " />
<glyph unicode="&#x433;" horiz-adv-x="930" d="M54 0v66l95 24v760l-95 24v66h823v-308h-75l-43 186q-111 19 -199 19h-122v-747l153 -24v-66h-537z" />
<glyph unicode="&#x434;" horiz-adv-x="1036" d="M25 74l113 19q139 264 175 757l-106 25v65h776v-66l-95 -24v-760l125 -24l-16 -422h-105l-137 356h-471l-137 -356h-105zM263 103h336v747h-180q-31 -493 -156 -747z" />
<glyph unicode="&#x435;" horiz-adv-x="909" d="M70 475q0 488 424 488q178 0 264 -89q98 -101 98 -330v-82h-493v-16q0 -169 30 -227t80.5 -86t139 -28t222.5 29v-77q-82 -50 -222 -69q-46 -7 -129 -7t-169 32t-141 95q-104 121 -104 367zM364 567h218q0 157 -12 205t-32 69t-55.5 21t-58.5 -21t-36 -59 q-24 -66 -24 -215z" />
<glyph unicode="&#x436;" horiz-adv-x="1485" d="M4 0v64l82 20l277 528l-218 239l-95 23v66h304v-66l-65 -23l329 -379v378l-75 24v66h398v-66l-75 -24v-378l329 379l-65 23v66h304v-66l-95 -23l-219 -239l278 -528l82 -20v-64h-303l-219 444l-92 -55v-299l75 -24v-66h-398v66l75 24v299l-94 57l-217 -446h-303z" />
<glyph unicode="&#x437;" horiz-adv-x="823" d="M25 59v80q112 -35 208.5 -35t138.5 13t66 36q45 42 45 121q0 161 -181 161h-74v101h87q153 0 153 177q0 152 -156 152q-82 0 -137 -48l-34 -125h-72v242q155 31 278 31q205 0 304.5 -57.5t99.5 -181.5q0 -158 -192 -228v-6q142 -21 196 -132q18 -38 18 -86 q0 -294 -456 -294q-130 0 -244 50q-32 14 -48 29z" />
<glyph unicode="&#x438;" horiz-adv-x="1180" d="M54 0v66l95 24v760l-95 24v66h469v-66l-85 -24v-504l304 396v108l-85 24v66h469v-66l-95 -24v-760l95 -24v-66h-469v66l85 24v499l-304 -396v-103l85 -24v-66h-469z" />
<glyph unicode="&#x439;" horiz-adv-x="1180" d="M54 0v66l95 24v760l-95 24v66h469v-66l-85 -24v-504l304 396v108l-85 24v66h469v-66l-95 -24v-760l95 -24v-66h-469v66l85 24v499l-304 -396v-103l85 -24v-66h-469zM206 1410h209q6 -102 54.5 -150.5t123.5 -48.5t123.5 48.5t54.5 150.5h209q-7 -202 -203 -266 q-73 -24 -184 -24q-205 0 -302 88q-80 72 -85 202z" />
<glyph unicode="&#x43a;" horiz-adv-x="1180" d="M44 0v66l95 24v760l-95 24v66h469v-66l-85 -24v-386l410 383l-96 29v63h360v-63l-100 -25l-273 -246l356 -517l92 -25v-63h-497v63l86 27l-231 346l-107 -72v-274l85 -24v-66h-469z" />
<glyph unicode="&#x43b;" horiz-adv-x="1149" d="M25 226h64l33 -88q27 -60 80 -12q78 73 139 463l41 260l-117 25v66h830v-66l-95 -24v-760l95 -24v-66h-479v66l95 24v747h-215l-40 -259q-49 -318 -94 -418t-94.5 -140t-102.5 -40q-90 0 -132 27z" />
<glyph unicode="&#x43c;" horiz-adv-x="1395" d="M54 0v66l95 24v761l-95 23v66h372l249 -582l260 582h396v-66l-85 -24v-760l85 -24v-66h-457v66l92 24v670l-331 -760h-48l-322 752v-662l92 -24v-66h-303z" />
<glyph unicode="&#x43d;" horiz-adv-x="1180" d="M54 0v66l95 24v760l-95 24v66h479v-66l-95 -24v-318h304v318l-95 24v66h479v-66l-95 -24v-760l95 -24v-66h-479v66l95 24v339h-304v-339l95 -24v-66h-479z" />
<glyph unicode="&#x43e;" d="M78 475q0 365 238 458q83 32 198 32q223 0 327.5 -124.5t104.5 -365.5q0 -370 -238 -463q-84 -32 -202 -32q-428 0 -428 495zM371 530.5q0 -153.5 5 -227t20 -123.5q28 -100 112 -100q85 0 117 100q28 88 28 240q0 261 -30 352.5t-114.5 91.5t-111 -90t-26.5 -243.5z" />
<glyph unicode="&#x43f;" horiz-adv-x="1180" d="M54 0v66l95 24v760l-95 24v66h1072v-66l-95 -24v-760l95 -24v-66h-479v66l95 24v747h-304v-747l95 -24v-66h-479z" />
<glyph unicode="&#x440;" horiz-adv-x="1139" d="M26 874v66h381l2 -48q107 73 260 73q196 0 291.5 -115t95.5 -363q0 -363 -238 -471q-81 -36 -189.5 -36t-216.5 27q6 -66 6 -148v-205l138 -24v-66h-529v66l102 24v1196zM418 107q81 -21 169 -21q176 0 176 384t-174 384q-93 0 -171 -38v-709z" />
<glyph unicode="&#x441;" horiz-adv-x="909" d="M70 478.5q0 122.5 37 216t101 153.5q123 117 324 117q140 0 305 -35v-278h-72l-42 165q-48 36 -87 40.5t-72.5 4.5t-70.5 -22.5t-67 -69.5q-65 -103 -65 -292q0 -183 52 -271q29 -49 80 -75.5t159 -26.5t206 29v-77q-96 -76 -288 -76q-385 0 -472 284q-28 91 -28 213.5z " />
<glyph unicode="&#x442;" horiz-adv-x="1006" d="M25 652v288h956v-288h-75l-43 166q-111 19 -189 19h-27v-747l153 -25v-65h-606v65l164 25v747h-26q-78 0 -189 -19l-43 -166h-75z" />
<glyph unicode="&#x443;" d="M20 874v66h481v-66l-112 -26l221 -520l197 522l-110 24v66h307v-66l-68 -20l-371 -913q-75 -193 -127 -259t-104 -95t-127 -29t-159 19v242h60l43 -126q29 -23 72 -23t73.5 21t55.5 56.5t46.5 83t45.5 100.5l18 40l-376 879z" />
<glyph unicode="&#x444;" horiz-adv-x="1417" d="M71 461q0 368 191 469q64 35 141.5 35t177.5 -38l-5 181v223l-97 25v65h366v-343q0 -41 -1.5 -88.5t-1.5 -88.5q90 64 207 64q145 0 221 -123t76 -361q0 -361 -192 -466q-64 -35 -147.5 -35t-167.5 39q6 -72 6 -138v-227l102 -24v-66h-476v66l105 24v395 q-94 -69 -196 -69q-159 0 -234 119t-75 362zM339 507.5q0 -151.5 9.5 -221.5t27.5 -112q32 -78 98 -78q42 0 102 37v704q-54 20 -90.5 20t-62.5 -23t-45 -72q-39 -103 -39 -254.5zM845 113q51 -28 101 -28q71 0 101.5 96.5t30.5 299.5q0 367 -132 367q-47 0 -101 -31v-704z " />
<glyph unicode="&#x445;" d="M8 0v65l84 16l300 352l-270 417l-91 25v65h502v-65l-105 -27l137 -211l181 213l-94 25v65h320v-65l-83 -21l-264 -310l298 -458l90 -21v-65h-502v65l105 23l-164 253l-218 -255l94 -21v-65h-320z" />
<glyph unicode="&#x446;" horiz-adv-x="1180" d="M54 0v66l95 24v760l-95 24v66h479v-66l-95 -24v-747h304v747l-95 24v66h479v-66l-95 -24v-760l115 -24l-16 -422h-115l-127 356h-834z" />
<glyph unicode="&#x447;" horiz-adv-x="1155" d="M30 874v66h479v-66l-95 -24v-282q0 -69 16 -95q30 -49 99 -49t188 39v387l-95 24v66h479v-66l-95 -24v-760l95 -24v-66h-479v66l95 24v289q-178 -90 -320 -90q-146 0 -215 79q-57 67 -57 187v295z" />
<glyph unicode="&#x448;" horiz-adv-x="1729" d="M54 0v66l95 24v760l-95 24v66h479v-66l-95 -24v-747h282v747l-95 24v66h479v-66l-95 -24v-747h282v747l-95 24v66h479v-66l-95 -24v-760l95 -24v-66h-1621z" />
<glyph unicode="&#x449;" horiz-adv-x="1729" d="M54 0v66l95 24v760l-95 24v66h479v-66l-95 -24v-747h282v747l-95 24v66h479v-66l-95 -24v-747h282v747l-95 24v66h479v-66l-95 -24v-760l136 -24l-16 -422h-115l-127 356h-1404z" />
<glyph unicode="&#x44a;" horiz-adv-x="1194" d="M15 652v288h729v-66l-115 -24v-306h56q264 0 367 -68q92 -62 92 -204q0 -141 -96 -204q-105 -68 -369 -68h-434v66l95 24v747h-18q-78 0 -189 -19l-43 -166h-75zM629 90h41q92 0 137.5 42t45.5 141t-49 140t-133 41h-42v-364z" />
<glyph unicode="&#x44b;" horiz-adv-x="1599" d="M54 0v66l95 24v760l-95 24v66h499v-66l-115 -24v-306h116q263 0 368 -68q93 -62 93 -204q0 -141 -97 -204q-107 -68 -371 -68h-493zM438 90h91q99 0 147 42t48 141q0 181 -187 181h-99v-364zM1066 0v66l95 24v760l-95 24v66h479v-66l-95 -24v-760l95 -24v-66h-479z" />
<glyph unicode="&#x44c;" horiz-adv-x="1083" d="M54 0v66l95 24v760l-95 24v66h499v-66l-115 -24v-306h134q263 0 368 -68q93 -62 93 -204q0 -141 -97 -204q-107 -68 -371 -68h-511zM438 90h109q99 0 147 42t48 141q0 181 -187 181h-117v-364z" />
<glyph unicode="&#x44d;" horiz-adv-x="885" d="M51 57v77q106 -29 227 -29q235 0 245 328h-303v103h302q-6 245 -113 308q-32 18 -74 18q-81 0 -144 -45l-42 -165h-72v278q165 35 279.5 35t194.5 -27t139 -86q125 -125 125 -371q0 -363 -271 -465q-92 -35 -244.5 -35t-248.5 76z" />
<glyph unicode="&#x44e;" horiz-adv-x="1565" d="M54 0v66l95 24v760l-95 24v66h479v-66l-95 -24v-318h182q19 324 248 405q79 28 187 28q223 0 327.5 -124.5t104.5 -365.5q0 -370 -239 -463q-83 -32 -201 -32q-212 0 -315 115t-112 334h-182v-339l95 -24v-66h-479zM912 530.5q0 -153.5 5 -227t19 -123.5 q30 -100 113 -100q85 0 117 100q28 88 28 240q0 261 -30 352.5t-114.5 91.5t-111 -90t-26.5 -243.5z" />
<glyph unicode="&#x44f;" horiz-adv-x="1108" d="M21 0v64l82 20l180 365q-87 29 -132.5 91t-45.5 140q0 137 99.5 198.5t305.5 61.5h544v-66l-95 -24v-760l95 -24v-66h-479v66l95 24v304h-139l-165 -394h-345zM396 675q0 -45 9 -79t29 -59q42 -53 127 -53h109v366h-103q-119 0 -157 -96q-14 -34 -14 -79z" />
<glyph unicode="&#x451;" horiz-adv-x="909" d="M70 475q0 488 424 488q178 0 264 -89q98 -101 98 -330v-82h-493v-16q0 -169 30 -227t80.5 -86t139 -28t222.5 29v-77q-82 -50 -222 -69q-46 -7 -129 -7t-169 32t-141 95q-104 121 -104 367zM185 1239.5q0 36.5 10 58t27 37.5q36 35 72.5 35t58 -9.5t37.5 -25.5 q35 -35 35 -71.5t-9 -58.5t-25 -38.5t-38 -26.5t-46.5 -10t-46.5 10t-38 26q-37 37 -37 73.5zM364 567h218q0 157 -12 205t-32 69t-55.5 21t-58.5 -21t-36 -59q-24 -66 -24 -215zM521 1239q0 37 9.5 58.5t25.5 37.5q37 35 86 35q50 0 76 -26q43 -43 43 -80t-9 -59t-25 -39 q-35 -36 -85 -36q-49 0 -76 26q-45 46 -45 83z" />
<glyph unicode="&#x452;" horiz-adv-x="1100" d="M2 1099v103h145v129l-96 24v66h385v-219h251v-103h-251v-105q0 -61 -6 -151q172 102 305 102q167 0 218 -149q18 -53 18 -128v-711q0 -201 -115 -305q-102 -92 -275 -92q-89 0 -172 18v225h64l43 -114q24 -19 47.5 -19t44.5 13.5t38 43.5q36 66 36 198v704q0 134 -59 166 q-22 12 -68 12t-119 -34v-683l86 -24v-66h-467v66l92 24v1009h-145z" />
<glyph unicode="&#x453;" horiz-adv-x="930" d="M54 0v66l95 24v760l-95 24v66h823v-308h-75l-43 186q-111 19 -199 19h-122v-747l153 -24v-66h-537zM319 1118v33l166 272h285v-37l-365 -268h-86z" />
<glyph unicode="&#x454;" horiz-adv-x="885" d="M70 478.5q0 122.5 37 216t101 153.5q123 117 324 117q140 0 305 -35v-278h-72l-42 165q-48 36 -87 40.5t-71 4.5t-66.5 -19t-62.5 -58q-62 -86 -73 -243h313v-100h-315q6 -249 137 -313q50 -24 156 -24t204 29v-77q-96 -76 -288 -76q-385 0 -472 284q-28 91 -28 213.5z " />
<glyph unicode="&#x455;" horiz-adv-x="797" d="M62 685q0 131 99 207q94 73 257 73q87 0 261 -29v-241h-66l-32 110q-43 43 -129 61q-27 5 -75.5 5t-83 -29.5t-34.5 -71.5t14.5 -65t42.5 -41q46 -29 132 -55t135 -49.5t85 -59.5q79 -76 79 -202q0 -231 -209 -296q-71 -22 -143.5 -22t-121.5 6t-91 14q-82 17 -118 31 v256h66l38 -132q82 -82 208 -82q87 0 129.5 37.5t42.5 82.5t-12.5 68t-39.5 41q-45 30 -130.5 56.5t-133.5 49t-86 58.5q-84 81 -84 219z" />
<glyph unicode="&#x456;" horiz-adv-x="569" d="M45 0v66l102 24v760l-96 24v66h385v-850l103 -24v-66h-494zM139 1268q0 65 45 108q46 45 109 45q64 0 108.5 -44.5t44.5 -108.5q0 -63 -44 -109q-44 -45 -109 -45q-64 0 -109 45t-45 109z" />
<glyph unicode="&#x457;" horiz-adv-x="569" d="M3 1239.5q0 36.5 10 58t27 37.5q36 35 72.5 35t58 -9.5t37.5 -25.5q35 -35 35 -71.5t-9 -58.5t-25 -38.5t-38 -26.5t-46.5 -10t-46.5 10t-38 26q-37 37 -37 73.5zM45 0v66l102 24v760l-96 24v66h385v-850l103 -24v-66h-494zM339 1239q0 37 9.5 58.5t25.5 37.5 q37 35 86 35q50 0 76 -26q43 -43 43 -80t-9 -59t-25 -39q-35 -36 -85 -36q-49 0 -76 26q-45 46 -45 83z" />
<glyph unicode="&#x458;" horiz-adv-x="682" d="M-17 -193h64l43 -114q24 -19 47.5 -19t44.5 13.5t38 43.5q36 66 36 198v911l-166 34v66h455v-979q0 -201 -115 -305q-102 -92 -279 -92q-85 0 -168 18v225zM246 1268q0 63 45 108t109 45q63 0 108 -45t45 -108q0 -32 -12 -60t-33 -49q-45 -45 -92.5 -45t-75.5 12t-49 33 q-45 45 -45 109z" />
<glyph unicode="&#x459;" horiz-adv-x="1597" d="M25 226h64l33 -88q27 -60 80 -12q78 73 139 463l41 260l-117 25v66h802v-66l-115 -24v-306h134q263 0 368 -68q93 -62 93 -204q0 -141 -97 -204q-107 -68 -371 -68h-511v66l95 24v747h-167l-40 -259q-49 -318 -94 -418t-94.5 -140t-102.5 -40q-90 0 -132 27zM952 90h109 q99 0 147 42t48 141q0 181 -187 181h-117v-364z" />
<glyph unicode="&#x45a;" horiz-adv-x="1632" d="M54 0v66l95 24v760l-95 24v66h479v-66l-95 -24v-306h289v306l-95 24v66h499v-66l-115 -24v-306h114q263 0 368 -68q93 -62 93 -204q0 -141 -97 -204q-107 -68 -371 -68h-491v66l95 24v354h-289v-354l95 -24v-66h-479zM1016 90h89q99 0 147 42t48 141q0 181 -187 181h-97 v-364z" />
<glyph unicode="&#x45b;" horiz-adv-x="1139" d="M2 1099v103h145v129l-96 24v66h385v-219h251v-103h-251v-105q0 -66 -6 -156q147 76 213 91.5t117 15.5t99 -15t83 -48q72 -69 72 -214v-578l94 -24v-66h-467v66l84 24v539q0 84 -35.5 131t-106.5 47t-147 -34v-683l86 -24v-66h-467v66l92 24v1009h-145z" />
<glyph unicode="&#x45c;" horiz-adv-x="1180" d="M44 0v66l95 24v760l-95 24v66h469v-66l-85 -24v-386l410 383l-96 29v63h360v-63l-100 -25l-273 -246l356 -517l92 -25v-63h-497v63l86 27l-231 346l-107 -72v-274l85 -24v-66h-469zM468 1118v33l166 272h285v-37l-365 -268h-86z" />
<glyph unicode="&#x45e;" d="M20 874v66h481v-66l-112 -26l221 -520l197 522l-110 24v66h307v-66l-68 -20l-371 -913q-75 -193 -127 -259t-104 -95t-127 -29t-159 19v242h60l43 -126q29 -23 72 -23t73.5 21t55.5 56.5t46.5 83t45.5 100.5l18 40l-376 879zM127 1410h209q6 -102 54.5 -150.5 t123.5 -48.5t123.5 48.5t54.5 150.5h209q-7 -202 -203 -266q-73 -24 -184 -24q-205 0 -302 88q-80 72 -85 202z" />
<glyph unicode="&#x45f;" horiz-adv-x="1180" d="M54 0v66l95 24v760l-95 24v66h479v-66l-95 -24v-747h304v747l-95 24v66h479v-66l-95 -24v-760l95 -24v-66h-409l-70 -363h-115l-70 363h-408z" />
<glyph unicode="&#x490;" horiz-adv-x="1065" d="M37 1268v73h723l127 336h115l16 -442h-494v-1136l207 -26v-73h-693v73l171 26v1142z" />
<glyph unicode="&#x491;" horiz-adv-x="797" d="M44 0v66l105 24v760l-105 24v66h505l63 291h125l20 -394h-319v-747l143 -24v-66h-537z" />
<glyph unicode="&#x2013;" d="M-14 406v143h1052v-143h-1052z" />
<glyph unicode="&#x2014;" horiz-adv-x="2048" d="M-14 406v143h2076v-143h-2076z" />
<glyph unicode="&#x2018;" horiz-adv-x="682" d="M161 948q0 59 23 123.5t72 119.5q102 115 313 171v-92q-152 -45 -193 -146q-10 -26 -10 -46t11.5 -33t28.5 -23.5t37 -21t37 -26.5q40 -36 40 -82.5t-12.5 -71.5t-33.5 -42q-45 -35 -99 -35t-89.5 12.5t-63 37t-44.5 60.5t-17 95z" />
<glyph unicode="&#x2019;" horiz-adv-x="682" d="M127 743v93q104 31 159 92q44 51 44 85t-11.5 47t-28 24t-36.5 21t-36 26q-40 38 -40 84t12 71t34 42q43 34 97 34t89.5 -12.5t63.5 -37.5t44.5 -61t16.5 -95.5t-22.5 -123.5t-71.5 -118q-103 -115 -314 -171z" />
<glyph unicode="&#x201a;" horiz-adv-x="682" d="M117 -225q103 31 157 93q45 50 45 97q0 33 -39 57q-17 11 -36.5 21.5t-36.5 26.5q-39 37 -39 83.5t12 71.5t34 42q42 34 96.5 34t90 -12.5t63 -37.5t44 -61t16.5 -95.5t-22.5 -123.5t-71.5 -119q-100 -113 -313 -169v92z" />
<glyph unicode="&#x201c;" d="M99 948q0 59 23 123.5t72 119.5q102 115 313 171v-92q-152 -45 -193 -146q-10 -26 -10 -46t11.5 -33t28.5 -23.5t37 -21t37 -26.5q40 -36 40 -82.5t-12.5 -71.5t-33.5 -42q-45 -35 -99 -35t-89.5 12.5t-63 37t-44.5 60.5t-17 95zM549 948q0 59 23 123.5t72 119.5 q102 115 313 171v-92q-152 -45 -193 -146q-10 -26 -10 -46t11.5 -33t28.5 -23.5t37 -21t37 -26.5q40 -36 40 -82.5t-12.5 -71.5t-33.5 -42q-45 -35 -99 -35t-89.5 12.5t-63 37t-44.5 60.5t-17 95z" />
<glyph unicode="&#x201d;" d="M77 743v93q103 31 157 92q45 51 45 85t-11.5 47t-28.5 24t-36.5 21t-36.5 26q-40 38 -40 84t12 71t34 42q44 34 98.5 34t89.5 -12.5t62.5 -37.5t44.5 -61t17 -95.5t-23 -123.5t-72 -118q-103 -115 -312 -171zM527 743v93q103 31 157 92q45 51 45 85t-11.5 47t-28.5 24 t-36.5 21t-36.5 26q-40 38 -40 84t12 71t34 42q44 34 98.5 34t89.5 -12.5t62 -37.5t43.5 -61t16.5 -95.5t-22.5 -123.5t-71.5 -118q-102 -115 -311 -171z" />
<glyph unicode="&#x201e;" d="M59 -225q103 31 157 93q45 50 45 97q0 33 -39 57q-17 11 -36.5 21.5t-36.5 26.5q-39 37 -39 100t45 97t98.5 34t89 -12.5t63 -37.5t44 -61t16.5 -95.5t-22.5 -123.5t-71.5 -119q-102 -113 -313 -169v92zM509 -225q103 31 157 93q45 50 45 97q0 33 -39 57 q-17 11 -36.5 21.5t-36.5 26.5q-39 37 -39 100t45 97t98.5 34t89 -12.5t63 -37.5t44 -61t16.5 -95.5t-22.5 -123.5t-71.5 -119q-100 -113 -313 -169v92z" />
<glyph unicode="&#x2022;" horiz-adv-x="717" d="M81 678q0 115 81 196t196 81t196 -81t81 -196t-81 -196t-196 -81t-196 81t-81 196z" />
<glyph unicode="&#x2026;" horiz-adv-x="2048" d="M170 137q0 69 48.5 117.5t117.5 48.5t117.5 -48.5t48.5 -117.5t-48.5 -117.5t-117.5 -48.5q-35 0 -65 13t-53 36q-48 48 -48 117zM860 137q0 69 48.5 117.5t117.5 48.5t117.5 -48.5t48.5 -117.5t-48.5 -117.5t-117.5 -48.5q-35 0 -65 13t-53 36q-48 48 -48 117zM1550 137 q0 69 48.5 117.5t117.5 48.5t117.5 -48.5t48.5 -117.5t-48.5 -117.5t-117.5 -48.5q-35 0 -65 13t-53 36q-48 48 -48 117z" />
<glyph unicode="&#x2039;" horiz-adv-x="682" d="M126 429v66l330 356h100l-182 -389l182 -388h-100z" />
<glyph unicode="&#x203a;" horiz-adv-x="682" d="M126 74l182 389l-182 389h100l330 -356v-66l-330 -356h-100z" />
<glyph unicode="&#x20ac;" d="M26 493v101h110q-2 28 -2 58v46q0 18 2 40h-110v101h118q60 517 509 517q161 0 326 -33l4 -285h-89l-28 150q-84 65 -188 65q-219 0 -248 -414h284v-101h-287q-3 -30 -3 -78t3 -66h287v-101h-284q17 -208 85.5 -309t170.5 -101q125 0 198 80l28 165h89l-4 -298 q-163 -50 -305.5 -50t-231.5 34.5t-154 99.5q-132 133 -162 379h-118z" />
<glyph unicode="&#x2122;" horiz-adv-x="2048" d="M83 1112v231h742v-231h-71l-16 149q-11 2 -24.5 4.5t-32.5 4.5q-38 4 -104 4h-30v-660l128 -16v-60h-445v60l128 16v661h-31q-93 0 -119.5 -6t-37.5 -8l-16 -149h-71zM882 538v60l103 16v653l-103 16v60h335l214 -495l218 495h322v-60l-103 -16v-653l103 -16v-60h-400v60 l108 16v586l-293 -662h-33l-278 645v-569l103 -16v-60h-296z" />
<glyph unicode="&#xe000;" horiz-adv-x="940" d="M0 0v940h940v-940h-940z" />
</font>
</defs>
</svg>
