<?xml version="1.0" standalone="no"?>
<!DOCTYPE svg PUBLIC "-//W3C//DTD SVG 1.1//EN" "http://www.w3.org/Graphics/SVG/1.1/DTD/svg11.dtd" >
<svg xmlns="http://www.w3.org/2000/svg">
<metadata></metadata>
<defs>
<font id="frizquadratacregular" horiz-adv-x="1310" >
<font-face units-per-em="2048" ascent="1495" descent="-553" />
<missing-glyph horiz-adv-x="477" />
<glyph horiz-adv-x="2048" />
<glyph horiz-adv-x="2048" />
<glyph unicode="&#xd;" horiz-adv-x="2048" />
<glyph unicode=" "  horiz-adv-x="477" />
<glyph unicode="&#x09;" horiz-adv-x="477" />
<glyph unicode="&#xa0;" horiz-adv-x="477" />
<glyph unicode="!" horiz-adv-x="487" d="M72 1434h280q21 0 27 -6t6 -27q0 -14 -3.5 -52t-6.5 -104l-41 -891h-150l-41 924q-1 30 -2.5 45t-8 38.5t-21.5 40.5t-39 32zM125 104q0 56 40 96t95 40t95 -40t40 -96t-39.5 -95.5t-95.5 -39.5t-95.5 39.5t-39.5 95.5z" />
<glyph unicode="&#x22;" horiz-adv-x="745" d="M92 1477h189l-56 -603h-78zM465 1477h188l-55 -603h-78z" />
<glyph unicode="#" horiz-adv-x="1384" d="M41 436l22 115h236l84 412h-244l23 114h244l83 418h138l-84 -418h413l84 418h138l-84 -418h249l-24 -114h-248l-84 -412h258l-24 -115h-256l-76 -370h-137l75 370h-413l-74 -370h-139l75 370h-235zM436 551h414l84 412h-414z" />
<glyph unicode="$" horiz-adv-x="1069" d="M51 1096q0 74 26 136.5t68.5 104t97.5 71t113 43t115 13.5v181h123v-181q151 -2 285 -53v-240q-105 115 -285 129v-419q76 -31 134 -60t119.5 -71.5t100.5 -89t64.5 -110.5t25.5 -138q0 -78 -24.5 -146t-66.5 -119t-98.5 -89.5t-121 -60t-133.5 -26.5v-198h-123v196 q-214 2 -403 37v264q77 -65 180.5 -108t222.5 -39v563q-160 60 -255 128.5t-130 134.5t-35 147zM252 1137q0 -73 54 -119.5t165 -93.5v376q-49 1 -96.5 -13.5t-85 -54t-37.5 -95.5zM594 135q110 14 175 86.5t65 159.5q0 67 -55 134t-185 116v-496z" />
<glyph unicode="%" horiz-adv-x="1421" d="M82 1094q0 152 84 246t219 94q146 0 225.5 -99t79.5 -237q0 -60 -18.5 -117.5t-54 -105.5t-95 -77.5t-133.5 -29.5q-139 0 -223 90t-84 236zM246 1096q0 -90 34 -152.5t109 -62.5q41 0 69.5 20.5t42.5 54.5t19.5 67.5t5.5 70.5q0 39 -6 75t-20.5 72.5t-44.5 58t-72 21.5 q-137 0 -137 -225zM307 0l670 1434h123l-670 -1434h-123zM731 326q0 152 84 246t219 94q146 0 225.5 -99t79.5 -237q0 -60 -18.5 -117.5t-54 -105.5t-95 -77.5t-133.5 -29.5q-139 0 -223 90t-84 236zM895 328q0 -90 34 -152.5t109 -62.5q41 0 70 20.5t42.5 54.5t19.5 67.5 t6 70.5q0 39 -6 75t-21 72t-45 58t-72 22q-137 0 -137 -225z" />
<glyph unicode="&#x26;" horiz-adv-x="1169" d="M8 385q0 60 13 113.5t45.5 115t95 125t153.5 127.5q-86 80 -131 151t-45 150q0 56 20.5 107.5t60 95t107.5 69t154 25.5q158 0 243 -83.5t85 -202.5q0 -88 -54 -166.5t-155 -161.5l268 -262q277 -269 462.5 -399t330.5 -189l-266 -8q-94 -3 -196 50t-238 181 q-101 -145 -206.5 -199.5t-244.5 -54.5q-142 0 -254.5 47.5t-180 143.5t-67.5 225zM236 414q0 -130 82 -210.5t214 -80.5q95 0 175 37t165 143l-432 426q-83 -54 -143.5 -135.5t-60.5 -179.5zM328 1204q0 -116 149 -225q144 92 144 209q0 65 -41.5 105t-108.5 40 q-63 0 -103 -35t-40 -94z" />
<glyph unicode="'" horiz-adv-x="372" d="M92 1477h189l-56 -603h-78z" />
<glyph unicode="(" horiz-adv-x="649" d="M164 467q0 255 101 518.5t263 478.5h142q-143 -223 -222 -480t-79 -517t79 -515t222 -480h-142q-162 215 -263 478t-101 517z" />
<glyph unicode=")" horiz-adv-x="649" d="M-20 -528q143 225 222 480t79 515t-79 517t-222 480h141q162 -215 263 -478.5t101 -518.5q0 -254 -101 -517t-263 -478h-141z" />
<glyph unicode="*" horiz-adv-x="614" d="M82 1326v3q0 21 18.5 37t42.5 16q21 0 38 -10t26 -20.5t22 -30.5l21 -31q21 -32 39 -30q3 5 4 9t-0.5 10.5t-2 8.5t-4.5 11t-5 10l-17 32q-20 36 -20 70q0 29 17.5 47.5t45.5 18.5t46 -18.5t18 -47.5q0 -32 -21 -70l-16 -32q-1 -2 -4 -8.5t-4 -9t-2.5 -7.5t-1.5 -8.5 t1 -7.5t3 -8q18 -2 39 30l20 31q13 20 22 30.5t26 20.5t38 10q24 0 42.5 -16t18.5 -37q0 -40 -23 -59q-28 -20 -81 -23l-37 -2q-3 0 -10.5 -0.5t-9.5 -1t-7 -1.5t-7.5 -2.5t-6 -5t-6.5 -7.5q2 -3 4.5 -5.5l4.5 -4.5t5.5 -3.5t5 -2t6 -1.5t6 -1t7.5 -0.5t8 -0.5l37 -2 q56 -3 79 -19.5t23 -51.5q0 -30 -17 -48t-42 -18q-20 0 -38 11.5t-26.5 22.5t-21.5 30l-20 30q-1 2 -4.5 7t-4.5 6.5t-4 5t-5 5t-5.5 3.5t-7 3t-8.5 1q-4 -19 -2.5 -24.5t10.5 -24.5l16 -33q19 -38 19 -70q0 -28 -16.5 -46.5t-45.5 -18.5t-45 18t-16 47q0 34 18 70l17 33 q9 19 10.5 24.5t-2.5 24.5q-6 0 -10.5 -2t-7 -3t-6.5 -5t-4.5 -5t-5 -8t-5.5 -8l-21 -30q-13 -19 -21.5 -30t-26.5 -22.5t-38 -11.5q-25 0 -42 18t-17 48q0 35 23 51.5t79 19.5l37 2q2 0 8 0.5t7.5 0.5t6 1t6 1.5t5 2t5.5 3.5l4.5 4.5t4.5 5.5q-3 4 -6.5 7.5t-6 5t-7.5 2.5 t-7 1.5t-9.5 1t-10.5 0.5l-37 2q-37 2 -60.5 11.5t-31.5 24t-10 23t-2 20.5z" />
<glyph unicode="+" d="M78 662v110h522v522h111v-522h522v-110h-522v-523h-111v523h-522z" />
<glyph unicode="," horiz-adv-x="456" d="M82 -225q44 42 93.5 111t49.5 100q0 14 -14 18q-111 23 -111 127q0 58 37.5 91.5t95.5 33.5q65 0 103.5 -43.5t38.5 -110.5q0 -92 -57.5 -179t-129.5 -148h-106z" />
<glyph unicode="-" horiz-adv-x="870" d="M82 461l119 164q16 22 49 22h538l-118 -164q-16 -22 -49 -22h-539z" />
<glyph unicode="." horiz-adv-x="434" d="M82 104q0 56 40 96t95 40t95 -40t40 -96t-40 -95.5t-95 -39.5t-95 39.5t-40 95.5z" />
<glyph unicode="/" horiz-adv-x="782" d="M-20 -279l661 1743h131l-661 -1743h-131z" />
<glyph unicode="0" d="M70 731q0 213 72.5 379t208 260t311.5 94q100 0 186 -31.5t148.5 -87t110 -128t76.5 -159t43.5 -175.5t14.5 -181q0 -213 -72.5 -379t-208 -260t-311.5 -94q-100 0 -186 31.5t-148.5 87t-110 128t-76.5 159t-43.5 175.5t-14.5 181zM305 762q0 -178 39.5 -318t119 -223.5 t187.5 -83.5q158 0 256.5 144t98.5 391q0 178 -39 318t-118 223t-187 83q-52 0 -101 -17t-96 -57.5t-82 -100.5t-56.5 -152.5t-21.5 -206.5z" />
<glyph unicode="1" d="M338 1141q326 131 461 381v-1317q0 -30 2 -48.5t9.5 -49t28.5 -57.5t54 -50h-397q33 23 54 50t28.5 57.5t9.5 49t2 48.5v936h-252z" />
<glyph unicode="2" d="M131 0l588 864q4 5 19 27.5l21 31.5t18 31t17.5 37.5t10 38t4.5 45.5q0 100 -65 158.5t-179 58.5q-167 0 -364 -129l121 256q146 45 301 45q104 0 186.5 -28.5t132.5 -76t76 -107t26 -124.5q0 -61 -24 -132t-45.5 -109.5t-44.5 -71.5l-441 -641q180 -18 281 -18 q264 0 451 96l-117 -252h-973z" />
<glyph unicode="3" d="M121 258q137 -71 229.5 -96t179.5 -25q90 0 161.5 21t114 52.5t70.5 72t38 75.5t10 68q0 30 -5.5 60t-27 72.5t-57 74t-104 54t-159.5 22.5q-88 0 -163 -21v184q105 -12 151 -12q69 0 122.5 16.5t84 41t50 57t26 61t6.5 56.5q0 84 -77 144t-212 60q-151 0 -317 -92 l96 226q118 34 260 34q108 0 193.5 -21.5t139 -56.5t89 -82t49.5 -93.5t14 -96.5q0 -54 -18.5 -101.5t-47.5 -80.5t-67.5 -59.5t-75.5 -41.5t-75 -24v-8q154 -9 257 -115t103 -256q0 -206 -174.5 -332.5t-484.5 -126.5q-132 0 -283 31z" />
<glyph unicode="4" d="M25 289l665 1145h293v-963q165 4 264 82l-100 -264h-164v-84q0 -30 2 -48.5t9.5 -49t28.5 -57.5t54 -50h-397q33 23 54 50t28.5 57.5t9.5 49t2 48.5v84h-749zM317 475q169 -22 293 -22q91 0 164 8v807z" />
<glyph unicode="5" d="M143 225q163 -88 369 -88q103 0 185.5 27t133 72.5t77 101.5t26.5 117q0 123 -98 210t-279 87t-346 -74l43 756h790v-254q-70 50 -148.5 68t-184.5 18q-48 0 -262 -15l-19 -360q110 29 217 29q133 0 236.5 -38.5t164 -102.5t91 -140t30.5 -158q0 -80 -24 -153.5 t-75.5 -139t-125.5 -114t-182 -77t-238 -28.5q-121 0 -282 33z" />
<glyph unicode="6" d="M86 580q0 165 74 317.5t202.5 268t306.5 194.5t380 104l-97 -129q-283 -80 -456.5 -286.5t-173.5 -473.5q0 -201 101 -319.5t263 -118.5q58 0 110 16.5t97 51.5t71.5 97t26.5 144q0 68 -19 128t-57 108.5t-102 77t-147 28.5q-123 0 -246 -65l119 158q76 63 217 63 q212 0 341.5 -125.5t129.5 -324.5q0 -76 -21.5 -150t-67.5 -142t-111 -119.5t-159.5 -82.5t-205.5 -31q-116 0 -214 37.5t-163.5 99t-111.5 142t-66.5 164.5t-20.5 168z" />
<glyph unicode="7" d="M150 1167l94 267h930l-463 -1112q-74 -179 -74 -234q0 -63 59 -88h-358l541 1247q-137 31 -310 31q-153 0 -249 -27.5t-170 -83.5z" />
<glyph unicode="8" d="M74 377q0 257 327 381q-49 17 -94.5 44.5t-87.5 68t-67 98t-25 123.5q0 71 29 135t88.5 118t162.5 86.5t238 32.5q128 0 228 -28.5t161 -77.5t92 -111.5t31 -134.5q0 -66 -28 -123t-74 -96t-91.5 -64t-93.5 -41q183 -68 275 -157t92 -230q0 -190 -164 -311t-420 -121 q-168 0 -298 47.5t-205.5 141t-75.5 219.5zM293 399q0 -51 22.5 -102t64.5 -95t112 -71t155 -27q174 0 269.5 78t95.5 180q0 46 -16.5 84.5t-42 65t-65.5 50.5t-78.5 39t-90.5 32l-180 57q-111 -39 -178.5 -117.5t-67.5 -173.5zM344 1143q0 -159 234 -240l182 -63 q95 60 145.5 120t50.5 134q0 100 -83 172.5t-244 72.5q-129 0 -207 -54.5t-78 -141.5z" />
<glyph unicode="9" d="M86 940q0 98 35.5 189.5t102.5 167t175.5 121.5t243.5 46q128 0 237.5 -47t185.5 -128.5t118.5 -194t42.5 -240.5q0 -220 -126.5 -411.5t-346.5 -315.5t-490 -158l96 129q283 80 457 286.5t174 473.5q0 201 -101 319.5t-263 118.5q-58 0 -110 -16.5t-97 -51.5t-71.5 -97 t-26.5 -144q0 -68 19 -128t57 -108.5t102 -77t147 -28.5q121 0 246 66l-119 -158q-77 -64 -217 -64q-212 0 -341.5 125.5t-129.5 325.5z" />
<glyph unicode=":" horiz-adv-x="434" d="M82 104q0 56 40 96t95 40t95 -40t40 -96t-40 -95.5t-95 -39.5t-95 39.5t-40 95.5zM82 678q0 56 40 95.5t95 39.5t95 -39.5t40 -95.5t-40 -95.5t-95 -39.5t-95 39.5t-40 95.5z" />
<glyph unicode=";" horiz-adv-x="456" d="M82 -225q44 42 93.5 111t49.5 100q0 14 -14 18q-111 23 -111 127q0 58 37.5 91.5t95.5 33.5q65 0 103.5 -43.5t38.5 -110.5q0 -92 -57.5 -179t-129.5 -148h-106zM104 678q0 55 40 95t96 40t95.5 -39.5t39.5 -95.5t-39.5 -95.5t-95.5 -39.5t-96 40t-40 95z" />
<glyph unicode="&#x3c;" d="M119 709l1024 647l51 -82l-885 -565l885 -566l-51 -82z" />
<glyph unicode="=" d="M78 477v113h1155v-113h-1155zM78 844v112h1155v-112h-1155z" />
<glyph unicode="&#x3e;" d="M119 143l887 566l-887 565l51 82l1024 -647l-1024 -648z" />
<glyph unicode="?" horiz-adv-x="817" d="M0 1233l35 70q28 55 54 87t63 48.5t75 21t105 4.5q20 0 44 -1.5t74.5 -9.5t95 -21.5t96.5 -42.5t89 -68t61.5 -101t24.5 -139q0 -113 -51.5 -197.5t-161.5 -176.5l-63 -54q-28 -23 -44 -36.5t-41 -39.5t-38.5 -47t-24 -50t-10.5 -58q0 -40 16 -68h-176q-2 18 -2 54 q0 62 13 110t41 86t51.5 60.5t64.5 54.5q40 32 61 49.5t55 52.5t51.5 63.5t31.5 69.5t14 84q0 122 -88 200.5t-229 78.5q-130 0 -287 -84zM168 104q0 56 40 96t95 40t95 -40t40 -96t-40 -95.5t-95 -39.5t-95 39.5t-40 95.5z" />
<glyph unicode="@" horiz-adv-x="1679" d="M102 688q0 222 106 400t287 276t400 98q150 0 279 -51.5t216.5 -139t137 -204.5t49.5 -248q0 -120 -32.5 -214t-82.5 -150t-115 -92.5t-123.5 -50t-115.5 -13.5q-68 0 -102.5 34t-34.5 85q0 31 10 76l100 467q-59 43 -147 43q-143 0 -239.5 -109t-96.5 -274q0 -50 12 -88 t30.5 -59t43.5 -34.5t46 -17.5t44 -4q85 0 166 43l-115 -146q-18 -14 -37 -18t-65 -4q-51 0 -98 17.5t-87 53t-64.5 96t-24.5 138.5q0 102 29.5 188.5t79 146.5t115.5 102t137.5 61.5t145.5 19.5q59 0 117 -10q76 -12 82 -12q15 0 45 10l60 18l-123 -583q-9 -40 -9 -60 q0 -24 5.5 -39t18 -21t22 -7.5t26.5 -1.5q73 0 130.5 34.5t91.5 93t51.5 130t17.5 151.5q0 118 -42 221t-117.5 178.5t-188 118.5t-246.5 43q-188 0 -345 -86t-251 -243.5t-94 -354.5q0 -141 46.5 -260t132 -203.5t211 -132t277.5 -47.5q174 0 345 72l24 -78 q-169 -76 -389 -76q-146 0 -270.5 40t-212 109t-149 161t-91 195t-29.5 212z" />
<glyph unicode="A" horiz-adv-x="1347" d="M-102 0q72 47 110.5 107.5t75.5 152.5l410 1036q5 12 7.5 25.5t3 35.5t-14.5 42.5t-44 34.5h336l494 -1223q30 -73 68 -124t106 -87h-440q34 15 52.5 35.5t21 44t-1 41t-11.5 39.5l-156 385h-550l-129 -322q-16 -43 -22 -76q-1 -8 -2 -17q0 -26 12 -57q16 -41 61 -73 h-387zM418 682h444l-223 565z" />
<glyph unicode="B" horiz-adv-x="1212" d="M88 0q33 23 54 50t28.5 57.5t9.5 49t2 48.5v1024q0 30 -2 48.5t-9.5 49t-28.5 57.5t-54 50l551 10h12q175 0 285 -85q114 -88 115 -237q0 -64 -22 -117t-58.5 -87t-69 -54t-67.5 -33q156 -18 254 -122t98 -263q0 -42 -7 -82t-25 -85.5t-46.5 -84.5t-75.5 -75.5t-108 -62 t-147.5 -41t-190.5 -15.5h-498zM391 170q124 -18 213 -18t155.5 21.5t102 51.5t56.5 71.5t26.5 72t5.5 63.5q0 39 -9.5 76.5t-36 79t-68 71.5t-112.5 50t-163 20q-57 0 -170 -8v-551zM391 862l113 -2h13q143 0 219 65q80 68 81 165q0 88 -66 145t-198 57q-68 0 -162 -12 v-418z" />
<glyph unicode="C" horiz-adv-x="1366" d="M74 707q0 119 32.5 229.5t99 206.5t160 167.5t223.5 112.5t281 41q112 0 267 -32q71 -17 114 -23v-250q-189 131 -405 131q-102 0 -197 -34t-171.5 -98t-122.5 -166.5t-46 -229.5q0 -92 20.5 -179t67 -167.5t113 -140.5t166 -96t219.5 -36q299 0 481 152l-139 -275 q-158 -51 -358 -51q-177 0 -319 47t-230.5 121t-148 173.5t-83.5 197.5t-24 199z" />
<glyph unicode="D" horiz-adv-x="1497" d="M88 0q33 23 54 50t28.5 57.5t9.5 49t2 48.5v1024q0 30 -2 48.5t-9.5 49t-28.5 57.5t-54 50q290 18 533 18q172 0 309.5 -40.5t228 -109t151.5 -163t87 -198t26 -218.5q0 -157 -56.5 -290.5t-159 -229t-254 -149.5t-335.5 -54h-530zM391 186q85 -18 187 -18 q287 0 448.5 147.5t161.5 415.5q0 168 -75.5 295t-203.5 192.5t-288 65.5q-98 0 -230 -16v-1082z" />
<glyph unicode="E" horiz-adv-x="1054" d="M88 0q33 23 54 50.5t28.5 58.5t9.5 49t2 47v1024q0 29 -2 47t-9.5 49t-28.5 58.5t-54 50.5h795v-236q-32 37 -81 56q-47 18 -126 18h-8l-277 -6v-410h295q40 0 74 6v-223q-53 53 -156 53h-213v-514q146 -14 266 -14q161 0 258.5 30.5t169.5 94.5l-104 -289h-893z" />
<glyph unicode="F" horiz-adv-x="882" d="M88 0q33 23 54 50.5t28.5 58.5t9.5 49t2 47v1024q0 29 -2 47t-9.5 49t-28.5 58.5t-54 50.5h721q39 0 74 6v-242q-32 37 -81 56q-47 18 -126 18h-8l-277 -6v-410h295q40 0 74 6v-223q-53 53 -156 53h-213v-487q0 -29 2.5 -50t12 -50.5t32.5 -56t58 -48.5h-408z" />
<glyph unicode="G" horiz-adv-x="1523" d="M74 709q0 113 31 219.5t98.5 204.5t164.5 171t240 116.5t314 43.5q105 0 209.5 -17.5t150.5 -21.5v-245q-144 116 -379 116q-261 0 -427.5 -151.5t-166.5 -394.5q0 -128 46 -240t128.5 -194.5t203.5 -130.5t265 -48q133 0 258 39v371q0 62 -13 103.5t-58 78.5h293 q-13 -39 -13 -61v-531q0 -53 11 -94q-237 -74 -492 -74q-140 0 -262 28t-216 78t-168 119t-121.5 151.5t-72 174.5t-24.5 189z" />
<glyph unicode="H" horiz-adv-x="1570" d="M88 0q33 24 53.5 49t28.5 54t10 49t2 53v1024q0 33 -2 53t-10 49t-28.5 54t-53.5 49h397q-33 -24 -53.5 -49t-28.5 -54t-10 -49t-2 -53v-361h789v361q0 32 -2 52.5t-10.5 49.5t-29 54t-53.5 49h398q-33 -24 -53.5 -49t-28.5 -54t-10 -49t-2 -53v-1024q0 -33 2 -53t10 -49 t28.5 -54t53.5 -49h-398q33 24 53.5 49t29 54t10.5 49.5t2 52.5v500h-789v-500q0 -33 2 -53t10 -49t28.5 -54t53.5 -49h-397z" />
<glyph unicode="I" horiz-adv-x="573" d="M88 0q33 23 54 50t28.5 57.5t9.5 49t2 48.5v1024q0 30 -2 48.5t-9.5 49t-28.5 57.5t-54 50h397q-33 -23 -54 -50t-28.5 -57.5t-9.5 -49t-2 -48.5v-1024q0 -30 2 -48.5t9.5 -49t28.5 -57.5t54 -50h-397z" />
<glyph unicode="J" horiz-adv-x="573" d="M-72 -481q65 38 112 81.5t75 85.5t45 92t22.5 95.5t5.5 101.5v1254q0 145 -108 205h412q-33 -23 -54 -50t-29 -57.5t-10 -49.5t-2 -48v-1262v-18q0 -56 -1.5 -85.5t-13 -73t-34.5 -77.5q-55 -81 -182 -133t-238 -61z" />
<glyph unicode="K" horiz-adv-x="1198" d="M88 0q33 23 54 50t28.5 57.5t9.5 49t2 48.5v1024q0 30 -2 48.5t-9.5 49t-28.5 57.5t-54 50h397q-33 -23 -54 -50t-28.5 -57.5t-9.5 -49t-2 -48.5v-1024q0 -30 2 -48.5t9.5 -49t28.5 -57.5t54 -50h-397zM432 743l320 431q46 62 65 96t19 63q0 34 -22 60.5t-52 40.5h393 l-498 -646l236 -311q154 -206 249 -305.5t220 -171.5l-219 -10h-18q-45 0 -83 12q-46 15 -90 57.5t-67.5 71.5t-73.5 98q-3 4 -5 6.5t-4.5 6t-4.5 6.5z" />
<glyph unicode="L" horiz-adv-x="1052" d="M88 0q33 23 54 50t28.5 57.5t9.5 49t2 48.5v1024q0 30 -2 48.5t-9.5 49t-28.5 57.5t-54 50h408q-105 -66 -105 -205v-1047q153 -18 236 -18q299 0 456 133l-114 -297h-881z" />
<glyph unicode="M" horiz-adv-x="1884" d="M-16 0q89 83 110 233l144 988q0 4 3.5 25.5t3.5 25.5t2 22.5t1 23.5t-2.5 20.5t-5.5 22t-9.5 18.5t-13.5 19.5t-19.5 17.5t-25.5 18h365l413 -1072l385 928q29 68 43 144h355q-69 -44 -69 -156q0 -24 3 -51l133 -1045q8 -59 28.5 -103.5t72.5 -78.5h-398q44 30 64 72 q18 37 18 73q-1 5 -1 9q-2 41 -5 88q-1 9 -2 14l-109 963l-505 -1239l-58 49q-61 53 -108 172l-402 1013l-137 -974q-4 -29 -5 -38.5t-3 -36t0 -39t7.5 -34.5t15.5 -35.5t27 -29t40 -27.5h-356z" />
<glyph unicode="N" horiz-adv-x="1591" d="M82 0q33 23 54 50t28.5 57.5t9.5 49t2 48.5v1024q0 30 -2 48.5t-9.5 49t-28.5 57.5t-54 50h305q19 -42 31 -54l837 -1044v893q0 30 -2 48.5t-9.5 49t-28.5 57.5t-54 50h348q-33 -23 -54 -50t-28.5 -57.5t-9.5 -49t-2 -48.5v-1286q-41 11 -76 26.5t-67 39t-51 38t-49 48.5 t-38 43.5t-38 47.5l-760 951v-932q0 -30 2 -48.5t9.5 -49t28.5 -57.5t54 -50h-348z" />
<glyph unicode="O" horiz-adv-x="1720" d="M74 717q0 116 31.5 224.5t97 203.5t157.5 166t220.5 112t279.5 41q156 0 287.5 -43t222 -116t154.5 -169.5t93.5 -202.5t29.5 -216q0 -116 -32 -225t-97 -204t-157.5 -166t-221 -112t-279.5 -41q-156 0 -287.5 43.5t-222 116t-154 169.5t-93 203t-29.5 216zM309 750 q0 -268 152.5 -440.5t394.5 -172.5q102 0 198.5 33.5t177.5 98t130 172t49 243.5q0 268 -152.5 440t-394.5 172q-81 0 -159 -20t-150 -64t-126.5 -106.5t-87 -154.5t-32.5 -201z" />
<glyph unicode="P" horiz-adv-x="1146" d="M88 0q33 24 53.5 49t28.5 54t10 49t2 53v1024q0 30 -2 48.5t-9.5 49t-28.5 57.5t-54 50h508q28 0 48 -0.5t61.5 -4t73.5 -10t75.5 -19.5t76.5 -31.5t67.5 -48t56.5 -65.5t36.5 -87.5t14.5 -112.5q0 -98 -40 -178t-106 -129.5t-147.5 -76t-169.5 -26.5q-76 0 -174 27 q53 2 105 13t106.5 36t95.5 62.5t67.5 97t26.5 133.5q0 126 -81 197t-226 71q-80 0 -172 -20v-1024q0 -178 127 -238h-430z" />
<glyph unicode="Q" horiz-adv-x="1720" d="M74 717q0 116 31.5 224.5t97 203.5t157.5 166t220.5 112t279.5 41q156 0 287.5 -43t222 -116t154.5 -169.5t93.5 -202.5t29.5 -216q0 -207 -101 -383t-286 -271q100 -100 199.5 -172.5t172 -108.5t144.5 -56t110 -24q25 -2 50 -2q14 0 28 1q-122 -109 -274 -109 q-84 0 -186 40.5t-202 107.5t-171 122.5t-140 117.5q-79 -11 -131 -11q-221 0 -399.5 92t-282.5 263.5t-104 392.5zM309 750q0 -268 152.5 -440.5t394.5 -172.5q102 0 198.5 33.5t177.5 98t130 172t49 243.5q0 268 -152.5 440t-394.5 172q-81 0 -159 -20t-150 -64 t-126.5 -106.5t-87 -154.5t-32.5 -201z" />
<glyph unicode="R" horiz-adv-x="1150" d="M88 0q33 23 54 50t28.5 57.5t9.5 49t2 48.5v1024q0 30 -2 48.5t-9.5 49t-28.5 57.5t-54 50q90 0 270 4q118 4 179 4q133 0 232 -29t151 -69t83.5 -95.5t39.5 -96.5t8 -83q0 -130 -96.5 -232.5t-258.5 -129.5q140 -221 330.5 -435t329.5 -272q-172 -12 -221 -12 q-67 0 -149.5 57t-156 140t-150 192t-130 198t-98.5 173q60 6 119.5 25.5t116.5 54t92.5 92.5t35.5 131q0 32 -5.5 60.5t-23.5 63t-48 58.5t-84 40.5t-126 16.5q-82 0 -137 -14v-1071q0 -30 2 -48.5t9.5 -49t28.5 -57.5t54 -50h-397z" />
<glyph unicode="S" horiz-adv-x="1046" d="M10 301q193 -168 463 -168q153 0 243.5 58.5t90.5 160.5q0 24 -5.5 47t-12.5 40.5t-23.5 36.5t-27.5 31.5t-37 29.5t-39.5 26t-47 25.5t-48 23t-53 24t-52.5 23.5q-69 31 -112 53t-96 53t-84.5 61t-60.5 68.5t-42 85t-13 101.5q0 57 14.5 108t52.5 102.5t96.5 88.5 t154.5 60.5t219 23.5q176 0 330 -45v-239q-160 133 -351 133q-66 0 -117.5 -14.5t-81 -36t-49 -50.5t-26 -54.5t-6.5 -51.5q0 -37 15 -67.5t38.5 -55t74 -54t98.5 -52.5t134 -62q61 -27 98.5 -45t83.5 -44t73 -47t55.5 -50.5t43 -61t24 -71t9.5 -86.5q0 -90 -31 -164 t-85 -125t-127.5 -85.5t-156.5 -50.5t-175 -16q-208 0 -391 62z" />
<glyph unicode="T" horiz-adv-x="1007" d="M-61 1186l81 256q49 -8 132 -8h792q51 0 125 8l-72 -240q-14 25 -33.5 40.5t-45 21t-41.5 7t-43 1.5l-230 -2v-1065q0 -30 2 -48.5t9.5 -49t28.5 -57.5t54 -50h-397q33 23 54 50t28.5 57.5t9.5 49t2 48.5v1065l-243 2q-129 0 -213 -86z" />
<glyph unicode="U" horiz-adv-x="1495" d="M82 1434h397q-33 -23 -54 -50t-28.5 -57.5t-9.5 -49t-2 -48.5v-731q0 -30 1 -51t7.5 -62t18.5 -70t37.5 -65t60.5 -59t91 -38.5t126 -15.5q172 0 274.5 88t102.5 246v758q0 30 -2 48.5t-9.5 49t-28.5 57.5t-54 50h397q-33 -23 -54 -50t-28.5 -57.5t-9.5 -49t-2 -48.5 v-1024q0 -30 2 -48.5t9.5 -49t28.5 -57.5t54 -50h-297v137q-161 -168 -416 -168q-98 0 -177.5 19t-132.5 49.5t-92.5 75t-61 88t-34.5 96t-16.5 92t-3.5 82.5v758q0 30 -2 48.5t-9.5 49t-28.5 57.5t-54 50z" />
<glyph unicode="V" horiz-adv-x="1212" d="M-82 1434h320q3 -75 26 -138l375 -1026l317 820q56 143 56 210q0 36 -20 74t-56 60h338l-598 -1491q-71 40 -117 74t-70.5 65.5t-35.5 53t-23 55.5q-3 8 -4 12l-391 1054q-18 52 -43 93t-74 84z" />
<glyph unicode="W" horiz-adv-x="1927" d="M-82 1434h307q0 -56 21 -127l327 -1063l295 915q23 75 23 133q0 94 -72 142h281q-2 -22 -2 -43q0 -74 22 -140l320 -1013l289 890q28 83 28 144q0 53 -25.5 96t-72.5 66h330l-500 -1491q-73 40 -122.5 79t-78 82.5t-41 72t-28.5 79.5l-244 782l-350 -1095 q-124 73 -183.5 146.5t-89.5 170.5l-303 969q-44 142 -131 205z" />
<glyph unicode="X" horiz-adv-x="1323" d="M-82 0q74 76 150 172l467 594l-359 518q-77 111 -162 150l174 6q15 1 39 2q21 1 38 1q45 0 60 -6q22 -10 54 -55q5 -7 17 -24q10 -15 16 -23l278 -403l238 317q43 57 43 99q0 63 -80 86h393l-502 -637l422 -613q91 -130 201 -184h-340q-42 42 -94 121l-336 508l-313 -414 q-56 -72 -56 -113q0 -34 23.5 -61t60.5 -41h-432z" />
<glyph unicode="Y" horiz-adv-x="1169" d="M-82 1434l266 4q32 0 60 -11l391 -618l283 438q28 47 28 82q0 33 -20.5 61.5t-48.5 43.5h354l-529 -793v-436q0 -29 2 -48t10 -49.5t29 -57.5t54 -50h-398q33 23 54 50t29 57.5t10 49.5t2 48v438l-422 651q-64 100 -154 140z" />
<glyph unicode="Z" horiz-adv-x="1247" d="M10 0l781 1260q-176 22 -332 22q-114 0 -196 -19.5t-165 -78.5l105 250h954l-774 -1252q295 -18 403 -18q304 0 482 110l-111 -274h-1147z" />
<glyph unicode="[" horiz-adv-x="702" d="M164 -526q33 23 54 50t28.5 57t9.5 48.5t2 48.5v1616q0 30 -2 48.5t-9.5 49t-28.5 57.5t-54 50h538v-123h-260v-1779h260v-123h-538z" />
<glyph unicode="\" horiz-adv-x="782" d="M10 1464h131l662 -1743h-131z" />
<glyph unicode="]" horiz-adv-x="702" d="M0 -403h260v1779h-260v123h539q-33 -23 -54 -50t-29 -57.5t-10 -49.5t-2 -48v-1616q0 -29 2 -48t10 -49t29 -57t54 -50h-539v123z" />
<glyph unicode="^" horiz-adv-x="999" d="M61 887l439 590l438 -590h-137l-301 405l-301 -405h-138z" />
<glyph unicode="_" horiz-adv-x="1165" d="M0 -457h1165v-96h-1165v96z" />
<glyph unicode="`" horiz-adv-x="616" d="M0 1296l111 158l505 -321l-6 -7z" />
<glyph unicode="a" horiz-adv-x="1003" d="M35 293q0 63 22 111.5t53 77t81.5 51t90 33t95.5 23.5q4 1 6 1q155 36 195 53q72 31 80 88q1 9 1 19q0 61 -48.5 95t-139.5 34q-161 0 -297 -76l129 213q103 18 186 18q70 0 127.5 -13t95.5 -33t66.5 -50.5t44 -60t25 -67t12 -66.5t2.5 -62v-399q0 -82 38.5 -112.5 t109.5 -33.5h39l-99 -137h-30q-252 0 -252 229v322q-18 -13 -35 -21.5t-41 -16t-37 -11.5t-50 -12.5t-54 -12.5q-36 -9 -58 -15.5t-53.5 -21.5t-50 -32.5t-32 -46t-13.5 -64.5q0 -17 3 -35.5t16 -44t33.5 -45t61 -33.5t93.5 -14q87 0 178 27l-131 -164q-68 -19 -131 -19 q-148 0 -240 90.5t-92 233.5z" />
<glyph unicode="b" horiz-adv-x="1185" d="M57 1434h158q64 0 109 32v-1316q119 -25 204 -25q181 0 285.5 101.5t104.5 275.5q0 168 -90.5 272.5t-237.5 104.5q-105 0 -209 -52l94 152q15 26 52 40.5t128 14.5q214 0 344.5 -137t130.5 -362q0 -90 -20.5 -166.5t-53 -130.5t-80 -98t-94.5 -71.5t-103.5 -47.5 t-99.5 -29.5t-91 -15t-69.5 -6.5t-41.5 -1q-176 0 -414 35q66 51 66 139v1147q0 94 -72 144z" />
<glyph unicode="c" horiz-adv-x="1040" d="M55 494q0 224 154 378q93 93 206 127.5t257 34.5q49 0 75 -2.5t35.5 -5.5t43 -9t87.5 -11v-226q-121 99 -272 99q-71 0 -136 -21.5t-119 -63.5t-86 -112.5t-32 -159.5q0 -178 117 -287.5t328 -109.5q212 0 338 94q-32 -60 -54 -97t-49 -67.5t-49.5 -45t-59.5 -25 t-75.5 -13t-99.5 -2.5q-65 0 -116.5 5t-116.5 20.5t-125.5 51t-112.5 89.5q-138 142 -138 359z" />
<glyph unicode="d" horiz-adv-x="1228" d="M55 500q0 116 40 216t108.5 169.5t162.5 109t201 39.5q193 0 342 -123v379q0 95 -71 144h157q64 0 109 32v-1323q0 -93 72 -143h-267v553q0 155 -89.5 240.5t-219.5 85.5q-140 0 -236 -99t-96 -258q0 -171 107 -284t266 -113q65 0 112.5 12.5t92.5 44.5l-90 -153 q-14 -23 -26 -34t-44.5 -18.5t-89.5 -7.5q-238 0 -389.5 152t-151.5 379z" />
<glyph unicode="e" horiz-adv-x="1142" d="M55 508q0 231 148 378.5t397 147.5q111 0 199.5 -32.5t143 -83.5t90.5 -120q35 -68 49 -136q12 -59 12 -118v-18h-826q-1 -12 -1 -23q-1 -69 21 -131q24 -72 76 -127.5t139 -87.5t199 -32q222 0 406 102l-135 -213q-143 -45 -314 -45q-275 0 -439.5 142t-164.5 397z M289 659h571q-9 100 -82 160t-188 60q-116 0 -197.5 -60t-103.5 -160z" />
<glyph unicode="f" horiz-adv-x="581" d="M16 850l115 143v119q0 164 128.5 258t328.5 94q76 0 147 -14l-143 -162q-52 27 -113 27q-43 0 -74 -13t-45.5 -29.5t-23 -41.5t-9.5 -38t-1 -30v-170h258q11 0 43 8v-186q-21 35 -82 35h-219v-707q0 -94 82 -143h-349q72 50 72 143v707h-115z" />
<glyph unicode="g" horiz-adv-x="1136" d="M-20 -197q0 78 59 127.5t160 49.5q55 0 112 -31q-42 -3 -66 -32t-24 -71q0 -85 89.5 -146.5t248.5 -61.5q193 0 291 66.5t98 166.5q0 38 -16 69.5t-54 60.5t-112 45.5t-178 16.5q-52 0 -126 -3t-97 -3q-68 0 -95.5 23t-48.5 72q-14 28 -14 51q0 39 51 65l121 60 q-133 22 -216 114t-83 226q0 155 130 260.5t355 105.5q19 0 40.5 -1t48 -2.5t40.5 -2.5q86 -6 172 -6q152 0 316 31l-47 -119q-6 -16 -10 -22.5t-15 -15.5t-28 -11t-47 -1.5t-74 5.5l-115 14q70 -38 115 -104t45 -160q0 -56 -17.5 -104t-43.5 -80t-63 -58.5t-69.5 -41 t-70.5 -25.5t-57.5 -14.5t-39.5 -6.5q-5 -1 -36.5 -5t-50 -8t-44 -11t-38.5 -18.5t-13 -26.5q0 -13 15.5 -27t45.5 -14h82q41 0 68 -0.5t77 -3.5t85.5 -8t84 -16t82.5 -26.5t70.5 -39.5t59 -54t37 -72t14.5 -92q0 -112 -82.5 -200.5t-222 -136.5t-308.5 -48 q-266 0 -428.5 86t-162.5 215zM293 698q0 -108 78 -185t192 -77q101 0 165.5 60t64.5 159q0 100 -78.5 171t-188.5 71q-102 0 -167.5 -56t-65.5 -143z" />
<glyph unicode="h" horiz-adv-x="1146" d="M57 0q72 50 72 143v1147q0 94 -72 144h158q64 0 109 32v-577q38 67 132 106t187 39q77 0 143.5 -18.5t120 -56.5t84.5 -101.5t31 -146.5v-568q0 -93 72 -143h-338q71 49 71 143v512q0 103 -67 163.5t-182 60.5q-52 0 -94 -11t-68 -27.5t-44.5 -41t-27.5 -44.5t-14 -46 t-5.5 -38t-0.5 -28v-500q0 -94 71 -143h-338z" />
<glyph unicode="i" horiz-adv-x="446" d="M61 0q72 50 72 143v707q0 93 -72 143h158q63 0 109 33v-883q0 -94 71 -143h-338zM88 1268q0 52 39 91.5t92 39.5t92 -39.5t39 -91.5t-39 -91.5t-92 -39.5t-92 39.5t-39 91.5z" />
<glyph unicode="j" horiz-adv-x="450" d="M-82 -428q72 36 119 85.5t68.5 108.5t28.5 109.5t7 116.5v858q0 94 -71 143h157q63 0 109 33v-1044v-29v-35t-1 -33t-3.5 -38t-7 -34t-11.5 -37t-16 -32q-46 -74 -155 -119t-224 -53zM96 1268q0 52 39 91.5t92 39.5t92 -39.5t39 -91.5t-39 -91.5t-92 -39.5t-92 39.5 t-39 91.5z" />
<glyph unicode="k" horiz-adv-x="1021" d="M57 0q72 50 72 143v1147q0 94 -72 144h158q64 0 109 32v-1323q0 -94 71 -143h-338zM365 555l204 223q28 30 57 76t29 72q0 36 -47 67h334l-371 -415q40 -35 78 -82l273 -342q78 -97 161 -154l-77 -2q-23 -1 -60.5 -2.5t-52.5 -1.5t-40 1t-37 6t-29.5 14t-31.5 23.5 t-30 35.5z" />
<glyph unicode="l" horiz-adv-x="452" d="M57 0q72 50 72 143v1147q0 94 -72 144h158q64 0 109 32v-1323q0 -94 71 -143h-338z" />
<glyph unicode="m" horiz-adv-x="1824" d="M61 0q72 50 72 143v707q0 93 -72 143h154q63 0 109 33v-160q98 168 307 168q245 0 340 -192q119 192 352 192q377 0 377 -411v-480q0 -93 72 -143h-338q71 49 71 143v430q0 45 -4 81.5t-18.5 80.5t-39 73.5t-70 50t-107.5 20.5q-50 0 -90 -11.5t-66 -29.5t-45 -45 t-28.5 -51.5t-15 -56.5t-6.5 -52.5t-1 -46.5v-443q0 -94 71 -143h-337q71 49 71 143v445q0 32 -2.5 59.5t-16 73.5t-37.5 78t-72.5 56t-115.5 24q-51 0 -91.5 -12.5t-66 -30.5t-44 -45t-27 -48.5t-13 -49t-5 -38.5t-0.5 -24v-488q0 -94 71 -143h-338z" />
<glyph unicode="n" horiz-adv-x="1150" d="M61 0q72 50 72 143v707q0 93 -72 143h158q63 0 109 33v-137q39 68 130.5 106.5t188.5 38.5q77 0 143.5 -18.5t120 -56.5t84.5 -101.5t31 -146.5v-568q0 -93 72 -143h-338q71 49 71 143v512q0 103 -67 163.5t-182 60.5q-52 0 -94 -11t-68 -27.5t-44.5 -41t-27.5 -44.5 t-14 -46t-5.5 -38t-0.5 -28v-500q0 -94 71 -143h-338z" />
<glyph unicode="o" horiz-adv-x="1249" d="M55 502q0 152 76.5 274t208.5 190t293 68q129 0 237 -44.5t177.5 -119.5t108 -170t38.5 -198q0 -114 -45 -214t-122.5 -169.5t-184.5 -109.5t-228 -40q-128 0 -235.5 45t-177 120t-108 170t-38.5 198zM268 502q0 -100 38.5 -183.5t122.5 -138.5t200 -55 q157 0 254.5 103.5t97.5 273.5q0 74 -22.5 140.5t-66 120t-113.5 85t-158 31.5q-157 0 -255 -103.5t-98 -273.5z" />
<glyph unicode="p" horiz-adv-x="1253" d="M57 -453q72 50 72 144v1159q0 93 -72 143h150q62 0 108 33v-162q138 170 367 170q128 0 228.5 -40.5t162 -110.5t93.5 -158t32 -188q0 -114 -33.5 -215t-97.5 -180.5t-167 -126t-232 -46.5q-76 0 -166 23l-125 182q109 -49 246 -49q20 0 38 1t57.5 8.5t71 21.5t70 43 t64 69t43.5 104t18 144q0 89 -28.5 158t-78 110.5t-110 62.5t-129.5 21q-138 0 -226.5 -71.5t-88.5 -218.5v-887q0 -95 82 -144h-349z" />
<glyph unicode="q" horiz-adv-x="1230" d="M55 494q0 108 40 204.5t114.5 172t192.5 119.5t264 44h512q-72 -50 -72 -143v-1200q0 -94 72 -144h-349q82 49 82 144v1151q-120 26 -237 26q-103 0 -183 -29.5t-127.5 -80.5t-71.5 -115.5t-24 -138.5q0 -59 13 -112t43.5 -102.5t76 -85.5t116 -57.5t157.5 -21.5 q99 0 176 33l-102 -148q-18 -26 -44.5 -33.5t-70.5 -7.5q-136 0 -242 36t-167.5 90.5t-101 127.5t-53.5 138.5t-14 132.5z" />
<glyph unicode="r" horiz-adv-x="645" d="M61 0q72 50 72 143v707q0 93 -72 143h150q62 0 106 33v-164q43 70 113.5 121t163.5 51q39 0 72 -8v-201q-47 33 -113 33q-43 0 -80 -13.5t-71 -44t-54 -91t-20 -144.5v-422q0 -94 82 -143h-349z" />
<glyph unicode="s" horiz-adv-x="880" d="M10 244q90 -58 195 -98t196 -40q123 0 189.5 42t66.5 106q0 28 -13.5 52.5t-30 40.5t-49.5 33.5t-54.5 26t-62.5 23.5t-56 21q-79 31 -126 54.5t-92.5 58t-66 78.5t-20.5 101q0 43 10 81t38 77.5t72 68t116.5 46.5t166.5 18q148 0 269 -37v-182q-140 82 -289 82 q-92 0 -136 -34t-44 -81q0 -24 13.5 -44.5t31 -35t57.5 -31.5t67.5 -27t86.5 -30q40 -13 58.5 -20t58.5 -24t61.5 -31t51.5 -38.5t45.5 -50t27.5 -62t12 -77.5q0 -43 -10 -85t-41 -90t-79.5 -83.5t-133.5 -59.5t-195 -24q-153 0 -313 60z" />
<glyph unicode="t" horiz-adv-x="630" d="M-4 850v74q72 9 124.5 44t79 77.5t40.5 96.5q16 55 18 94q1 22 1 42q0 17 -1 33h76v-318h229q32 0 68 8v-198q-32 47 -105 47h-192v-520q0 -54 14.5 -94.5t35.5 -63.5t51 -36.5t56.5 -18t55.5 -4.5q39 0 80 12l-119 -150q-34 -6 -66 -6q-143 0 -223 89t-80 237v555h-143z " />
<glyph unicode="u" horiz-adv-x="1134" d="M53 993h158q62 0 108 33v-635q0 -19 1 -34t6 -44t13.5 -52t27 -49.5t43 -44.5t64.5 -30t89 -12q112 0 182 70.5t70 183.5v471q0 93 -72 143h158q63 0 109 33v-883q0 -94 71 -143h-258v143q-105 -174 -327 -174q-164 0 -267.5 98t-103.5 265v518q0 93 -72 143z" />
<glyph unicode="v" horiz-adv-x="1003" d="M-82 993h193q66 0 110 35q3 -37 21 -82l301 -719l241 543q35 79 35 117q0 30 -17 59t-52 47h315l-487 -1050q-76 41 -120.5 79.5t-63 68t-42.5 85.5l-282 658q-42 101 -152 159z" />
<glyph unicode="w" horiz-adv-x="1576" d="M-82 993h154q65 0 96 31l297 -799l219 586q25 65 25 96q0 48 -56 86h277q-1 -9 -1 -19q0 -34 13 -75l240 -663l217 555q24 61 24 94q0 61 -65 108h280l-421 -1050q-95 44 -131.5 84.5t-63.5 115.5l-215 574l-293 -774q-50 19 -88.5 45.5t-62 57t-35.5 52t-23 49.5 l-287 725q-31 81 -100 121z" />
<glyph unicode="x" horiz-adv-x="1038" d="M-61 0l473 524l-234 305q-90 117 -176 164l123 4q51 2 70 3h10q16 0 36 -2q27 -3 31.5 -3t20.5 -12t18.5 -16t20.5 -27l213 -283l166 193q34 39 34 74q0 42 -53 69h352l-407 -456l305 -398q69 -90 158 -139l-246 -4q-54 0 -86 45l-262 358l-217 -245q-47 -59 -47 -88 q0 -36 45 -66h-348z" />
<glyph unicode="y" horiz-adv-x="966" d="M-164 -373l191 140q53 -39 123 -39q50 0 89.5 16.5t66 47.5t41 56t30.5 62l53 121q-71 66 -108 147l-302 668q-54 120 -137 147l178 6q16 0 37 1t29 1h19t15.5 -1t10.5 -3t12 -6l336 -758l219 533q31 82 31 129q0 71 -57 98h319l-485 -1108q-21 -47 -42 -85t-58.5 -83 t-81.5 -74.5t-109 -50t-141 -20.5q-148 0 -279 55z" />
<glyph unicode="z" horiz-adv-x="978" d="M-10 0l602 827q-124 15 -219 15q-196 0 -316 -78l113 229h772l-580 -819q144 -18 283 -18q240 0 375 80l-119 -236h-911z" />
<glyph unicode="{" horiz-adv-x="823" d="M143 438v82q52 3 89.5 24.5t57 50.5t31 72t14.5 76.5t3 75.5q0 47 -3 122t-3 151q0 100 26 175.5t63.5 115.5t88 64t90 30.5t80.5 5.5v-58q-37 -6 -65.5 -22.5t-44 -41.5t-25.5 -47t-13.5 -54t-4.5 -45.5t-1 -36.5q0 -113 2 -168q4 -126 4 -193q0 -300 -272 -332v-12 q272 -32 272 -332q0 -129 -3 -190t-3 -174q0 -229 154 -244v-57q-40 -2 -80 4t-90.5 30t-88 64.5t-63.5 116t-26 176.5q0 76 3 150.5t3 121.5q0 39 -2 69.5t-13 74.5t-30.5 74t-58 54t-91.5 27z" />
<glyph unicode="|" horiz-adv-x="276" d="M61 -553v2136h154v-2136h-154z" />
<glyph unicode="}" horiz-adv-x="823" d="M143 -467q32 5 57.5 19t41.5 30.5t27 41.5t16.5 43.5t8 45.5t3 38t0.5 30q0 113 -2 168q-4 126 -4 192q0 300 272 332v12q-272 32 -272 332q0 127 3 189.5t3 175.5q0 228 -154 243v58q40 2 80.5 -4t91 -30t88 -64.5t63.5 -116t26 -176.5q0 -76 -3.5 -151t-3.5 -122 q0 -39 2 -69.5t13 -74.5t30.5 -74t58 -54t91.5 -27v-82q-52 -3 -89.5 -24.5t-57 -50.5t-31 -72t-14.5 -76.5t-3 -75.5q0 -47 3.5 -121.5t3.5 -150.5q0 -73 -13.5 -132.5t-35.5 -99.5t-53 -70t-62 -47t-66.5 -27t-63 -12.5t-55.5 -2.5v57z" />
<glyph unicode="~" horiz-adv-x="1249" d="M127 1194q65 117 139 172t176 55q27 0 52.5 -3t50 -10t41.5 -12.5t41 -18t34.5 -18t34.5 -19.5t29 -17q83 -49 156 -49q99 0 174 160l69 -33q-40 -74 -78 -123t-74.5 -72.5t-66.5 -32t-67 -8.5q-50 0 -97.5 13.5t-75 27t-96.5 51.5q-46 24 -65 33t-49 18t-60 9 q-50 0 -97 -32.5t-101 -125.5z" />
<glyph unicode="&#xa9;" horiz-adv-x="1695" d="M102 717q0 151 59.5 289t159.5 238t238 159t289 59t289 -59t238 -159t159 -238t59 -289t-59 -289t-159 -238t-238 -159.5t-289 -59.5t-289 59.5t-238 159.5t-159.5 238t-59.5 289zM205 717q0 -180 86.5 -333t234.5 -242t322 -89t322 89t234.5 242t86.5 333t-86.5 333 t-234.5 241.5t-322 88.5t-322 -88.5t-234.5 -241.5t-86.5 -333zM406 715q0 145 67.5 253t180.5 163t255 55q63 0 123 -15.5t105 -21.5v-154q-122 82 -252 82q-41 0 -83 -9t-87.5 -32.5t-80.5 -59t-58 -95t-23 -133.5q0 -173 100 -277t260 -104q182 0 299 92l-86 -170 q-102 -31 -221 -31q-232 0 -365.5 124t-133.5 333z" />
<glyph unicode="&#xab;" horiz-adv-x="753" d="M82 539l240 370h71l-135 -370l135 -371h-71zM360 539l238 370h74l-137 -370l137 -371h-74z" />
<glyph unicode="&#xad;" horiz-adv-x="870" d="M82 461l119 164q16 22 49 22h538l-118 -164q-16 -22 -49 -22h-539z" />
<glyph unicode="&#xae;" horiz-adv-x="1695" d="M102 717q0 151 59.5 289t159.5 238t238 159t289 59t289 -59t238 -159t159 -238t59 -289t-59 -289t-159 -238t-238 -159.5t-289 -59.5t-289 59.5t-238 159.5t-159.5 238t-59.5 289zM205 717q0 -180 86.5 -333t234.5 -242t322 -89q260 0 455 195l2 2q-71 -10 -137 15 t-113 63.5t-102.5 116.5t-87 133.5t-83.5 154.5q39 3 78 15.5t74.5 35t57.5 59.5t22 83q0 42 -16 73t-37 46t-50.5 23t-45.5 9.5t-34 1.5q-55 0 -88 -10v-684q0 -29 2.5 -45.5t16.5 -40.5t43 -45h-254q27 20 41 45.5t16 41.5t2 44v655q0 28 -2 44t-16 41.5t-41 45.5 q142 5 172 5h115q331 -7 331 -238q0 -80 -60 -146.5t-169 -84.5q80 -122 195 -259.5t190 -175.5q166 190 166 445q0 180 -86.5 333t-234.5 241.5t-322 88.5t-322 -88.5t-234.5 -241.5t-86.5 -333z" />
<glyph unicode="&#xbb;" horiz-adv-x="753" d="M82 168l137 371l-137 370h74l237 -370l-237 -371h-74zM360 168l136 371l-136 370h72l240 -370l-240 -371h-72z" />
<glyph unicode="&#x401;" horiz-adv-x="1054" d="M88 0q33 23 54 50.5t28.5 58.5t9.5 49t2 47v1024q0 29 -2 47t-9.5 49t-28.5 58.5t-54 50.5h795v-236q-32 37 -81 56t-134 18l-277 -6v-410h295q40 0 74 6v-223q-53 53 -156 53h-213v-514q146 -14 266 -14q161 0 258.5 30.5t169.5 94.5l-104 -289h-893zM174 1657 q0 59 40 99t99 40t99.5 -40.5t40.5 -98.5t-40.5 -98.5t-99.5 -40.5t-99 40t-40 99zM602 1657q0 59 40 99t99 40t99.5 -40.5t40.5 -98.5t-40.5 -98.5t-99.5 -40.5t-99 40t-40 99z" />
<glyph unicode="&#x402;" horiz-adv-x="1492" d="M-61 1186l81 256q49 -8 132 -8h792q51 0 125 8l-72 -240q-14 25 -33.5 40.5t-45 21t-41.5 7t-43 1.5l-261 -2v-412q211 84 396 84q76 0 141.5 -19t126 -65t103 -117t67.5 -182.5t25 -253.5q0 -140 -18 -252.5t-58.5 -207.5t-105 -161.5t-159.5 -109t-219 -55.5 q80 61 140.5 141.5t94.5 159t55 169.5t27.5 162t6.5 146q0 112 -15 196t-41.5 137.5t-67 86t-86 45t-103.5 12.5q-144 0 -310 -74v-495q0 -29 2 -48t10 -49.5t29 -57.5t54 -50h-398q33 23 54 50t29 57.5t10 49.5t2 48v1065l-213 2q-129 0 -213 -86z" />
<glyph unicode="&#x403;" horiz-adv-x="937" d="M88 0q33 23 54 50.5t28.5 58.5t9.5 49t2 47v1024q0 29 -2 47t-9.5 49t-28.5 58.5t-54 50.5h803q39 0 74 6v-254q-39 52 -101 68t-192 16q-17 0 -281 -8v-1057q0 -29 2.5 -50t12 -50.5t32.5 -56t58 -48.5h-408zM266 1544l525 334l124 -178l-628 -176z" />
<glyph unicode="&#x404;" horiz-adv-x="1363" d="M74 707q0 120 32 230.5t98.5 206.5t161.5 167t228.5 112t292.5 41q90 0 129.5 -7t92.5 -22t140 -26v-250q-199 137 -405 137q-212 0 -358 -121.5t-177 -318.5h547q40 0 74 6v-223q-53 53 -156 53h-465q7 -117 48.5 -217.5t114 -176t181 -118.5t240.5 -43q295 0 481 158 l-139 -275q-156 -51 -356 -51q-149 0 -273 32.5t-210 89.5t-150 129t-100.5 157t-54 166.5t-17.5 163.5z" />
<glyph unicode="&#x405;" horiz-adv-x="1046" d="M10 301q193 -168 463 -168q153 0 243.5 58.5t90.5 160.5q0 24 -5.5 47t-12.5 40.5t-23.5 36.5t-27.5 31.5t-37 29.5t-39.5 26t-47 25.5t-48 23t-53 24t-52.5 23.5q-69 31 -112 53t-96 53t-84.5 61t-60.5 68.5t-42 85t-13 101.5q0 57 14.5 108t52.5 102.5t96.5 88.5 t154.5 60.5t219 23.5q176 0 330 -45v-239q-160 133 -351 133q-66 0 -117.5 -14.5t-81 -36t-49 -50.5t-26 -54.5t-6.5 -51.5q0 -37 15 -67.5t38.5 -55t74 -54t98.5 -52.5t134 -62q61 -27 98.5 -45t83.5 -44t73 -47t55.5 -50.5t43 -61t24 -71t9.5 -86.5q0 -90 -31 -164 t-85 -125t-127.5 -85.5t-156.5 -50.5t-175 -16q-208 0 -391 62z" />
<glyph unicode="&#x406;" horiz-adv-x="573" d="M88 0q33 23 54 50t28.5 57.5t9.5 49t2 48.5v1024q0 30 -2 48.5t-9.5 49t-28.5 57.5t-54 50h397q-33 -23 -54 -50t-28.5 -57.5t-9.5 -49t-2 -48.5v-1024q0 -30 2 -48.5t9.5 -49t28.5 -57.5t54 -50h-397z" />
<glyph unicode="&#x407;" horiz-adv-x="706" d="M0 1657q0 59 40 99t99 40t99.5 -40.5t40.5 -98.5t-40.5 -98.5t-99.5 -40.5t-99 40t-40 99zM156 0q33 23 54 50t28.5 57.5t9.5 49t2 48.5v1024q0 30 -2 48.5t-9.5 49t-28.5 57.5t-54 50h397q-33 -23 -54 -50t-28.5 -57.5t-9.5 -49t-2 -48.5v-1024q0 -30 2 -48.5t9.5 -49 t28.5 -57.5t54 -50h-397zM428 1657q0 59 40 99t99 40t99.5 -40.5t40.5 -98.5t-40.5 -98.5t-99.5 -40.5t-99 40t-40 99z" />
<glyph unicode="&#x408;" horiz-adv-x="573" d="M-72 -481q65 38 112 81.5t75 85.5t45 92t22.5 95.5t5.5 101.5v1254q0 145 -108 205h412q-33 -23 -54 -50t-29 -57.5t-10 -49.5t-2 -48v-1262v-18q0 -56 -1.5 -85.5t-13 -73t-34.5 -77.5q-55 -81 -182 -133t-238 -61z" />
<glyph unicode="&#x409;" horiz-adv-x="1943" d="M-41 217q28 -23 63.5 -38t61.5 -15q36 0 69 26t64.5 91.5t54 166.5t36.5 261.5t14 365.5q0 75 -5.5 126.5t-21 101t-47 81.5t-80.5 50h1046q-34 -24 -54.5 -50t-29 -55t-10.5 -48.5t-2 -51.5v-342q238 14 268 14q250 0 388.5 -113t138.5 -321q0 -94 -27.5 -169.5 t-69 -123t-102 -82.5t-112.5 -52t-117 -27t-99 -11.5t-73 -1.5h-498q33 23 54 50t28.5 57.5t9.5 49t2 48.5v1065h-415l4 -197q23 -1104 -422 -1104q-40 0 -92 19zM1118 170q103 -18 213 -18q85 0 149.5 21.5t101 53.5t59 76t29.5 81.5t7 78.5q0 282 -385 282q-74 0 -174 -14 v-561z" />
<glyph unicode="&#x40a;" horiz-adv-x="2213" d="M88 0q33 24 53.5 49t28.5 54t10 49t2 53v1024q0 33 -2 53t-10 49t-28.5 54t-53.5 49h397q-33 -24 -53.5 -49t-28.5 -54t-10 -49t-2 -53v-361h789v361q0 32 -2 52.5t-10.5 49.5t-29 54t-53.5 49h398q-33 -24 -53.5 -49t-28.5 -54t-10 -49t-2 -53v-342q238 14 268 14 q250 0 388 -113t138 -321q0 -94 -27.5 -169.5t-69 -123t-102 -82.5t-112.5 -52t-117 -27t-99 -11.5t-73 -1.5h-498q33 23 54 50t29 57.5t10 49.5t2 48v500h-789v-500q0 -33 2 -53t10 -49t28.5 -54t53.5 -49h-397zM1389 170q103 -18 213 -18q85 0 149.5 21.5t101 53.5t59 76 t29.5 81.5t7 78.5q0 282 -385 282q-74 0 -174 -14v-561z" />
<glyph unicode="&#x40b;" horiz-adv-x="1511" d="M-61 1186l81 256q49 -8 132 -8h792q51 0 125 8l-72 -240q-14 25 -33.5 40.5t-45 21t-41.5 7t-43 1.5l-261 -2v-412q236 84 426 84q81 0 147.5 -15t111 -39t78 -58.5t52.5 -69t30 -75.5t14.5 -72.5t3.5 -65.5v-342q0 -25 1 -40t7 -40.5t17.5 -44t34.5 -40.5t56 -40h-444 q41 22 67.5 48t36.5 56.5t12.5 50.5t2.5 50v276q0 31 -2 55.5t-9.5 56t-20.5 55.5t-36.5 49t-56 41t-81 26t-108.5 10q-162 0 -340 -74v-495q0 -29 2 -48t10 -49.5t29 -57.5t54 -50h-398q33 23 54 50t29 57.5t10 49.5t2 48v1065l-213 2q-129 0 -213 -86z" />
<glyph unicode="&#x40c;" horiz-adv-x="1198" d="M88 0q33 23 54 50t28.5 57.5t9.5 49t2 48.5v1024q0 30 -2 48.5t-9.5 49t-28.5 57.5t-54 50h397q-33 -23 -54 -50t-28.5 -57.5t-9.5 -49t-2 -48.5v-1024q0 -30 2 -48.5t9.5 -49t28.5 -57.5t54 -50h-397zM336 1544l524 334l125 -178l-629 -176zM432 743l320 431 q46 62 65 96t19 63q0 34 -22 60.5t-52 40.5h393l-498 -646l236 -311q154 -206 249 -305.5t220 -171.5l-219 -10q-55 -3 -100.5 12t-90 57.5t-68 71.5t-73.5 98q-3 4 -5 6.5t-4.5 6t-4.5 6.5z" />
<glyph unicode="&#x40e;" horiz-adv-x="1206" d="M-41 1434h332l399 -856l275 622q28 58 28 133q0 71 -59 101h313l-514 -1143q-43 -97 -97.5 -162t-114 -95.5t-111.5 -42t-113 -11.5q-129 0 -221 55l137 153q45 -36 113 -36q86 0 146.5 49t92.5 116l39 80q-39 28 -67.5 58t-38.5 47t-29 52q-4 7 -6 11l-361 717 q-59 118 -143 152zM338 1821h180q-41 -60 6 -113t125 -53t125 53t6 113h181q5 -123 -83.5 -207t-228.5 -84q-139 0 -227.5 84t-83.5 207z" />
<glyph unicode="&#x40f;" horiz-adv-x="1488" d="M88 0q33 24 53.5 49t28.5 54t10 49t2 53v1024q0 33 -2 53t-10 49t-28.5 54t-53.5 49h397q-33 -24 -53.5 -49t-28.5 -54t-10 -49t-2 -53v-1065h707v1065q0 33 -2 53t-10 49t-28.5 54t-53.5 49h397q-33 -24 -53.5 -49t-28.5 -54t-10 -49t-2 -53v-1024q0 -33 2 -53t10 -49 t28.5 -54t53.5 -49h-551v-215q0 -33 2 -53t10 -49t28.5 -54t53.5 -49h-397q33 24 53.5 49t28.5 54t10 49t2 53v215h-553z" />
<glyph unicode="&#x410;" horiz-adv-x="1347" d="M-102 0q72 47 110.5 107.5t75.5 152.5l410 1036q5 12 7.5 25.5t3 35.5t-14.5 42.5t-44 34.5h336l494 -1223q30 -73 68 -124t106 -87h-440q34 15 52.5 35.5t21 44t-1 41t-11.5 39.5l-156 385h-550l-129 -322q-17 -43 -22.5 -76t10.5 -74t61 -73h-387zM418 682h444 l-223 565z" />
<glyph unicode="&#x411;" horiz-adv-x="1216" d="M88 0q33 23 54 50t28.5 57.5t9.5 49t2 48.5v1024q0 30 -2 48.5t-9.5 49t-28.5 57.5t-54 50h875q39 0 73 6v-242q-29 32 -69 48.5t-70.5 20t-75.5 3.5h-430v-404q255 15 268 15q250 0 388.5 -111t138.5 -313q0 -91 -27.5 -164.5t-69 -120.5t-102 -81t-113 -51t-116.5 -27 t-99 -11.5t-73 -1.5h-498zM391 170q99 -18 213 -18q85 0 149.5 21.5t101 53t59 75.5t29.5 81.5t7 77.5q0 268 -385 268q-51 0 -174 -10v-549z" />
<glyph unicode="&#x412;" horiz-adv-x="1212" d="M88 0q33 23 54 50t28.5 57.5t9.5 49t2 48.5v1024q0 30 -2 48.5t-9.5 49t-28.5 57.5t-54 50l551 10q183 3 297.5 -85t114.5 -237q0 -64 -22 -117t-58.5 -87t-69 -54t-67.5 -33q156 -18 254 -122t98 -263q0 -42 -7 -82t-25 -85.5t-46.5 -84.5t-75.5 -75.5t-108 -62 t-147.5 -41t-190.5 -15.5h-498zM391 170q124 -18 213 -18t155.5 21.5t102 51.5t56.5 71.5t26.5 72t5.5 63.5q0 39 -9.5 76.5t-36 79t-68 71.5t-112.5 50t-163 20q-57 0 -170 -8v-551zM391 862l113 -2q152 -3 232.5 65t80.5 165q0 88 -66 145t-198 57q-68 0 -162 -12v-418z " />
<glyph unicode="&#x413;" horiz-adv-x="937" d="M88 0q33 23 54 50.5t28.5 58.5t9.5 49t2 47v1024q0 29 -2 47t-9.5 49t-28.5 58.5t-54 50.5h803q39 0 74 6v-254q-39 52 -101 68t-192 16q-17 0 -281 -8v-1057q0 -29 2.5 -50t12 -50.5t32.5 -56t58 -48.5h-408z" />
<glyph unicode="&#x414;" horiz-adv-x="1355" d="M-72 164h168q258 410 258 979q0 47 -4 82.5t-16.5 77t-41 74.5t-71.5 57h1043q-33 -23 -54 -50t-29 -57.5t-10 -49.5t-2 -48v-1065h197v-492l-123 -47q-1 23 1 66t-8.5 96.5t-27.5 100.5t-56.5 79.5t-94.5 32.5h-819q-46 0 -81.5 -23t-54.5 -58.5t-32 -79.5t-15.5 -85.5 t-4.5 -76.5t1 -52l-123 47v492zM301 164h660v1106h-426q1 -381 -62 -642t-172 -464z" />
<glyph unicode="&#x415;" horiz-adv-x="1054" d="M88 0q33 23 54 50.5t28.5 58.5t9.5 49t2 47v1024q0 29 -2 47t-9.5 49t-28.5 58.5t-54 50.5h795v-236q-32 37 -81 56t-134 18l-277 -6v-410h295q40 0 74 6v-223q-53 53 -156 53h-213v-514q146 -14 266 -14q161 0 258.5 30.5t169.5 94.5l-104 -289h-893z" />
<glyph unicode="&#x416;" horiz-adv-x="1822" d="M-164 0q104 60 178.5 131.5t165.5 185.5q26 33 125 160l236 311l-498 646h393q-30 -14 -52 -40.5t-22 -60.5q0 -29 19 -63t65 -96l320 -431l-365 -495q-88 -122 -125 -160q-97 -102 -215 -98h-6zM713 0q33 23 54 50t28.5 57.5t9.5 49t2 48.5v1024q0 30 -2 48.5t-9.5 49 t-28.5 57.5t-54 50h397q-33 -23 -54 -50t-28.5 -57.5t-9.5 -49t-2 -48.5v-1024q0 -30 2 -48.5t9.5 -49t28.5 -57.5t54 -50h-397zM1057 743l319 431q46 62 65 96t19 63q0 34 -22 60.5t-52 40.5h394l-498 -646l236 -311q119 -154 124 -160q90 -113 165.5 -185t179.5 -132 l-220 -10q-55 -3 -100.5 12t-90 57.5t-68 71.5t-73.5 98q-3 4 -5 6.5t-4.5 6t-4.5 6.5z" />
<glyph unicode="&#x417;" horiz-adv-x="1150" d="M0 334q111 -115 222.5 -156t226.5 -41q193 0 304 76.5t111 214.5q0 130 -94.5 202t-255.5 72q-128 0 -203 -36v213q81 -17 150 -17q81 0 143 15t97.5 38t57.5 55t29 60.5t7 59.5q0 98 -70 152t-199 54q-225 0 -430 -122l31 258q106 5 196.5 18.5t200.5 13.5q33 0 59.5 -1 t82.5 -7.5t99 -19t95.5 -38t87 -61t58.5 -92t24 -127.5q0 -65 -22 -118.5t-52.5 -85.5t-71.5 -56.5t-71 -34.5t-59 -16v-6q66 0 127 -22.5t110.5 -64.5t79 -111.5t29.5 -156.5q0 -103 -36 -185t-96 -136t-143.5 -89.5t-174 -51t-191.5 -15.5q-122 0 -215.5 19t-188.5 67z " />
<glyph unicode="&#x418;" horiz-adv-x="1570" d="M88 0q33 24 53.5 49t28.5 54t10 49t2 53v1024q0 33 -2 53t-10 49t-28.5 54t-53.5 49h397q-33 -24 -53.5 -49t-28.5 -54t-10 -49t-2 -53v-961l729 1086q36 53 72 80h291q-33 -24 -53.5 -49t-28.5 -54t-10 -49t-2 -53v-1024q0 -33 2 -53t10 -49t28.5 -54t53.5 -49h-398 q33 24 53.5 49t29 54t10.5 49.5t2 52.5v960l-729 -1085q-36 -53 -72 -80h-291z" />
<glyph unicode="&#x419;" horiz-adv-x="1570" d="M88 0q33 24 53.5 49t28.5 54t10 49t2 53v1024q0 33 -2 53t-10 49t-28.5 54t-53.5 49h397q-33 -24 -53.5 -49t-28.5 -54t-10 -49t-2 -53v-961l729 1086q36 53 72 80h291q-33 -24 -53.5 -49t-28.5 -54t-10 -49t-2 -53v-1024q0 -33 2 -53t10 -49t28.5 -54t53.5 -49h-398 q33 24 53.5 49t29 54t10.5 49.5t2 52.5v960l-729 -1085q-36 -53 -72 -80h-291zM479 1821h180q-43 -63 5 -114.5t122 -51.5t122 51.5t5 114.5h181q5 -122 -83.5 -206.5t-224.5 -84.5t-224 84.5t-83 206.5z" />
<glyph unicode="&#x41a;" horiz-adv-x="1198" d="M88 0q33 23 54 50t28.5 57.5t9.5 49t2 48.5v1024q0 30 -2 48.5t-9.5 49t-28.5 57.5t-54 50h397q-33 -23 -54 -50t-28.5 -57.5t-9.5 -49t-2 -48.5v-1024q0 -30 2 -48.5t9.5 -49t28.5 -57.5t54 -50h-397zM432 743l320 431q46 62 65 96t19 63q0 34 -22 60.5t-52 40.5h393 l-498 -646l236 -311q154 -206 249 -305.5t220 -171.5l-219 -10q-55 -3 -100.5 12t-90 57.5t-68 71.5t-73.5 98q-3 4 -5 6.5t-4.5 6t-4.5 6.5z" />
<glyph unicode="&#x41b;" horiz-adv-x="1304" d="M-41 223q59 -59 127 -59q57 0 100.5 55.5t69 141t41.5 204t21.5 228t5.5 229.5q0 75 -2 123t-10.5 101t-24.5 86t-44 60.5t-69 41.5h1043q-27 -20 -46 -42t-29 -40t-15 -42.5t-6 -40t-1 -40.5v-1024q0 -30 2 -48.5t9.5 -49t28.5 -57.5t54 -50h-397q33 23 54 50t28.5 57.5 t9.5 49t2 48.5v1065h-411v-226q0 -123 -3 -222t-14 -214t-28.5 -203t-49 -173t-74 -140.5t-105 -89t-140.5 -33.5q-45 0 -100 19z" />
<glyph unicode="&#x41c;" horiz-adv-x="1884" d="M-16 0q89 83 110 233l144 988q0 4 3.5 25.5t3.5 25.5t2 22.5t1 23.5t-2.5 20.5t-5.5 22t-9.5 18.5t-13.5 19.5t-19.5 17.5t-25.5 18h365l413 -1072l385 928q29 68 43 144h355q-84 -54 -66 -207l133 -1045q8 -59 28.5 -103.5t72.5 -78.5h-398q44 30 64 71.5t17.5 82.5 t-5.5 88q-1 9 -2 14l-109 963l-505 -1239l-58 49q-61 53 -108 172l-402 1013l-137 -974q-4 -29 -5 -38.5t-3 -36t0 -39t7.5 -34.5t15.5 -35.5t27 -29t40 -27.5h-356z" />
<glyph unicode="&#x41d;" horiz-adv-x="1570" d="M88 0q33 24 53.5 49t28.5 54t10 49t2 53v1024q0 33 -2 53t-10 49t-28.5 54t-53.5 49h397q-33 -24 -53.5 -49t-28.5 -54t-10 -49t-2 -53v-361h789v361q0 32 -2 52.5t-10.5 49.5t-29 54t-53.5 49h398q-33 -24 -53.5 -49t-28.5 -54t-10 -49t-2 -53v-1024q0 -33 2 -53t10 -49 t28.5 -54t53.5 -49h-398q33 24 53.5 49t29 54t10.5 49.5t2 52.5v500h-789v-500q0 -33 2 -53t10 -49t28.5 -54t53.5 -49h-397z" />
<glyph unicode="&#x41e;" horiz-adv-x="1720" d="M74 717q0 116 31.5 224.5t97 203.5t157.5 166t220.5 112t279.5 41q156 0 287.5 -43t222 -116t154.5 -169.5t93.5 -202.5t29.5 -216q0 -116 -32 -225t-97 -204t-157.5 -166t-221 -112t-279.5 -41q-156 0 -287.5 43.5t-222 116t-154 169.5t-93 203t-29.5 216zM309 750 q0 -268 152.5 -440.5t394.5 -172.5q102 0 198.5 33.5t177.5 98t130 172t49 243.5q0 268 -152.5 440t-394.5 172q-81 0 -159 -20t-150 -64t-126.5 -106.5t-87 -154.5t-32.5 -201z" />
<glyph unicode="&#x41f;" horiz-adv-x="1488" d="M88 0q33 24 53.5 49t28.5 54t10 49t2 53v1024q0 33 -2 53t-10 49t-28.5 54t-53.5 49h1313q-33 -24 -53.5 -49t-28.5 -54t-10 -49t-2 -53v-1024q0 -33 2 -53t10 -49t28.5 -54t53.5 -49h-397q33 24 53.5 49t28.5 54t10 49t2 53v1065h-707v-1065q0 -33 2 -53t10 -49 t28.5 -54t53.5 -49h-397z" />
<glyph unicode="&#x420;" horiz-adv-x="1146" d="M88 0q33 24 53.5 49t28.5 54t10 49t2 53v1024q0 30 -2 48.5t-9.5 49t-28.5 57.5t-54 50h508q28 0 48 -0.5t61.5 -4t73.5 -10t75.5 -19.5t76.5 -31.5t67.5 -48t56.5 -65.5t36.5 -87.5t14.5 -112.5q0 -98 -40 -178t-106 -129.5t-147.5 -76t-169.5 -26.5q-76 0 -174 27 q53 2 105 13t106.5 36t95.5 62.5t67.5 97t26.5 133.5q0 126 -81 197t-226 71q-80 0 -172 -20v-1024q0 -178 127 -238h-430z" />
<glyph unicode="&#x421;" horiz-adv-x="1366" d="M74 707q0 119 32.5 229.5t99 206.5t160 167.5t223.5 112.5t281 41q112 0 267 -32q71 -17 114 -23v-250q-189 131 -405 131q-102 0 -197 -34t-171.5 -98t-122.5 -166.5t-46 -229.5q0 -92 20.5 -179t67 -167.5t113 -140.5t166 -96t219.5 -36q299 0 481 152l-139 -275 q-158 -51 -358 -51q-177 0 -319 47t-230.5 121t-148 173.5t-83.5 197.5t-24 199z" />
<glyph unicode="&#x422;" horiz-adv-x="1007" d="M-61 1186l81 256q49 -8 132 -8h792q51 0 125 8l-72 -240q-14 25 -33.5 40.5t-45 21t-41.5 7t-43 1.5l-230 -2v-1065q0 -30 2 -48.5t9.5 -49t28.5 -57.5t54 -50h-397q33 23 54 50t28.5 57.5t9.5 49t2 48.5v1065l-243 2q-129 0 -213 -86z" />
<glyph unicode="&#x423;" horiz-adv-x="1206" d="M-41 1434h332l399 -856l275 622q28 58 28 133q0 71 -59 101h313l-514 -1143q-43 -97 -97.5 -162t-114 -95.5t-111.5 -42t-113 -11.5q-129 0 -221 55l137 153q45 -36 113 -36q86 0 146.5 49t92.5 116l39 80q-39 28 -67.5 58t-38.5 47t-29 52q-4 7 -6 11l-361 717 q-59 118 -143 152z" />
<glyph unicode="&#x424;" horiz-adv-x="1728" d="M74 770q0 135 54 249.5t146.5 190.5t219 113.5t266.5 26.5q10 114 -92 186h395q-46 -32 -71.5 -80t-22.5 -106q103 11 202 -4.5t186.5 -59t154 -110.5t105 -166t38.5 -217q0 -135 -54 -249.5t-146.5 -190.5t-219 -113.5t-266.5 -26.5v-20q0 -58 18.5 -105.5t75.5 -87.5 h-395q58 41 75 87t17 106v20q-103 -11 -202 4.5t-186.5 59t-154 110.5t-105 166t-38.5 217zM309 795q0 -197 124.5 -319.5t326.5 -110.5v833q-84 5 -162.5 -17t-144 -69t-105 -129t-39.5 -188zM969 365q84 -5 162.5 16.5t143.5 69t104.5 129.5t39.5 188q0 197 -124 319.5 t-326 110.5v-833z" />
<glyph unicode="&#x425;" horiz-adv-x="1323" d="M-82 0q74 76 150 172l467 594l-359 518q-77 111 -162 150l174 6q15 1 39 2q78 3 98 -5q22 -10 54 -55q5 -7 17 -24q10 -15 16 -23l278 -403l238 317q43 57 43 99q0 63 -80 86h393l-502 -637l422 -613q91 -130 201 -184h-340q-42 42 -94 121l-336 508l-313 -414 q-56 -72 -56 -113q0 -34 23.5 -61t60.5 -41h-432z" />
<glyph unicode="&#x426;" horiz-adv-x="1544" d="M88 0q33 24 53.5 49t28.5 54t10 49t2 53v1024q0 33 -2 53t-10 49t-28.5 54t-53.5 49h397q-33 -24 -53.5 -49t-28.5 -54t-10 -49t-2 -53v-1065h758v1065q0 33 -2 53t-10 49t-28.5 54t-53.5 49h397q-33 -24 -53.5 -49t-28.5 -54t-10 -49t-2 -53v-1065h196v-492l-122 -47 q3 18 1 52.5t-4.5 76t-15.5 85t-32 79.5t-54.5 59t-81.5 23h-1157z" />
<glyph unicode="&#x427;" horiz-adv-x="1431" d="M41 1434h444q-41 -22 -67 -48t-36 -57t-12.5 -50t-2.5 -50v-180q0 -31 2 -55t10 -55.5t21 -55.5t38.5 -49t59.5 -41.5t85.5 -26.5t116.5 -10q161 0 340 73v400q0 30 -2 48.5t-9.5 49t-28.5 57.5t-54 50h397q-33 -23 -54 -50t-28.5 -57.5t-9.5 -49t-2 -48.5v-1024 q0 -30 2 -48.5t9.5 -49t28.5 -57.5t54 -50h-397q33 23 54 50t28.5 57.5t9.5 49t2 48.5v467q-225 -84 -426 -84q-90 0 -162.5 17t-119 42.5t-81 63.5t-51.5 72.5t-27.5 76.5t-12.5 68t-2 55v246q0 31 -2.5 51t-12.5 50t-35.5 56t-66.5 48z" />
<glyph unicode="&#x428;" horiz-adv-x="2076" d="M88 0q33 24 53.5 49t28.5 54t10 49t2 53v1024q0 33 -2 53t-10 49t-28.5 54t-53.5 49h397q-33 -24 -53.5 -49t-28.5 -54t-10 -49t-2 -53v-1065h543v1065q0 33 -2 53t-10 49t-28.5 54t-53.5 49h397q-33 -24 -53.5 -49t-28.5 -54t-10 -49t-2 -53v-1065h543v1065 q0 32 -2 52.5t-10.5 49.5t-29 54t-53.5 49h398q-33 -24 -53.5 -49t-29 -54t-10.5 -49.5t-2 -52.5v-1024q0 -32 2 -52.5t10.5 -49.5t29 -54t53.5 -49h-1901z" />
<glyph unicode="&#x429;" horiz-adv-x="2080" d="M88 0q33 24 53.5 49t28.5 54t10 49t2 53v1024q0 33 -2 53t-10 49t-28.5 54t-53.5 49h397q-33 -24 -53.5 -49t-28.5 -54t-10 -49t-2 -53v-1065h543v1065q0 33 -2 53t-10 49t-28.5 54t-53.5 49h397q-33 -24 -53.5 -49t-28.5 -54t-10 -49t-2 -53v-1065h543v1065 q0 32 -2 52.5t-10.5 49.5t-29 54t-53.5 49h398q-33 -24 -53.5 -49t-29 -54t-10.5 -49.5t-2 -52.5v-1065h197v-492l-123 -47q-1 23 1 66t-8.5 96.5t-27.5 100.5t-56.5 79.5t-94.5 32.5h-1694z" />
<glyph unicode="&#x42a;" horiz-adv-x="1425" d="M-61 1186l81 256q49 -8 132 -8h542q-33 -23 -54 -50t-28.5 -57.5t-9.5 -49t-2 -48.5v-342q238 14 268 14q250 0 388.5 -113t138.5 -321q0 -94 -27.5 -169.5t-69 -123t-102 -82.5t-112.5 -52t-117 -27t-99 -11.5t-73 -1.5h-498q33 23 54 50t28.5 57.5t9.5 49t2 48.5v1065 h-239q-134 0 -213 -84zM600 174q103 -18 213 -18q69 0 124.5 14t91 35.5t61.5 53t39 58.5t20 60.5t8.5 52t1.5 39.5q0 276 -385 276q-66 0 -174 -12v-559z" />
<glyph unicode="&#x42b;" horiz-adv-x="1775" d="M88 0q33 23 54 50t28.5 57.5t9.5 49t2 48.5v1024q0 30 -2 48.5t-9.5 49t-28.5 57.5t-54 50h397q-33 -23 -54 -50t-28.5 -57.5t-9.5 -49t-2 -48.5v-344q187 16 268 16q251 0 389 -112.5t138 -321.5q0 -94 -27.5 -169.5t-69 -123t-102 -82.5t-112.5 -52t-117 -27t-99 -11.5 t-73 -1.5h-498zM391 174q103 -18 213 -18q69 0 124.5 14t91 35.5t61.5 53t39 58.5t20 60.5t8.5 52t1.5 39.5q0 276 -385 276q-66 0 -174 -12v-559zM1290 0q33 23 54 50t28.5 57.5t9.5 49t2 48.5v1024q0 30 -2 48.5t-9.5 49t-28.5 57.5t-54 50h398q-33 -23 -54 -50t-29 -57.5 t-10 -49.5t-2 -48v-1024q0 -29 2 -48t10 -49.5t29 -57.5t54 -50h-398z" />
<glyph unicode="&#x42c;" horiz-adv-x="1216" d="M88 0q33 23 54 50t28.5 57.5t9.5 49t2 48.5v1024q0 30 -2 48.5t-9.5 49t-28.5 57.5t-54 50h397q-33 -23 -54 -50t-28.5 -57.5t-9.5 -49t-2 -48.5v-344q187 16 268 16q251 0 389 -112.5t138 -321.5q0 -94 -27.5 -169.5t-69 -123t-102 -82.5t-112.5 -52t-117 -27t-99 -11.5 t-73 -1.5h-498zM391 174q103 -18 213 -18q69 0 124.5 14t91 35.5t61.5 53t39 58.5t20 60.5t8.5 52t1.5 39.5q0 276 -385 276q-66 0 -174 -12v-559z" />
<glyph unicode="&#x42d;" horiz-adv-x="1318" d="M10 334q185 -197 439 -197q239 0 395.5 150t165.5 385h-492q-102 0 -156 -54v224q34 -6 74 -6h568q-6 72 -27.5 138.5t-62.5 125.5t-97.5 102t-136.5 68.5t-174 25.5q-225 0 -430 -122l30 258q90 4 195 18t201 14q350 0 546.5 -187.5t196.5 -508.5q0 -173 -57.5 -321 t-161 -253.5t-253 -165t-327.5 -59.5q-228 0 -411 86z" />
<glyph unicode="&#x42e;" horiz-adv-x="2189" d="M88 0q33 24 53.5 49t28.5 54t10 49t2 53v1024q0 33 -2 53t-10 49t-28.5 54t-53.5 49h397q-33 -24 -53.5 -49t-28.5 -54t-10 -49t-2 -53v-361h250q16 93 53.5 178.5t100.5 162t145 133t193 89.5t237 33q146 0 270.5 -43t210.5 -116t147 -169.5t89.5 -202.5t28.5 -216 q0 -145 -49 -278t-140.5 -238.5t-235.5 -168.5t-321 -63q-212 0 -381.5 92t-266 260.5t-97.5 383.5h-234v-500q0 -33 2 -53t10 -49t28.5 -54t53.5 -49h-397zM860 750q0 -175 64 -315t180 -219t262 -79q226 0 370 155.5t144 391.5q0 85 -18.5 169.5t-59 165t-98 141.5 t-143 98.5t-187.5 37.5q-77 0 -149.5 -20t-139 -64t-116.5 -106.5t-79.5 -154.5t-29.5 -201z" />
<glyph unicode="&#x42f;" horiz-adv-x="1204" d="M-164 0q87 40 186.5 125t191 192t158 194.5t126.5 176.5q-147 27 -247.5 118.5t-100.5 231.5q0 29 3 55.5t11 62.5t24.5 67.5t41.5 65.5t65 60t91 48t123 33.5t159 11.5q60 0 178 -4q180 -4 270 -4q-33 -23 -54 -50t-28.5 -57.5t-9.5 -49t-2 -48.5v-1024q0 -30 2 -48.5 t9.5 -49t28.5 -57.5t54 -50h-397q33 23 54 50t28.5 57.5t9.5 49t2 48.5v1073q-62 12 -137 12q-65 0 -116 -15t-83 -39.5t-53.5 -59t-30 -70.5t-8.5 -76q0 -72 35.5 -128t91 -86t118.5 -43.5t124 -8.5q-49 -91 -105 -182.5t-134.5 -202.5t-152.5 -194.5t-155.5 -140 t-147.5 -56.5q-33 0 -223 12z" />
<glyph unicode="&#x430;" horiz-adv-x="1003" d="M35 293q0 63 22 111.5t53 77t81.5 51t90 33t95.5 23.5q4 1 6 1q155 36 195 53q72 31 80 88q1 9 1 19q0 61 -48.5 95t-139.5 34q-161 0 -297 -76l129 213q103 18 186 18q70 0 127.5 -13t95.5 -33t66.5 -50.5t44 -60t25 -67t12 -66.5t2.5 -62v-399q0 -82 38.5 -112.5 t109.5 -33.5h39l-99 -137h-30q-252 0 -252 229v322q-18 -13 -35 -21.5t-41 -16t-37 -11.5t-50 -12.5t-54 -12.5q-36 -9 -58 -15.5t-53.5 -21.5t-50 -32.5t-32 -46t-13.5 -64.5q0 -17 3 -35.5t16 -44t33.5 -45t61 -33.5t93.5 -14q87 0 178 27l-131 -164q-68 -19 -131 -19 q-148 0 -240 90.5t-92 233.5z" />
<glyph unicode="&#x431;" horiz-adv-x="1232" d="M74 598q0 143 23.5 266t64 208.5t84.5 144.5t94 98q94 75 206 97t296 22h127q40 0 65.5 6.5t48.5 29.5l-104 -219q-104 -14 -193.5 -15t-148 -3.5t-123.5 -22.5q-77 -24 -133.5 -74t-87.5 -117t-46 -134t-18 -142q58 128 175 193t264 65q220 0 365 -135.5t145 -365.5 q0 -237 -155.5 -384t-399.5 -147q-259 0 -404 167t-145 462zM287 494q0 -167 94.5 -268t253.5 -101q142 0 236 90.5t94 251.5q0 71 -18 135.5t-54.5 120.5t-102.5 89.5t-153 33.5q-162 0 -256 -99.5t-94 -252.5z" />
<glyph unicode="&#x432;" horiz-adv-x="964" d="M61 0q72 50 72 143v707q0 93 -72 143l508 6q134 1 215.5 -63t81.5 -168q0 -90 -63.5 -143.5t-149.5 -63.5v-6q123 2 204 -70t81 -186q0 -40 -10 -77.5t-39 -79.5t-75.5 -72t-126.5 -50t-185 -20h-441zM328 137q110 -14 174 -14q71 0 119.5 19.5t69 50.5t27.5 56t7 50 q0 33 -10.5 62.5t-36 59t-78.5 47t-129 17.5q-51 0 -143 -8v-340zM328 598l104 -2q114 -3 167.5 41.5t53.5 107.5q0 37 -16 64t-36 39.5t-49 19.5t-43.5 8t-31.5 1q-59 0 -149 -11v-268z" />
<glyph unicode="&#x433;" horiz-adv-x="733" d="M61 0q72 50 72 143v707q0 93 -72 143h607q17 0 86 6v-196q-14 22 -36 33t-37 12.5t-42 1.5h-311v-707q0 -94 71 -143h-338z" />
<glyph unicode="&#x434;" horiz-adv-x="1085" d="M-27 143h123q59 85 98 175.5t56 176.5t23 149t6 134q0 33 -2.5 57.5t-11 56.5t-29.5 58t-54 43h815q-71 -49 -71 -143v-707h159v-419l-102 -58q2 68 -4 121.5t-16 88t-28 59.5t-33.5 37t-39 19t-38.5 8t-38 1h-526q-30 0 -54 -6.5t-50.5 -27t-44 -56t-27.5 -98t-8 -146.5 l-103 58v419zM272 143h459v707h-297q4 -41 4 -121q0 -42 -6 -96.5t-21.5 -136t-51.5 -175.5t-87 -178z" />
<glyph unicode="&#x435;" horiz-adv-x="1142" d="M55 508q0 231 148 378.5t397 147.5q111 0 199.5 -32.5t143 -83.5t90.5 -119.5t49.5 -136t11.5 -136.5h-826q-4 -83 20.5 -154.5t76 -127t138.5 -87.5t199 -32q222 0 406 102l-135 -213q-143 -45 -314 -45q-275 0 -439.5 142t-164.5 397zM289 659h571q-9 100 -82 160 t-188 60q-116 0 -197.5 -60t-103.5 -160z" />
<glyph unicode="&#x436;" horiz-adv-x="1597" d="M-61 0q87 59 163 150l273 325q41 51 78 82l-392 436h334q-47 -31 -47 -67q0 -46 86 -144l225 -258l-360 -450q-23 -28 -36 -40.5t-30.5 -23t-41.5 -12.5t-58 -2.5t-90 1.5q-16 1 -25 1zM631 0q71 49 71 143v707q0 94 -71 143h338q-72 -50 -72 -143v-707q0 -93 72 -143 h-338zM938 524l225 258q86 98 86 144q0 36 -47 67h334l-391 -436q37 -31 78 -82l272 -325q75 -89 164 -150l-80 -2q-151 -4 -183 2q-39 7 -73 45q-9 10 -25 29z" />
<glyph unicode="&#x437;" horiz-adv-x="897" d="M-10 260q144 -135 366 -135q69 0 122.5 12.5t84.5 31t51 44.5t26.5 50t6.5 50q0 68 -51.5 110t-159.5 42q-85 0 -157 -39v188q41 -6 83 -6q72 0 121.5 14t72.5 37t31.5 45t8.5 46q0 57 -40.5 99t-139.5 42q-72 0 -146.5 -22.5t-173.5 -88.5l37 228q83 5 145.5 15.5 t155.5 10.5q89 0 156.5 -14.5t108.5 -38t66.5 -56.5t34.5 -66t9 -71q0 -95 -68 -154t-159 -69v-6q116 0 197 -68.5t81 -191.5q0 -65 -29.5 -122.5t-88 -105t-157 -75t-225.5 -27.5q-79 0 -139 13t-92.5 29.5t-55.5 45t-31 47t-17 47.5q-1 5 -2 7z" />
<glyph unicode="&#x438;" horiz-adv-x="1167" d="M57 0q72 50 72 143v707q0 93 -72 143h338q-71 -49 -71 -143v-623l475 711q22 37 51 55h256q-72 -50 -72 -143v-707q0 -93 72 -143h-338q72 50 72 143v623l-475 -711q-22 -36 -52 -55h-256z" />
<glyph unicode="&#x439;" horiz-adv-x="1167" d="M57 0q72 50 72 143v707q0 93 -72 143h338q-71 -49 -71 -143v-623l475 711q22 37 51 55h256q-72 -50 -72 -143v-707q0 -93 72 -143h-338q72 50 72 143v623l-475 -711q-22 -36 -52 -55h-256zM270 1434h181q-42 -64 6 -117t125 -53q49 0 90 24t54.5 62t-13.5 84h180 q5 -117 -82 -202t-229 -85t-229.5 85t-82.5 202z" />
<glyph unicode="&#x43a;" horiz-adv-x="1028" d="M61 0q72 50 72 143v707q0 93 -72 143h338q-71 -49 -71 -143v-707q0 -94 71 -143h-338zM369 524l225 258q86 98 86 144q0 36 -47 67h334l-392 -436q37 -31 78 -82l273 -325q75 -89 164 -150l-80 -2q-151 -4 -183 2q-39 7 -73 45q-9 10 -25 29z" />
<glyph unicode="&#x43b;" horiz-adv-x="1048" d="M-45 188q63 -47 115 -47q172 0 172 619q0 38 -2 62t-10.5 60.5t-30 64.5t-56.5 46h844q-72 -50 -72 -143v-707q0 -93 72 -143h-338q72 50 72 143v707h-324v-125q0 -75 -2 -136.5t-10 -143t-21.5 -144.5t-38.5 -128t-59 -107.5t-85 -69.5t-115 -27q-38 0 -89 19z" />
<glyph unicode="&#x43c;" horiz-adv-x="1388" d="M12 0q33 22 54 63.5t24 79.5l57 707q7 86 -71 143h336l295 -680l247 582q22 52 31 98h344q-29 -18 -52 -54t-20 -89l46 -707q4 -48 18.5 -81.5t54.5 -61.5h-342q74 51 70 143l-37 684l-371 -858l-39 35q-9 8 -17 16t-14.5 17t-10.5 15t-9.5 17.5t-7.5 16t-8 19t-8 18.5 l-301 704l-52 -684q-5 -92 70 -143h-287z" />
<glyph unicode="&#x43d;" horiz-adv-x="1150" d="M61 0q72 50 72 143v707q0 93 -72 143h338q-71 -49 -71 -143v-229h495v229q0 94 -71 143h338q-72 -50 -72 -143v-707q0 -93 72 -143h-338q71 49 71 143v334h-495v-334q0 -94 71 -143h-338z" />
<glyph unicode="&#x43e;" horiz-adv-x="1249" d="M55 502q0 152 76.5 274t208.5 190t293 68q129 0 237 -44.5t177.5 -119.5t108 -170t38.5 -198q0 -114 -45 -214t-122.5 -169.5t-184.5 -109.5t-228 -40q-128 0 -235.5 45t-177 120t-108 170t-38.5 198zM268 502q0 -100 38.5 -183.5t122.5 -138.5t200 -55 q157 0 254.5 103.5t97.5 273.5q0 74 -22.5 140.5t-66 120t-113.5 85t-158 31.5q-157 0 -255 -103.5t-98 -273.5z" />
<glyph unicode="&#x43f;" horiz-adv-x="1110" d="M61 0q72 50 72 143v707q0 93 -72 143h988q-72 -50 -72 -143v-707q0 -93 72 -143h-338q71 49 71 143v707h-454v-707q0 -94 71 -143h-338z" />
<glyph unicode="&#x440;" horiz-adv-x="1253" d="M57 -453q72 50 72 144v1159q0 93 -72 143h150q62 0 108 33v-162q138 170 367 170q128 0 228.5 -40.5t162 -110.5t93.5 -158t32 -188q0 -114 -33.5 -215t-97.5 -180.5t-167 -126t-232 -46.5q-76 0 -166 23l-125 182q109 -49 246 -49q20 0 38 1t57.5 8.5t71 21.5t70 43 t64 69t43.5 104t18 144q0 89 -28.5 158t-78 110.5t-110 62.5t-129.5 21q-138 0 -226.5 -71.5t-88.5 -218.5v-887q0 -95 82 -144h-349z" />
<glyph unicode="&#x441;" horiz-adv-x="1040" d="M55 494q0 224 154 378q93 93 206 127.5t257 34.5q49 0 75 -2.5t35.5 -5.5t43 -9t87.5 -11v-226q-121 99 -272 99q-71 0 -136 -21.5t-119 -63.5t-86 -112.5t-32 -159.5q0 -178 117 -287.5t328 -109.5q212 0 338 94q-32 -60 -54 -97t-49 -67.5t-49.5 -45t-59.5 -25 t-75.5 -13t-99.5 -2.5q-65 0 -116.5 5t-116.5 20.5t-125.5 51t-112.5 89.5q-138 142 -138 359z" />
<glyph unicode="&#x442;" horiz-adv-x="813" d="M-41 772l66 238q37 -17 94 -17h637q48 0 98 17l-49 -228q-13 24 -31 39.5t-40.5 21t-33.5 6.5t-30 1h-172v-707q0 -94 71 -143h-338q72 50 72 143v707h-158q-59 0 -103.5 -15.5t-82.5 -62.5z" />
<glyph unicode="&#x443;" horiz-adv-x="966" d="M-164 -373l191 140q53 -39 123 -39q50 0 89.5 16.5t66 47.5t41 56t30.5 62l53 121q-71 66 -108 147l-302 668q-54 120 -137 147l178 6q16 0 37 1t29 1h19t15.5 -1t10.5 -3t12 -6l336 -758l219 533q31 82 31 129q0 71 -57 98h319l-485 -1108q-21 -47 -42 -85t-58.5 -83 t-81.5 -74.5t-109 -50t-141 -20.5q-148 0 -279 55z" />
<glyph unicode="&#x444;" horiz-adv-x="1566" d="M55 471q0 257 150.5 410t392.5 153q30 0 88 -8v264q0 94 -72 144h158q64 0 109 32v-440q55 6 115 8t121 -13t118.5 -37.5t107.5 -64.5t87.5 -94.5t59 -128t21.5 -164.5q0 -85 -16 -159t-44.5 -130t-67.5 -102.5t-85.5 -76.5t-98.5 -53t-105.5 -31t-107.5 -10.5t-105 7.5 v-286q0 -95 71 -144h-338q72 50 72 144v286q-58 -8 -88 -8q-239 0 -391 135.5t-152 366.5zM268 506q0 -100 32.5 -178.5t86 -123.5t115.5 -68t129 -23q19 0 55 12v754q-54 12 -104 12q-146 0 -230 -107.5t-84 -277.5zM881 125q54 -12 104 -12q146 0 229.5 107.5t83.5 277.5 q0 135 -61 236t-157.5 140t-198.5 5v-754z" />
<glyph unicode="&#x445;" horiz-adv-x="1038" d="M-61 0l473 524l-234 305q-90 117 -176 164l123 4q51 2 70 3t46 -2t31.5 -3t20.5 -12t18.5 -16t20.5 -27l213 -283l166 193q34 39 34 74q0 42 -53 69h352l-407 -456l305 -398q69 -90 158 -139l-246 -4q-54 0 -86 45l-262 358l-217 -245q-47 -53 -47 -88q0 -18 12 -37 t33 -29h-348z" />
<glyph unicode="&#x446;" horiz-adv-x="1177" d="M61 0q72 50 72 143v707q0 93 -72 143h338q-71 -49 -71 -143v-707h495v707q0 94 -71 143h338q-72 -50 -72 -143v-707h160v-419l-103 -58q2 85 -8 147t-27.5 97.5t-44.5 56t-52.5 27t-57.5 6.5h-824z" />
<glyph unicode="&#x447;" horiz-adv-x="1056" d="M31 993h338q-72 -50 -72 -143v-125q0 -30 3 -53.5t14.5 -53t31 -49t56.5 -33.5t87 -14q133 0 240 66v262q0 93 -72 143h338q-71 -49 -71 -143v-707q0 -94 71 -143h-348q82 49 82 143v322q-142 -98 -309 -98q-63 0 -114 15t-83.5 37.5t-56.5 54.5t-36 60.5t-18.5 62.5 t-8 53t-1.5 38v162q0 94 -71 143z" />
<glyph unicode="&#x448;" horiz-adv-x="1595" d="M61 0q72 50 72 143v707q0 93 -72 143h338q-71 -49 -71 -143v-707h372v707q0 94 -71 143h338q-72 -50 -72 -143v-707h373v707q0 93 -72 143h338q-72 -50 -72 -143v-707q0 -93 72 -143h-1473z" />
<glyph unicode="&#x449;" horiz-adv-x="1622" d="M61 0q72 50 72 143v707q0 93 -72 143h338q-71 -49 -71 -143v-707h372v707q0 94 -71 143h338q-72 -50 -72 -143v-707h373v707q0 93 -72 143h338q-72 -50 -72 -143v-707h160v-419l-102 -58q2 65 -4 116.5t-16 86t-27 59.5t-33.5 38.5t-39 21.5t-40.5 10t-41 2h-1258z" />
<glyph unicode="&#x44a;" horiz-adv-x="1101" d="M-41 793l55 206q50 -6 92 -6h447q-72 -50 -72 -143v-692q77 -15 133 -15q70 0 120.5 19t76 51t36.5 65.5t11 71.5q0 84 -63.5 135.5t-186.5 51.5q-48 0 -108 -13l90 142q68 14 115 14q66 0 127 -16t116.5 -49.5t89 -96.5t33.5 -147q0 -50 -10.5 -96.5t-41.5 -98 t-80 -89.5t-132.5 -62.5t-192.5 -24.5h-399q72 50 72 143v707h-181q-92 0 -147 -57z" />
<glyph unicode="&#x44b;" horiz-adv-x="1404" d="M61 0q72 50 72 143v707q0 93 -72 143h338q-71 -49 -71 -143v-692q77 -15 133 -15q70 0 120.5 19t76 51t36.5 65.5t11 71.5q0 84 -63.5 135.5t-186.5 51.5q-49 0 -109 -13l90 142q68 14 115 14q66 0 127 -16t117 -49.5t89.5 -96.5t33.5 -147q0 -50 -10.5 -96.5t-41.5 -98 t-80 -89.5t-132.5 -62.5t-192.5 -24.5h-400zM1006 0q71 49 71 143v707q0 94 -71 143h337q-71 -49 -71 -143v-707q0 -94 71 -143h-337z" />
<glyph unicode="&#x44c;" horiz-adv-x="948" d="M61 0q72 50 72 143v707q0 93 -72 143h338q-71 -49 -71 -143v-692q77 -15 133 -15q70 0 120.5 19t76 51t36.5 65.5t11 71.5q0 84 -63.5 135.5t-186.5 51.5q-49 0 -109 -13l90 142q68 14 115 14q66 0 127 -16t117 -49.5t89.5 -96.5t33.5 -147q0 -50 -10.5 -96.5t-41.5 -98 t-80 -89.5t-132.5 -62.5t-192.5 -24.5h-400z" />
<glyph unicode="&#x44d;" horiz-adv-x="1011" d="M-20 260q142 -135 364 -135q160 0 275 91.5t124 248.5h-266q-102 0 -155 -53v202q34 -6 73 -6h340q-5 54 -29.5 104t-65.5 90.5t-104 64.5t-139 24q-171 0 -311 -111l37 228q66 3 140 14.5t161 11.5q241 0 386.5 -135.5t145.5 -355.5q0 -86 -24.5 -168.5t-74.5 -156 t-121 -129t-170.5 -88t-215.5 -32.5q-59 0 -108 7.5t-80.5 16.5t-58 28t-39.5 31t-25.5 37t-15.5 34.5t-11 34.5z" />
<glyph unicode="&#x44e;" horiz-adv-x="1654" d="M61 0q72 50 72 143v707q0 93 -72 143h338q-71 -49 -71 -143v-229h188q19 83 63.5 156t112 131t164 92t209.5 34q232 0 383 -153.5t151 -378.5q0 -231 -159 -382t-406 -151q-218 0 -372 142t-160 366h-174v-334q0 -94 71 -143h-338zM715 502q0 -74 21 -140.5t61.5 -120 t107 -85t150.5 -31.5q148 0 239.5 103.5t91.5 273.5q0 74 -21 140.5t-61.5 120t-106.5 85t-150 31.5q-148 0 -240 -103.5t-92 -273.5z" />
<glyph unicode="&#x44f;" horiz-adv-x="962" d="M-123 0q99 46 202 142.5t249 293.5q-99 17 -170.5 84.5t-71.5 177.5q0 58 16 104.5t41.5 77t62.5 53t72 34.5t78 19t73.5 9t64.5 2q20 0 61 -1t61 -1q94 -2 285 -2q-72 -50 -72 -143v-707q0 -93 72 -143h-338q72 50 72 143v701q-108 10 -135 10q-52 0 -91 -12.5 t-59.5 -30.5t-32.5 -42t-15 -41.5t-3 -35.5q0 -52 19 -91.5t47.5 -61.5t65.5 -35t68 -16.5t60 -2.5q-62 -104 -116.5 -184t-93 -131.5t-76.5 -87.5t-60 -53t-50 -26t-40.5 -10t-38.5 -1q-60 0 -207 8z" />
<glyph unicode="&#x451;" horiz-adv-x="1142" d="M55 508q0 231 148 378.5t397 147.5q111 0 199.5 -32.5t143 -83.5t90.5 -119.5t49.5 -136t11.5 -136.5h-826q-4 -83 20.5 -154.5t76 -127t138.5 -87.5t199 -32q222 0 406 102l-135 -213q-143 -45 -314 -45q-275 0 -439.5 142t-164.5 397zM256 1268q0 52 39 91.5t92 39.5 t92 -39.5t39 -91.5t-39 -91.5t-92 -39.5t-92 39.5t-39 91.5zM289 659h571q-9 100 -82 160t-188 60q-116 0 -197.5 -60t-103.5 -160zM645 1268q0 52 39.5 91.5t91.5 39.5t91.5 -39.5t39.5 -91.5t-39.5 -91.5t-91.5 -39.5t-91.5 39.5t-39.5 91.5z" />
<glyph unicode="&#x452;" horiz-adv-x="1140" d="M10 1141v123h129v26q0 95 -71 144h157q64 0 109 32v-202h459v-123h-459v-252q38 66 131.5 105.5t187.5 39.5q396 0 396 -653q0 -76 -1.5 -132t-7 -126.5t-15 -122.5t-27 -111t-41.5 -101t-59.5 -83.5t-81 -67.5t-105.5 -43.5t-133 -21.5q42 30 77 67.5t60 75t44.5 87 t32 89.5t21.5 97.5t13.5 95.5t6.5 100t2.5 94t0.5 93q0 55 -1 94.5t-6.5 96t-15 97t-28 85t-44 72t-65 45.5t-88.5 18q-27 0 -53 -3t-65 -17t-67 -38t-48.5 -70t-20.5 -108v-500q0 -93 72 -143h-338q71 49 71 143v998h-129z" />
<glyph unicode="&#x453;" horiz-adv-x="731" d="M61 0q72 50 72 143v707q0 93 -72 143h607q17 0 86 6v-196q-14 22 -36 33t-37 12.5t-42 1.5h-311v-707q0 -94 71 -143h-338zM170 1133l506 321l110 -158l-610 -170z" />
<glyph unicode="&#x454;" horiz-adv-x="1005" d="M55 492q0 222 150 378q65 67 144.5 105t147 48.5t154.5 10.5q61 0 89 -3t69 -11t100 -14v-226q-122 99 -272 99q-139 0 -242.5 -74.5t-126.5 -196.5h346q40 0 74 6v-202q-53 53 -156 53h-264q13 -155 126 -247.5t284 -92.5q216 0 338 94q-32 -60 -52.5 -94.5t-47 -66 t-48.5 -46t-58.5 -26t-76 -14.5t-100.5 -3q-64 0 -114 5.5t-111.5 21.5t-118 52.5t-105.5 92.5q-129 142 -129 351z" />
<glyph unicode="&#x455;" horiz-adv-x="880" d="M10 244q90 -58 195 -98t196 -40q123 0 189.5 42t66.5 106q0 28 -13.5 52.5t-30 40.5t-49.5 33.5t-54.5 26t-62.5 23.5t-56 21q-79 31 -126 54.5t-92.5 58t-66 78.5t-20.5 101q0 43 10 81t38 77.5t72 68t116.5 46.5t166.5 18q148 0 269 -37v-182q-140 82 -289 82 q-92 0 -136 -34t-44 -81q0 -24 13.5 -44.5t31 -35t57.5 -31.5t67.5 -27t86.5 -30q40 -13 58.5 -20t58.5 -24t61.5 -31t51.5 -38.5t45.5 -50t27.5 -62t12 -77.5q0 -43 -10 -85t-41 -90t-79.5 -83.5t-133.5 -59.5t-195 -24q-153 0 -313 60z" />
<glyph unicode="&#x456;" horiz-adv-x="446" d="M61 0q72 50 72 143v707q0 93 -72 143h158q63 0 109 33v-883q0 -94 71 -143h-338zM88 1268q0 52 39 91.5t92 39.5t92 -39.5t39 -91.5t-39 -91.5t-92 -39.5t-92 39.5t-39 91.5z" />
<glyph unicode="&#x457;" horiz-adv-x="514" d="M10 1268q0 56 32 93.5t81 37.5t81 -37.5t32 -93.5t-32 -93.5t-81 -37.5t-81 37.5t-32 93.5zM88 0q72 50 72 143v707q0 93 -72 143h158q62 0 108 33v-883q0 -93 72 -143h-338zM279 1268q0 56 31.5 93.5t80.5 37.5t81 -37.5t32 -93.5t-32 -93.5t-81 -37.5t-80.5 37.5 t-31.5 93.5z" />
<glyph unicode="&#x458;" horiz-adv-x="450" d="M-82 -428q72 36 119 85.5t68.5 108.5t28.5 109.5t7 116.5v858q0 94 -71 143h157q63 0 109 33v-1044v-29v-35t-1 -33t-3.5 -38t-7 -34t-11.5 -37t-16 -32q-46 -74 -155 -119t-224 -53zM96 1268q0 52 39 91.5t92 39.5t92 -39.5t39 -91.5t-39 -91.5t-92 -39.5t-92 39.5 t-39 91.5z" />
<glyph unicode="&#x459;" horiz-adv-x="1536" d="M-45 188q63 -47 115 -47q172 0 172 619q0 38 -2 62t-10.5 60.5t-30 64.5t-56.5 46h844q-72 -50 -72 -143v-692q77 -15 134 -15q70 0 120.5 19t75.5 51t36 65.5t11 71.5q0 84 -63.5 135.5t-186.5 51.5q-48 0 -108 -13l90 142q68 14 115 14q66 0 127 -16t116.5 -49.5 t89 -96.5t33.5 -147q0 -50 -10.5 -96.5t-41.5 -98t-79.5 -89.5t-132 -62.5t-192.5 -24.5h-400q72 50 72 143v707h-324v-125q0 -75 -2 -136.5t-10 -143t-21.5 -144.5t-38.5 -128t-59 -107.5t-85 -69.5t-115 -27q-38 0 -89 19z" />
<glyph unicode="&#x45a;" horiz-adv-x="1669" d="M61 0q72 50 72 143v707q0 93 -72 143h338q-71 -49 -71 -143v-229h495v229q0 94 -71 143h338q-72 -50 -72 -143v-692q77 -15 133 -15q70 0 120.5 19t76 51t36.5 65.5t11 71.5q0 84 -63.5 135.5t-186.5 51.5q-49 0 -109 -13l90 142q68 14 115 14q66 0 127 -16t117 -49.5 t89.5 -96.5t33.5 -147q0 -50 -10.5 -96.5t-41.5 -98t-80 -89.5t-132.5 -62.5t-192.5 -24.5h-399q71 49 71 143v334h-495v-334q0 -94 71 -143h-338z" />
<glyph unicode="&#x45b;" horiz-adv-x="1157" d="M10 1141v123h129v26q0 95 -71 144h157q64 0 109 32v-202h459v-123h-459v-252q39 68 130.5 106.5t188.5 38.5q77 0 143.5 -18.5t120 -56.5t84.5 -101.5t31 -146.5v-568q0 -93 72 -143h-338q72 50 72 143v512q0 103 -67.5 163.5t-182.5 60.5q-52 0 -94 -11t-68 -27.5 t-44.5 -41t-27.5 -44.5t-14 -46t-5.5 -38t-0.5 -28v-500q0 -93 72 -143h-338q71 49 71 143v998h-129z" />
<glyph unicode="&#x45c;" horiz-adv-x="1028" d="M61 0q72 50 72 143v707q0 93 -72 143h338q-71 -49 -71 -143v-707q0 -94 71 -143h-338zM205 1133l506 321l110 -158l-610 -170zM369 524l225 258q86 98 86 144q0 36 -47 67h334l-392 -436q37 -31 78 -82l273 -325q75 -89 164 -150l-80 -2q-151 -4 -183 2q-39 7 -73 45 q-9 10 -25 29z" />
<glyph unicode="&#x45e;" horiz-adv-x="966" d="M-164 -373l191 140q53 -39 123 -39q50 0 89.5 16.5t66 47.5t41 56t30.5 62l53 121q-71 66 -108 147l-302 668q-54 120 -137 147l178 6q16 0 37 1t29 1h19t15.5 -1t10.5 -3t12 -6l336 -758l219 533q31 82 31 129q0 71 -57 98h319l-485 -1108q-21 -47 -42 -85t-58.5 -83 t-81.5 -74.5t-109 -50t-141 -20.5q-148 0 -279 55zM190 1434h181q-27 -46 -13.5 -84t54.5 -62t90 -24t90 24t54.5 62t-13.5 84h180q5 -117 -82 -202t-229 -85t-229.5 85t-82.5 202z" />
<glyph unicode="&#x45f;" horiz-adv-x="1144" d="M61 0q72 50 72 143v707q0 93 -72 143h338q-71 -49 -71 -143v-707h489v707q0 93 -72 143h338q-71 -49 -71 -143v-707q0 -94 71 -143h-413v-184q0 -95 71 -144h-338q72 50 72 144v184h-414z" />
<glyph unicode="&#x490;" horiz-adv-x="937" d="M88 0q33 23 54 50.5t28.5 58.5t9.5 49t2 47v1024q0 29 -2 47t-9.5 49t-28.5 58.5t-54 50.5h584q130 0 192 16t101 68v-285q-27 11 -49 17.5t-86.5 13t-157.5 6.5q-56 0 -165 -2t-116 -2v-1061q0 -29 2.5 -50t12 -50.5t32.5 -56t58 -48.5h-408z" />
<glyph unicode="&#x491;" horiz-adv-x="681" d="M61 0q72 50 72 143v707q0 93 -72 143h527q45 0 70.5 11t43.5 36v-217q-19 15 -42 21t-72 6h-260v-707q0 -94 71 -143h-338z" />
<glyph unicode="&#x2000;" horiz-adv-x="939" />
<glyph unicode="&#x2001;" horiz-adv-x="1878" />
<glyph unicode="&#x2002;" horiz-adv-x="939" />
<glyph unicode="&#x2003;" horiz-adv-x="1878" />
<glyph unicode="&#x2004;" horiz-adv-x="626" />
<glyph unicode="&#x2005;" horiz-adv-x="469" />
<glyph unicode="&#x2006;" horiz-adv-x="313" />
<glyph unicode="&#x2007;" horiz-adv-x="313" />
<glyph unicode="&#x2008;" horiz-adv-x="234" />
<glyph unicode="&#x2009;" horiz-adv-x="375" />
<glyph unicode="&#x200a;" horiz-adv-x="104" />
<glyph unicode="&#x2010;" horiz-adv-x="870" d="M82 461l119 164q16 22 49 22h538l-118 -164q-16 -22 -49 -22h-539z" />
<glyph unicode="&#x2011;" horiz-adv-x="870" d="M82 461l119 164q16 22 49 22h538l-118 -164q-16 -22 -49 -22h-539z" />
<glyph unicode="&#x2012;" horiz-adv-x="870" d="M82 461l119 164q16 22 49 22h538l-118 -164q-16 -22 -49 -22h-539z" />
<glyph unicode="&#x2013;" horiz-adv-x="1306" d="M82 506l104 139q37 49 61 58.5t85 9.5h639q73 0 120.5 9.5t133.5 45.5l-103 -139q-34 -45 -60 -56.5t-85 -11.5h-641q-127 0 -254 -55z" />
<glyph unicode="&#x2014;" horiz-adv-x="2035" d="M246 506l104 139q37 49 61 58.5t85 9.5h1040q73 0 120.5 9.5t133.5 45.5l-102 -139q-34 -45 -60.5 -56.5t-85.5 -11.5h-1042q-127 0 -254 -55z" />
<glyph unicode="&#x2018;" horiz-adv-x="430" d="M82 1335q0 84 53.5 173t128.5 155h84q-42 -42 -86.5 -103t-44.5 -100q0 -15 4.5 -20t13.5 -6h1.5h1.5q53 -7 78.5 -40t25.5 -73q0 -48 -31 -85.5t-94 -37.5q-53 0 -94 34t-41 103z" />
<glyph unicode="&#x2019;" horiz-adv-x="430" d="M82 999q15 15 39 42t58 79t34 82q0 12 -3 18t-6 7t-11 2q-54 7 -79.5 40t-25.5 72q0 48 31 85.5t94 37.5q53 0 94 -34t41 -103q0 -84 -53.5 -173t-128.5 -155h-84z" />
<glyph unicode="&#x201a;" horiz-adv-x="456" d="M82 -225q44 42 93.5 111t49.5 100q0 14 -14 18q-111 23 -111 127q0 58 37.5 91.5t95.5 33.5q65 0 103.5 -43.5t38.5 -110.5q0 -92 -57.5 -179t-129.5 -148h-106z" />
<glyph unicode="&#x201c;" horiz-adv-x="819" d="M82 1335q0 84 53.5 173t128.5 155h84q-42 -42 -86.5 -103t-44.5 -100q0 -15 4.5 -20t13.5 -6h1.5h1.5q53 -7 78.5 -40t25.5 -73q0 -48 -31 -85.5t-94 -37.5q-53 0 -94 34t-41 103zM471 1335q0 84 53.5 173t128.5 155h84q-42 -42 -86.5 -103t-44.5 -100q0 -15 4.5 -20 t13.5 -6h3q53 -7 78.5 -40t25.5 -73q0 -48 -31 -85.5t-94 -37.5q-53 0 -94 34t-41 103z" />
<glyph unicode="&#x201d;" horiz-adv-x="819" d="M82 1198q15 15 39 42t58 79t34 82q0 12 -3 17.5t-5.5 6.5t-11.5 2q-54 7 -79.5 40t-25.5 73q0 48 31 85.5t94 37.5q53 0 94 -34t41 -103q0 -84 -53.5 -173t-128.5 -155h-84zM471 1198q15 15 39 42t58 79t34 82q0 12 -3 17.5t-5.5 6.5t-11.5 2q-54 7 -79.5 40t-25.5 73 q0 48 31 85.5t94 37.5q53 0 94 -34t41 -103q0 -84 -53.5 -173t-128.5 -155h-84z" />
<glyph unicode="&#x201e;" horiz-adv-x="819" d="M82 -229q16 16 39.5 42t57.5 78t34 82q0 12 -3 18t-6 7t-11 2q-54 7 -79.5 40t-25.5 73q0 48 31 85.5t94 37.5q53 0 94 -34.5t41 -103.5q0 -84 -53.5 -172.5t-128.5 -154.5h-84zM471 -229q16 16 39.5 42t57.5 78t34 82q0 12 -3 18t-6 7t-11 2q-54 7 -79.5 40t-25.5 73 q0 48 31 85.5t94 37.5q53 0 94 -34.5t41 -103.5q0 -84 -53.5 -172.5t-128.5 -154.5h-84z" />
<glyph unicode="&#x2022;" horiz-adv-x="958" d="M205 573q0 114 80 194.5t194 80.5t194.5 -80.5t80.5 -194.5t-80.5 -194t-194.5 -80t-194 80t-80 194z" />
<glyph unicode="&#x2026;" horiz-adv-x="1589" d="M82 104q0 56 40 96t95 40t95 -40t40 -96t-40 -95.5t-95 -39.5t-95 39.5t-40 95.5zM659 104q0 56 40.5 96t95.5 40t95 -40t40 -96t-40 -95.5t-95 -39.5q-56 0 -96 40t-40 95zM1237 104q0 56 40 96t95 40t95 -40t40 -96t-39.5 -95.5t-95.5 -39.5t-95.5 39.5t-39.5 95.5z " />
<glyph unicode="&#x202f;" horiz-adv-x="375" />
<glyph unicode="&#x2039;" horiz-adv-x="475" d="M82 539l240 370h71l-135 -370l135 -371h-71z" />
<glyph unicode="&#x203a;" horiz-adv-x="475" d="M82 168l135 371l-135 370h72l239 -370l-239 -371h-72z" />
<glyph unicode="&#x205f;" horiz-adv-x="469" />
<glyph unicode="&#x20ac;" d="M47 563l37 84h106q-2 18 -2 70q0 8 1 31.5t1 31.5h-143l37 86h115q18 141 58.5 247t110 187t178.5 122.5t255 41.5q275 0 389 -123l14 -190h-45q-18 116 -102 170.5t-213 54.5q-103 0 -178 -36.5t-121.5 -107t-73 -159t-39.5 -207.5h643l-37 -86h-612q0 -9 -1 -32t-1 -33 q0 -52 2 -68h551l-39 -84h-508q20 -243 127 -374.5t289 -131.5q120 0 206.5 55.5t106.5 174.5h45l-14 -185q-115 -131 -389 -131q-535 0 -596 592h-158z" />
<glyph unicode="&#x2122;" horiz-adv-x="1470" d="M51 1274l49 164q18 -1 32.5 -2t21.5 -1.5t12 -0.5h348q40 0 68 4l-41 -142q-15 47 -76 47h-90v-458q0 -70 59 -99h-225q53 35 53 99v458h-96q-31 0 -62.5 -17.5t-52.5 -51.5zM526 786q54 46 62 113l63 432q3 17 3 25t-1.5 26t-11.5 30.5t-29 21.5h187l174 -453l157 383 q2 7 7.5 19t9 23.5t6.5 27.5h182q-47 -41 -39 -101l60 -454q7 -66 63 -93h-229q9 6 16.5 12.5t13 12.5t9 13.5t6 12.5t4 13t2 12t0 12t-1 11.5t-1.5 11.5t-1 10l-45 379l-209 -516l-37 29q-13 10 -27.5 35t-21.5 45l-162 409l-53 -391q-1 -16 -3.5 -33.5t9.5 -40t39 -37.5 h-201z" />
<glyph unicode="&#xe000;" horiz-adv-x="1003" d="M0 0v1004h1004v-1004h-1004z" />
</font>
</defs>
</svg>
