<?xml version="1.0" standalone="no"?>
<!DOCTYPE svg PUBLIC "-//W3C//DTD SVG 1.1//EN" "http://www.w3.org/Graphics/SVG/1.1/DTD/svg11.dtd" >
<svg xmlns="http://www.w3.org/2000/svg">
<metadata></metadata>
<defs>
<font id="frizquadratacbold" horiz-adv-x="1310" >
<font-face units-per-em="2048" ascent="1475" descent="-573" />
<missing-glyph horiz-adv-x="477" />
<glyph horiz-adv-x="2048" />
<glyph horiz-adv-x="2048" />
<glyph unicode="&#xd;" horiz-adv-x="2048" />
<glyph unicode=" "  horiz-adv-x="477" />
<glyph unicode="&#x09;" horiz-adv-x="477" />
<glyph unicode="&#xa0;" horiz-adv-x="477" />
<glyph unicode="!" horiz-adv-x="634" d="M92 1434h451l-72 -996h-307zM123 154q0 80 57.5 137t136.5 57q80 0 137.5 -57.5t57.5 -136.5q0 -80 -58 -137.5t-137 -57.5t-136.5 57.5t-57.5 137.5z" />
<glyph unicode="&#x22;" horiz-adv-x="790" d="M92 1477h234l-60 -643h-114zM465 1477h233l-59 -643h-115z" />
<glyph unicode="#" horiz-adv-x="1433" d="M41 416l31 155h235l76 371h-244l31 156h244l84 418h178l-84 -418h373l84 418h178l-84 -418h250l-33 -156h-248l-76 -371h258l-32 -155h-256l-76 -371h-178l75 371h-372l-74 -371h-180l75 371h-235zM485 571h373l76 371h-373z" />
<glyph unicode="$" horiz-adv-x="962" d="M72 240v239q146 -119 327 -119v351q-75 35 -128 69t-99.5 82t-70 112t-23.5 144q0 149 94 248.5t238 108.5v133h151v-133q109 -11 230 -70v-219q-133 88 -230 96v-278q340 -148 340 -439q0 -82 -22 -149t-57 -111.5t-82 -76t-94 -47t-95 -19.5v-162h-152v162 q-172 3 -327 78zM336 1186q0 -84 74 -109v199q-34 -6 -54 -31.5t-20 -58.5zM551 375q74 22 74 129q0 20 -4.5 40.5t-22.5 46.5t-47 40v-256z" />
<glyph unicode="%" horiz-adv-x="1570" d="M41 1116q0 89 41 169.5t127 135t199 54.5q153 0 250.5 -95t97.5 -247q0 -51 -9 -98t-34.5 -98t-64.5 -88t-105.5 -61t-151.5 -24q-79 0 -141.5 23t-100.5 59.5t-63.5 84.5t-35 93.5t-9.5 91.5zM260 0l850 1434h213l-850 -1434h-213zM295 1116q0 -84 23 -131t83 -47 q29 0 49 11.5t30 26t15 40.5t6 43t1 45q0 192 -111 192q-31 0 -51.5 -14.5t-29.5 -43t-12 -55.5t-3 -67zM815 311q0 89 41 169.5t127 135t199 54.5q153 0 250.5 -95t97.5 -247q0 -51 -9 -98t-34.5 -98t-64.5 -88t-105.5 -61t-151.5 -24q-79 0 -141.5 23t-100.5 59.5 t-63.5 84.5t-35 93.5t-9.5 91.5zM1069 311q0 -84 23.5 -131t83.5 -47q29 0 49 11.5t29.5 26t15 41t6 42.5t0.5 45q0 193 -111 193q-31 0 -51.5 -14.5t-29.5 -43t-12 -56t-3 -67.5z" />
<glyph unicode="&#x26;" horiz-adv-x="1581" d="M92 365q0 72 24 139t57.5 115t81 92t84.5 69.5t77 48.5q-29 27 -55.5 58t-57 75.5t-49 97.5t-18.5 105q0 136 118 223t310 87q89 0 158.5 -19.5t112 -50t70.5 -72.5t39 -83.5t11 -86.5q0 -80 -40.5 -147.5t-137.5 -153.5l489 -467q45 -43 104 -94t185.5 -139.5 t253.5 -155.5l-191 -24q-405 -52 -628 157q-53 -58 -115.5 -96t-126 -55t-113.5 -23t-108 -6q-146 0 -266.5 47.5t-194.5 141.5t-74 217zM496 436q0 -107 63.5 -179.5t157.5 -72.5q37 0 66.5 5t73 30.5t77.5 71.5l-348 348q-90 -76 -90 -203zM600 1182q0 -50 102 -150 q82 66 82 139q0 38 -26 63.5t-62 25.5q-41 0 -68.5 -22t-27.5 -56z" />
<glyph unicode="'" horiz-adv-x="417" d="M92 1477h234l-60 -643h-114z" />
<glyph unicode="(" horiz-adv-x="792" d="M143 469q0 135 33.5 269.5t82.5 237.5t116.5 203t123 164t115.5 121h199q-281 -479 -281 -995q0 -518 281 -997h-199q-56 53 -108.5 112.5t-122 159.5t-119.5 203.5t-85.5 242.5t-35.5 279z" />
<glyph unicode=")" horiz-adv-x="792" d="M-20 -528q280 477 280 995q0 520 -280 997h198q56 -53 108.5 -112.5t122 -159.5t119.5 -203.5t85.5 -242.5t35.5 -279q0 -135 -33.5 -269.5t-82.5 -237.5t-116.5 -203t-123 -164t-115.5 -121h-198z" />
<glyph unicode="*" horiz-adv-x="786" d="M72 954q0 31 12.5 52t37.5 32t45.5 15.5t54.5 9t46 6.5l41 8q17 3 43 29q-26 26 -43 29l-41 8q-13 3 -38.5 6t-44 5.5t-41.5 10t-37.5 17.5t-24.5 29.5t-10 45.5q0 40 25.5 61t56.5 21q11 0 21.5 -2.5t18.5 -6t17 -10.5t14 -11.5t13 -14.5t10.5 -13.5t9.5 -14t8 -11.5 l39 -55q1 -2 4.5 -7.5t5 -7.5t5 -7t5.5 -7t5.5 -6t6.5 -6t7 -5t8.5 -4.5t9.5 -2.5t11 -2q15 30 -6 82l-17 39q-2 5 -10.5 23t-12 27t-7 26.5t-3.5 35.5q0 42 24 64t52 22t52 -22t24 -64q0 -18 -3.5 -35.5t-7 -26.5t-12 -27t-10.5 -23l-16 -39q-21 -52 -6 -82q8 1 15 2.5 t13 6t9.5 6.5t9 9.5t7 9t7 11t6.5 10.5l39 55q1 1 7 10.5t8.5 12t9 11.5t11 13t12 11.5t14 10.5t15 7.5t17.5 6t19 1.5q31 0 56.5 -21t25.5 -61q0 -26 -10 -45.5t-25 -29.5t-38 -17.5t-41.5 -10t-44 -5.5t-38.5 -6l-41 -8q-17 -3 -43 -29q26 -26 43 -29l41 -8q12 -2 38 -5.5 t44.5 -6t41.5 -10t38 -18t25 -30t10 -45.5q0 -40 -25.5 -61t-56.5 -21q-10 0 -19 1.5t-17.5 6t-15 7.5t-14 10.5t-12 11.5t-11 13t-9 11.5t-8.5 12t-7 10.5l-39 56q-1 2 -5.5 9t-6.5 9.5t-6 8.5t-7 8.5t-8 6.5t-9.5 6t-11 4t-13.5 3q-15 -30 6 -82l16 -39q2 -5 10.5 -23 t12 -27t7 -26.5t3.5 -35.5q0 -42 -24 -64t-52 -22t-52 22t-24 64q0 18 3.5 35.5t7 26.5t12 27t10.5 23l17 39q21 52 6 82q-18 -2 -32.5 -12.5t-18.5 -16t-17 -26.5l-39 -56q-1 -1 -8 -11.5t-9.5 -14t-10.5 -13.5t-13 -14.5t-14 -11.5t-17 -10.5t-18.5 -6t-21.5 -2.5 q-31 0 -56.5 21t-25.5 61z" />
<glyph unicode="+" d="M59 641v152h521v520h151v-520h520v-152h-520v-520h-151v520h-521z" />
<glyph unicode="," horiz-adv-x="524" d="M61 -285q146 140 203 244q-85 -1 -135.5 49.5t-50.5 122.5q0 73 50 133t140 60q87 0 141 -58t54 -149q0 -15 -2 -32.5t-14.5 -59t-33.5 -83.5t-65.5 -101t-105.5 -117q-35 -15 -99 -15q-35 0 -82 6z" />
<glyph unicode="-" horiz-adv-x="944" d="M82 430l160 213q26 35 65 35h555l-160 -213q-26 -35 -65 -35h-555z" />
<glyph unicode="." horiz-adv-x="512" d="M61 154q0 79 57.5 136.5t137.5 57.5t137.5 -57.5t57.5 -136.5q0 -80 -57.5 -137.5t-137.5 -57.5t-137.5 57.5t-57.5 137.5z" />
<glyph unicode="/" horiz-adv-x="819" d="M-20 -279l661 1743h168l-662 -1743h-167z" />
<glyph unicode="0" d="M70 717q0 120 23.5 230.5t72.5 207t118 167.5t167 112t213 41q177 0 308.5 -97.5t200 -268.5t68.5 -392q0 -172 -44.5 -315t-123 -239.5t-187 -150t-233.5 -53.5q-173 0 -307 100.5t-205 272t-71 385.5zM459 737q0 -142 14.5 -248t35.5 -162.5t50 -90.5t51.5 -43t46.5 -9 q43 0 76 26t53.5 72.5t34.5 98.5t20 117.5t8.5 115t2.5 103.5q0 126 -12.5 223t-32 154t-46 93.5t-51.5 49t-51 12.5q-27 0 -50.5 -9t-52.5 -41t-49 -85t-34 -150t-14 -227z" />
<glyph unicode="1" d="M281 1126q167 42 312.5 125.5t289.5 223.5v-1252q0 -74 17.5 -129t68.5 -94h-561q51 39 68.5 94t17.5 129v838q-108 42 -213 65z" />
<glyph unicode="2" d="M92 0l469 788q125 212 125 312q0 62 -38 105.5t-120 43.5q-92 0 -183 -44t-161 -105l95 301q191 74 370 74q108 0 194.5 -30.5t141 -83t83 -119.5t28.5 -142q0 -174 -178 -461l-254 -412q66 -12 180 -12q96 0 181 20t189 72l-96 -307h-1026z" />
<glyph unicode="3" d="M125 250q147 -76 324 -76q138 0 218.5 77.5t80.5 197.5q0 46 -11 82t-29.5 60.5t-48 42.5t-59 28t-71.5 15.5t-77 7t-83 1.5h-43v193h45q62 0 114 11t96.5 34t69.5 64t25 97q0 175 -201 175q-132 0 -301 -89l72 242q94 33 194 47.5t168 14.5q119 0 213 -29.5t150 -79.5 t85 -110t29 -126q0 -99 -65.5 -180.5t-171.5 -115.5v-9q132 -26 220.5 -119.5t88.5 -250.5q0 -217 -184 -356.5t-488 -139.5q-139 0 -303 39z" />
<glyph unicode="4" d="M4 309l623 1125h417v-926h54q105 0 198 63l-88 -262h-164v-131q0 -122 72 -178h-512q72 56 72 178v131h-672zM330 508h346v633z" />
<glyph unicode="5" d="M121 264q174 -96 340 -96q138 0 225.5 73t87.5 210q0 49 -9.5 90t-24 70t-37.5 52.5t-44 38t-49.5 25t-48 15t-45.5 7t-36 3t-25 0.5q-139 0 -281 -39l47 721h871v-281q-142 76 -314 76q-28 0 -227 -15l-14 -278q86 14 157 14q224 0 363 -127.5t139 -347.5 q0 -232 -176 -374t-463 -142q-212 0 -367 57z" />
<glyph unicode="6" d="M94 586q0 115 34.5 227.5t97 211.5t155 183.5t204 144.5t249 92.5t284.5 29.5l-78 -177q-116 -21 -215.5 -79t-177 -149t-122 -222.5t-44.5 -288.5q0 -91 14.5 -161t35.5 -109.5t50 -64t54 -32.5t51 -8q15 0 31 3t43 18.5t47.5 42.5t35.5 81.5t15 127.5q0 81 -18.5 147 t-64 111t-111.5 45q-43 0 -105 -23l86 197q71 24 133 24q129 0 231.5 -55t163 -163.5t60.5 -254.5q0 -108 -38.5 -203.5t-108.5 -167t-176 -113.5t-234 -42q-124 0 -225.5 40t-166.5 104t-109 148.5t-62.5 168t-18.5 166.5z" />
<glyph unicode="7" d="M86 1128l100 306h1031l-443 -1207q-20 -62 -20 -94q0 -80 75 -133h-565l477 1202q-132 27 -262 27q-114 0 -191.5 -18t-201.5 -83z" />
<glyph unicode="8" d="M61 377q0 70 22.5 128.5t61 99t79.5 67.5t89 47v12q-213 120 -213 346q0 87 33.5 156.5t87.5 114t128 74t150.5 41.5t159.5 12q75 0 147 -12t140.5 -40t120 -69t82.5 -103.5t31 -138.5q0 -111 -55 -189.5t-146 -115.5q48 -21 91.5 -52.5t86 -78t67.5 -113t25 -143.5 q0 -58 -16 -116.5t-59 -122t-108.5 -112t-173.5 -79.5t-245 -31q-263 0 -424.5 113t-161.5 305zM369 414q0 -114 72.5 -182t187.5 -68q60 0 105.5 18t69.5 46.5t35 57.5t11 58q0 24 -8 45.5t-17.5 38t-30.5 34.5t-35 28.5t-44.5 27.5t-44 23.5t-47.5 23.5l-136 66 q-64 -42 -91 -92.5t-27 -124.5zM489 1147q0 -60 41.5 -104t120.5 -82l144 -68q77 61 77 147q0 113 -64 175.5t-157 62.5q-70 0 -116 -36.5t-46 -94.5z" />
<glyph unicode="9" d="M94 948q0 108 38.5 203.5t108.5 167.5t176 114t234 42q124 0 225.5 -40t166.5 -104t109 -148.5t62.5 -168t18.5 -166.5q0 -115 -34.5 -227.5t-97 -211.5t-155 -183.5t-204 -144.5t-249 -92.5t-284.5 -29.5l78 176q116 21 215.5 79t177 149t122 222.5t44.5 288.5 q0 91 -14.5 161t-35.5 109.5t-50 64t-54 32.5t-51 8q-15 0 -31 -3t-43.5 -18.5t-47 -42t-35 -81t-15.5 -127.5q0 -126 49 -214.5t146 -88.5q45 0 104 22l-86 -196q-74 -25 -133 -25q-129 0 -231.5 55t-163 163.5t-60.5 254.5z" />
<glyph unicode=":" horiz-adv-x="512" d="M61 154q0 79 57.5 136.5t137.5 57.5t137.5 -57.5t57.5 -136.5q0 -80 -57.5 -137.5t-137.5 -57.5t-137.5 57.5t-57.5 137.5zM61 768q0 80 57.5 137.5t137.5 57.5t137.5 -57.5t57.5 -137.5t-57.5 -137.5t-137.5 -57.5t-137.5 57.5t-57.5 137.5z" />
<glyph unicode=";" horiz-adv-x="524" d="M61 -285q146 140 203 244q-85 -1 -135.5 49.5t-50.5 122.5q0 73 50 133t140 60q87 0 141 -58t54 -149q0 -15 -2 -32.5t-14.5 -59t-33.5 -83.5t-65.5 -101t-105.5 -117q-35 -15 -99 -15q-35 0 -82 6zM72 768q0 80 57.5 137.5t136.5 57.5q80 0 137.5 -57.5t57.5 -137.5 t-57.5 -137.5t-137.5 -57.5q-79 0 -136.5 57.5t-57.5 137.5z" />
<glyph unicode="&#x3c;" d="M84 709l1069 675l74 -116l-875 -559l875 -559l-74 -117z" />
<glyph unicode="=" d="M57 459v151h1196v-151h-1196zM57 823v152h1196v-152h-1196z" />
<glyph unicode="&#x3e;" d="M84 150l877 559l-877 559l74 116l1069 -675l-1069 -676z" />
<glyph unicode="?" horiz-adv-x="978" d="M72 1153l88 277q128 45 276 45q132 0 244 -49.5t180 -142.5t68 -212q0 -106 -48.5 -192.5t-172.5 -184.5q-8 -6 -22 -17q-103 -81 -123 -106q-24 -35 -25 -84q0 -32 16 -55h-297v47q0 50 2.5 79.5t22 81.5t57.5 97q18 21 57.5 59t63.5 64t44.5 69.5t20.5 90.5 q0 58 -24 101t-61.5 64t-73 30.5t-68.5 9.5q-54 0 -115.5 -21t-109.5 -51zM203 154q0 80 57.5 137t136.5 57q80 0 137.5 -57.5t57.5 -136.5q0 -80 -58 -137.5t-137 -57.5t-136.5 57.5t-57.5 137.5z" />
<glyph unicode="@" horiz-adv-x="1701" d="M102 688q0 225 108 406t292 281t405 100q127 0 239 -36t193.5 -99t141 -146.5t89 -179t29.5 -195.5q0 -75 -16 -148t-53.5 -144t-91.5 -124.5t-137 -86.5t-183 -33q-76 0 -116.5 40t-40.5 99q0 33 10 78l98 450q-45 31 -125 31q-129 0 -220 -102.5t-91 -255.5 q0 -181 153 -181q85 0 144 41l-78 -178q-52 -29 -115 -29q-54 0 -104 19t-93.5 56.5t-69.5 102t-26 146.5q0 103 30.5 191.5t81.5 150.5t118.5 105.5t142 64.5t150.5 21q58 0 126 -11.5t76 -11.5q5 0 18 3t23 5l78 17l-123 -598q-8 -32 -8 -56q0 -18 3 -28t12 -14t15 -4.5 t21 -0.5q130 0 199.5 107.5t69.5 277.5q0 109 -41 206.5t-113.5 170t-180 114.5t-233.5 42q-151 0 -278 -54.5t-210 -146t-129 -209.5t-46 -246q0 -118 33 -218t92 -172.5t139.5 -123t175.5 -75.5t201 -25q195 0 352 78l37 -117q-197 -84 -410 -84q-148 0 -274.5 41 t-215.5 110.5t-151.5 163t-92.5 198.5t-30 216z" />
<glyph unicode="A" horiz-adv-x="1468" d="M-59 0q59 62 91.5 115.5t61.5 136.5l330 954q20 55 20 109q0 63 -79 119h520l424 -1182q67 -188 170 -252h-654q44 24 67 63t23 84q0 13 -6.5 44t-11.5 42l-72 201h-430l-71 -205q-21 -65 -21 -100q0 -78 72 -129h-434zM459 639h299l-148 434z" />
<glyph unicode="B" horiz-adv-x="1251" d="M72 0q51 39 68.5 94t17.5 129v987q0 74 -17.5 129.5t-68.5 94.5h678q109 0 190 -31.5t123.5 -82t62 -103t19.5 -105.5q0 -105 -62 -185t-174 -112q140 -14 231 -113t91 -256q0 -207 -139.5 -326.5t-352.5 -119.5h-667zM547 231q68 -22 125 -22q50 0 86 25t53 65.5 t24 77.5t7 74q0 44 -9 83.5t-30 77t-62.5 60t-99.5 22.5h-94v-463zM547 881q16 -2 49 -2q70 0 111 52.5t41 141.5q0 50 -14 84.5t-37 50t-43.5 21.5t-41.5 6q-33 0 -65 -14v-340z" />
<glyph unicode="C" horiz-adv-x="1357" d="M66 719q0 162 57 302.5t158.5 240t246 156.5t314.5 57q181 0 352 -41l20 -297q-160 112 -340 112q-81 0 -146.5 -24t-106.5 -59t-70.5 -86t-43.5 -93t-22 -93.5t-9 -74.5t-1 -47q0 -107 17.5 -195.5t46 -148t69.5 -105t82.5 -71.5t90.5 -42t88.5 -21t80.5 -5 q93 0 221.5 41t237.5 99l-100 -291q-199 -74 -445 -74q-156 0 -287 40t-224.5 110t-158.5 166t-96.5 208t-31.5 236z" />
<glyph unicode="D" horiz-adv-x="1505" d="M72 0q51 39 68.5 94t17.5 129v987q0 74 -17.5 129.5t-68.5 94.5h624q223 0 392 -90t260.5 -253t91.5 -374q0 -145 -37 -262.5t-91.5 -190.5t-135.5 -126.5t-148.5 -79t-152 -40t-125.5 -16.5t-88 -2h-590zM526 244q61 -19 131 -19q83 0 148 28.5t106.5 75t69 111 t38.5 133t11 144.5q0 113 -20.5 200t-54 141t-81.5 88.5t-98 48t-108 13.5q-63 0 -142 -22v-942z" />
<glyph unicode="E" horiz-adv-x="1050" d="M72 0q51 39 68.5 94t17.5 129v987q0 74 -17.5 129.5t-68.5 94.5h792q30 0 51 8v-305q-59 92 -180 92h-188v-359h297v-278q-55 74 -146 74h-151v-400q0 -35 29 -48t126 -13h164q66 0 126.5 29.5t105.5 76.5l-82 -311h-944z" />
<glyph unicode="F" horiz-adv-x="942" d="M72 0q51 39 68.5 94t17.5 129v987q0 74 -17.5 129.5t-68.5 94.5h792q30 0 51 8v-305q-59 92 -180 92h-188v-359h297v-278q-55 74 -146 74h-151v-443q0 -74 17.5 -129t68.5 -94h-561z" />
<glyph unicode="G" horiz-adv-x="1411" d="M66 688q0 181 60 330t166 248.5t252 154t318 54.5q169 0 352 -54v-291q-147 119 -333 119q-81 0 -146.5 -23t-107 -58t-72 -85.5t-45.5 -94.5t-23.5 -98t-10 -83.5t-1.5 -61.5q0 -111 21.5 -208t66 -178t121.5 -128t178 -47q50 0 103 9v393q0 67 -41 119q-6 9 -31 30h440 v-694q-250 -82 -461 -82q-130 0 -249.5 29.5t-221 90t-176 146.5t-117 204.5t-42.5 258.5z" />
<glyph unicode="H" horiz-adv-x="1480" d="M72 0q51 39 68.5 94t17.5 129v987q0 74 -17.5 129.5t-68.5 94.5h561q-51 -39 -68.5 -94.5t-17.5 -129.5v-342h387v342q0 74 -17.5 129.5t-68.5 94.5h561q-51 -39 -68.5 -94.5t-17.5 -129.5v-987q0 -74 17.5 -129t68.5 -94h-561q51 39 68.5 94t17.5 129v441h-387v-441 q0 -74 17.5 -129t68.5 -94h-561z" />
<glyph unicode="I" horiz-adv-x="704" d="M72 0q51 39 68.5 94t17.5 129v987q0 74 -17.5 129.5t-68.5 94.5h561q-51 -39 -68.5 -94.5t-17.5 -129.5v-987q0 -74 17.5 -129t68.5 -94h-561z" />
<glyph unicode="J" horiz-adv-x="684" d="M-35 -438q95 117 142 245t47 242v1161q0 74 -17.5 129.5t-68.5 94.5h561q-51 -39 -68.5 -94.5t-17.5 -129.5v-1104q0 -49 -1 -77t-8.5 -74.5t-21 -78.5t-41.5 -71.5t-68 -72.5q-73 -59 -193 -104.5t-245 -65.5z" />
<glyph unicode="K" horiz-adv-x="1335" d="M72 0q51 39 68.5 94t17.5 129v987q0 74 -17.5 129.5t-68.5 94.5h561q-51 -39 -68.5 -94.5t-17.5 -129.5v-440l336 440q39 53 39 107q0 53 -82 117h518l-479 -586l436 -701q40 -63 133 -147l-301 -8h-15q-104 0 -179 40q-81 43 -150 165l-256 454v-428q0 -74 17.5 -129 t68.5 -94h-561z" />
<glyph unicode="L" horiz-adv-x="1007" d="M72 0q51 39 68.5 94t17.5 129v987q0 74 -17.5 129.5t-68.5 94.5h561q-51 -39 -68.5 -94.5t-17.5 -129.5v-970q118 -35 248 -35q171 0 290 96l-84 -301h-929z" />
<glyph unicode="M" horiz-adv-x="1847" d="M-8 0q78 75 100 244l119 927q3 28 4 40t0 47.5t-9 59.5t-26.5 57t-48.5 59h492l315 -850l262 850h524q-54 -29 -72 -79q-12 -34 -13 -81q0 -21 3 -45l97 -928q11 -110 32 -172.5t76 -128.5h-563q68 71 68 158q0 19 -9 116l-65 668l-299 -969q-131 48 -217 113 q-29 21 -43 34.5t-32.5 45t-37.5 82.5l-256 688l-76 -688q-4 -37 -4 -68q1 -51 11 -85q16 -55 79 -95h-411z" />
<glyph unicode="N" horiz-adv-x="1538" d="M72 1434h432l672 -883v659q0 74 -17.5 129.5t-68.5 94.5h376q-51 -39 -68.5 -94.5t-17.5 -129.5v-1247q-163 32 -299 117q-91 57 -159 147l-516 670v-674q0 -74 17.5 -129t68.5 -94h-377q51 39 68.5 94t17.5 129v901q0 195 -129 310z" />
<glyph unicode="O" horiz-adv-x="1714" d="M66 702q0 118 32.5 230t99.5 210.5t161 172.5t226 117t285 43q178 0 325 -57t246 -157t153.5 -237.5t54.5 -298.5q0 -158 -55.5 -297.5t-157 -243.5t-255 -164.5t-337.5 -60.5q-157 0 -288 43t-220 115t-151 168t-90.5 201t-28.5 216zM475 760q0 -144 35.5 -258 t94 -181.5t129.5 -102t147 -34.5q48 0 94 12.5t95 46t85.5 84t60 134.5t23.5 190q0 115 -24 220t-70 190.5t-121.5 136.5t-169.5 51q-57 0 -110 -16t-102.5 -53.5t-86 -92.5t-58.5 -139t-22 -188z" />
<glyph unicode="P" horiz-adv-x="1177" d="M72 0q51 39 68.5 94t17.5 129v987q0 74 -17.5 129.5t-68.5 94.5h665q194 0 316.5 -110t122.5 -280q0 -114 -51 -204t-136.5 -142t-194.5 -74q-71 -14 -145 -14q-41 0 -82 4q209 93 209 332q0 140 -61.5 206.5t-147.5 66.5h-20v-996q0 -74 17.5 -129t68.5 -94h-561z" />
<glyph unicode="Q" horiz-adv-x="1708" d="M66 702q0 118 32.5 230t99.5 210.5t161 172.5t226 117t285 43q178 0 325.5 -57t246.5 -157t153 -237.5t54 -298.5q0 -394 -287 -606q85 -87 141 -137t122.5 -95.5t135 -69.5t154.5 -36q-81 -67 -176.5 -105t-175.5 -38q-229 0 -574 329q-65 -8 -145 -8q-157 0 -288 42.5 t-220 114.5t-151 168t-90.5 201.5t-28.5 216.5zM475 760q0 -144 35.5 -258t94 -181.5t129.5 -102t147 -34.5q48 0 94 12.5t95 46t85.5 84t60 134.5t23.5 190q0 115 -24 220t-70 190.5t-121.5 136.5t-169.5 51q-57 0 -110 -16t-102.5 -53.5t-86 -92.5t-58.5 -139t-22 -188z " />
<glyph unicode="R" horiz-adv-x="1273" d="M72 0q51 39 68.5 94t17.5 129v987q0 74 -17.5 129.5t-68.5 94.5h696q180 0 300 -107t120 -268q0 -125 -74.5 -219t-198.5 -135l228 -381q33 -56 112.5 -167t133.5 -157l-299 -14q-12 -1 -24 -1q-46 -1 -85 9q-49 12 -84 33t-67 59.5t-55 76.5t-52 97l-176 358v-395 q0 -74 17.5 -129t68.5 -94h-561zM547 721q113 19 177 105t64 186q0 54 -19 97.5t-50 68.5t-65.5 38t-69.5 13h-37v-508z" />
<glyph unicode="S" horiz-adv-x="1157" d="M53 360q104 -88 226 -132t229 -44q67 0 115 16.5t70.5 44t32 54t9.5 55.5q0 23 -5.5 43t-12.5 35t-23.5 31t-29.5 26.5t-40.5 25.5t-45 24t-54.5 27.5l-59 29.5q-49 25 -76.5 40t-71.5 42.5t-69.5 50t-57 58t-48 71.5t-28.5 84t-12 102q0 88 34 165t98.5 137t166 94.5 t228.5 34.5q183 0 370 -62v-262q-60 34 -145.5 66t-161.5 32q-31 0 -61 -5.5t-60.5 -18.5t-49.5 -40.5t-19 -64.5q0 -31 9 -55t20.5 -40.5t40 -35t50.5 -29.5t68 -32q160 -76 224 -119q185 -124 210 -309q4 -31 4 -64q0 -71 -20.5 -138.5t-67 -129.5t-113.5 -108 t-167.5 -73.5t-222.5 -27.5q-206 0 -422 90z" />
<glyph unicode="T" horiz-adv-x="1007" d="M-39 1106l80 336q21 -8 51 -8h965q30 0 51 8l-72 -322q-10 27 -30 44.5t-47 24.5t-48 9t-49 2h-137v-977q0 -74 17.5 -129t68.5 -94h-561q51 39 68.5 94t17.5 129v977h-137q-141 0 -238 -94z" />
<glyph unicode="U" horiz-adv-x="1486" d="M57 1434h561q-51 -39 -68.5 -94.5t-17.5 -129.5v-688q0 -43 2.5 -76.5t14 -80.5t31 -78t58.5 -53.5t93 -22.5q30 0 57.5 8.5t56 32.5t49 61.5t33.5 100t13 143.5v653q0 74 -17.5 129.5t-68.5 94.5h561q-51 -39 -68.5 -94.5t-17.5 -129.5v-987q0 -74 17.5 -129t68.5 -94 h-461v184q-57 -115 -161.5 -170t-233.5 -55q-83 0 -149 20t-109 50t-74 76t-46.5 87.5t-24.5 96.5t-11 90t-2 80v751q0 74 -17.5 129.5t-68.5 94.5z" />
<glyph unicode="V" horiz-adv-x="1198" d="M-106 1434h471l358 -1043l252 797q22 80 22 121q0 64 -82 125h369l-493 -1465q-87 30 -139 50t-103 46.5t-79.5 50t-58 60.5t-49.5 79t-43 105l-305 842q-38 106 -59 149t-61 83z" />
<glyph unicode="W" horiz-adv-x="1896" d="M-106 1434h475l272 -1014l168 657q22 95 22 133q0 52 -27.5 116.5t-70.5 107.5h467q-12 -32 -12 -71v-11q2 -46 26 -127l236 -805l209 721q22 80 22 129q0 46 -18 83t-53 81h372l-473 -1465q-96 27 -147.5 51t-104.5 60q-58 39 -81 64t-39.5 64t-46.5 140l-146 494 l-239 -873q-166 43 -265 115q-27 19 -48.5 40.5t-37.5 45t-27 41t-20 43.5t-13 37.5t-10.5 38t-7.5 30.5l-249 850q-12 43 -22.5 71t-39 71.5t-71.5 81.5z" />
<glyph unicode="X" horiz-adv-x="1300" d="M-55 0l501 743l-327 519q-61 92 -137 172h495l271 -465l139 235q31 53 31 101q0 35 -21 70.5t-55 58.5h475l-443 -656l363 -590q54 -92 158 -188h-502l-320 557l-198 -332q-25 -45 -25 -100q0 -71 70 -125h-475z" />
<glyph unicode="Y" horiz-adv-x="1050" d="M-106 1434h495l252 -537l147 317q27 54 27 99q0 61 -63 121h385l-400 -799v-412q0 -74 17.5 -129t68.5 -94h-561q51 39 68.5 94t17.5 129v418l-311 596q-66 125 -143 197z" />
<glyph unicode="Z" horiz-adv-x="1187" d="M-41 0l662 1225q-122 10 -187 10q-82 0 -183 -25.5t-192 -87.5l113 312h1004l-648 -1207q132 -22 297 -22q109 0 209.5 25t222.5 104l-122 -334h-1176z" />
<glyph unicode="[" horiz-adv-x="845" d="M123 -526q33 23 54 50t28.5 57t9.5 48.5t2 48.5v1616q0 30 -2 48.5t-9.5 49t-28.5 57.5t-54 50h723v-184h-260v-1657h260v-184h-723z" />
<glyph unicode="\" horiz-adv-x="819" d="M10 1464h168l662 -1743h-168z" />
<glyph unicode="]" horiz-adv-x="845" d="M0 -342h260v1657h-260v184h723q-33 -23 -54 -50t-28.5 -57.5t-9.5 -49t-2 -48.5v-1616q0 -30 2 -48.5t9.5 -48.5t28.5 -57t54 -50h-723v184z" />
<glyph unicode="^" horiz-adv-x="1081" d="M61 829l480 646l479 -646h-189l-290 392l-291 -392h-189z" />
<glyph unicode="_" horiz-adv-x="1165" d="M0 -436h1165v-137h-1165v137z" />
<glyph unicode="`" horiz-adv-x="747" d="M0 1272l164 239l584 -370l-60 -60z" />
<glyph unicode="a" horiz-adv-x="1107" d="M10 283q0 45 12 85.5t42.5 85t94 80t154.5 54.5l119 24q30 6 42 8.5t37 9.5t36.5 14t26 18.5t20.5 27t6 35.5q0 90 -149 90q-131 0 -254 -70l102 228q107 31 240 31q111 0 193 -25.5t125.5 -62t69 -90.5t32 -97t6.5 -96v-293q0 -73 43 -117.5t98 -44.5h33l-95 -196 q-20 -2 -59 -2q-102 0 -177.5 24t-114.5 56.5t-62.5 78t-29 77.5t-5.5 65v194q-19 -14 -45 -24q-5 -2 -25.5 -10t-27.5 -11t-24.5 -11.5t-24.5 -14.5t-19 -17t-17 -22.5t-9.5 -27.5t-4.5 -34q0 -61 38 -98t100 -37q24 0 36 2l-98 -184q-59 -6 -115 -6q-93 0 -163 26 t-109.5 70t-58.5 96t-19 111z" />
<glyph unicode="b" horiz-adv-x="1251" d="M25 1434h292q70 0 103 7.5t57 26.5v-1278q37 -12 76 -12q112 0 185 86t73 230q0 75 -22 136.5t-58 99.5t-79.5 58.5t-88.5 20.5h-31l105 188q44 7 76 7q215 0 351 -128.5t136 -336.5q0 -89 -25 -170t-78 -152.5t-130 -124t-186.5 -82.5t-241.5 -30q-274 0 -488 61 q22 21 34.5 43.5t17.5 59.5t5.5 56.5t0.5 75.5v938q0 150 -84 220z" />
<glyph unicode="c" horiz-adv-x="1015" d="M51 481q0 231 165.5 377t449.5 146q110 0 215 -27l4 -242q-88 70 -211 70q-29 0 -55 -4.5t-60.5 -21.5t-59 -45t-42 -80.5t-17.5 -123.5q0 -78 17.5 -139t45.5 -97t66 -59t74.5 -31.5t75.5 -8.5q72 0 153 26t148 76l-78 -246q-162 -71 -342 -71q-237 0 -393 139.5 t-156 361.5z" />
<glyph unicode="d" horiz-adv-x="1243" d="M51 475q0 229 136 379t339 150q145 0 234 -76v276q0 144 -68 230h299q78 0 137 41v-1297q0 -122 72 -178h-440v643q0 70 -35.5 107.5t-99.5 37.5q-46 0 -80.5 -21t-54 -52t-31.5 -74t-15.5 -80t-3.5 -78q0 -79 17.5 -137.5t44 -90.5t63.5 -51q37 -20 70 -24q23 -3 48 -3 q11 0 22 1l-107 -192q-38 -6 -76 -6q-204 0 -337.5 134t-133.5 361z" />
<glyph unicode="e" horiz-adv-x="1167" d="M51 487q0 99 37 191t104.5 165t174 117t235.5 44q120 0 213 -34.5t147.5 -87.5t89.5 -123.5t47 -135.5q11 -60 11 -121v-10h-670v-19q0 -121 72 -205q78 -90 229 -90q155 0 381 117l-84 -248q-161 -67 -370 -67q-155 0 -274.5 39.5t-193.5 109t-111.5 160.5t-37.5 198z M455 668h286q-1 25 -7.5 48.5t-20.5 47t-42 37.5t-67 14q-62 0 -101.5 -43t-47.5 -104z" />
<glyph unicode="f" horiz-adv-x="712" d="M-20 799l135 184h16v113q0 183 137 281t365 98q113 0 221 -27l-152 -211q-25 21 -45 30t-49 9q-108 0 -108 -141v-152h250v-223q-45 39 -121 39h-129v-621q0 -122 71 -178h-512q72 56 72 178v621h-151z" />
<glyph unicode="g" horiz-adv-x="1132" d="M-2 -225q0 82 71 129t162 47q84 0 152 -33q-45 -8 -65.5 -30t-20.5 -64q0 -123 211 -123q96 0 155.5 44t59.5 120q0 160 -205 160q-78 0 -125 -6.5t-51 -6.5q-41 0 -76.5 23t-56.5 55t-33 62t-12 49q0 14 8 23t16 12t29 10q7 2 20.5 6t20.5 6q2 1 10 3t14 4t13.5 5 t11.5 6.5t4 6.5q0 8 -32 16q-53 15 -117 68q-111 95 -111 249q0 121 64 210.5t170.5 133.5t240.5 44q79 0 205 -19q49 -1 99 -1q149 0 305 13l-99 -204l-123 12q93 -76 93 -205q0 -80 -30.5 -140.5t-74 -93.5t-106 -56.5t-113 -32t-109 -17t-79.5 -14.5q-48 -12 -48 -43 q0 -29 43 -29q17 0 72.5 7t122.5 7q223 0 336 -87.5t113 -223.5q0 -33 -6.5 -65t-24 -68.5t-45 -68t-73.5 -61.5t-105.5 -51t-145 -33.5t-188.5 -12.5q-129 0 -228.5 16.5t-158.5 42t-96.5 61t-50.5 69t-13 69.5zM399 649q0 -25 3.5 -51.5t15.5 -66.5t42 -65.5t75 -25.5 q122 0 122 178q0 10 -1 22.5t-4.5 37t-13 45t-23.5 41.5t-38.5 33t-56.5 12q-62 0 -91.5 -46t-29.5 -114z" />
<glyph unicode="h" horiz-adv-x="1218" d="M31 1434h293q70 0 102.5 7.5t56.5 26.5v-571q99 107 267 107q45 0 87 -6.5t95 -29.5t91.5 -61t65.5 -109t27 -165v-455q0 -122 72 -178h-512q72 56 72 178v463q0 14 -2 30.5t-10 42t-21.5 44.5t-39.5 33t-61 14q-131 0 -131 -178v-449q0 -122 72 -178h-512q72 56 72 178 v1036q0 150 -84 220z" />
<glyph unicode="i" horiz-adv-x="595" d="M41 983h293q70 0 103 7.5t57 27.5v-840q0 -122 71 -178h-512q72 56 72 178v586q0 149 -84 219zM80 1264q0 86 61.5 147.5t147.5 61.5t147.5 -61.5t61.5 -147.5t-61.5 -147.5t-147.5 -61.5t-147.5 61.5t-61.5 147.5z" />
<glyph unicode="j" horiz-adv-x="581" d="M-82 -473q31 26 56 55.5t43 61t32.5 66.5t23.5 71t15.5 74.5t9.5 77.5t4.5 80t1.5 81v82v45v543q0 149 -84 219h293q70 0 103 7.5t57 27.5v-789q0 -118 -2.5 -190.5t-11 -142.5t-22.5 -110t-40.5 -77t-62.5 -60.5t-90 -45.5q-143 -58 -326 -76zM53 1264q0 86 61.5 147.5 t147.5 61.5t147.5 -61.5t61.5 -147.5t-61.5 -147.5t-147.5 -61.5t-147.5 61.5t-61.5 147.5z" />
<glyph unicode="k" horiz-adv-x="1165" d="M41 1434h293q70 0 103 7.5t57 26.5v-907l211 230q38 41 38 81q0 33 -21.5 63t-55.5 48h483l-336 -365l303 -483q35 -57 62 -87t65 -48l-346 -8h-22q-21 0 -33 1q-18 2 -41 10.5t-41.5 28.5t-41 52.5t-52.5 85.5l-172 301v-293q0 -122 71 -178h-512q72 56 72 178v1036 q0 150 -84 220z" />
<glyph unicode="l" horiz-adv-x="608" d="M41 1434h293q70 0 103 7.5t57 26.5v-1290q0 -122 71 -178h-512q72 56 72 178v1036q0 150 -84 220z" />
<glyph unicode="m" horiz-adv-x="1787" d="M41 0q72 56 72 178v596q0 115 -58 209h303h13h14.5t13.5 0.5t16 3t16.5 6t19 9.5t20.5 14v-139q113 127 270 127q169 0 265 -125q120 125 331 125q160 0 258.5 -89t98.5 -223v-510q0 -63 13 -105.5t50 -76.5h-504q72 56 72 178v467q0 73 -26.5 111.5t-90.5 38.5 q-68 0 -94.5 -44.5t-26.5 -123.5v-445q0 -62 13.5 -104.5t50.5 -77.5h-504q72 56 72 178v467q0 73 -26.5 111.5t-90.5 38.5q-68 0 -94.5 -44.5t-26.5 -123.5v-445q0 -62 13.5 -104.5t50.5 -77.5h-504z" />
<glyph unicode="n" horiz-adv-x="1239" d="M41 0q72 56 72 178v596q0 115 -58 209h303h13h14.5t13.5 0.5t16 3t16.5 6t19 9.5t20.5 14v-127q112 115 297 115q46 0 91.5 -9.5t94.5 -34.5t85.5 -62.5t60.5 -99.5t24 -139v-473q0 -55 21.5 -106.5t62.5 -79.5h-528q76 73 76 195v434q0 85 -41 125.5t-99 40.5 q-38 0 -65.5 -16t-40.5 -35.5t-20 -47.5t-8 -41t-1 -28v-445q0 -62 13.5 -104.5t50.5 -77.5h-504z" />
<glyph unicode="o" horiz-adv-x="1286" d="M51 487q0 233 165 375t435 142q271 0 427.5 -139.5t156.5 -364.5q0 -124 -48.5 -224t-132 -164t-192 -98t-231.5 -34q-91 0 -173.5 17.5t-157.5 56.5t-130 96.5t-87 144t-32 192.5zM440 516q0 -338 207 -338q199 0 199 301q0 42 -3.5 79t-16.5 85t-35 81.5t-63 57 t-97 23.5q-26 0 -49.5 -6t-50.5 -25t-46 -49.5t-32 -84t-13 -124.5z" />
<glyph unicode="p" horiz-adv-x="1261" d="M25 983h294q70 0 103 7.5t57 27.5v-152q98 138 297 138q205 0 319.5 -132.5t114.5 -363.5q0 -250 -136 -389t-365 -139q-31 0 -93 8l-73 196q27 -6 55 -6q62 0 106.5 22.5t66 52t34 74.5t14.5 72.5t2 63.5q0 325 -188 325q-20 0 -43 -8t-50.5 -27t-45 -60.5t-17.5 -98.5 v-862q0 -63 13.5 -106t50.5 -77h-504q72 56 72 179v1036q0 149 -84 219z" />
<glyph unicode="q" horiz-adv-x="1263" d="M51 479q0 81 18.5 150t47.5 117t72.5 87.5t85 63.5t94.5 41.5t91 26t83.5 13t64.5 5t41 0.5h568q-37 -35 -50.5 -77.5t-13.5 -104.5v-1069q0 -63 13.5 -106t50.5 -77h-515q82 57 82 179v919q0 61 -12 125q-44 12 -86 12q-47 0 -88.5 -15.5t-78 -48.5t-58 -93t-21.5 -140 q0 -45 6.5 -86.5t23.5 -83t42.5 -71.5t66.5 -49t93 -19q27 0 41 2l-99 -192q-41 -8 -94 -8q-211 0 -340 136t-129 363z" />
<glyph unicode="r" horiz-adv-x="788" d="M41 983h270q70 0 104 8t58 27v-162q23 46 53 79t56.5 49.5t60 26t55 11.5t50.5 2h51v-272q-52 18 -101 18q-83 0 -143.5 -45t-60.5 -135v-459q0 -35 18.5 -71.5t48.5 -59.5h-508q72 56 72 178v586q0 149 -84 219z" />
<glyph unicode="s" horiz-adv-x="1013" d="M35 287q82 -57 182 -90t189 -33q67 0 113 20t46 62q0 21 -7 35.5t-25 25t-32.5 16.5t-46 15.5t-48.5 15.5q-44 15 -70.5 25t-67.5 28t-66.5 35t-55 43t-46 55t-28 68t-11.5 84q0 68 26 122.5t81.5 98t151.5 67.5t227 24q168 0 332 -54v-215q-149 84 -275 84 q-42 0 -71.5 -7.5t-42.5 -19t-18 -21.5t-5 -19q0 -11 4.5 -21t14 -17.5t18.5 -13t24 -11t25 -9t27 -8t24 -6.5q91 -28 155 -56.5t117.5 -69.5t80 -96.5t26.5 -126.5q0 -146 -135 -241.5t-373 -95.5q-202 0 -399 59z" />
<glyph unicode="t" horiz-adv-x="751" d="M-14 799v135q137 12 238 117.5t116 244.5h139v-313h238v-248q-49 64 -131 64h-107v-408q0 -31 2.5 -54t14.5 -55.5t33.5 -53t63.5 -35.5t101 -15h27l-90 -182q-78 -16 -164 -16q-68 0 -123 11.5t-91.5 30.5t-63.5 47t-41.5 55.5t-23 62.5t-11 62t-2.5 60v490h-125z" />
<glyph unicode="u" horiz-adv-x="1224" d="M31 983h293q69 0 102 7.5t57 27.5v-664q0 -164 119 -164q50 0 89.5 38t39.5 122v414q0 149 -84 219h293q70 0 103 7.5t57 27.5v-832q0 -55 21.5 -106.5t62.5 -79.5h-449v139q-108 -159 -297 -159q-323 0 -323 362v422q0 149 -84 219z" />
<glyph unicode="v" horiz-adv-x="935" d="M-92 983h309q65 0 111 37l227 -643l145 407q19 55 19 90q0 70 -49 109h303l-389 -1034q-107 24 -176 66t-111.5 102t-79.5 157l-192 514q-51 135 -117 195z" />
<glyph unicode="w" horiz-adv-x="1568" d="M-92 983h297q65 0 131 37l209 -610l135 378l-12 39q-33 106 -107 156h430l191 -575l131 354q16 50 16 84q0 74 -63 137h340l-402 -1034q-129 32 -207 82q-68 46 -100 137l-121 348l-209 -567q-104 21 -196 74q-44 24 -75 60t-60 116l-226 620q-36 94 -102 164z" />
<glyph unicode="x" horiz-adv-x="980" d="M-47 0l352 494l-239 385q-40 66 -103 104h469q2 -18 8.5 -35t13 -29t27.5 -49l86 -151l74 108q23 34 23 78q0 56 -41 78h356l-305 -420l289 -454q34 -55 96 -109h-477q-8 44 -33 86l-139 240l-117 -176q-14 -21 -14 -54q0 -44 45 -96h-371z" />
<glyph unicode="y" horiz-adv-x="950" d="M-102 983h460l238 -600l129 381q27 82 27 106q0 58 -62 113h318l-416 -1106q-36 -94 -63 -138q-131 -208 -439 -208q-70 0 -125 8l164 209q18 -2 55 -2q47 0 86.5 15.5t63.5 36.5t42 47.5t25 43t11 29.5l28 88q-20 14 -37 27t-31.5 28.5t-24.5 25t-21 27.5t-16.5 24.5 t-15.5 28t-12 26.5t-13 31t-13 30l-238 569q-44 104 -120 160z" />
<glyph unicode="z" horiz-adv-x="950" d="M-43 0l463 797q-62 10 -131 10q-143 0 -248 -55l80 231h819l-453 -780q170 -15 248 -15q146 0 254 54l-88 -242h-944z" />
<glyph unicode="{" horiz-adv-x="894" d="M102 387v184q58 3 97.5 27.5t60 68t29 92t8.5 111.5q0 12 -1 38t-1 38q-4 98 -4 146q0 50 3.5 87.5t16 83.5t34 78.5t60.5 64.5t93 50t134 26t181 1v-185q-26 -5 -49 -16.5t-48.5 -37.5t-41 -75.5t-15.5 -117.5q0 -19 3.5 -90t3.5 -144q0 -301 -273 -332v-12 q273 -31 273 -332q0 -75 -3.5 -144.5t-3.5 -92.5q0 -114 42 -176t112 -68v-184q-138 -12 -238 7t-154 54.5t-84.5 96t-38 112t-7.5 121.5q0 47 4 145q0 12 1 38t1 38q0 47 -4 85t-17 78t-33.5 67.5t-56.5 46.5t-84 22z" />
<glyph unicode="|" horiz-adv-x="317" d="M61 -553v2136h195v-2136h-195z" />
<glyph unicode="}" horiz-adv-x="894" d="M82 -340q26 5 49 17t48.5 37.5t41 75.5t15.5 118q0 20 -3.5 90t-3.5 143q0 301 273 332v12q-273 31 -273 332q0 75 3.5 145t3.5 93q0 114 -41.5 175.5t-112.5 67.5v185q138 12 238 -7t154 -54.5t84.5 -96t38 -112t7.5 -121.5q0 -48 -4 -146q0 -12 -1 -38t-1 -38 q0 -47 4 -85t17 -78t33.5 -67.5t56.5 -46.5t84 -22v-184q-58 -3 -97.5 -27.5t-60 -68t-29 -92t-8.5 -111.5q0 -12 1 -38t1 -38q4 -98 4 -145q0 -50 -3.5 -87.5t-16 -83.5t-34 -78.5t-60.5 -64.5t-93 -50t-134 -26t-181 -1v184z" />
<glyph unicode="~" horiz-adv-x="1228" d="M92 1169q136 293 338 293q114 0 244 -80q3 -2 24 -14.5t27.5 -16t27 -13t34.5 -13t36 -7t45 -3.5q21 0 37 3.5t41.5 17t52.5 46.5t52 84l86 -41q-88 -167 -157.5 -234t-154.5 -67q-90 0 -223 72q-57 32 -78 43t-61.5 24t-79.5 13q-122 0 -207 -150z" />
<glyph unicode="&#xa9;" horiz-adv-x="1720" d="M102 717q0 155 60 295.5t161 241.5t241.5 161t295.5 60t295.5 -60t241.5 -161t161 -241.5t60 -295.5t-60 -295.5t-161 -241.5t-241.5 -161t-295.5 -60t-295.5 60t-241.5 161t-161 241.5t-60 295.5zM260 717q0 -114 45 -225.5t123 -199.5t191.5 -142t240.5 -54t240.5 54 t191.5 142t123 199.5t45 225.5t-45 225.5t-123 199t-191.5 141.5t-240.5 54t-240.5 -54t-191.5 -141.5t-123 -199t-45 -225.5zM444 717q0 86 30.5 164t86 138t142 96t190.5 36q82 0 201 -25l12 -170q-89 64 -195 64q-105 0 -168 -66.5t-63 -205.5q0 -93 23.5 -162t64 -106 t86.5 -54.5t98 -17.5q55 0 137.5 26t129.5 53l-60 -168q-131 -43 -254 -43q-111 0 -200 35.5t-145.5 96.5t-86 140t-29.5 169z" />
<glyph unicode="&#xab;" horiz-adv-x="847" d="M82 539l254 391h110l-141 -391l141 -392h-110zM401 539l252 391h113l-143 -391l143 -392h-113z" />
<glyph unicode="&#xad;" horiz-adv-x="944" d="M82 430l160 213q26 35 65 35h555l-160 -213q-26 -35 -65 -35h-555z" />
<glyph unicode="&#xae;" horiz-adv-x="1720" d="M102 717q0 155 60 295.5t161 241.5t241.5 161t295.5 60t295.5 -60t241.5 -161t161 -241.5t60 -295.5t-60 -295.5t-161 -241.5t-241.5 -161t-295.5 -60t-295.5 60t-241.5 161t-161 241.5t-60 295.5zM260 717q0 -114 45 -225.5t123 -199.5t191.5 -142t240.5 -54 q137 0 233.5 47t190.5 142l-141 -6q-81 -3 -129 35t-92 128l-105 215v-237q0 -76 29 -111q9 -13 22 -22h-336q52 48 52 133v594q0 85 -52 133h418q62 0 112 -20.5t79.5 -54t45 -72t15.5 -78.5q0 -66 -42 -125.5t-122 -87.5l136 -228q13 -24 57 -86t72 -90q157 157 157 412 q0 114 -45 225.5t-123 199t-191.5 141.5t-240.5 54t-240.5 -54t-191.5 -141.5t-123 -199t-45 -225.5zM817 719q63 11 103.5 58.5t40.5 115.5q0 59 -37 95t-84 36h-23v-305z" />
<glyph unicode="&#xbb;" horiz-adv-x="847" d="M82 147l143 392l-143 391h113l251 -391l-251 -392h-113zM401 147l142 392l-142 391h111l254 -391l-254 -392h-111z" />
<glyph unicode="&#x401;" horiz-adv-x="1050" d="M72 0q51 39 68.5 94t17.5 129v987q0 74 -17.5 129.5t-68.5 94.5h792q30 0 51 8v-305q-59 92 -180 92h-188v-359h297v-278q-55 74 -146 74h-151v-400q0 -35 29 -48t126 -13h164q66 0 126.5 29.5t105.5 76.5l-82 -311h-944zM152 1657q0 68 46 114t113 46t113.5 -46.5 t46.5 -113.5t-46.5 -113.5t-113.5 -46.5t-113 46t-46 114zM580 1657q0 68 46 114t113 46t113.5 -46.5t46.5 -113.5t-46.5 -113.5t-113.5 -46.5t-113 46t-46 114z" />
<glyph unicode="&#x402;" horiz-adv-x="1585" d="M-39 1106l80 336q21 -8 51 -8h965q30 0 51 8l-72 -322q-10 27 -30 44.5t-47 24.5t-48 9t-49 2h-137v-407q189 84 365 84q454 0 454 -543q0 -238 -54.5 -386t-172.5 -235q-152 -112 -447 -151q29 26 55.5 55t67.5 92.5t70 134.5t50.5 180.5t21.5 231.5q0 114 -15 194 t-43.5 122.5t-63 60.5t-79.5 18q-103 0 -209 -69v-359q0 -74 17.5 -129t68.5 -94h-561q51 39 68.5 94t17.5 129v977h-137q-141 0 -238 -94z" />
<glyph unicode="&#x403;" horiz-adv-x="999" d="M72 0q51 39 68.5 94t17.5 129v987q0 74 -17.5 129.5t-68.5 94.5h895q25 0 53 8l20 -336q-33 57 -79 75.5t-119 18.5h-295v-977q0 -74 17.5 -129t68.5 -94h-561zM266 1548l563 359l152 -219l-668 -187z" />
<glyph unicode="&#x404;" horiz-adv-x="1355" d="M66 719q0 162 57 302.5t158 240t245.5 156.5t313.5 57q181 0 352 -41l20 -297q-160 112 -340 112q-77 0 -142 -22.5t-109.5 -61t-77 -89.5t-48.5 -106t-20 -114h496q40 0 76 10v-274q-46 59 -170 59h-398q3 -30 8 -60t19.5 -78.5t35 -90.5t57 -87.5t82.5 -77t115.5 -52.5 t151.5 -21q93 0 221.5 41t237.5 99l-100 -291q-203 -74 -445 -74q-155 0 -286 40t-224 110.5t-158 166.5t-96.5 208t-31.5 235z" />
<glyph unicode="&#x405;" horiz-adv-x="1157" d="M53 360q104 -88 226 -132t229 -44q67 0 115 16.5t70.5 44t32 54t9.5 55.5q0 23 -5.5 43t-12.5 35t-23.5 31t-29.5 26.5t-40.5 25.5t-45 24t-54.5 27.5l-59 29.5q-49 25 -76.5 40t-71.5 42.5t-69.5 50t-57 58t-48 71.5t-28.5 84t-12 102q0 88 34 165t98.5 137t166 94.5 t228.5 34.5q183 0 370 -62v-262q-60 34 -145.5 66t-161.5 32q-31 0 -61 -5.5t-60.5 -18.5t-49.5 -40.5t-19 -64.5q0 -31 9 -55t20.5 -40.5t40 -35t50.5 -29.5t68 -32q160 -76 224 -119q185 -124 210 -309q4 -31 4 -64q0 -71 -20.5 -138.5t-67 -129.5t-113.5 -108 t-167.5 -73.5t-222.5 -27.5q-206 0 -422 90z" />
<glyph unicode="&#x406;" horiz-adv-x="704" d="M72 0q51 39 68.5 94t17.5 129v987q0 74 -17.5 129.5t-68.5 94.5h561q-51 -39 -68.5 -94.5t-17.5 -129.5v-987q0 -74 17.5 -129t68.5 -94h-561z" />
<glyph unicode="&#x407;" horiz-adv-x="749" d="M0 1659q0 67 46 113.5t114 46.5q67 0 113 -46t46 -114t-46 -114t-113 -46q-68 0 -114 46.5t-46 113.5zM94 0q51 39 68.5 94t17.5 129v987q0 74 -17.5 129.5t-68.5 94.5h561q-51 -39 -68.5 -94.5t-17.5 -129.5v-987q0 -74 17.5 -129t68.5 -94h-561zM430 1659 q0 67 46 113.5t114 46.5t114 -46.5t46 -113.5t-46 -113.5t-114 -46.5t-114 46.5t-46 113.5z" />
<glyph unicode="&#x408;" horiz-adv-x="684" d="M-35 -438q95 117 142 245t47 242v1161q0 74 -17.5 129.5t-68.5 94.5h561q-51 -39 -68.5 -94.5t-17.5 -129.5v-1104q0 -49 -1 -77t-8.5 -74.5t-21 -78.5t-41.5 -71.5t-68 -72.5q-73 -59 -193 -104.5t-245 -65.5z" />
<glyph unicode="&#x409;" horiz-adv-x="1904" d="M-72 283q51 -23 97 -23q51 0 91 36.5t64.5 102t41 138.5t24 165t10 160t2.5 144q0 64 -1 105.5t-5.5 89.5t-13 79.5t-23 63t-37 53.5t-53.5 37h1132q-51 -39 -68.5 -94.5t-17.5 -129.5v-295q127 33 252 33q216 0 333.5 -116.5t117.5 -333.5q0 -78 -16.5 -144.5 t-42.5 -114t-65 -86t-78 -63t-88.5 -42.5t-88 -27t-84.5 -14t-71.5 -6t-55.5 -1h-588q51 39 68.5 94t17.5 129v1006h-278v-178q0 -1092 -445 -1092q-45 0 -104 18zM1171 244q64 -19 101 -19q55 0 96 23.5t63.5 63.5t33 85t10.5 97q0 48 -9 86.5t-21 62t-33.5 40.5 t-35.5 24.5t-37.5 11.5t-31 4h-23.5q-52 0 -113 -21v-458z" />
<glyph unicode="&#x40a;" horiz-adv-x="2097" d="M72 0q51 39 68.5 94t17.5 129v987q0 74 -17.5 129.5t-68.5 94.5h561q-51 -39 -68.5 -94.5t-17.5 -129.5v-342h387v342q0 74 -17.5 129.5t-68.5 94.5h561q-51 -39 -68.5 -94.5t-17.5 -129.5v-295q127 33 252 33q216 0 333 -116t117 -334q0 -100 -26.5 -180t-66.5 -131 t-98.5 -88.5t-109.5 -55.5t-114.5 -28.5t-98.5 -12.5t-75 -2h-588q51 39 68.5 94t17.5 129v441h-387v-441q0 -74 17.5 -129t68.5 -94h-561zM1323 244q64 -19 100 -19q55 0 95.5 23.5t63.5 63t33.5 85.5t10.5 97q0 61 -13.5 106t-32 68t-47 36t-49.5 16t-48 3q-52 0 -113 -21 v-458z" />
<glyph unicode="&#x40b;" horiz-adv-x="1589" d="M-39 1106l80 336q21 -8 51 -8h965q30 0 51 8l-72 -322q-10 27 -30 44.5t-47 24.5t-48 9t-49 2h-137v-407q191 84 365 84q87 0 157.5 -19t130 -62.5t92.5 -123t33 -191.5v-258q0 -74 17.5 -129t68.5 -94h-561q51 39 68.5 94t17.5 129v135v36.5t-1.5 39.5t-4 44.5t-9 41.5 t-15 41.5t-22 34.5t-31.5 30t-42.5 17.5t-54.5 7.5q-103 0 -209 -69v-359q0 -74 17.5 -129t68.5 -94h-561q51 39 68.5 94t17.5 129v977h-137q-141 0 -238 -94z" />
<glyph unicode="&#x40c;" horiz-adv-x="1335" d="M72 0q51 39 68.5 94t17.5 129v987q0 74 -17.5 129.5t-68.5 94.5h561q-51 -39 -68.5 -94.5t-17.5 -129.5v-440l336 440q39 53 39 107q0 53 -82 117h518l-479 -586l436 -701q40 -63 133 -147l-301 -8q-113 -3 -194 40t-150 165l-256 454v-428q0 -74 17.5 -129t68.5 -94 h-561zM381 1548l563 359l152 -219l-668 -187z" />
<glyph unicode="&#x40e;" horiz-adv-x="1130" d="M-113 1434h494l348 -719l182 475q21 57 21 98q0 83 -84 146h405l-465 -1149q-27 -66 -65.5 -119t-76.5 -86.5t-84.5 -58t-81.5 -36t-74.5 -18t-57.5 -7.5t-37 -1q-139 0 -241 76l112 213q55 -64 144 -64q27 0 47.5 3t53.5 14t64 40.5t56 75.5l14 27q-21 15 -38.5 28.5 t-30.5 27.5t-22 23t-18.5 24t-12.5 21t-12 23t-11 21l-357 690q-81 157 -172 232zM309 1841h256q-50 -51 -19.5 -103t109.5 -52t109.5 52t-19.5 103h256q4 -86 -33 -163t-119.5 -128t-193.5 -51t-193.5 51t-119.5 128t-33 163z" />
<glyph unicode="&#x40f;" horiz-adv-x="1470" d="M72 0q51 39 68.5 94t17.5 129v987q0 74 -17.5 129.5t-68.5 94.5h561q-51 -39 -68.5 -94.5t-17.5 -129.5v-1005h377v1005q0 74 -17.5 129.5t-68.5 94.5h561q-51 -39 -68.5 -94.5t-17.5 -129.5v-987q0 -74 17.5 -129t68.5 -94h-469v-145q0 -74 17.5 -129.5t68.5 -94.5h-561 q51 39 68.5 94.5t17.5 129.5v145h-469z" />
<glyph unicode="&#x410;" horiz-adv-x="1468" d="M-59 0q59 62 91.5 115.5t61.5 136.5l330 954q20 55 20 109q0 63 -79 119h520l424 -1182q67 -188 170 -252h-654q44 24 67 63t23 84q0 13 -6.5 44t-11.5 42l-72 201h-430l-71 -205q-21 -65 -21 -100q0 -78 72 -129h-434zM459 639h299l-148 434z" />
<glyph unicode="&#x411;" horiz-adv-x="1259" d="M72 0q51 39 68.5 94t17.5 129v987q0 74 -17.5 129.5t-68.5 94.5h958q25 0 53 8l21 -336q-51 94 -199 94h-358v-321q112 28 225 28q86 0 156 -17t116.5 -44.5t81.5 -65.5t54 -75t31 -80t15 -73t3 -60q0 -79 -16.5 -145.5t-42.5 -114t-65 -85.5t-76.5 -61.5t-85.5 -41 t-83 -25.5t-77.5 -13t-61.5 -5.5t-41 -0.5h-608zM547 244q64 -19 108 -19t77.5 14t52.5 39.5t31.5 50t17 55.5t5.5 46t1 31q0 54 -12.5 95.5t-31 64.5t-44.5 37.5t-49 19t-48 4.5q-60 0 -108 -18v-420z" />
<glyph unicode="&#x412;" horiz-adv-x="1251" d="M72 0q51 39 68.5 94t17.5 129v987q0 74 -17.5 129.5t-68.5 94.5h678q109 0 190 -31.5t123.5 -82t62 -103t19.5 -105.5q0 -105 -62 -185t-174 -112q140 -14 231 -113t91 -256q0 -207 -139.5 -326.5t-352.5 -119.5h-667zM547 231q68 -22 125 -22q50 0 86 25t53 65.5 t24 77.5t7 74q0 44 -9 83.5t-30 77t-62.5 60t-99.5 22.5h-94v-463zM547 881q16 -2 49 -2q70 0 111 52.5t41 141.5q0 50 -14 84.5t-37 50t-43.5 21.5t-41.5 6q-33 0 -65 -14v-340z" />
<glyph unicode="&#x413;" horiz-adv-x="999" d="M72 0q51 39 68.5 94t17.5 129v987q0 74 -17.5 129.5t-68.5 94.5h895q25 0 53 8l20 -336q-33 57 -79 75.5t-119 18.5h-295v-977q0 -74 17.5 -129t68.5 -94h-561z" />
<glyph unicode="&#x414;" horiz-adv-x="1304" d="M-113 205h176q115 225 157 441t42 470q0 44 -1 70.5t-8 68.5t-20.5 70.5t-39.5 58.5t-64 50h1085q-51 -39 -68.5 -94.5t-17.5 -129.5v-1005h197v-533l-184 -47q1 70 -6.5 126.5t-20.5 95t-33 67t-40 45t-45.5 26t-46.5 12.5t-46 3h-594q-61 0 -106 -24t-70.5 -60.5 t-40 -88t-18.5 -99.5t-2 -103l-185 47v533zM328 205h411v1024h-258q0 -364 -39 -599.5t-114 -424.5z" />
<glyph unicode="&#x415;" horiz-adv-x="1050" d="M72 0q51 39 68.5 94t17.5 129v987q0 74 -17.5 129.5t-68.5 94.5h792q30 0 51 8v-305q-59 92 -180 92h-188v-359h297v-278q-55 74 -146 74h-151v-400q0 -35 29 -48t126 -13h164q66 0 126.5 29.5t105.5 76.5l-82 -311h-944z" />
<glyph unicode="&#x416;" horiz-adv-x="1916" d="M-113 0q39 31 76 75.5t53 71.5l439 680l-451 607h488q-82 -64 -82 -117q0 -46 39 -107l325 -469v469q0 74 -17.5 129.5t-68.5 94.5h541q-51 -39 -68.5 -94.5t-17.5 -129.5v-469l325 469q39 61 39 107q0 53 -82 117h488l-451 -607l439 -680q16 -27 53 -71.5t76 -75.5 l-297 -8q-72 -2 -122.5 8.5t-89 40.5t-65 66t-61.5 100l-252 448v-432q0 -74 17.5 -129t68.5 -94h-541q51 39 68.5 94t17.5 129v432l-252 -448q-35 -64 -61.5 -100t-65 -66t-89 -40.5t-122.5 -8.5z" />
<glyph unicode="&#x417;" horiz-adv-x="1128" d="M-29 369q99 -108 192.5 -146.5t194.5 -38.5q88 0 153 19t99 45t54 63t25 63.5t5 55.5q0 34 -5.5 64.5t-22 62.5t-42.5 55t-70 37.5t-101 14.5q-114 0 -199 -46v291q58 -20 131 -20q62 0 107.5 13.5t70 32.5t39 47.5t18 51t3.5 49.5q0 166 -179 166q-189 0 -374 -125 l30 318q69 4 180 18.5t222 14.5q88 0 161.5 -11.5t125 -31t90.5 -47t63 -57t38.5 -64.5t20 -65.5t5.5 -63.5q0 -269 -258 -338q65 -5 123.5 -28t106.5 -63.5t76.5 -104.5t28.5 -142q0 -104 -38 -192t-116 -158t-209.5 -110t-305.5 -40q-116 0 -204 19t-181 67z" />
<glyph unicode="&#x418;" horiz-adv-x="1556" d="M88 0q51 39 68.5 94t17.5 129v987q0 74 -17.5 129.5t-68.5 94.5h561q-51 -39 -68.5 -94.5t-17.5 -129.5v-706l479 930h426q-51 -39 -68.5 -94.5t-17.5 -129.5v-987q0 -74 17.5 -129t68.5 -94h-561q51 39 68.5 94t17.5 129v707l-483 -930h-422z" />
<glyph unicode="&#x419;" horiz-adv-x="1556" d="M88 0q51 39 68.5 94t17.5 129v987q0 74 -17.5 129.5t-68.5 94.5h561q-51 -39 -68.5 -94.5t-17.5 -129.5v-706l479 930h426q-51 -39 -68.5 -94.5t-17.5 -129.5v-987q0 -74 17.5 -129t68.5 -94h-561q51 39 68.5 94t17.5 129v707l-483 -930h-422zM442 1841h256 q-50 -51 -18.5 -103t108.5 -52q80 0 112 52t-19 103h254q4 -86 -33.5 -163t-120 -128t-193.5 -51t-193.5 51t-119.5 128t-33 163z" />
<glyph unicode="&#x41a;" horiz-adv-x="1335" d="M72 0q51 39 68.5 94t17.5 129v987q0 74 -17.5 129.5t-68.5 94.5h561q-51 -39 -68.5 -94.5t-17.5 -129.5v-440l336 440q39 53 39 107q0 53 -82 117h518l-479 -586l436 -701q40 -63 133 -147l-301 -8q-113 -3 -194 40t-150 165l-256 454v-428q0 -74 17.5 -129t68.5 -94 h-561z" />
<glyph unicode="&#x41b;" horiz-adv-x="1329" d="M-72 283q51 -23 97 -23q51 0 91 36.5t64.5 102t41 138.5t24 165t10 160t2.5 144q0 64 -1 105.5t-5.5 89.5t-13 79.5t-23 63t-37 53.5t-53.5 37h1132q-51 -39 -68.5 -94.5t-17.5 -129.5v-987q0 -74 17.5 -129t68.5 -94h-561q51 39 68.5 94t17.5 129v1006h-278v-178 q0 -1092 -445 -1092q-45 0 -104 18z" />
<glyph unicode="&#x41c;" horiz-adv-x="1847" d="M-8 0q78 75 100 244l119 927q3 28 4 40t0 47.5t-9 59.5t-26.5 57t-48.5 59h492l315 -850l262 850h524q-55 -29 -72.5 -79t-9.5 -126l97 -928q11 -110 32 -172.5t76 -128.5h-563q68 71 68 158q0 19 -9 116l-65 668l-299 -969q-131 48 -217 113q-29 21 -43 34.5t-32.5 45 t-37.5 82.5l-256 688l-76 -688q-10 -98 6.5 -153t79.5 -95h-411z" />
<glyph unicode="&#x41d;" horiz-adv-x="1480" d="M72 0q51 39 68.5 94t17.5 129v987q0 74 -17.5 129.5t-68.5 94.5h561q-51 -39 -68.5 -94.5t-17.5 -129.5v-342h387v342q0 74 -17.5 129.5t-68.5 94.5h561q-51 -39 -68.5 -94.5t-17.5 -129.5v-987q0 -74 17.5 -129t68.5 -94h-561q51 39 68.5 94t17.5 129v441h-387v-441 q0 -74 17.5 -129t68.5 -94h-561z" />
<glyph unicode="&#x41e;" horiz-adv-x="1714" d="M66 702q0 118 32.5 230t99.5 210.5t161 172.5t226 117t285 43q178 0 325 -57t246 -157t153.5 -237.5t54.5 -298.5q0 -158 -55.5 -297.5t-157 -243.5t-255 -164.5t-337.5 -60.5q-157 0 -288 43t-220 115t-151 168t-90.5 201t-28.5 216zM475 760q0 -144 35.5 -258 t94 -181.5t129.5 -102t147 -34.5q48 0 94 12.5t95 46t85.5 84t60 134.5t23.5 190q0 115 -24 220t-70 190.5t-121.5 136.5t-169.5 51q-57 0 -110 -16t-102.5 -53.5t-86 -92.5t-58.5 -139t-22 -188z" />
<glyph unicode="&#x41f;" horiz-adv-x="1470" d="M72 0q51 39 68.5 94t17.5 129v987q0 74 -17.5 129.5t-68.5 94.5h1327q-51 -39 -68.5 -94.5t-17.5 -129.5v-987q0 -74 17.5 -129t68.5 -94h-561q51 39 68.5 94t17.5 129v1006h-377v-1006q0 -74 17.5 -129t68.5 -94h-561z" />
<glyph unicode="&#x420;" horiz-adv-x="1177" d="M72 0q51 39 68.5 94t17.5 129v987q0 74 -17.5 129.5t-68.5 94.5h665q194 0 316.5 -110t122.5 -280q0 -114 -51 -204t-136.5 -142t-194.5 -74t-227 -10q209 93 209 332q0 140 -61.5 206.5t-147.5 66.5h-20v-996q0 -74 17.5 -129t68.5 -94h-561z" />
<glyph unicode="&#x421;" horiz-adv-x="1357" d="M66 719q0 162 57 302.5t158.5 240t246 156.5t314.5 57q181 0 352 -41l20 -297q-160 112 -340 112q-81 0 -146.5 -24t-106.5 -59t-70.5 -86t-43.5 -93t-22 -93.5t-9 -74.5t-1 -47q0 -107 17.5 -195.5t46 -148t69.5 -105t82.5 -71.5t90.5 -42t88.5 -21t80.5 -5 q93 0 221.5 41t237.5 99l-100 -291q-199 -74 -445 -74q-156 0 -287 40t-224.5 110t-158.5 166t-96.5 208t-31.5 236z" />
<glyph unicode="&#x422;" horiz-adv-x="1007" d="M-39 1106l80 336q21 -8 51 -8h965q30 0 51 8l-72 -322q-10 27 -30 44.5t-47 24.5t-48 9t-49 2h-137v-977q0 -74 17.5 -129t68.5 -94h-561q51 39 68.5 94t17.5 129v977h-137q-141 0 -238 -94z" />
<glyph unicode="&#x423;" horiz-adv-x="1130" d="M-113 1434h494l348 -719l182 475q21 57 21 98q0 83 -84 146h405l-465 -1149q-27 -66 -65.5 -119t-76.5 -86.5t-84.5 -58t-81.5 -36t-74.5 -18t-57.5 -7.5t-37 -1q-139 0 -241 76l112 213q55 -64 144 -64q27 0 47.5 3t53.5 14t64 40.5t56 75.5l14 27q-21 15 -38.5 28.5 t-30.5 27.5t-22 23t-18.5 24t-12.5 21t-12 23t-11 21l-357 690q-81 157 -172 232z" />
<glyph unicode="&#x424;" horiz-adv-x="1824" d="M61 770q0 86 27 170.5t82.5 161t133 133t187.5 85.5t236 19q-9 55 -15 80t-23.5 59t-47.5 58h541q-86 -72 -86 -197q148 16 274.5 -21.5t211.5 -113.5t133 -182.5t48 -228.5q0 -86 -26.5 -171t-82.5 -162t-133.5 -133t-187.5 -85t-237 -19q0 -151 86 -223h-541 q86 72 86 223q-147 -16 -273.5 21t-211.5 114t-133 184t-48 228zM451 795q0 -167 73.5 -263.5t202.5 -93.5v686q-124 6 -200 -85.5t-76 -243.5zM1096 438q125 -6 201.5 86t76.5 244q0 184 -80 271.5t-198 84.5v-686z" />
<glyph unicode="&#x425;" horiz-adv-x="1300" d="M-55 0l501 743l-327 519q-61 92 -137 172h495l271 -465l139 235q31 53 31 101q0 35 -21 70.5t-55 58.5h475l-443 -656l363 -590q54 -92 158 -188h-502l-320 557l-198 -332q-25 -45 -25 -100q0 -71 70 -125h-475z" />
<glyph unicode="&#x426;" horiz-adv-x="1470" d="M72 0q51 39 68.5 94t17.5 129v987q0 74 -17.5 129.5t-68.5 94.5h561q-51 -39 -68.5 -94.5t-17.5 -129.5v-1005h377v1005q0 74 -17.5 129.5t-68.5 94.5h561q-51 -39 -68.5 -94.5t-17.5 -129.5v-1005h196v-533l-184 -47q2 54 -1.5 102.5t-18 100t-39 88t-67.5 60.5t-101 24 h-1026z" />
<glyph unicode="&#x427;" horiz-adv-x="1411" d="M0 1434h561q-51 -39 -68.5 -94.5t-17.5 -129.5v-135v-37t1.5 -40t4 -44.5t9 -41.5t15 -41.5t22 -34t31.5 -29.5t42.5 -17.5t54.5 -7.5q47 0 107 14.5t102 34.5v379q0 74 -17.5 129.5t-68.5 94.5h561q-51 -39 -68.5 -94.5t-17.5 -129.5v-987q0 -74 17.5 -129t68.5 -94 h-561q51 39 68.5 94t17.5 129v408q-196 -74 -364 -74q-92 0 -163 20t-118 55t-77 85.5t-43 108t-13 126.5v258q0 74 -17.5 129.5t-68.5 94.5z" />
<glyph unicode="&#x428;" horiz-adv-x="2220" d="M72 0q51 39 68.5 94t17.5 129v987q0 74 -17.5 129.5t-68.5 94.5h561q-51 -39 -68.5 -94.5t-17.5 -129.5v-1005h368v1005q0 74 -17.5 129.5t-68.5 94.5h562q-51 -39 -68.5 -94.5t-17.5 -129.5v-1005h368v1005q0 74 -17.5 129.5t-68.5 94.5h561q-51 -39 -68.5 -94.5 t-17.5 -129.5v-987q0 -74 17.5 -129t68.5 -94h-2076z" />
<glyph unicode="&#x429;" horiz-adv-x="2220" d="M72 0q51 39 68.5 94t17.5 129v987q0 74 -17.5 129.5t-68.5 94.5h561q-51 -39 -68.5 -94.5t-17.5 -129.5v-1005h368v1005q0 74 -17.5 129.5t-68.5 94.5h562q-51 -39 -68.5 -94.5t-17.5 -129.5v-1005h368v1005q0 74 -17.5 129.5t-68.5 94.5h561q-51 -39 -68.5 -94.5 t-17.5 -129.5v-1005h197v-533l-184 -47q2 44 -1 85t-11 85t-24.5 79.5t-41.5 64.5t-63 45t-87 16h-1775z" />
<glyph unicode="&#x42a;" horiz-adv-x="1435" d="M-61 1106l79 336q21 -8 52 -8h718q-51 -39 -68.5 -94.5t-17.5 -129.5v-295q127 33 252 33q216 0 333.5 -116.5t117.5 -333.5q0 -78 -16.5 -144.5t-42.5 -114t-65 -86t-78 -63t-88.5 -42.5t-88 -27t-84.5 -14t-71.5 -6t-55.5 -1h-588q51 39 68.5 94t17.5 129v977h-137 q-140 0 -237 -94zM702 244q64 -19 101 -19q55 0 95.5 23.5t63.5 63t33.5 85.5t10.5 97q0 52 -8.5 91.5t-24.5 63.5t-33.5 40t-41.5 23t-42 9t-41 2q-51 0 -113 -21v-458z" />
<glyph unicode="&#x42b;" horiz-adv-x="1943" d="M72 0q51 39 68.5 94t17.5 129v987q0 74 -17.5 129.5t-68.5 94.5h561q-51 -39 -68.5 -94.5t-17.5 -129.5v-295q126 33 252 33q216 0 333 -116t117 -334q0 -78 -16.5 -144.5t-42.5 -114t-65 -86t-78 -63t-88.5 -42.5t-88 -27t-84.5 -14t-71.5 -6t-55.5 -1h-587zM547 244 q64 -19 100 -19q55 0 95.5 23.5t63.5 63t33.5 85.5t10.5 97q0 52 -8.5 91.5t-24.5 63.5t-33.5 40t-41.5 23t-42 9t-41 2q-51 0 -112 -21v-458zM1311 0q51 39 68.5 94t17.5 129v987q0 74 -17.5 129.5t-68.5 94.5h561q-51 -39 -68.5 -94.5t-17.5 -129.5v-987q0 -74 17.5 -129 t68.5 -94h-561z" />
<glyph unicode="&#x42c;" horiz-adv-x="1280" d="M72 0q51 39 68.5 94t17.5 129v987q0 74 -17.5 129.5t-68.5 94.5h561q-51 -39 -68.5 -94.5t-17.5 -129.5v-295q126 33 252 33q216 0 333 -116t117 -334q0 -78 -16.5 -144.5t-42.5 -114t-65 -86t-78 -63t-88.5 -42.5t-88 -27t-84.5 -14t-71.5 -6t-55.5 -1h-587zM547 244 q64 -19 100 -19q55 0 95.5 23.5t63.5 63t33.5 85.5t10.5 97q0 52 -8.5 91.5t-24.5 63.5t-33.5 40t-41.5 23t-42 9t-41 2q-51 0 -112 -21v-458z" />
<glyph unicode="&#x42d;" horiz-adv-x="1339" d="M0 369q99 -107 198 -146t205 -39q104 0 190 38t142 103.5t89 148.5t40 177h-397q-124 0 -170 -59v274q36 -10 76 -10h485q-5 47 -18 94t-44 103t-75 97.5t-117 70t-164 28.5q-186 0 -374 -110l30 303q104 5 202.5 19t199.5 14q367 0 571.5 -190.5t204.5 -516.5 q0 -234 -102.5 -417.5t-292.5 -287.5t-437 -104q-231 0 -417 86z" />
<glyph unicode="&#x42e;" horiz-adv-x="2371" d="M72 0q51 39 68.5 94t17.5 129v987q0 74 -17.5 129.5t-68.5 94.5h561q-51 -39 -68.5 -94.5t-17.5 -129.5v-342h213q34 183 144.5 321t274.5 212t359 74q176 0 321.5 -57t243 -157t150.5 -237.5t53 -298.5q0 -158 -55 -297.5t-155 -243.5t-251.5 -164.5t-333.5 -60.5 q-144 0 -266.5 37.5t-211.5 103.5t-153 155.5t-97 192.5t-38 216h-198v-441q0 -74 17.5 -129t68.5 -94h-561zM1133 760q0 -144 35 -258t94 -181.5t129.5 -102t146.5 -34.5q48 0 94 12.5t95 46t85.5 84t60 134.5t23.5 190q0 115 -24 220t-70 190.5t-121.5 136.5t-169.5 51 q-72 0 -137 -27t-120.5 -82.5t-88 -153t-32.5 -226.5z" />
<glyph unicode="&#x42f;" horiz-adv-x="1273" d="M-115 0q65 58 137 153t117 171l199 335q-34 11 -65.5 27t-68.5 46.5t-64 68t-45.5 95t-18.5 124.5q0 187 132 300.5t339 113.5h655q-51 -39 -68.5 -94.5t-17.5 -129.5v-987q0 -74 17.5 -129t68.5 -94h-561q51 39 68.5 94t17.5 129v406h-18l-183 -369q-30 -59 -52 -96.5 t-54 -76.5t-66.5 -59.5t-83 -32.5t-108.5 -9zM475 981q0 -101 72 -174.5t180 -85.5v508h-37q-95 0 -155 -73.5t-60 -174.5z" />
<glyph unicode="&#x430;" horiz-adv-x="1107" d="M10 283q0 45 12 85.5t42.5 85t94 80t154.5 54.5l119 24q30 6 42 8.5t37 9.5t36.5 14t26 18.5t20.5 27t6 35.5q0 90 -149 90q-131 0 -254 -70l102 228q107 31 240 31q111 0 193 -25.5t125.5 -62t69 -90.5t32 -97t6.5 -96v-293q0 -73 43 -117.5t98 -44.5h33l-95 -196 q-20 -2 -59 -2q-102 0 -177.5 24t-114.5 56.5t-62.5 78t-29 77.5t-5.5 65v194q-19 -14 -45 -24q-5 -2 -25.5 -10t-27.5 -11t-24.5 -11.5t-24.5 -14.5t-19 -17t-17 -22.5t-9.5 -27.5t-4.5 -34q0 -61 38 -98t100 -37q24 0 36 2l-98 -184q-59 -6 -115 -6q-93 0 -163 26 t-109.5 70t-58.5 96t-19 111z" />
<glyph unicode="&#x431;" horiz-adv-x="1298" d="M57 618q0 477 293 699q51 39 100 62t108.5 34t104.5 14t130 5l225 4q83 0 147 37l-84 -314q-135 -6 -137 -6q-78 0 -117 -2l-176 -6q-80 -3 -141.5 -25t-99 -54.5t-62 -77.5t-34.5 -88.5t-11 -92.5q46 60 101.5 98.5t115.5 54t100 19.5t95 4q124 0 220.5 -32t154 -80.5 t94.5 -113.5t50 -124.5t13 -120.5q0 -79 -22.5 -154.5t-70.5 -144t-117 -120.5t-169 -82.5t-219 -30.5q-96 0 -180.5 21t-161 69.5t-131.5 121t-87 181.5t-32 245zM446 483q0 -148 71 -226.5t165 -78.5q11 0 24 2.5t35 11t41 29t37 50t28.5 81t10.5 117.5q0 83 -24 153 t-76.5 116t-124.5 46q-51 0 -89 -28t-58.5 -74t-30 -96t-9.5 -103z" />
<glyph unicode="&#x432;" horiz-adv-x="1132" d="M41 0q72 56 72 178v627q0 122 -72 178l569 10q104 2 181.5 -12.5t121 -37t69.5 -56t34 -63.5t8 -66q0 -96 -57 -149t-138 -58v-10q110 0 184 -66t74 -174q0 -65 -22 -116t-62.5 -82.5t-87.5 -53t-107.5 -31.5t-110.5 -14t-109 -4h-547zM461 197q63 -13 112 -13 q15 0 27.5 1t36.5 8t40 20t29 39.5t13 62.5q0 51 -36 88t-126 37q-56 0 -96 -4v-239zM461 608l61 -2q37 -1 70 5.5t61.5 31.5t28.5 66q0 42 -27 71t-92 29q-27 0 -102 -6v-195z" />
<glyph unicode="&#x433;" horiz-adv-x="780" d="M41 0q72 58 72 178v627q0 120 -72 178h711h8.5h8.5h7t7.5 1t7 2t8 2.5t7.5 3.5t9 5v-295q-26 44 -67.5 71t-94.5 26l-172 -4v-617q0 -122 72 -178h-512z" />
<glyph unicode="&#x434;" horiz-adv-x="1112" d="M-61 184h137q88 126 121.5 261.5t33.5 291.5q0 29 -0.5 46.5t-6 51t-15.5 57t-31 49.5t-51 42h917q-71 -56 -71 -178v-621h160v-460l-185 -58q1 68 -7 122t-19.5 88t-30.5 59t-35.5 37t-38.5 19t-35 8t-30 1h-433q-17 0 -30 -1t-35 -8t-38.5 -19t-35.5 -37t-30.5 -59 t-19.5 -88t-7 -122l-184 58v460zM319 184h285v615h-186v-103q-6 -284 -99 -512z" />
<glyph unicode="&#x435;" horiz-adv-x="1167" d="M51 487q0 99 37 191t104.5 165t174 117t235.5 44q120 0 213 -34.5t147.5 -87.5t89.5 -123.5t47 -135.5t11 -131h-670q-6 -133 72.5 -223.5t228.5 -90.5q155 0 381 117l-84 -248q-161 -67 -370 -67q-155 0 -274.5 39.5t-193.5 109t-111.5 160.5t-37.5 198zM455 668h286 q-1 25 -7.5 48.5t-20.5 47t-42 37.5t-67 14q-62 0 -101.5 -43t-47.5 -104z" />
<glyph unicode="&#x436;" horiz-adv-x="1574" d="M-92 0q58 44 121 135l297 449l-336 399h471q-66 -56 -66 -111q0 -17 5.5 -30.5t19 -32.5t14.5 -21l184 -272v289q0 122 -71 178h479q-70 -60 -70 -178v-289l185 272q1 2 14.5 21t19 32.5t5.5 30.5q0 55 -66 111h471l-336 -399l297 -449q63 -91 121 -135l-313 -8 q-84 -2 -126 30.5t-104 149.5l-168 315v-309q0 -122 72 -178h-481q71 56 71 178v309l-167 -315q-62 -117 -104 -149.5t-126 -30.5z" />
<glyph unicode="&#x437;" horiz-adv-x="917" d="M-10 313q65 -68 145.5 -108.5t161.5 -40.5q25 0 47 1.5t56 10t57.5 23.5t41 44t17.5 68q0 64 -45 94.5t-119 30.5q-85 0 -143 -35v222q52 -9 100 -9q176 0 176 107q0 98 -133 98q-141 0 -297 -80l41 240q59 -6 133.5 9.5t204.5 15.5q80 0 144 -11t105 -27.5t71.5 -40.5 t45.5 -45t24 -47.5t10.5 -42t1.5 -32.5q0 -55 -20.5 -96t-55 -63.5t-68 -34t-71.5 -15.5v-10q46 -1 89.5 -13.5t84 -38.5t65.5 -73t25 -109q0 -111 -72.5 -186t-183 -107t-250.5 -32q-54 0 -110.5 6.5t-114 20t-96 40.5t-42.5 62z" />
<glyph unicode="&#x438;" horiz-adv-x="1265" d="M57 0q72 56 72 178v627q0 122 -72 178h512q-71 -56 -71 -178v-436l319 614h408q-72 -56 -72 -178v-627q0 -122 72 -178h-512q71 56 71 178v436l-317 -614h-410z" />
<glyph unicode="&#x439;" horiz-adv-x="1265" d="M57 0q72 56 72 178v627q0 122 -72 178h512q-71 -56 -71 -178v-436l319 614h408q-72 -56 -72 -178v-627q0 -122 72 -178h-512q71 56 71 178v436l-317 -614h-410zM289 1403h274q-42 -41 -38.5 -76t37.5 -58.5t79 -23.5q46 0 81 24t38 59t-41 75h274q10 -147 -93.5 -237.5 t-258.5 -90.5t-258.5 90.5t-93.5 237.5z" />
<glyph unicode="&#x43a;" horiz-adv-x="1142" d="M41 0q72 56 72 178v627q0 122 -72 178h510q-70 -60 -70 -178v-264l211 250q39 44 39 81q0 60 -74 111h480l-351 -399l322 -449q61 -83 127 -135l-340 -8q-40 -1 -62 2.5t-51.5 20.5t-58 54t-66.5 101l-176 301v-293q0 -122 72 -178h-512z" />
<glyph unicode="&#x43b;" horiz-adv-x="1040" d="M-37 250q35 -21 76 -21q26 0 47.5 9t36.5 29.5t26 44t18 61t11.5 70.5t6.5 84.5t2.5 90.5t0.5 99q0 47 -1.5 70.5t-9.5 65t-29 73t-56 57.5h905q-69 -59 -69 -178v-627q0 -122 71 -178h-512q72 56 72 178v621h-180l-2 -156q-1 -89 -3.5 -153t-10.5 -138t-21.5 -125 t-36.5 -101t-55 -79.5t-78.5 -48t-105.5 -18.5q-46 0 -91 18z" />
<glyph unicode="&#x43c;" horiz-adv-x="1411" d="M-6 0q66 52 78 178l59 619v52t-18 68.5t-52 65.5h435l194 -639l207 639h463q-77 -61 -70 -186l41 -590q10 -137 86 -207h-499q29 33 41.5 70.5t10 64t-2.5 53.5l-25 457l-223 -686q-102 29 -180 74q-85 49 -111 137l-141 475l-35 -475q-1 -28 -1.5 -56t15 -59.5 t47.5 -54.5h-319z" />
<glyph unicode="&#x43d;" horiz-adv-x="1218" d="M41 0q72 56 72 178v627q0 122 -72 178h512q-72 -56 -72 -178v-187h256v187q0 122 -71 178h512q-72 -56 -72 -178v-627q0 -122 72 -178h-512q71 56 71 178v256h-256v-256q0 -122 72 -178h-512z" />
<glyph unicode="&#x43e;" horiz-adv-x="1286" d="M51 487q0 233 165 375t435 142q271 0 427.5 -139.5t156.5 -364.5q0 -124 -48.5 -224t-132 -164t-192 -98t-231.5 -34q-91 0 -173.5 17.5t-157.5 56.5t-130 96.5t-87 144t-32 192.5zM440 516q0 -338 207 -338q199 0 199 301q0 42 -3.5 79t-16.5 85t-35 81.5t-63 57 t-97 23.5q-26 0 -49.5 -6t-50.5 -25t-46 -49.5t-32 -84t-13 -124.5z" />
<glyph unicode="&#x43f;" horiz-adv-x="1198" d="M41 0q72 56 72 178v627q0 122 -72 178h1116q-72 -56 -72 -178v-627q0 -122 72 -178h-512q72 56 72 178v621h-236v-621q0 -122 72 -178h-512z" />
<glyph unicode="&#x440;" horiz-adv-x="1261" d="M25 983h294q70 0 103 7.5t57 27.5v-152q98 138 297 138q205 0 319.5 -132.5t114.5 -363.5q0 -250 -136 -389t-365 -139q-31 0 -93 8l-73 196q27 -6 55 -6q62 0 106.5 22.5t66 52t34 74.5t14.5 72.5t2 63.5q0 325 -188 325q-20 0 -43 -8t-50.5 -27t-45 -60.5t-17.5 -98.5 v-862q0 -63 13.5 -106t50.5 -77h-504q72 56 72 179v1036q0 149 -84 219z" />
<glyph unicode="&#x441;" horiz-adv-x="1015" d="M51 481q0 231 165.5 377t449.5 146q110 0 215 -27l4 -242q-88 70 -211 70q-29 0 -55 -4.5t-60.5 -21.5t-59 -45t-42 -80.5t-17.5 -123.5q0 -78 17.5 -139t45.5 -97t66 -59t74.5 -31.5t75.5 -8.5q72 0 153 26t148 76l-78 -246q-162 -71 -342 -71q-237 0 -393 139.5 t-156 361.5z" />
<glyph unicode="&#x442;" horiz-adv-x="915" d="M-10 702l61 293q17 -12 41 -12h791q29 0 47 12l-56 -282q-14 37 -39 57.5t-44.5 24.5t-45.5 4h-104v-621q0 -122 72 -178h-512q71 56 71 178v621h-104q-40 0 -87.5 -22t-90.5 -75z" />
<glyph unicode="&#x443;" horiz-adv-x="950" d="M-102 983h460l238 -600l129 381q27 82 27 106q0 58 -62 113h318l-416 -1106q-36 -94 -63 -138q-131 -208 -439 -208q-70 0 -125 8l164 209q36 -4 55 -4q47 0 86.5 16.5t63 37t42.5 49t25.5 43.5t10.5 28l28 88q-20 14 -37 27t-31.5 28.5t-24.5 25t-21 27.5t-16.5 24.5 t-15.5 28t-12 26.5t-13 31t-13 30l-238 569q-44 104 -120 160z" />
<glyph unicode="&#x444;" horiz-adv-x="1734" d="M51 461q0 117 32.5 211t85.5 155t125.5 101.5t148.5 58t157 17.5q23 0 88 -9v219q0 150 -84 220h283q70 0 103 7.5t57 26.5v-473q75 14 151.5 7.5t147 -24.5t132 -59t107.5 -94.5t72 -131.5t26 -171q0 -149 -53.5 -263t-142.5 -178t-202.5 -88.5t-237.5 -4.5v-260 q0 -123 71 -179h-502q72 56 72 179v260q-58 -8 -84 -8q-90 0 -171.5 18t-151.5 56.5t-121 94.5t-80 135.5t-29 176.5zM430 496q0 -135 52 -226.5t153 -91.5q26 0 53 6v607q-44 14 -102 14q-16 0 -33 -4.5t-40.5 -23.5t-40.5 -50.5t-29.5 -91t-12.5 -139.5zM1047 193 q47 -15 102 -15q16 0 33 4.5t40.5 23.5t40.5 50.5t29.5 91t12.5 139.5q0 76 -15 136t-40.5 96t-58.5 59t-70 25.5t-74 -4.5v-606z" />
<glyph unicode="&#x445;" horiz-adv-x="980" d="M-47 0l352 494l-239 385q-40 66 -103 104h469q2 -18 8.5 -35t13 -29t27.5 -49l86 -151l74 108q23 34 23 78q0 56 -41 78h356l-305 -420l289 -454q34 -55 96 -109h-477q-8 44 -33 86l-139 240l-117 -176q-14 -21 -14 -54q0 -44 45 -96h-371z" />
<glyph unicode="&#x446;" horiz-adv-x="1214" d="M41 0q72 56 72 178v627q0 122 -72 178h512q-72 -56 -72 -178v-621h236v621q0 122 -72 178h512q-72 -56 -72 -178v-621h150v-460l-184 -58q1 71 -7.5 126.5t-26 90.5t-39 59.5t-49.5 36.5t-53 16.5t-55 4.5h-780z" />
<glyph unicode="&#x447;" horiz-adv-x="1179" d="M0 983h512q-72 -56 -72 -178v-86q0 -44 9 -76.5t21.5 -49t30.5 -26.5t30 -12t26 -2q55 0 141 31v221q0 122 -71 178h512q-72 -56 -72 -178v-627q0 -122 72 -178h-523q82 56 82 178v230q-16 -5 -56.5 -17t-63.5 -18t-57.5 -14t-65 -11.5t-60.5 -3.5q-142 0 -232.5 79.5 t-90.5 242.5v139q0 122 -72 178z" />
<glyph unicode="&#x448;" horiz-adv-x="1679" d="M41 0q72 56 72 178v627q0 122 -72 178h491q-71 -56 -71 -178v-621h205v621q0 122 -72 178h491q-71 -56 -71 -178v-621h205v621q0 122 -72 178h491q-71 -56 -71 -178v-627q0 -122 71 -178h-1597z" />
<glyph unicode="&#x449;" horiz-adv-x="1695" d="M41 0q72 56 72 178v627q0 122 -72 178h491q-71 -56 -71 -178v-621h205v621q0 122 -72 178h491q-71 -56 -71 -178v-621h205v621q0 122 -72 178h491q-71 -56 -71 -178v-621h149v-460l-184 -58q2 84 -11.5 146.5t-35.5 98t-54.5 56t-62 27t-65.5 6.5h-1262z" />
<glyph unicode="&#x44a;" horiz-adv-x="1286" d="M-41 713l61 282q17 -12 41 -12h641q-71 -56 -71 -178v-588q50 -18 110 -18q39 0 67.5 13t43 30.5t23 42t10.5 41t2 34.5q0 45 -13 78.5t-29.5 49.5t-40 25.5t-36.5 11t-27 1.5q-45 0 -92 -12l90 182q71 15 144 15q162 0 267 -91.5t105 -238.5q0 -25 -2.5 -50.5t-14.5 -65 t-31 -73.5t-56.5 -70.5t-87.5 -62.5t-127 -42.5t-172 -16.5h-574q72 56 72 178v621h-125q-99 0 -178 -86z" />
<glyph unicode="&#x44b;" horiz-adv-x="1648" d="M41 0q72 56 72 178v627q0 122 -72 178h512q-72 -56 -72 -178v-588q47 -18 101 -18q69 0 102 44t33 117q0 71 -33 118.5t-102 47.5q-42 0 -82 -12l90 182q70 15 143 15q150 0 251 -91.5t101 -238.5q0 -25 -3 -50.5t-14 -65t-30 -73.5t-55 -70.5t-84 -62.5t-121.5 -42.5 t-163.5 -16.5h-573zM1106 0q72 56 72 178v627q0 122 -72 178h512q-72 -56 -72 -178v-627q0 -122 72 -178h-512z" />
<glyph unicode="&#x44c;" horiz-adv-x="1136" d="M41 0q72 56 72 178v627q0 122 -72 178h512q-72 -56 -72 -178v-588q49 -18 111 -18q39 0 67.5 13t43 30.5t23 42t10 41t1.5 34.5q0 45 -13 78.5t-29.5 49.5t-39.5 25.5t-36.5 11t-26.5 1.5q-46 0 -92 -12l90 182q70 15 143 15q162 0 267.5 -91.5t105.5 -238.5 q0 -25 -3 -50.5t-14.5 -65t-31 -73.5t-57 -70.5t-87.5 -62.5t-127 -42.5t-172 -16.5h-573z" />
<glyph unicode="&#x44d;" horiz-adv-x="1021" d="M-6 301q81 -70 155 -101.5t166 -31.5q69 0 122 23.5t83.5 62.5t45.5 83.5t16 92.5h-201q-100 0 -150 -53v227q27 -10 70 -10h277q-3 39 -15 74.5t-38.5 73t-79.5 60.5t-126 23q-135 0 -253 -86l36 240q43 0 80 6q112 19 226 19q53 0 98.5 -3.5t105 -15t107.5 -31 t96.5 -56t81.5 -84.5t53.5 -121t20.5 -163q0 -261 -165 -405.5t-448 -144.5q-89 0 -151 13t-98 39t-54 56t-28 74z" />
<glyph unicode="&#x44e;" horiz-adv-x="1839" d="M41 0q72 56 72 178v627q0 122 -72 178h512q-72 -56 -72 -178v-197h154q38 183 196.5 289.5t382.5 106.5q265 0 419.5 -139.5t154.5 -364.5q0 -124 -47 -224t-128.5 -164t-188.5 -98t-230 -34q-154 0 -276 50.5t-199.5 152t-89.5 241.5h-148v-246q0 -122 72 -178h-512z M993 516q0 -338 207 -338q199 0 199 301q0 42 -3.5 79t-16.5 85t-35 81.5t-63 57t-97 23.5q-26 0 -49.5 -6t-50.5 -25t-46 -49.5t-32 -84t-13 -124.5z" />
<glyph unicode="&#x44f;" horiz-adv-x="1116" d="M-68 0q69 46 165 173t163 247q-93 14 -150 83.5t-57 170.5q0 317 455 317q67 0 199 -4q246 -4 368 -4q-71 -56 -71 -178v-627q0 -122 71 -178h-512q72 56 72 178v246h-25q-55 -130 -131.5 -254.5t-136.5 -155.5q-42 -22 -131 -22q-68 0 -279 8zM422 651q0 -86 63 -124.5 t150 -30.5v303q-43 14 -92 14q-62 0 -91.5 -48.5t-29.5 -113.5z" />
<glyph unicode="&#x451;" horiz-adv-x="1167" d="M51 487q0 99 37 191t104.5 165t174 117t235.5 44q120 0 213 -34.5t147.5 -87.5t89.5 -123.5t47 -135.5t11 -131h-670q-6 -133 72.5 -223.5t228.5 -90.5q155 0 381 117l-84 -248q-161 -67 -370 -67q-155 0 -274.5 39.5t-193.5 109t-111.5 160.5t-37.5 198zM184 1268 q0 72 46 118t118 46t118 -46t46 -118t-46 -118t-118 -46t-118 46t-46 118zM455 668h286q-1 25 -7.5 48.5t-20.5 47t-42 37.5t-67 14q-62 0 -101.5 -43t-47.5 -104zM655 1268q0 72 46 118t118 46t118 -46t46 -118t-46 -118t-118 -46t-118 46t-46 118z" />
<glyph unicode="&#x452;" horiz-adv-x="1243" d="M2 1108v143h111q-7 121 -82 183h293q70 0 102.5 7.5t56.5 26.5v-217h342v-143h-342v-211q96 107 267 107q78 0 141 -23t105 -60t73 -92t48.5 -110t27.5 -124.5t13 -124.5t3 -120q0 -228 -37.5 -381.5t-101.5 -235t-164 -130.5q-129 -63 -297 -76q115 95 163 277.5 t48 545.5q0 58 -0.5 93t-2.5 84.5t-6.5 79t-12 65.5t-19 57t-27.5 40t-39 27.5t-51 8.5q-131 0 -131 -178v-449q0 -122 72 -178h-512q72 56 72 178v930h-113z" />
<glyph unicode="&#x453;" horiz-adv-x="778" d="M41 0q72 58 72 178v627q0 120 -72 178h711h8.5h8.5h7t7.5 1t7 2t8 2.5t7.5 3.5t9 5v-295q-26 44 -67.5 71t-94.5 26l-172 -4v-617q0 -122 72 -178h-512zM176 1137l545 346l137 -199l-649 -180z" />
<glyph unicode="&#x454;" horiz-adv-x="1015" d="M51 481q0 231 165.5 377t449.5 146q110 0 215 -27l4 -242q-88 70 -211 70q-53 0 -95 -16.5t-65 -39.5t-39 -54.5t-21.5 -54.5t-7.5 -46h271q42 0 69 10v-227q-50 53 -149 53h-186q3 -95 80 -165t188 -70q161 0 301 102l-78 -246q-162 -71 -342 -71q-237 0 -393 139.5 t-156 361.5z" />
<glyph unicode="&#x455;" horiz-adv-x="1013" d="M35 287q82 -57 182 -90t189 -33q67 0 113 20t46 62q0 21 -7 35.5t-25 25t-32.5 16.5t-46 15.5t-48.5 15.5q-44 15 -70.5 25t-67.5 28t-66.5 35t-55 43t-46 55t-28 68t-11.5 84q0 68 26 122.5t81.5 98t151.5 67.5t227 24q168 0 332 -54v-215q-149 84 -275 84 q-42 0 -71.5 -7.5t-42.5 -19t-18 -21.5t-5 -19q0 -11 4.5 -21t14 -17.5t18.5 -13t24 -11t25 -9t27 -8t24 -6.5q91 -28 155 -56.5t117.5 -69.5t80 -96.5t26.5 -126.5q0 -146 -135 -241.5t-373 -95.5q-202 0 -399 59z" />
<glyph unicode="&#x456;" horiz-adv-x="595" d="M41 983h293q70 0 103 7.5t57 27.5v-840q0 -122 71 -178h-512q72 56 72 178v586q0 149 -84 219zM80 1264q0 86 61.5 147.5t147.5 61.5t147.5 -61.5t61.5 -147.5t-61.5 -147.5t-147.5 -61.5t-147.5 61.5t-61.5 147.5z" />
<glyph unicode="&#x457;" horiz-adv-x="593" d="M-102 1268q0 68 48 116t115 48t115.5 -48t48.5 -116t-48.5 -116t-115.5 -48t-115 48t-48 116zM39 983h293q70 0 103 7.5t57 27.5v-840q0 -122 71 -178h-512q72 56 72 178v586q0 149 -84 219zM369 1268q0 68 48 116t115 48q68 0 116 -48t48 -116t-48 -116t-116 -48 q-67 0 -115 48t-48 116z" />
<glyph unicode="&#x458;" horiz-adv-x="581" d="M-82 -473q31 26 56 55.5t43 61t32.5 66.5t23.5 71t15.5 74.5t9.5 77.5t4.5 80t1.5 81v82v45v543q0 149 -84 219h293q70 0 103 7.5t57 27.5v-789q0 -118 -2.5 -190.5t-11 -142.5t-22.5 -110t-40.5 -77t-62.5 -60.5t-90 -45.5q-143 -58 -326 -76zM53 1264q0 86 61.5 147.5 t147.5 61.5t147.5 -61.5t61.5 -147.5t-61.5 -147.5t-147.5 -61.5t-147.5 61.5t-61.5 147.5z" />
<glyph unicode="&#x459;" horiz-adv-x="1583" d="M-37 246q50 -17 76 -17q49 0 81.5 34t46.5 98.5t18.5 122.5t4.5 141q0 154 -9 204q-17 98 -85 154h901q-69 -59 -69 -178v-588q50 -18 110 -18q39 0 67.5 13t43 30.5t23 42t10.5 41t2 34.5q0 45 -13 78.5t-29.5 49.5t-40 25.5t-36.5 11t-27 1.5q-46 0 -92 -12l90 182 q70 15 144 15q162 0 267 -91.5t105 -238.5q0 -25 -2.5 -50.5t-14.5 -65t-31 -73.5t-56.5 -70.5t-87.5 -62.5t-127 -42.5t-172 -16.5h-574q72 56 72 178v621h-184v-156q0 -86 -2.5 -150.5t-10 -137t-21.5 -124.5t-37.5 -102t-56.5 -81t-80.5 -49.5t-107.5 -18.5q-39 0 -84 18 z" />
<glyph unicode="&#x45a;" horiz-adv-x="1771" d="M41 0q72 56 72 178v627q0 122 -72 178h512q-72 -56 -72 -178v-187h256v187q0 122 -71 178h512q-72 -56 -72 -178v-588q50 -18 111 -18q39 0 67.5 13t43 30.5t23 42t10 41t1.5 34.5q0 45 -13 78.5t-29.5 49.5t-39.5 25.5t-36.5 11t-26.5 1.5q-47 0 -93 -12l90 182 q70 15 144 15q162 0 267.5 -91.5t105.5 -238.5q0 -25 -3 -50.5t-14.5 -65t-31 -73.5t-57 -70.5t-87.5 -62.5t-127 -42.5t-172 -16.5h-573q71 56 71 178v256h-256v-256q0 -122 72 -178h-512z" />
<glyph unicode="&#x45b;" horiz-adv-x="1218" d="M2 1108v143h111q-7 121 -82 183h293q70 0 102.5 7.5t56.5 26.5v-217h342v-143h-342v-211q99 107 267 107q45 0 87 -6.5t95 -29.5t91.5 -61t65.5 -109t27 -165v-455q0 -122 72 -178h-512q72 56 72 178v463q0 14 -2 30.5t-10 42t-21.5 44.5t-39.5 33t-61 14 q-131 0 -131 -178v-449q0 -122 72 -178h-512q72 56 72 178v930h-113z" />
<glyph unicode="&#x45c;" horiz-adv-x="1142" d="M41 0q72 56 72 178v627q0 122 -72 178h510q-70 -60 -70 -178v-264l211 250q39 44 39 81q0 60 -74 111h480l-351 -399l322 -449q61 -83 127 -135l-340 -8q-40 -1 -62 2.5t-51.5 20.5t-58 54t-66.5 101l-176 301v-293q0 -122 72 -178h-512zM299 1135l545 346l137 -199 l-649 -180z" />
<glyph unicode="&#x45e;" horiz-adv-x="950" d="M-102 983h460l238 -600l129 381q27 82 27 106q0 58 -62 113h318l-416 -1106q-36 -94 -63 -138q-131 -208 -439 -208q-70 0 -125 8l164 209q36 -4 55 -4q47 0 86.5 16.5t63 37t42.5 49t25.5 43.5t10.5 28l28 88q-20 14 -37 27t-31.5 28.5t-24.5 25t-21 27.5t-16.5 24.5 t-15.5 28t-12 26.5t-13 31t-13 30l-238 569q-44 104 -120 160zM182 1423h275q-42 -40 -38.5 -75t37.5 -58.5t79 -23.5q46 0 80.5 24t37.5 58.5t-41 74.5h275q10 -147 -93.5 -237t-258.5 -90t-259 90t-94 237z" />
<glyph unicode="&#x45f;" horiz-adv-x="1200" d="M41 0q72 56 72 178v627q0 122 -72 178h512q-72 -56 -72 -178v-621h238v621q0 122 -72 178h512q-72 -56 -72 -178v-627q0 -122 72 -178h-375v-141q0 -63 13.5 -106t50.5 -77h-504q72 56 72 179v145h-375z" />
<glyph unicode="&#x490;" horiz-adv-x="958" d="M72 0q51 39 68.5 94t17.5 129v987q0 74 -17.5 129.5t-68.5 94.5h729q36 0 54.5 1t48.5 7.5t52.5 22.5t42.5 42v-325q-21 18 -53 18h-399v-977q0 -74 17.5 -129t68.5 -94h-561z" />
<glyph unicode="&#x491;" horiz-adv-x="759" d="M41 0q72 56 72 178v627q0 122 -72 178h600q124 0 154 76v-283q-29 23 -74 23h-240v-621q0 -122 72 -178h-512z" />
<glyph unicode="&#x2000;" horiz-adv-x="953" />
<glyph unicode="&#x2001;" horiz-adv-x="1907" />
<glyph unicode="&#x2002;" horiz-adv-x="953" />
<glyph unicode="&#x2003;" horiz-adv-x="1907" />
<glyph unicode="&#x2004;" horiz-adv-x="635" />
<glyph unicode="&#x2005;" horiz-adv-x="476" />
<glyph unicode="&#x2006;" horiz-adv-x="317" />
<glyph unicode="&#x2007;" horiz-adv-x="317" />
<glyph unicode="&#x2008;" horiz-adv-x="238" />
<glyph unicode="&#x2009;" horiz-adv-x="381" />
<glyph unicode="&#x200a;" horiz-adv-x="105" />
<glyph unicode="&#x2010;" horiz-adv-x="944" d="M82 430l160 213q26 35 65 35h555l-160 -213q-26 -35 -65 -35h-555z" />
<glyph unicode="&#x2011;" horiz-adv-x="944" d="M82 430l160 213q26 35 65 35h555l-160 -213q-26 -35 -65 -35h-555z" />
<glyph unicode="&#x2012;" horiz-adv-x="944" d="M82 430l160 213q26 35 65 35h555l-160 -213q-26 -35 -65 -35h-555z" />
<glyph unicode="&#x2013;" horiz-adv-x="1406" d="M82 455l156 209q4 5 13 17.5t12 16t10.5 12t11.5 11t12 8t15.5 7t18.5 4t23.5 3t28.5 0.5h639q73 0 137 13.5t166 60.5l-151 -207q-20 -29 -27 -37.5t-24.5 -22t-38.5 -17t-56 -3.5h-641q-156 0 -305 -75z" />
<glyph unicode="&#x2014;" horiz-adv-x="2101" d="M246 473l137 184q3 5 13.5 19t13 16.5t11 12t13.5 11.5t15 7t20.5 6t25 2.5t33.5 1.5h1041q72 0 133.5 13t152.5 55l-135 -185q-26 -35 -36.5 -46t-36.5 -20t-72 -9h-1043q-147 0 -286 -68z" />
<glyph unicode="&#x2018;" horiz-adv-x="524" d="M61 1231q0 20 5.5 47t24 80.5t68 124t124.5 141.5q33 14 98 14q35 0 82 -6q-147 -141 -203 -243q85 1 135.5 -49.5t50.5 -122.5q0 -73 -50 -133t-140 -60q-87 0 -141 58t-54 149z" />
<glyph unicode="&#x2019;" horiz-adv-x="524" d="M61 866q146 140 203 244q-85 -1 -135.5 49.5t-50.5 122.5q0 73 50 133t140 60q87 0 141 -58t54 -149q0 -21 -5.5 -48t-23.5 -80.5t-67.5 -124t-124.5 -141.5q-33 -14 -99 -14q-35 0 -82 6z" />
<glyph unicode="&#x201a;" horiz-adv-x="524" d="M61 -285q146 140 203 244q-85 -1 -135.5 49.5t-50.5 122.5q0 73 50 133t140 60q87 0 141 -58t54 -149q0 -15 -2 -32.5t-14.5 -59t-33.5 -83.5t-65.5 -101t-105.5 -117q-35 -15 -99 -15q-35 0 -82 6z" />
<glyph unicode="&#x201c;" horiz-adv-x="1048" d="M61 1231q0 20 5.5 47t24 80.5t68 124t124.5 141.5q33 14 98 14q35 0 82 -6q-147 -141 -203 -243q85 1 135.5 -49.5t50.5 -122.5q0 -73 -50 -133t-140 -60q-87 0 -141 58t-54 149zM586 1231q0 15 2 32.5t14.5 59t33.5 83.5t65.5 101t105.5 117q33 14 98 14q35 0 82 -6 q-147 -141 -203 -243q85 1 136 -50t51 -122q0 -73 -50.5 -133t-140.5 -60q-87 0 -140.5 58t-53.5 149z" />
<glyph unicode="&#x201d;" horiz-adv-x="1048" d="M61 866q146 140 203 244q-85 -1 -135.5 49.5t-50.5 122.5q0 73 50 133t140 60q87 0 141 -58t54 -149q0 -21 -5.5 -48t-23.5 -80.5t-67.5 -124t-124.5 -141.5q-33 -14 -99 -14q-35 0 -82 6zM586 866q144 138 202 244q-85 -1 -135.5 49.5t-50.5 122.5q0 73 50.5 133 t140.5 60q87 0 140.5 -58t53.5 -149q0 -21 -5.5 -48t-23.5 -80.5t-67.5 -124t-124.5 -141.5q-33 -14 -98 -14q-36 0 -82 6z" />
<glyph unicode="&#x201e;" horiz-adv-x="1048" d="M61 -285q146 140 203 244q-85 -1 -135.5 49.5t-50.5 122.5q0 73 50 133t140 60q87 0 141 -58t54 -149q0 -15 -2 -32.5t-14.5 -59t-33.5 -83.5t-65.5 -101t-105.5 -117q-35 -15 -99 -15q-35 0 -82 6zM586 -285q144 138 202 244q-85 -1 -135.5 49.5t-50.5 122.5 q0 73 50.5 133t140.5 60q87 0 140.5 -58t53.5 -149q0 -15 -2 -32.5t-14.5 -59t-33.5 -83.5t-65.5 -101t-105.5 -117q-35 -15 -98 -15q-36 0 -82 6z" />
<glyph unicode="&#x2022;" horiz-adv-x="1040" d="M205 594q0 129 93 222t222 93t222.5 -93t93.5 -222t-93.5 -222t-222.5 -93t-222 93t-93 222z" />
<glyph unicode="&#x2026;" horiz-adv-x="1904" d="M61 154q0 79 57.5 136.5t137.5 57.5t137.5 -57.5t57.5 -136.5q0 -80 -57.5 -137.5t-137.5 -57.5t-137.5 57.5t-57.5 137.5zM758 154q0 80 57 137t137 57t137.5 -57.5t57.5 -136.5q0 -80 -57.5 -137.5t-137.5 -57.5q-79 0 -136.5 57.5t-57.5 137.5zM1454 154 q0 79 57.5 136.5t137.5 57.5q79 0 136.5 -57t57.5 -137t-57.5 -137.5t-136.5 -57.5t-137 57.5t-58 137.5z" />
<glyph unicode="&#x202f;" horiz-adv-x="381" />
<glyph unicode="&#x2039;" horiz-adv-x="528" d="M82 539l254 391h110l-141 -391l141 -392h-110z" />
<glyph unicode="&#x203a;" horiz-adv-x="528" d="M82 147l141 392l-141 391h111l253 -391l-253 -392h-111z" />
<glyph unicode="&#x205f;" horiz-adv-x="476" />
<glyph unicode="&#x20ac;" d="M41 522l49 115h92q-4 40 -4 68q0 8 1 30t1 31h-139l49 113h100q38 291 185 443.5t434 152.5q268 0 383 -107l16 -227h-57q-38 217 -260 217q-101 0 -168.5 -59.5t-101.5 -162t-48 -257.5h508l-51 -113h-461q0 -12 -1 -34t-1 -32q0 -47 2 -63h406l-51 -115h-351 q13 -216 96.5 -331t223.5 -115q101 0 170 51.5t88 159.5h57l-16 -217q-55 -53 -142.5 -81t-240.5 -28q-279 0 -426 142.5t-182 418.5h-160z" />
<glyph unicode="&#x2122;" horiz-adv-x="1370" d="M41 1292l35 146q8 -4 24 -4h420q17 0 25 4l-31 -142q-26 37 -78 37h-61v-428q0 -49 24 -82q2 -3 15 -16h-246q24 16 30.5 37t6.5 61v428h-60q-50 0 -104 -41zM498 807q15 15 24 34.5t11.5 32.5t5.5 37l51 400q8 28 2.5 63t-35.5 60h215l137 -373l117 373h227 q-41 -15 -34 -91l43 -405q2 -25 3 -36t12 -40t32 -55h-248q22 24 26.5 55.5t-0.5 65.5l-28 291l-131 -422q-58 19 -97 49q-34 25 -49 69l-112 302l-33 -302q-5 -43 3 -65.5t36 -42.5h-178z" />
<glyph unicode="&#xe000;" horiz-adv-x="983" d="M0 0v983h983v-983h-983z" />
</font>
</defs>
</svg>
